%TF.GenerationSoftware,KiCad,Pcbnew,7.0.6*%
%TF.CreationDate,2023-07-26T19:08:01+01:00*%
%TF.ProjectId,Hypersoniq_Controls,48797065-7273-46f6-9e69-715f436f6e74,rev?*%
%TF.SameCoordinates,Original*%
%TF.FileFunction,Copper,L1,Top*%
%TF.FilePolarity,Positive*%
%FSLAX46Y46*%
G04 Gerber Fmt 4.6, Leading zero omitted, Abs format (unit mm)*
G04 Created by KiCad (PCBNEW 7.0.6) date 2023-07-26 19:08:01*
%MOMM*%
%LPD*%
G01*
G04 APERTURE LIST*
%TA.AperFunction,ComponentPad*%
%ADD10C,2.000000*%
%TD*%
%TA.AperFunction,ComponentPad*%
%ADD11R,2.500000X1.000000*%
%TD*%
%TA.AperFunction,WasherPad*%
%ADD12C,3.500000*%
%TD*%
%TA.AperFunction,ComponentPad*%
%ADD13C,1.800000*%
%TD*%
%TA.AperFunction,ComponentPad*%
%ADD14R,1.000000X2.500000*%
%TD*%
%TA.AperFunction,WasherPad*%
%ADD15C,3.650000*%
%TD*%
%TA.AperFunction,ComponentPad*%
%ADD16R,1.500000X1.500000*%
%TD*%
%TA.AperFunction,ComponentPad*%
%ADD17C,1.500000*%
%TD*%
%TA.AperFunction,ComponentPad*%
%ADD18R,1.700000X1.700000*%
%TD*%
%TA.AperFunction,ComponentPad*%
%ADD19O,1.700000X1.700000*%
%TD*%
%TA.AperFunction,ViaPad*%
%ADD20C,0.800000*%
%TD*%
%TA.AperFunction,Conductor*%
%ADD21C,0.300000*%
%TD*%
G04 APERTURE END LIST*
D10*
%TO.P,TP3,1,1*%
%TO.N,GND*%
X58800000Y-55500000D03*
%TD*%
D11*
%TO.P,J11,1*%
%TO.N,GND*%
X70200000Y-133520000D03*
%TO.P,J11,2*%
X70200000Y-136620000D03*
%TO.P,J11,3*%
%TO.N,/FREQ_JACK*%
X70200000Y-144920000D03*
%TD*%
D12*
%TO.P,Q_CTRL1,*%
%TO.N,*%
X58500000Y-76600000D03*
X67300000Y-76600000D03*
D13*
%TO.P,Q_CTRL1,1,1*%
%TO.N,+12V*%
X65400000Y-83600000D03*
%TO.P,Q_CTRL1,2,2*%
%TO.N,/Q_POT*%
X62900000Y-83600000D03*
%TO.P,Q_CTRL1,3,3*%
%TO.N,GND*%
X60400000Y-83600000D03*
%TD*%
D10*
%TO.P,TP4,1,1*%
%TO.N,GND*%
X86900000Y-147400000D03*
%TD*%
D14*
%TO.P,J12,1*%
%TO.N,GND*%
X76620000Y-141500000D03*
%TO.P,J12,2*%
%TO.N,unconnected-(J12-Pad2)*%
X79720000Y-141500000D03*
%TO.P,J12,3*%
%TO.N,/AUDIO_MIX_4POLE*%
X88020000Y-141500000D03*
%TD*%
%TO.P,J6,1*%
%TO.N,GND*%
X64280000Y-141500000D03*
%TO.P,J6,2*%
%TO.N,unconnected-(J6-Pad2)*%
X61180000Y-141500000D03*
%TO.P,J6,3*%
%TO.N,/AUDIO_MIX_1POLE*%
X52880000Y-141500000D03*
%TD*%
D15*
%TO.P,J4,*%
%TO.N,*%
X54730000Y-105700000D03*
X66160000Y-105700000D03*
D16*
%TO.P,J4,1*%
%TO.N,/AUDIO_IN1*%
X56000000Y-99350000D03*
D17*
%TO.P,J4,2*%
%TO.N,/AUDIO_IN2*%
X57270000Y-96810000D03*
%TO.P,J4,3*%
%TO.N,/AUDIO_IN3*%
X58540000Y-99350000D03*
%TO.P,J4,4*%
%TO.N,/AUDIO_IN4*%
X59810000Y-96810000D03*
%TO.P,J4,5*%
%TO.N,unconnected-(J4-Pad5)*%
X61080000Y-99350000D03*
%TO.P,J4,6*%
%TO.N,unconnected-(J4-Pad6)*%
X62350000Y-96810000D03*
%TO.P,J4,7*%
%TO.N,unconnected-(J4-Pad7)*%
X63620000Y-99350000D03*
%TO.P,J4,8*%
%TO.N,unconnected-(J4-Pad8)*%
X64890000Y-96810000D03*
%TD*%
D10*
%TO.P,TP1,1,1*%
%TO.N,+12V*%
X53700000Y-55470000D03*
%TD*%
D15*
%TO.P,J5,*%
%TO.N,*%
X54730000Y-125800000D03*
X66160000Y-125800000D03*
D16*
%TO.P,J5,1*%
%TO.N,/1POLE_OUT1*%
X56000000Y-119450000D03*
D17*
%TO.P,J5,2*%
%TO.N,/1POLE_OUT2*%
X57270000Y-116910000D03*
%TO.P,J5,3*%
%TO.N,/1POLE_OUT3*%
X58540000Y-119450000D03*
%TO.P,J5,4*%
%TO.N,/1POLE_OUT4*%
X59810000Y-116910000D03*
%TO.P,J5,5*%
%TO.N,unconnected-(J5-Pad5)*%
X61080000Y-119450000D03*
%TO.P,J5,6*%
%TO.N,unconnected-(J5-Pad6)*%
X62350000Y-116910000D03*
%TO.P,J5,7*%
%TO.N,unconnected-(J5-Pad7)*%
X63620000Y-119450000D03*
%TO.P,J5,8*%
%TO.N,unconnected-(J5-Pad8)*%
X64890000Y-116910000D03*
%TD*%
D15*
%TO.P,J8,*%
%TO.N,*%
X74330000Y-125800000D03*
X85760000Y-125800000D03*
D16*
%TO.P,J8,1*%
%TO.N,/4POLE_OUT1*%
X75600000Y-119450000D03*
D17*
%TO.P,J8,2*%
%TO.N,/4POLE_OUT2*%
X76870000Y-116910000D03*
%TO.P,J8,3*%
%TO.N,/4POLE_OUT3*%
X78140000Y-119450000D03*
%TO.P,J8,4*%
%TO.N,/4POLE_OUT4*%
X79410000Y-116910000D03*
%TO.P,J8,5*%
%TO.N,unconnected-(J8-Pad5)*%
X80680000Y-119450000D03*
%TO.P,J8,6*%
%TO.N,unconnected-(J8-Pad6)*%
X81950000Y-116910000D03*
%TO.P,J8,7*%
%TO.N,unconnected-(J8-Pad7)*%
X83220000Y-119450000D03*
%TO.P,J8,8*%
%TO.N,unconnected-(J8-Pad8)*%
X84490000Y-116910000D03*
%TD*%
D15*
%TO.P,J7,*%
%TO.N,*%
X74330000Y-105700000D03*
X85760000Y-105700000D03*
D16*
%TO.P,J7,1*%
%TO.N,/FREQ_CV1*%
X75600000Y-99350000D03*
D17*
%TO.P,J7,2*%
%TO.N,/FREQ_CV2*%
X76870000Y-96810000D03*
%TO.P,J7,3*%
%TO.N,/FREQ_CV3*%
X78140000Y-99350000D03*
%TO.P,J7,4*%
%TO.N,/FREQ_CV4*%
X79410000Y-96810000D03*
%TO.P,J7,5*%
%TO.N,unconnected-(J7-Pad5)*%
X80680000Y-99350000D03*
%TO.P,J7,6*%
%TO.N,unconnected-(J7-Pad6)*%
X81950000Y-96810000D03*
%TO.P,J7,7*%
%TO.N,unconnected-(J7-Pad7)*%
X83220000Y-99350000D03*
%TO.P,J7,8*%
%TO.N,unconnected-(J7-Pad8)*%
X84490000Y-96810000D03*
%TD*%
D12*
%TO.P,FREQ_POT1,*%
%TO.N,*%
X71200000Y-53800000D03*
X80000000Y-53800000D03*
D13*
%TO.P,FREQ_POT1,1,1*%
%TO.N,/FREQ_POT_VH*%
X78100000Y-60800000D03*
%TO.P,FREQ_POT1,2,2*%
%TO.N,/FREQ_POT*%
X75600000Y-60800000D03*
%TO.P,FREQ_POT1,3,3*%
%TO.N,/FREQ_POT_VL*%
X73100000Y-60800000D03*
%TD*%
D18*
%TO.P,J3,1,Pin_1*%
%TO.N,/FREQ_CV3*%
X58800000Y-147900000D03*
D19*
%TO.P,J3,2,Pin_2*%
%TO.N,/AUDIO_IN3*%
X61340000Y-147900000D03*
%TO.P,J3,3,Pin_3*%
%TO.N,/1POLE_OUT3*%
X63880000Y-147900000D03*
%TO.P,J3,4,Pin_4*%
%TO.N,/FREQ_POT*%
X66420000Y-147900000D03*
%TO.P,J3,5,Pin_5*%
%TO.N,-12V*%
X68960000Y-147900000D03*
%TO.P,J3,6,Pin_6*%
%TO.N,/AUDIO_IN4*%
X71500000Y-147900000D03*
%TO.P,J3,7,Pin_7*%
%TO.N,GND*%
X74040000Y-147900000D03*
%TO.P,J3,8,Pin_8*%
X76580000Y-147900000D03*
%TO.P,J3,9,Pin_9*%
%TO.N,/FREQ_CV4*%
X79120000Y-147900000D03*
%TO.P,J3,10,Pin_10*%
%TO.N,/FREQ_JACK*%
X81660000Y-147900000D03*
%TD*%
D18*
%TO.P,J1,1,Pin_1*%
%TO.N,/FREQ_POT_VL*%
X87900000Y-62800000D03*
D19*
%TO.P,J1,2,Pin_2*%
%TO.N,/4POLE_OUT2*%
X87900000Y-65340000D03*
%TO.P,J1,3,Pin_3*%
%TO.N,/4POLE_OUT3*%
X87900000Y-67880000D03*
%TO.P,J1,4,Pin_4*%
%TO.N,/4POLE_OUT4*%
X87900000Y-70420000D03*
%TO.P,J1,5,Pin_5*%
%TO.N,/AUDIO_MIX_4POLE*%
X87900000Y-72960000D03*
%TO.P,J1,6,Pin_6*%
%TO.N,GND*%
X87900000Y-75500000D03*
%TO.P,J1,7,Pin_7*%
%TO.N,/1POLE_OUT1*%
X87900000Y-78040000D03*
%TO.P,J1,8,Pin_8*%
%TO.N,/Q_POT*%
X87900000Y-80580000D03*
%TO.P,J1,9,Pin_9*%
%TO.N,/AUDIO_IN1*%
X87900000Y-83120000D03*
%TO.P,J1,10,Pin_10*%
%TO.N,/FREQ_CV1*%
X87900000Y-85660000D03*
%TD*%
D18*
%TO.P,J2,1,Pin_1*%
%TO.N,+12V*%
X52400000Y-62800000D03*
D19*
%TO.P,J2,2,Pin_2*%
%TO.N,/4POLE_OUT1*%
X52400000Y-65340000D03*
%TO.P,J2,3,Pin_3*%
%TO.N,/FREQ_POT_VH*%
X52400000Y-67880000D03*
%TO.P,J2,4,Pin_4*%
%TO.N,/1POLE_OUT4*%
X52400000Y-70420000D03*
%TO.P,J2,5,Pin_5*%
%TO.N,/AUDIO_MIX_1POLE*%
X52400000Y-72960000D03*
%TO.P,J2,6,Pin_6*%
%TO.N,GND*%
X52400000Y-75500000D03*
%TO.P,J2,7,Pin_7*%
X52400000Y-78040000D03*
%TO.P,J2,8,Pin_8*%
%TO.N,/AUDIO_IN2*%
X52400000Y-80580000D03*
%TO.P,J2,9,Pin_9*%
%TO.N,/1POLE_OUT2*%
X52400000Y-83120000D03*
%TO.P,J2,10,Pin_10*%
%TO.N,/FREQ_CV2*%
X52400000Y-85660000D03*
%TD*%
D20*
%TO.N,GND*%
X75000000Y-65500000D03*
X82900000Y-62900000D03*
X81300000Y-89800000D03*
X55900000Y-102200000D03*
X51800000Y-148400000D03*
X66800000Y-121900000D03*
X58000000Y-64000000D03*
X62200000Y-111100000D03*
X67700000Y-116500000D03*
X87000000Y-133900000D03*
X88000000Y-88500000D03*
X73000000Y-113100000D03*
X76600000Y-103600000D03*
X84600000Y-109500000D03*
X73200000Y-122600000D03*
X56400000Y-129900000D03*
X62000000Y-92000000D03*
X81700000Y-124700000D03*
X87900000Y-55300000D03*
X68200000Y-90700000D03*
X81000000Y-77800000D03*
X66300000Y-109000000D03*
X64000000Y-70100000D03*
X56200000Y-70300000D03*
X75500000Y-130000000D03*
X54300000Y-90200000D03*
X63200000Y-131200000D03*
X55600000Y-85600000D03*
X75800000Y-82000000D03*
X53800000Y-122800000D03*
X68200000Y-102900000D03*
X53900000Y-117100000D03*
X87200000Y-118100000D03*
X53100000Y-96800000D03*
%TD*%
D21*
%TO.N,/FREQ_POT*%
X76900000Y-101400000D02*
X75900000Y-102400000D01*
X75600000Y-60800000D02*
X78200000Y-63400000D01*
X78200000Y-97400000D02*
X76900000Y-98700000D01*
X71400000Y-104100000D02*
X71400000Y-127800000D01*
X75900000Y-102400000D02*
X73100000Y-102400000D01*
X72800000Y-148700000D02*
X72100000Y-149400000D01*
X76900000Y-98700000D02*
X76900000Y-101400000D01*
X67920000Y-149400000D02*
X66420000Y-147900000D01*
X78200000Y-63400000D02*
X78200000Y-97400000D01*
X72100000Y-149400000D02*
X67920000Y-149400000D01*
X73100000Y-102400000D02*
X71400000Y-104100000D01*
X72800000Y-129200000D02*
X72800000Y-148700000D01*
X71400000Y-127800000D02*
X72800000Y-129200000D01*
%TO.N,/FREQ_POT_VL*%
X74450000Y-58600000D02*
X73100000Y-59950000D01*
X87900000Y-62800000D02*
X87900000Y-61000000D01*
X85500000Y-58600000D02*
X74450000Y-58600000D01*
X73100000Y-59950000D02*
X73100000Y-60800000D01*
X87900000Y-61000000D02*
X85500000Y-58600000D01*
%TO.N,/4POLE_OUT2*%
X85700000Y-99300000D02*
X85700000Y-95300000D01*
X85700000Y-95300000D02*
X84100000Y-93700000D01*
X76870000Y-115430000D02*
X79700000Y-112600000D01*
X79700000Y-105300000D02*
X85700000Y-99300000D01*
X76870000Y-116910000D02*
X76870000Y-115430000D01*
X84100000Y-69140000D02*
X87900000Y-65340000D01*
X79700000Y-112600000D02*
X79700000Y-105300000D01*
X84100000Y-93700000D02*
X84100000Y-69140000D01*
%TO.N,/4POLE_OUT3*%
X85100000Y-92800000D02*
X85100000Y-70680000D01*
X86800000Y-94500000D02*
X85100000Y-92800000D01*
X86800000Y-99600000D02*
X86800000Y-94500000D01*
X81300000Y-105100000D02*
X86800000Y-99600000D01*
X81300000Y-112600000D02*
X81300000Y-105100000D01*
X78140000Y-115760000D02*
X81300000Y-112600000D01*
X78140000Y-119450000D02*
X78140000Y-115760000D01*
X85100000Y-70680000D02*
X87900000Y-67880000D01*
%TO.N,/4POLE_OUT4*%
X87800000Y-99900000D02*
X87800000Y-93700000D01*
X87800000Y-93700000D02*
X86100000Y-92000000D01*
X86100000Y-72220000D02*
X87900000Y-70420000D01*
X86100000Y-92000000D02*
X86100000Y-72220000D01*
X82800000Y-104900000D02*
X87800000Y-99900000D01*
X79410000Y-116910000D02*
X82800000Y-113520000D01*
X82800000Y-113520000D02*
X82800000Y-104900000D01*
%TO.N,/AUDIO_MIX_4POLE*%
X89500000Y-74560000D02*
X87900000Y-72960000D01*
X89500000Y-140020000D02*
X89500000Y-74560000D01*
X88020000Y-141500000D02*
X89500000Y-140020000D01*
%TO.N,/AUDIO_MIX_1POLE*%
X50700000Y-74660000D02*
X52400000Y-72960000D01*
X52880000Y-141500000D02*
X50700000Y-139320000D01*
X50700000Y-139320000D02*
X50700000Y-74660000D01*
%TO.N,/AUDIO_IN4*%
X59810000Y-96810000D02*
X59810000Y-105810000D01*
X59810000Y-105810000D02*
X69500000Y-115500000D01*
X67400000Y-145200000D02*
X68600000Y-146400000D01*
X70000000Y-146400000D02*
X71500000Y-147900000D01*
X68600000Y-146400000D02*
X70000000Y-146400000D01*
X67400000Y-130400000D02*
X67400000Y-145200000D01*
X69500000Y-128300000D02*
X67400000Y-130400000D01*
X69500000Y-115500000D02*
X69500000Y-128300000D01*
%TO.N,/FREQ_CV2*%
X74860000Y-94800000D02*
X61540000Y-94800000D01*
X76870000Y-96810000D02*
X74860000Y-94800000D01*
X61540000Y-94800000D02*
X52400000Y-85660000D01*
%TO.N,/AUDIO_IN3*%
X58540000Y-99350000D02*
X58540000Y-105860000D01*
X58450000Y-145150000D02*
X61200000Y-147900000D01*
X56350000Y-145150000D02*
X58450000Y-145150000D01*
X58540000Y-105860000D02*
X52000000Y-112400000D01*
X54700000Y-134800000D02*
X54700000Y-143500000D01*
X52000000Y-132100000D02*
X54700000Y-134800000D01*
X54700000Y-143500000D02*
X56350000Y-145150000D01*
X61200000Y-147900000D02*
X61340000Y-147900000D01*
X52000000Y-112400000D02*
X52000000Y-132100000D01*
%TO.N,+12V*%
X52400000Y-56770000D02*
X53700000Y-55470000D01*
X63000000Y-73400000D02*
X52400000Y-62800000D01*
X52400000Y-62800000D02*
X52400000Y-56770000D01*
X65400000Y-83600000D02*
X63000000Y-81200000D01*
X63000000Y-81200000D02*
X63000000Y-73400000D01*
%TO.N,/1POLE_OUT3*%
X58540000Y-119450000D02*
X60200000Y-121110000D01*
X60200000Y-144220000D02*
X63880000Y-147900000D01*
X60200000Y-121110000D02*
X60200000Y-144220000D01*
%TO.N,/FREQ_CV4*%
X73900000Y-120600000D02*
X73900000Y-116200000D01*
X73900000Y-116200000D02*
X78000000Y-112100000D01*
X77700000Y-124400000D02*
X73900000Y-120600000D01*
X77700000Y-146480000D02*
X77700000Y-124400000D01*
X79410000Y-103790000D02*
X79410000Y-96810000D01*
X78000000Y-112100000D02*
X78000000Y-105200000D01*
X79120000Y-147900000D02*
X77700000Y-146480000D01*
X78000000Y-105200000D02*
X79410000Y-103790000D01*
%TD*%
%TA.AperFunction,Conductor*%
%TO.N,GND*%
G36*
X86967012Y-86653498D02*
G01*
X86975738Y-86661966D01*
X86976758Y-86662905D01*
X86999494Y-86680601D01*
X87154424Y-86801189D01*
X87352426Y-86908342D01*
X87352427Y-86908342D01*
X87352428Y-86908343D01*
X87464227Y-86946723D01*
X87565365Y-86981444D01*
X87787431Y-87018500D01*
X87787435Y-87018500D01*
X88012565Y-87018500D01*
X88012569Y-87018500D01*
X88234635Y-86981444D01*
X88447574Y-86908342D01*
X88645576Y-86801189D01*
X88645586Y-86801181D01*
X88646571Y-86800538D01*
X88647040Y-86800396D01*
X88650160Y-86798708D01*
X88650507Y-86799349D01*
X88714537Y-86780016D01*
X88782809Y-86799497D01*
X88829710Y-86852796D01*
X88841500Y-86906012D01*
X88841500Y-139645720D01*
X88821498Y-139713841D01*
X88767842Y-139760334D01*
X88697568Y-139770438D01*
X88671470Y-139763776D01*
X88629201Y-139748011D01*
X88629199Y-139748010D01*
X88629197Y-139748010D01*
X88629196Y-139748009D01*
X88568649Y-139741500D01*
X88568638Y-139741500D01*
X87471362Y-139741500D01*
X87471350Y-139741500D01*
X87410803Y-139748009D01*
X87410795Y-139748011D01*
X87273797Y-139799110D01*
X87273792Y-139799112D01*
X87156738Y-139886738D01*
X87069112Y-140003792D01*
X87069110Y-140003797D01*
X87018011Y-140140795D01*
X87018009Y-140140803D01*
X87011500Y-140201350D01*
X87011500Y-142798649D01*
X87018009Y-142859196D01*
X87018011Y-142859204D01*
X87069110Y-142996202D01*
X87069112Y-142996207D01*
X87156738Y-143113261D01*
X87273792Y-143200887D01*
X87273794Y-143200888D01*
X87273796Y-143200889D01*
X87332875Y-143222924D01*
X87410795Y-143251988D01*
X87410803Y-143251990D01*
X87471350Y-143258499D01*
X87471355Y-143258499D01*
X87471362Y-143258500D01*
X87471368Y-143258500D01*
X88568632Y-143258500D01*
X88568638Y-143258500D01*
X88568645Y-143258499D01*
X88568649Y-143258499D01*
X88629196Y-143251990D01*
X88629199Y-143251989D01*
X88629201Y-143251989D01*
X88766204Y-143200889D01*
X88766799Y-143200444D01*
X88883261Y-143113261D01*
X88970887Y-142996207D01*
X88970887Y-142996206D01*
X88970889Y-142996204D01*
X89021989Y-142859201D01*
X89028500Y-142798638D01*
X89028500Y-141474949D01*
X89048502Y-141406829D01*
X89065400Y-141385859D01*
X89904388Y-140546870D01*
X89917129Y-140536665D01*
X89916969Y-140536471D01*
X89923074Y-140531419D01*
X89923080Y-140531416D01*
X89972945Y-140478314D01*
X89994927Y-140456333D01*
X89999470Y-140450475D01*
X90003308Y-140445980D01*
X90036972Y-140410133D01*
X90047310Y-140391327D01*
X90058152Y-140374823D01*
X90071304Y-140357868D01*
X90090832Y-140312737D01*
X90093441Y-140307414D01*
X90117124Y-140264337D01*
X90122457Y-140243562D01*
X90128856Y-140224869D01*
X90137380Y-140205176D01*
X90139050Y-140194625D01*
X90169461Y-140130471D01*
X90229728Y-140092942D01*
X90300717Y-140093954D01*
X90359890Y-140133185D01*
X90388460Y-140198179D01*
X90389500Y-140214332D01*
X90389500Y-150763500D01*
X90369498Y-150831621D01*
X90315842Y-150878114D01*
X90263500Y-150889500D01*
X50136500Y-150889500D01*
X50068379Y-150869498D01*
X50021886Y-150815842D01*
X50010500Y-150763500D01*
X50010500Y-139871984D01*
X50030502Y-139803863D01*
X50084158Y-139757370D01*
X50154432Y-139747266D01*
X50216814Y-139774899D01*
X50219567Y-139777176D01*
X50254040Y-139805695D01*
X50258420Y-139809680D01*
X51053547Y-140604807D01*
X51834595Y-141385855D01*
X51868621Y-141448167D01*
X51871500Y-141474950D01*
X51871500Y-142798649D01*
X51878009Y-142859196D01*
X51878011Y-142859204D01*
X51929110Y-142996202D01*
X51929112Y-142996207D01*
X52016738Y-143113261D01*
X52133792Y-143200887D01*
X52133794Y-143200888D01*
X52133796Y-143200889D01*
X52192875Y-143222924D01*
X52270795Y-143251988D01*
X52270803Y-143251990D01*
X52331350Y-143258499D01*
X52331355Y-143258499D01*
X52331362Y-143258500D01*
X52331368Y-143258500D01*
X53428632Y-143258500D01*
X53428638Y-143258500D01*
X53428645Y-143258499D01*
X53428649Y-143258499D01*
X53489196Y-143251990D01*
X53489199Y-143251989D01*
X53489201Y-143251989D01*
X53626204Y-143200889D01*
X53626799Y-143200444D01*
X53743261Y-143113261D01*
X53814632Y-143017921D01*
X53871468Y-142975374D01*
X53942283Y-142970310D01*
X54004595Y-143004335D01*
X54038621Y-143066647D01*
X54041500Y-143093430D01*
X54041500Y-143413389D01*
X54039708Y-143429620D01*
X54039958Y-143429644D01*
X54039211Y-143437536D01*
X54041500Y-143510341D01*
X54041500Y-143541430D01*
X54042427Y-143548776D01*
X54042893Y-143554690D01*
X54044437Y-143603829D01*
X54044438Y-143603832D01*
X54050421Y-143624429D01*
X54054428Y-143643780D01*
X54057117Y-143665060D01*
X54057117Y-143665062D01*
X54075216Y-143710778D01*
X54077139Y-143716394D01*
X54090853Y-143763597D01*
X54090853Y-143763598D01*
X54101771Y-143782058D01*
X54110468Y-143799811D01*
X54118364Y-143819755D01*
X54118367Y-143819760D01*
X54136352Y-143844513D01*
X54147265Y-143859532D01*
X54150521Y-143864490D01*
X54175547Y-143906807D01*
X54190714Y-143921974D01*
X54203552Y-143937005D01*
X54216158Y-143954356D01*
X54254040Y-143985695D01*
X54258421Y-143989681D01*
X55143790Y-144875050D01*
X55823127Y-145554387D01*
X55833341Y-145567135D01*
X55833534Y-145566976D01*
X55838583Y-145573079D01*
X55891701Y-145622960D01*
X55913658Y-145644918D01*
X55913662Y-145644921D01*
X55913667Y-145644926D01*
X55919523Y-145649468D01*
X55924020Y-145653310D01*
X55959867Y-145686972D01*
X55978660Y-145697303D01*
X55995184Y-145708158D01*
X56012132Y-145721305D01*
X56057255Y-145740831D01*
X56062589Y-145743444D01*
X56105657Y-145767121D01*
X56105659Y-145767122D01*
X56105663Y-145767124D01*
X56126440Y-145772458D01*
X56145132Y-145778857D01*
X56164823Y-145787379D01*
X56213402Y-145795072D01*
X56219171Y-145796267D01*
X56266812Y-145808500D01*
X56288258Y-145808500D01*
X56307968Y-145810050D01*
X56329151Y-145813406D01*
X56364642Y-145810051D01*
X56378092Y-145808780D01*
X56384025Y-145808500D01*
X58125050Y-145808500D01*
X58193171Y-145828502D01*
X58214145Y-145845405D01*
X58695145Y-146326405D01*
X58729171Y-146388717D01*
X58724106Y-146459532D01*
X58681559Y-146516368D01*
X58615039Y-146541179D01*
X58606050Y-146541500D01*
X57901350Y-146541500D01*
X57840803Y-146548009D01*
X57840795Y-146548011D01*
X57703797Y-146599110D01*
X57703792Y-146599112D01*
X57586738Y-146686738D01*
X57499112Y-146803792D01*
X57499110Y-146803797D01*
X57448011Y-146940795D01*
X57448009Y-146940803D01*
X57441500Y-147001350D01*
X57441500Y-148798649D01*
X57448009Y-148859196D01*
X57448011Y-148859204D01*
X57499110Y-148996202D01*
X57499112Y-148996207D01*
X57586738Y-149113261D01*
X57703792Y-149200887D01*
X57703794Y-149200888D01*
X57703796Y-149200889D01*
X57757600Y-149220957D01*
X57840795Y-149251988D01*
X57840803Y-149251990D01*
X57901350Y-149258499D01*
X57901355Y-149258499D01*
X57901362Y-149258500D01*
X57901368Y-149258500D01*
X59698632Y-149258500D01*
X59698638Y-149258500D01*
X59698645Y-149258499D01*
X59698649Y-149258499D01*
X59759196Y-149251990D01*
X59759199Y-149251989D01*
X59759201Y-149251989D01*
X59896204Y-149200889D01*
X59953098Y-149158299D01*
X60013261Y-149113261D01*
X60100886Y-148996208D01*
X60100885Y-148996208D01*
X60100889Y-148996204D01*
X60144999Y-148877939D01*
X60187545Y-148821107D01*
X60254066Y-148796296D01*
X60323440Y-148811388D01*
X60355753Y-148836635D01*
X60376529Y-148859204D01*
X60416762Y-148902908D01*
X60429294Y-148912662D01*
X60594424Y-149041189D01*
X60792426Y-149148342D01*
X60792427Y-149148342D01*
X60792428Y-149148343D01*
X60904227Y-149186723D01*
X61005365Y-149221444D01*
X61227431Y-149258500D01*
X61227435Y-149258500D01*
X61452565Y-149258500D01*
X61452569Y-149258500D01*
X61674635Y-149221444D01*
X61887574Y-149148342D01*
X62085576Y-149041189D01*
X62263240Y-148902906D01*
X62415722Y-148737268D01*
X62415927Y-148736955D01*
X62504517Y-148601357D01*
X62558520Y-148555268D01*
X62628868Y-148545693D01*
X62693226Y-148575670D01*
X62715483Y-148601357D01*
X62804275Y-148737265D01*
X62804279Y-148737270D01*
X62956762Y-148902908D01*
X62969294Y-148912662D01*
X63134424Y-149041189D01*
X63332426Y-149148342D01*
X63332427Y-149148342D01*
X63332428Y-149148343D01*
X63444227Y-149186723D01*
X63545365Y-149221444D01*
X63767431Y-149258500D01*
X63767435Y-149258500D01*
X63992565Y-149258500D01*
X63992569Y-149258500D01*
X64214635Y-149221444D01*
X64427574Y-149148342D01*
X64625576Y-149041189D01*
X64803240Y-148902906D01*
X64955722Y-148737268D01*
X64955927Y-148736955D01*
X65000356Y-148668950D01*
X65044518Y-148601354D01*
X65098520Y-148555268D01*
X65168868Y-148545692D01*
X65233225Y-148575669D01*
X65255480Y-148601353D01*
X65276223Y-148633102D01*
X65344275Y-148737265D01*
X65344279Y-148737270D01*
X65496762Y-148902908D01*
X65509294Y-148912662D01*
X65674424Y-149041189D01*
X65872426Y-149148342D01*
X65872427Y-149148342D01*
X65872428Y-149148343D01*
X65984227Y-149186723D01*
X66085365Y-149221444D01*
X66307431Y-149258500D01*
X66307435Y-149258500D01*
X66532564Y-149258500D01*
X66532569Y-149258500D01*
X66738271Y-149224174D01*
X66808751Y-149232691D01*
X66848102Y-149259361D01*
X67393129Y-149804389D01*
X67403341Y-149817134D01*
X67403534Y-149816976D01*
X67408583Y-149823079D01*
X67461701Y-149872960D01*
X67483658Y-149894918D01*
X67483662Y-149894921D01*
X67483667Y-149894926D01*
X67489523Y-149899468D01*
X67494020Y-149903310D01*
X67529867Y-149936972D01*
X67548660Y-149947303D01*
X67565184Y-149958158D01*
X67582132Y-149971305D01*
X67627255Y-149990831D01*
X67632589Y-149993444D01*
X67675657Y-150017121D01*
X67675659Y-150017122D01*
X67675663Y-150017124D01*
X67696440Y-150022458D01*
X67715132Y-150028857D01*
X67734823Y-150037379D01*
X67783402Y-150045072D01*
X67789171Y-150046267D01*
X67836812Y-150058500D01*
X67858258Y-150058500D01*
X67877968Y-150060050D01*
X67899151Y-150063406D01*
X67934642Y-150060051D01*
X67948092Y-150058780D01*
X67954025Y-150058500D01*
X72013389Y-150058500D01*
X72029620Y-150060291D01*
X72029644Y-150060042D01*
X72037536Y-150060788D01*
X72037536Y-150060787D01*
X72037537Y-150060788D01*
X72110342Y-150058500D01*
X72141432Y-150058500D01*
X72148779Y-150057571D01*
X72154682Y-150057106D01*
X72203831Y-150055562D01*
X72224421Y-150049579D01*
X72243776Y-150045571D01*
X72265064Y-150042882D01*
X72310796Y-150024775D01*
X72316380Y-150022863D01*
X72363600Y-150009145D01*
X72382050Y-149998232D01*
X72399813Y-149989530D01*
X72419756Y-149981635D01*
X72459537Y-149952730D01*
X72464487Y-149949480D01*
X72485637Y-149936972D01*
X72506807Y-149924453D01*
X72521977Y-149909281D01*
X72537005Y-149896447D01*
X72554357Y-149883841D01*
X72585698Y-149845954D01*
X72589676Y-149841582D01*
X73204384Y-149226873D01*
X73217126Y-149216667D01*
X73216966Y-149216474D01*
X73223078Y-149211417D01*
X73223077Y-149211417D01*
X73223080Y-149211416D01*
X73249539Y-149183239D01*
X73272960Y-149158299D01*
X73290419Y-149140840D01*
X73352731Y-149106814D01*
X73423546Y-149111879D01*
X73439484Y-149119121D01*
X73492632Y-149147883D01*
X73705483Y-149220955D01*
X73705492Y-149220957D01*
X73786000Y-149234391D01*
X73786000Y-148333674D01*
X73897685Y-148384680D01*
X74004237Y-148400000D01*
X74075763Y-148400000D01*
X74182315Y-148384680D01*
X74294000Y-148333674D01*
X74294000Y-149234390D01*
X74374507Y-149220957D01*
X74374516Y-149220955D01*
X74587369Y-149147883D01*
X74587371Y-149147882D01*
X74785300Y-149040768D01*
X74785301Y-149040767D01*
X74962902Y-148902534D01*
X75115327Y-148736955D01*
X75204517Y-148600441D01*
X75258521Y-148554352D01*
X75328868Y-148544777D01*
X75393226Y-148574754D01*
X75415483Y-148600441D01*
X75504672Y-148736955D01*
X75657097Y-148902534D01*
X75834698Y-149040767D01*
X75834699Y-149040768D01*
X76032628Y-149147882D01*
X76032630Y-149147883D01*
X76245483Y-149220955D01*
X76245492Y-149220957D01*
X76326000Y-149234391D01*
X76326000Y-148333674D01*
X76437685Y-148384680D01*
X76544237Y-148400000D01*
X76615763Y-148400000D01*
X76722315Y-148384680D01*
X76834000Y-148333674D01*
X76834000Y-149234390D01*
X76914507Y-149220957D01*
X76914516Y-149220955D01*
X77127369Y-149147883D01*
X77127371Y-149147882D01*
X77325300Y-149040768D01*
X77325301Y-149040767D01*
X77502902Y-148902534D01*
X77655327Y-148736955D01*
X77744217Y-148600899D01*
X77798220Y-148554810D01*
X77868568Y-148545235D01*
X77932925Y-148575212D01*
X77955183Y-148600898D01*
X78044279Y-148737270D01*
X78196762Y-148902908D01*
X78209294Y-148912662D01*
X78374424Y-149041189D01*
X78572426Y-149148342D01*
X78572427Y-149148342D01*
X78572428Y-149148343D01*
X78684227Y-149186723D01*
X78785365Y-149221444D01*
X79007431Y-149258500D01*
X79007435Y-149258500D01*
X79232565Y-149258500D01*
X79232569Y-149258500D01*
X79454635Y-149221444D01*
X79667574Y-149148342D01*
X79865576Y-149041189D01*
X80043240Y-148902906D01*
X80195722Y-148737268D01*
X80195927Y-148736955D01*
X80240356Y-148668950D01*
X80284518Y-148601354D01*
X80338520Y-148555268D01*
X80408868Y-148545692D01*
X80473225Y-148575669D01*
X80495480Y-148601353D01*
X80516223Y-148633102D01*
X80584275Y-148737265D01*
X80584279Y-148737270D01*
X80736762Y-148902908D01*
X80749294Y-148912662D01*
X80914424Y-149041189D01*
X81112426Y-149148342D01*
X81112427Y-149148342D01*
X81112428Y-149148343D01*
X81224227Y-149186723D01*
X81325365Y-149221444D01*
X81547431Y-149258500D01*
X81547435Y-149258500D01*
X81772565Y-149258500D01*
X81772569Y-149258500D01*
X81994635Y-149221444D01*
X82207574Y-149148342D01*
X82405576Y-149041189D01*
X82583240Y-148902906D01*
X82735722Y-148737268D01*
X82735927Y-148736955D01*
X82803777Y-148633102D01*
X82858860Y-148548791D01*
X82949296Y-148342616D01*
X83004564Y-148124368D01*
X83023156Y-147900000D01*
X83004564Y-147675632D01*
X82949296Y-147457384D01*
X82924125Y-147399999D01*
X85387337Y-147399999D01*
X85405960Y-147636632D01*
X85461371Y-147867437D01*
X85552206Y-148086733D01*
X85666897Y-148273891D01*
X86296065Y-147644723D01*
X86307188Y-147678956D01*
X86395186Y-147817619D01*
X86514903Y-147930040D01*
X86653160Y-148006048D01*
X86026107Y-148633101D01*
X86026107Y-148633102D01*
X86213261Y-148747791D01*
X86432562Y-148838628D01*
X86663367Y-148894039D01*
X86899999Y-148912662D01*
X87136632Y-148894039D01*
X87367437Y-148838628D01*
X87586738Y-148747791D01*
X87773891Y-148633102D01*
X87773892Y-148633101D01*
X87143482Y-148002691D01*
X87215629Y-147974126D01*
X87348492Y-147877595D01*
X87453175Y-147751055D01*
X87503442Y-147644232D01*
X88133102Y-148273892D01*
X88133102Y-148273891D01*
X88247791Y-148086738D01*
X88338628Y-147867437D01*
X88394039Y-147636632D01*
X88412662Y-147400000D01*
X88394039Y-147163367D01*
X88338628Y-146932562D01*
X88247791Y-146713261D01*
X88133102Y-146526107D01*
X88133100Y-146526107D01*
X87503933Y-147155273D01*
X87492812Y-147121044D01*
X87404814Y-146982381D01*
X87285097Y-146869960D01*
X87146838Y-146793951D01*
X87773891Y-146166897D01*
X87586733Y-146052206D01*
X87367437Y-145961371D01*
X87136632Y-145905960D01*
X86900000Y-145887337D01*
X86663367Y-145905960D01*
X86432562Y-145961371D01*
X86213262Y-146052208D01*
X86026107Y-146166896D01*
X86026107Y-146166898D01*
X86656517Y-146797308D01*
X86584371Y-146825874D01*
X86451508Y-146922405D01*
X86346825Y-147048945D01*
X86296558Y-147155767D01*
X85666898Y-146526107D01*
X85666896Y-146526107D01*
X85552208Y-146713262D01*
X85461371Y-146932562D01*
X85405960Y-147163367D01*
X85387337Y-147399999D01*
X82924125Y-147399999D01*
X82858860Y-147251209D01*
X82841896Y-147225244D01*
X82735724Y-147062734D01*
X82735720Y-147062729D01*
X82603252Y-146918833D01*
X82583240Y-146897094D01*
X82583239Y-146897093D01*
X82583237Y-146897091D01*
X82501382Y-146833381D01*
X82405576Y-146758811D01*
X82207574Y-146651658D01*
X82207572Y-146651657D01*
X82207571Y-146651656D01*
X81994639Y-146578557D01*
X81994630Y-146578555D01*
X81937812Y-146569074D01*
X81772569Y-146541500D01*
X81547431Y-146541500D01*
X81411624Y-146564162D01*
X81325369Y-146578555D01*
X81325360Y-146578557D01*
X81112428Y-146651656D01*
X81112426Y-146651658D01*
X80998592Y-146713262D01*
X80914426Y-146758810D01*
X80914424Y-146758811D01*
X80736762Y-146897091D01*
X80584279Y-147062729D01*
X80495483Y-147198643D01*
X80441479Y-147244731D01*
X80371131Y-147254306D01*
X80306774Y-147224329D01*
X80284517Y-147198643D01*
X80233819Y-147121044D01*
X80195722Y-147062732D01*
X80195721Y-147062731D01*
X80195720Y-147062729D01*
X80063252Y-146918833D01*
X80043240Y-146897094D01*
X80043239Y-146897093D01*
X80043237Y-146897091D01*
X79961382Y-146833381D01*
X79865576Y-146758811D01*
X79667574Y-146651658D01*
X79667572Y-146651657D01*
X79667571Y-146651656D01*
X79454639Y-146578557D01*
X79454630Y-146578555D01*
X79397812Y-146569074D01*
X79232569Y-146541500D01*
X79007431Y-146541500D01*
X78801731Y-146575825D01*
X78731248Y-146567307D01*
X78691898Y-146540638D01*
X78395405Y-146244145D01*
X78361379Y-146181833D01*
X78358500Y-146155050D01*
X78358500Y-142798649D01*
X78711500Y-142798649D01*
X78718009Y-142859196D01*
X78718011Y-142859204D01*
X78769110Y-142996202D01*
X78769112Y-142996207D01*
X78856738Y-143113261D01*
X78973792Y-143200887D01*
X78973794Y-143200888D01*
X78973796Y-143200889D01*
X79032875Y-143222924D01*
X79110795Y-143251988D01*
X79110803Y-143251990D01*
X79171350Y-143258499D01*
X79171355Y-143258499D01*
X79171362Y-143258500D01*
X79171368Y-143258500D01*
X80268632Y-143258500D01*
X80268638Y-143258500D01*
X80268645Y-143258499D01*
X80268649Y-143258499D01*
X80329196Y-143251990D01*
X80329199Y-143251989D01*
X80329201Y-143251989D01*
X80466204Y-143200889D01*
X80466799Y-143200444D01*
X80583261Y-143113261D01*
X80670887Y-142996207D01*
X80670887Y-142996206D01*
X80670889Y-142996204D01*
X80721989Y-142859201D01*
X80728500Y-142798638D01*
X80728500Y-141624335D01*
X81599500Y-141624335D01*
X81612242Y-141700694D01*
X81640428Y-141869609D01*
X81640430Y-141869618D01*
X81721170Y-142104807D01*
X81721171Y-142104809D01*
X81839525Y-142323508D01*
X81839526Y-142323509D01*
X81992267Y-142519750D01*
X82175214Y-142688164D01*
X82383393Y-142824173D01*
X82383392Y-142824173D01*
X82529411Y-142888222D01*
X82611119Y-142924063D01*
X82611120Y-142924063D01*
X82611122Y-142924064D01*
X82852171Y-142985106D01*
X82852179Y-142985108D01*
X83017446Y-142998802D01*
X83037931Y-143000500D01*
X83037933Y-143000500D01*
X83162069Y-143000500D01*
X83181483Y-142998891D01*
X83347821Y-142985108D01*
X83588881Y-142924063D01*
X83816607Y-142824173D01*
X84024785Y-142688164D01*
X84024785Y-142688163D01*
X84207732Y-142519750D01*
X84207733Y-142519748D01*
X84207738Y-142519744D01*
X84360474Y-142323509D01*
X84478828Y-142104810D01*
X84559571Y-141869614D01*
X84600500Y-141624335D01*
X84600500Y-141375665D01*
X84559571Y-141130386D01*
X84478828Y-140895190D01*
X84360474Y-140676491D01*
X84207738Y-140480256D01*
X84207736Y-140480254D01*
X84207732Y-140480249D01*
X84024785Y-140311835D01*
X83816606Y-140175826D01*
X83816607Y-140175826D01*
X83588884Y-140075938D01*
X83588877Y-140075935D01*
X83347828Y-140014893D01*
X83347823Y-140014892D01*
X83347821Y-140014892D01*
X83213864Y-140003792D01*
X83162069Y-139999500D01*
X83162067Y-139999500D01*
X83037933Y-139999500D01*
X83037931Y-139999500D01*
X82976707Y-140004573D01*
X82852179Y-140014892D01*
X82852177Y-140014892D01*
X82852171Y-140014893D01*
X82611122Y-140075935D01*
X82611115Y-140075938D01*
X82383393Y-140175826D01*
X82175214Y-140311835D01*
X81992267Y-140480249D01*
X81839526Y-140676490D01*
X81839525Y-140676491D01*
X81721171Y-140895190D01*
X81721170Y-140895192D01*
X81640430Y-141130381D01*
X81640428Y-141130386D01*
X81640429Y-141130386D01*
X81599500Y-141375665D01*
X81599500Y-141624335D01*
X80728500Y-141624335D01*
X80728500Y-140201362D01*
X80722001Y-140140906D01*
X80721990Y-140140803D01*
X80721988Y-140140795D01*
X80675028Y-140014893D01*
X80670889Y-140003796D01*
X80670888Y-140003794D01*
X80670887Y-140003792D01*
X80583261Y-139886738D01*
X80466207Y-139799112D01*
X80466202Y-139799110D01*
X80329204Y-139748011D01*
X80329196Y-139748009D01*
X80268649Y-139741500D01*
X80268638Y-139741500D01*
X79171362Y-139741500D01*
X79171350Y-139741500D01*
X79110803Y-139748009D01*
X79110795Y-139748011D01*
X78973797Y-139799110D01*
X78973792Y-139799112D01*
X78856738Y-139886738D01*
X78769112Y-140003792D01*
X78769110Y-140003797D01*
X78718011Y-140140795D01*
X78718009Y-140140803D01*
X78711500Y-140201350D01*
X78711500Y-142798649D01*
X78358500Y-142798649D01*
X78358500Y-125800003D01*
X83421493Y-125800003D01*
X83441498Y-126105231D01*
X83441500Y-126105245D01*
X83501176Y-126405248D01*
X83501178Y-126405258D01*
X83599498Y-126694900D01*
X83599504Y-126694914D01*
X83734792Y-126969251D01*
X83904731Y-127223584D01*
X83904734Y-127223588D01*
X84106425Y-127453574D01*
X84190426Y-127527240D01*
X84336407Y-127655262D01*
X84336409Y-127655263D01*
X84336411Y-127655265D01*
X84336415Y-127655268D01*
X84459540Y-127737537D01*
X84590746Y-127825206D01*
X84865092Y-127960499D01*
X85154750Y-128058824D01*
X85454764Y-128118501D01*
X85629184Y-128129932D01*
X85759997Y-128138507D01*
X85760000Y-128138507D01*
X85760003Y-128138507D01*
X85874463Y-128131004D01*
X86065236Y-128118501D01*
X86365250Y-128058824D01*
X86654908Y-127960499D01*
X86929254Y-127825206D01*
X87183593Y-127655262D01*
X87413574Y-127453574D01*
X87615262Y-127223593D01*
X87785206Y-126969254D01*
X87920499Y-126694908D01*
X88018824Y-126405250D01*
X88078501Y-126105236D01*
X88098507Y-125800000D01*
X88078501Y-125494764D01*
X88018824Y-125194750D01*
X87920499Y-124905092D01*
X87785206Y-124630747D01*
X87615262Y-124376407D01*
X87413574Y-124146426D01*
X87413571Y-124146424D01*
X87413570Y-124146422D01*
X87213555Y-123971014D01*
X87183593Y-123944738D01*
X87183591Y-123944736D01*
X87183588Y-123944734D01*
X87183584Y-123944731D01*
X86929251Y-123774792D01*
X86654914Y-123639504D01*
X86654908Y-123639501D01*
X86654903Y-123639499D01*
X86654900Y-123639498D01*
X86365258Y-123541178D01*
X86365252Y-123541176D01*
X86365250Y-123541176D01*
X86264789Y-123521193D01*
X86065245Y-123481500D01*
X86065231Y-123481498D01*
X85760003Y-123461493D01*
X85759997Y-123461493D01*
X85454768Y-123481498D01*
X85454754Y-123481500D01*
X85204980Y-123531184D01*
X85154750Y-123541176D01*
X85154748Y-123541176D01*
X85154741Y-123541178D01*
X84865099Y-123639498D01*
X84865091Y-123639501D01*
X84590741Y-123774797D01*
X84336409Y-123944736D01*
X84106426Y-124146426D01*
X83904736Y-124376409D01*
X83734797Y-124630741D01*
X83599501Y-124905091D01*
X83599498Y-124905099D01*
X83501178Y-125194741D01*
X83501176Y-125194751D01*
X83441500Y-125494754D01*
X83441498Y-125494768D01*
X83421493Y-125799996D01*
X83421493Y-125800003D01*
X78358500Y-125800003D01*
X78358500Y-124486615D01*
X78360292Y-124470380D01*
X78360043Y-124470357D01*
X78360789Y-124462464D01*
X78358500Y-124389625D01*
X78358500Y-124358570D01*
X78358500Y-124358568D01*
X78357570Y-124351217D01*
X78357107Y-124345331D01*
X78355563Y-124296169D01*
X78349579Y-124275573D01*
X78345569Y-124256212D01*
X78342882Y-124234936D01*
X78324780Y-124189218D01*
X78322862Y-124183614D01*
X78309145Y-124136400D01*
X78298224Y-124117935D01*
X78289531Y-124100189D01*
X78281635Y-124080244D01*
X78252736Y-124040470D01*
X78249482Y-124035517D01*
X78224453Y-123993193D01*
X78224452Y-123993191D01*
X78209288Y-123978027D01*
X78196447Y-123962993D01*
X78183841Y-123945643D01*
X78183836Y-123945638D01*
X78162718Y-123928169D01*
X78145950Y-123914297D01*
X78141577Y-123910317D01*
X75154855Y-120923595D01*
X75120829Y-120861283D01*
X75125894Y-120790468D01*
X75168441Y-120733632D01*
X75234961Y-120708821D01*
X75243950Y-120708500D01*
X76398632Y-120708500D01*
X76398638Y-120708500D01*
X76398645Y-120708499D01*
X76398649Y-120708499D01*
X76459196Y-120701990D01*
X76459199Y-120701989D01*
X76459201Y-120701989D01*
X76596204Y-120650889D01*
X76713261Y-120563261D01*
X76732519Y-120537536D01*
X76800887Y-120446207D01*
X76800887Y-120446206D01*
X76800889Y-120446204D01*
X76851989Y-120309201D01*
X76857060Y-120262038D01*
X76858499Y-120248649D01*
X76858500Y-120248632D01*
X76858500Y-120213576D01*
X76878502Y-120145455D01*
X76932158Y-120098962D01*
X77002432Y-120088858D01*
X77067012Y-120118352D01*
X77087713Y-120141306D01*
X77172247Y-120262033D01*
X77172254Y-120262042D01*
X77327957Y-120417745D01*
X77327961Y-120417748D01*
X77327962Y-120417749D01*
X77508346Y-120544056D01*
X77707924Y-120637120D01*
X77920629Y-120694115D01*
X78140000Y-120713307D01*
X78359371Y-120694115D01*
X78572076Y-120637120D01*
X78771654Y-120544056D01*
X78952038Y-120417749D01*
X79107749Y-120262038D01*
X79234056Y-120081654D01*
X79295804Y-119949232D01*
X79342722Y-119895946D01*
X79410999Y-119876485D01*
X79478959Y-119897026D01*
X79524195Y-119949232D01*
X79585944Y-120081654D01*
X79702864Y-120248632D01*
X79712251Y-120262038D01*
X79712254Y-120262042D01*
X79867957Y-120417745D01*
X79867961Y-120417748D01*
X79867962Y-120417749D01*
X80048346Y-120544056D01*
X80247924Y-120637120D01*
X80460629Y-120694115D01*
X80680000Y-120713307D01*
X80899371Y-120694115D01*
X81112076Y-120637120D01*
X81311654Y-120544056D01*
X81492038Y-120417749D01*
X81647749Y-120262038D01*
X81774056Y-120081654D01*
X81835804Y-119949232D01*
X81882722Y-119895946D01*
X81950999Y-119876485D01*
X82018959Y-119897026D01*
X82064195Y-119949232D01*
X82125944Y-120081654D01*
X82242864Y-120248632D01*
X82252251Y-120262038D01*
X82252254Y-120262042D01*
X82407957Y-120417745D01*
X82407961Y-120417748D01*
X82407962Y-120417749D01*
X82588346Y-120544056D01*
X82787924Y-120637120D01*
X83000629Y-120694115D01*
X83220000Y-120713307D01*
X83439371Y-120694115D01*
X83652076Y-120637120D01*
X83851654Y-120544056D01*
X84032038Y-120417749D01*
X84187749Y-120262038D01*
X84314056Y-120081654D01*
X84407120Y-119882076D01*
X84464115Y-119669371D01*
X84483307Y-119450000D01*
X84464115Y-119230629D01*
X84407120Y-119017924D01*
X84314056Y-118818347D01*
X84187749Y-118637962D01*
X84032038Y-118482251D01*
X83851654Y-118355944D01*
X83851650Y-118355942D01*
X83652079Y-118262881D01*
X83652073Y-118262879D01*
X83555025Y-118236875D01*
X83439371Y-118205885D01*
X83220000Y-118186693D01*
X83219999Y-118186693D01*
X83000629Y-118205885D01*
X82787926Y-118262879D01*
X82787920Y-118262881D01*
X82588346Y-118355944D01*
X82407965Y-118482248D01*
X82407959Y-118482253D01*
X82252253Y-118637959D01*
X82252248Y-118637965D01*
X82125944Y-118818346D01*
X82064195Y-118950768D01*
X82017278Y-119004053D01*
X81949000Y-119023514D01*
X81881040Y-119002972D01*
X81835805Y-118950768D01*
X81774056Y-118818348D01*
X81774056Y-118818347D01*
X81647749Y-118637962D01*
X81492038Y-118482251D01*
X81311654Y-118355944D01*
X81311650Y-118355942D01*
X81112079Y-118262881D01*
X81112073Y-118262879D01*
X81015025Y-118236875D01*
X80899371Y-118205885D01*
X80680000Y-118186693D01*
X80679999Y-118186693D01*
X80460629Y-118205885D01*
X80247926Y-118262879D01*
X80247920Y-118262881D01*
X80048346Y-118355944D01*
X79867965Y-118482248D01*
X79867959Y-118482253D01*
X79712253Y-118637959D01*
X79712248Y-118637965D01*
X79585944Y-118818346D01*
X79524195Y-118950768D01*
X79477278Y-119004053D01*
X79409000Y-119023514D01*
X79341040Y-119002972D01*
X79295805Y-118950768D01*
X79234056Y-118818348D01*
X79234056Y-118818347D01*
X79107749Y-118637962D01*
X78952038Y-118482251D01*
X78852228Y-118412362D01*
X78807900Y-118356905D01*
X78798500Y-118309150D01*
X78798500Y-118211233D01*
X78818502Y-118143112D01*
X78872158Y-118096619D01*
X78942432Y-118086515D01*
X78972651Y-118095520D01*
X78972754Y-118095238D01*
X78977510Y-118096969D01*
X78977759Y-118097043D01*
X78977924Y-118097120D01*
X79190629Y-118154115D01*
X79410000Y-118173307D01*
X79629371Y-118154115D01*
X79842076Y-118097120D01*
X80041654Y-118004056D01*
X80222038Y-117877749D01*
X80377749Y-117722038D01*
X80504056Y-117541654D01*
X80565804Y-117409232D01*
X80612722Y-117355946D01*
X80680999Y-117336485D01*
X80748959Y-117357026D01*
X80794195Y-117409232D01*
X80855944Y-117541654D01*
X80982250Y-117722038D01*
X80982251Y-117722038D01*
X80982254Y-117722042D01*
X81137957Y-117877745D01*
X81137961Y-117877748D01*
X81137962Y-117877749D01*
X81318346Y-118004056D01*
X81517924Y-118097120D01*
X81730629Y-118154115D01*
X81950000Y-118173307D01*
X82169371Y-118154115D01*
X82382076Y-118097120D01*
X82581654Y-118004056D01*
X82762038Y-117877749D01*
X82917749Y-117722038D01*
X83044056Y-117541654D01*
X83105804Y-117409232D01*
X83152722Y-117355946D01*
X83220999Y-117336485D01*
X83288959Y-117357026D01*
X83334195Y-117409232D01*
X83395944Y-117541654D01*
X83522250Y-117722038D01*
X83522251Y-117722038D01*
X83522254Y-117722042D01*
X83677957Y-117877745D01*
X83677961Y-117877748D01*
X83677962Y-117877749D01*
X83858346Y-118004056D01*
X84057924Y-118097120D01*
X84270629Y-118154115D01*
X84490000Y-118173307D01*
X84709371Y-118154115D01*
X84922076Y-118097120D01*
X85121654Y-118004056D01*
X85302038Y-117877749D01*
X85457749Y-117722038D01*
X85584056Y-117541654D01*
X85677120Y-117342076D01*
X85734115Y-117129371D01*
X85753307Y-116910000D01*
X85734115Y-116690629D01*
X85677120Y-116477924D01*
X85584056Y-116278347D01*
X85457749Y-116097962D01*
X85302038Y-115942251D01*
X85121654Y-115815944D01*
X85108622Y-115809867D01*
X84922079Y-115722881D01*
X84922073Y-115722879D01*
X84832178Y-115698791D01*
X84709371Y-115665885D01*
X84490000Y-115646693D01*
X84489999Y-115646693D01*
X84270629Y-115665885D01*
X84057926Y-115722879D01*
X84057920Y-115722881D01*
X83858346Y-115815944D01*
X83677965Y-115942248D01*
X83677959Y-115942253D01*
X83522253Y-116097959D01*
X83522248Y-116097965D01*
X83395944Y-116278346D01*
X83334195Y-116410768D01*
X83287278Y-116464053D01*
X83219000Y-116483514D01*
X83151040Y-116462972D01*
X83105805Y-116410768D01*
X83085488Y-116367198D01*
X83044056Y-116278347D01*
X82917749Y-116097962D01*
X82762038Y-115942251D01*
X82581654Y-115815944D01*
X82568622Y-115809867D01*
X82382079Y-115722881D01*
X82382073Y-115722879D01*
X82292178Y-115698791D01*
X82169371Y-115665885D01*
X81950000Y-115646693D01*
X81949999Y-115646693D01*
X81949998Y-115646693D01*
X81916308Y-115649640D01*
X81846703Y-115635649D01*
X81795712Y-115586249D01*
X81779523Y-115517122D01*
X81803277Y-115450217D01*
X81816228Y-115435030D01*
X83204386Y-114046872D01*
X83217129Y-114036665D01*
X83216969Y-114036471D01*
X83223074Y-114031419D01*
X83223080Y-114031416D01*
X83272945Y-113978314D01*
X83294927Y-113956333D01*
X83299470Y-113950475D01*
X83303308Y-113945980D01*
X83336972Y-113910133D01*
X83347310Y-113891327D01*
X83358152Y-113874823D01*
X83371304Y-113857868D01*
X83390832Y-113812737D01*
X83393441Y-113807414D01*
X83417124Y-113764337D01*
X83422457Y-113743562D01*
X83428856Y-113724869D01*
X83437380Y-113705176D01*
X83445074Y-113656591D01*
X83446271Y-113650810D01*
X83458500Y-113603188D01*
X83458500Y-113581741D01*
X83460051Y-113562030D01*
X83463406Y-113540848D01*
X83458780Y-113491903D01*
X83458500Y-113485971D01*
X83458500Y-106849370D01*
X83478502Y-106781249D01*
X83532158Y-106734756D01*
X83602432Y-106724652D01*
X83667012Y-106754146D01*
X83697506Y-106793642D01*
X83734792Y-106869251D01*
X83904731Y-107123584D01*
X83904734Y-107123588D01*
X84106425Y-107353574D01*
X84252063Y-107481294D01*
X84336407Y-107555262D01*
X84336409Y-107555263D01*
X84336411Y-107555265D01*
X84336415Y-107555268D01*
X84504417Y-107667523D01*
X84590746Y-107725206D01*
X84865092Y-107860499D01*
X85154750Y-107958824D01*
X85454764Y-108018501D01*
X85629184Y-108029932D01*
X85759997Y-108038507D01*
X85760000Y-108038507D01*
X85760003Y-108038507D01*
X85874463Y-108031004D01*
X86065236Y-108018501D01*
X86365250Y-107958824D01*
X86654908Y-107860499D01*
X86929254Y-107725206D01*
X87183593Y-107555262D01*
X87413574Y-107353574D01*
X87615262Y-107123593D01*
X87785206Y-106869254D01*
X87920499Y-106594908D01*
X88018824Y-106305250D01*
X88078501Y-106005236D01*
X88098507Y-105700000D01*
X88092160Y-105603170D01*
X88085716Y-105504852D01*
X88078501Y-105394764D01*
X88018824Y-105094750D01*
X87920499Y-104805092D01*
X87785206Y-104530747D01*
X87615262Y-104276407D01*
X87413574Y-104046426D01*
X87413571Y-104046424D01*
X87413570Y-104046422D01*
X87230685Y-103886037D01*
X87183593Y-103844738D01*
X87183591Y-103844736D01*
X87183588Y-103844734D01*
X87183584Y-103844731D01*
X86929251Y-103674792D01*
X86654914Y-103539504D01*
X86654908Y-103539501D01*
X86654903Y-103539499D01*
X86654900Y-103539498D01*
X86365258Y-103441178D01*
X86365252Y-103441176D01*
X86365250Y-103441176D01*
X86264789Y-103421193D01*
X86065245Y-103381500D01*
X86065231Y-103381498D01*
X85760003Y-103361493D01*
X85759997Y-103361493D01*
X85569436Y-103373983D01*
X85500153Y-103358479D01*
X85450250Y-103307979D01*
X85435572Y-103238517D01*
X85460778Y-103172145D01*
X85472093Y-103159165D01*
X88204386Y-100426872D01*
X88217129Y-100416665D01*
X88216969Y-100416471D01*
X88223074Y-100411419D01*
X88223080Y-100411416D01*
X88272945Y-100358314D01*
X88294927Y-100336333D01*
X88299470Y-100330475D01*
X88303308Y-100325980D01*
X88336972Y-100290133D01*
X88347310Y-100271327D01*
X88358152Y-100254823D01*
X88371304Y-100237868D01*
X88390832Y-100192737D01*
X88393441Y-100187414D01*
X88417124Y-100144337D01*
X88422457Y-100123562D01*
X88428856Y-100104869D01*
X88437380Y-100085176D01*
X88445074Y-100036591D01*
X88446271Y-100030810D01*
X88458500Y-99983188D01*
X88458500Y-99961741D01*
X88460051Y-99942030D01*
X88463406Y-99920848D01*
X88458780Y-99871903D01*
X88458500Y-99865971D01*
X88458500Y-93786611D01*
X88460292Y-93770382D01*
X88460042Y-93770359D01*
X88460788Y-93762465D01*
X88458500Y-93689657D01*
X88458500Y-93658576D01*
X88458500Y-93658568D01*
X88457571Y-93651220D01*
X88457106Y-93645316D01*
X88455562Y-93596169D01*
X88449579Y-93575576D01*
X88445571Y-93556218D01*
X88442882Y-93534939D01*
X88442882Y-93534936D01*
X88424777Y-93489208D01*
X88422863Y-93483619D01*
X88409145Y-93436400D01*
X88398224Y-93417935D01*
X88389531Y-93400189D01*
X88381635Y-93380244D01*
X88352736Y-93340470D01*
X88349482Y-93335517D01*
X88324453Y-93293193D01*
X88324452Y-93293191D01*
X88309288Y-93278027D01*
X88296447Y-93262993D01*
X88283841Y-93245643D01*
X88283836Y-93245638D01*
X88262718Y-93228169D01*
X88245950Y-93214297D01*
X88241577Y-93210317D01*
X86795405Y-91764145D01*
X86761379Y-91701833D01*
X86758500Y-91675050D01*
X86758500Y-86748722D01*
X86778502Y-86680601D01*
X86832158Y-86634108D01*
X86902432Y-86624004D01*
X86967012Y-86653498D01*
G37*
%TD.AperFunction*%
%TA.AperFunction,Conductor*%
G36*
X76120507Y-147690156D02*
G01*
X76080000Y-147828111D01*
X76080000Y-147971889D01*
X76120507Y-148109844D01*
X76148884Y-148154000D01*
X74471116Y-148154000D01*
X74499493Y-148109844D01*
X74540000Y-147971889D01*
X74540000Y-147828111D01*
X74499493Y-147690156D01*
X74471116Y-147646000D01*
X76148884Y-147646000D01*
X76120507Y-147690156D01*
G37*
%TD.AperFunction*%
%TA.AperFunction,Conductor*%
G36*
X78707241Y-100555346D02*
G01*
X78746106Y-100614760D01*
X78751500Y-100651233D01*
X78751500Y-103465049D01*
X78731498Y-103533170D01*
X78714595Y-103554144D01*
X77595611Y-104673127D01*
X77582865Y-104683340D01*
X77583025Y-104683533D01*
X77576921Y-104688582D01*
X77527054Y-104741685D01*
X77505071Y-104763668D01*
X77500527Y-104769525D01*
X77496678Y-104774031D01*
X77463029Y-104809865D01*
X77463027Y-104809867D01*
X77452691Y-104828667D01*
X77441843Y-104845180D01*
X77428699Y-104862126D01*
X77428694Y-104862135D01*
X77409172Y-104907247D01*
X77406560Y-104912577D01*
X77382877Y-104955660D01*
X77382873Y-104955670D01*
X77377541Y-104976436D01*
X77371139Y-104995136D01*
X77362620Y-105014820D01*
X77362619Y-105014824D01*
X77354928Y-105063384D01*
X77353724Y-105069197D01*
X77341500Y-105116810D01*
X77341500Y-105138258D01*
X77339949Y-105157967D01*
X77336594Y-105179150D01*
X77336594Y-105179152D01*
X77341220Y-105228094D01*
X77341500Y-105234027D01*
X77341500Y-111775048D01*
X77321498Y-111843169D01*
X77304595Y-111864143D01*
X73495611Y-115673127D01*
X73482865Y-115683340D01*
X73483025Y-115683533D01*
X73476921Y-115688582D01*
X73427054Y-115741685D01*
X73405071Y-115763668D01*
X73400527Y-115769525D01*
X73396678Y-115774031D01*
X73363029Y-115809865D01*
X73363027Y-115809867D01*
X73352691Y-115828667D01*
X73341843Y-115845180D01*
X73328699Y-115862126D01*
X73328694Y-115862135D01*
X73309172Y-115907247D01*
X73306560Y-115912577D01*
X73282877Y-115955660D01*
X73282873Y-115955670D01*
X73277541Y-115976436D01*
X73271139Y-115995136D01*
X73262620Y-116014820D01*
X73262619Y-116014824D01*
X73254928Y-116063384D01*
X73253724Y-116069197D01*
X73241500Y-116116810D01*
X73241500Y-116138258D01*
X73239949Y-116157967D01*
X73236594Y-116179150D01*
X73236594Y-116179152D01*
X73241220Y-116228094D01*
X73241500Y-116234027D01*
X73241500Y-120513389D01*
X73239708Y-120529620D01*
X73239958Y-120529644D01*
X73239211Y-120537536D01*
X73240020Y-120563261D01*
X73241500Y-120610342D01*
X73241500Y-120641432D01*
X73241880Y-120644444D01*
X73242427Y-120648776D01*
X73242893Y-120654690D01*
X73244437Y-120703829D01*
X73244438Y-120703832D01*
X73250421Y-120724429D01*
X73254428Y-120743780D01*
X73257117Y-120765060D01*
X73257117Y-120765062D01*
X73275216Y-120810778D01*
X73277139Y-120816394D01*
X73290853Y-120863597D01*
X73290853Y-120863598D01*
X73301771Y-120882058D01*
X73310468Y-120899811D01*
X73318364Y-120919755D01*
X73318367Y-120919760D01*
X73336352Y-120944513D01*
X73347265Y-120959532D01*
X73350521Y-120964490D01*
X73375169Y-121006169D01*
X73375547Y-121006807D01*
X73390714Y-121021974D01*
X73403551Y-121037004D01*
X73416159Y-121054357D01*
X73433341Y-121068571D01*
X73454039Y-121085694D01*
X73458420Y-121089680D01*
X75830233Y-123461493D01*
X77004595Y-124635855D01*
X77038621Y-124698167D01*
X77041500Y-124724950D01*
X77041500Y-139616000D01*
X77021498Y-139684121D01*
X76967842Y-139730614D01*
X76915500Y-139742000D01*
X76874000Y-139742000D01*
X76874000Y-143258000D01*
X76915500Y-143258000D01*
X76983621Y-143278002D01*
X77030114Y-143331658D01*
X77041500Y-143384000D01*
X77041500Y-146393389D01*
X77039708Y-146409620D01*
X77039958Y-146409644D01*
X77039211Y-146417536D01*
X77040147Y-146447292D01*
X77022294Y-146516007D01*
X76970125Y-146564162D01*
X76900203Y-146576468D01*
X76893469Y-146575530D01*
X76834000Y-146565606D01*
X76834000Y-147466325D01*
X76722315Y-147415320D01*
X76615763Y-147400000D01*
X76544237Y-147400000D01*
X76437685Y-147415320D01*
X76326000Y-147466325D01*
X76326000Y-146565606D01*
X76325999Y-146565606D01*
X76245498Y-146579040D01*
X76245487Y-146579043D01*
X76032630Y-146652116D01*
X76032628Y-146652117D01*
X75834699Y-146759231D01*
X75834698Y-146759232D01*
X75657097Y-146897465D01*
X75504674Y-147063042D01*
X75415483Y-147199559D01*
X75361479Y-147245647D01*
X75291131Y-147255222D01*
X75226774Y-147225244D01*
X75204517Y-147199559D01*
X75115325Y-147063042D01*
X74962902Y-146897465D01*
X74785301Y-146759232D01*
X74785300Y-146759231D01*
X74587371Y-146652117D01*
X74587369Y-146652116D01*
X74374512Y-146579043D01*
X74374501Y-146579040D01*
X74294000Y-146565606D01*
X74294000Y-147466325D01*
X74182315Y-147415320D01*
X74075763Y-147400000D01*
X74004237Y-147400000D01*
X73897685Y-147415320D01*
X73786000Y-147466325D01*
X73786000Y-146565607D01*
X73785999Y-146565606D01*
X73705498Y-146579040D01*
X73705487Y-146579043D01*
X73625412Y-146606533D01*
X73554487Y-146609733D01*
X73493092Y-146574081D01*
X73460718Y-146510895D01*
X73458500Y-146487360D01*
X73458500Y-141754000D01*
X75612000Y-141754000D01*
X75612000Y-142798597D01*
X75618505Y-142859093D01*
X75669555Y-142995964D01*
X75669555Y-142995965D01*
X75757095Y-143112904D01*
X75874034Y-143200444D01*
X76010906Y-143251494D01*
X76071402Y-143257999D01*
X76071415Y-143258000D01*
X76366000Y-143258000D01*
X76366000Y-142024624D01*
X76370000Y-142024624D01*
X76384505Y-142097545D01*
X76439760Y-142180240D01*
X76522455Y-142235495D01*
X76620000Y-142254898D01*
X76717545Y-142235495D01*
X76800240Y-142180240D01*
X76855495Y-142097545D01*
X76870000Y-142024624D01*
X76870000Y-140975376D01*
X76855495Y-140902455D01*
X76800240Y-140819760D01*
X76717545Y-140764505D01*
X76620000Y-140745102D01*
X76522455Y-140764505D01*
X76439760Y-140819760D01*
X76384505Y-140902455D01*
X76370000Y-140975376D01*
X76370000Y-142024624D01*
X76366000Y-142024624D01*
X76366000Y-141754000D01*
X75612000Y-141754000D01*
X73458500Y-141754000D01*
X73458500Y-141246000D01*
X75612000Y-141246000D01*
X76366000Y-141246000D01*
X76366000Y-139742000D01*
X76071402Y-139742000D01*
X76010906Y-139748505D01*
X75874035Y-139799555D01*
X75874034Y-139799555D01*
X75757095Y-139887095D01*
X75669555Y-140004034D01*
X75669555Y-140004035D01*
X75618505Y-140140906D01*
X75612000Y-140201402D01*
X75612000Y-141246000D01*
X73458500Y-141246000D01*
X73458500Y-129286611D01*
X73460292Y-129270382D01*
X73460042Y-129270359D01*
X73460788Y-129262465D01*
X73458500Y-129189657D01*
X73458500Y-129158576D01*
X73458500Y-129158568D01*
X73457571Y-129151220D01*
X73457106Y-129145316D01*
X73455562Y-129096169D01*
X73449579Y-129075576D01*
X73445571Y-129056218D01*
X73442882Y-129034939D01*
X73442882Y-129034936D01*
X73424777Y-128989208D01*
X73422863Y-128983619D01*
X73409145Y-128936400D01*
X73398224Y-128917935D01*
X73389531Y-128900189D01*
X73381635Y-128880244D01*
X73352736Y-128840470D01*
X73349482Y-128835517D01*
X73324453Y-128793193D01*
X73324452Y-128793191D01*
X73309288Y-128778027D01*
X73296447Y-128762993D01*
X73283841Y-128745643D01*
X73283836Y-128745638D01*
X73262682Y-128728139D01*
X73245950Y-128714297D01*
X73241577Y-128710317D01*
X72095405Y-127564145D01*
X72061379Y-127501833D01*
X72058500Y-127475050D01*
X72058500Y-127010204D01*
X72078502Y-126942083D01*
X72132158Y-126895590D01*
X72202432Y-126885486D01*
X72267012Y-126914980D01*
X72297507Y-126954477D01*
X72304794Y-126969254D01*
X72474731Y-127223584D01*
X72474734Y-127223588D01*
X72676425Y-127453574D01*
X72760426Y-127527240D01*
X72906407Y-127655262D01*
X72906409Y-127655263D01*
X72906411Y-127655265D01*
X72906415Y-127655268D01*
X73029540Y-127737537D01*
X73160746Y-127825206D01*
X73435092Y-127960499D01*
X73724750Y-128058824D01*
X74024764Y-128118501D01*
X74199184Y-128129932D01*
X74329997Y-128138507D01*
X74330000Y-128138507D01*
X74330003Y-128138507D01*
X74444463Y-128131004D01*
X74635236Y-128118501D01*
X74935250Y-128058824D01*
X75224908Y-127960499D01*
X75499254Y-127825206D01*
X75753593Y-127655262D01*
X75983574Y-127453574D01*
X76185262Y-127223593D01*
X76355206Y-126969254D01*
X76490499Y-126694908D01*
X76588824Y-126405250D01*
X76648501Y-126105236D01*
X76668507Y-125800000D01*
X76648501Y-125494764D01*
X76588824Y-125194750D01*
X76490499Y-124905092D01*
X76355206Y-124630747D01*
X76185262Y-124376407D01*
X75983574Y-124146426D01*
X75983571Y-124146424D01*
X75983570Y-124146422D01*
X75783555Y-123971014D01*
X75753593Y-123944738D01*
X75753591Y-123944736D01*
X75753588Y-123944734D01*
X75753584Y-123944731D01*
X75499251Y-123774792D01*
X75224914Y-123639504D01*
X75224908Y-123639501D01*
X75224903Y-123639499D01*
X75224900Y-123639498D01*
X74935258Y-123541178D01*
X74935252Y-123541176D01*
X74935250Y-123541176D01*
X74834789Y-123521193D01*
X74635245Y-123481500D01*
X74635231Y-123481498D01*
X74330003Y-123461493D01*
X74329997Y-123461493D01*
X74024768Y-123481498D01*
X74024754Y-123481500D01*
X73774980Y-123531184D01*
X73724750Y-123541176D01*
X73724748Y-123541176D01*
X73724741Y-123541178D01*
X73435099Y-123639498D01*
X73435091Y-123639501D01*
X73160741Y-123774797D01*
X72906409Y-123944736D01*
X72676426Y-124146426D01*
X72474736Y-124376409D01*
X72304797Y-124630741D01*
X72304794Y-124630746D01*
X72304794Y-124630747D01*
X72297504Y-124645528D01*
X72249437Y-124697776D01*
X72180751Y-124715742D01*
X72113256Y-124693722D01*
X72068380Y-124638707D01*
X72058500Y-124589798D01*
X72058500Y-106910204D01*
X72078502Y-106842083D01*
X72132158Y-106795590D01*
X72202432Y-106785486D01*
X72267012Y-106814980D01*
X72297507Y-106854477D01*
X72304794Y-106869254D01*
X72474731Y-107123584D01*
X72474734Y-107123588D01*
X72676425Y-107353574D01*
X72822063Y-107481294D01*
X72906407Y-107555262D01*
X72906409Y-107555263D01*
X72906411Y-107555265D01*
X72906415Y-107555268D01*
X73074417Y-107667523D01*
X73160746Y-107725206D01*
X73435092Y-107860499D01*
X73724750Y-107958824D01*
X74024764Y-108018501D01*
X74199184Y-108029933D01*
X74329997Y-108038507D01*
X74330000Y-108038507D01*
X74330003Y-108038507D01*
X74444463Y-108031004D01*
X74635236Y-108018501D01*
X74935250Y-107958824D01*
X75224908Y-107860499D01*
X75499254Y-107725206D01*
X75753593Y-107555262D01*
X75983574Y-107353574D01*
X76185262Y-107123593D01*
X76355206Y-106869254D01*
X76490499Y-106594908D01*
X76588824Y-106305250D01*
X76648501Y-106005236D01*
X76668507Y-105700000D01*
X76662160Y-105603170D01*
X76655716Y-105504852D01*
X76648501Y-105394764D01*
X76588824Y-105094750D01*
X76490499Y-104805092D01*
X76355206Y-104530747D01*
X76185262Y-104276407D01*
X75983574Y-104046426D01*
X75983571Y-104046424D01*
X75983570Y-104046422D01*
X75800685Y-103886037D01*
X75753593Y-103844738D01*
X75753591Y-103844736D01*
X75753588Y-103844734D01*
X75753584Y-103844731D01*
X75499251Y-103674792D01*
X75224914Y-103539504D01*
X75224908Y-103539501D01*
X75224903Y-103539499D01*
X75224900Y-103539498D01*
X74935258Y-103441178D01*
X74935252Y-103441176D01*
X74935250Y-103441176D01*
X74834789Y-103421193D01*
X74635245Y-103381500D01*
X74635231Y-103381498D01*
X74330003Y-103361493D01*
X74329997Y-103361493D01*
X74024768Y-103381498D01*
X74024754Y-103381500D01*
X73774980Y-103431184D01*
X73724750Y-103441176D01*
X73724748Y-103441176D01*
X73724741Y-103441178D01*
X73435099Y-103539498D01*
X73435091Y-103539501D01*
X73160737Y-103674799D01*
X73006073Y-103778142D01*
X72938320Y-103799357D01*
X72869854Y-103780574D01*
X72822411Y-103727756D01*
X72811054Y-103657674D01*
X72839390Y-103592577D01*
X72846955Y-103584304D01*
X73335857Y-103095402D01*
X73398167Y-103061379D01*
X73424950Y-103058500D01*
X75813389Y-103058500D01*
X75829620Y-103060291D01*
X75829644Y-103060042D01*
X75837536Y-103060788D01*
X75837536Y-103060787D01*
X75837537Y-103060788D01*
X75910342Y-103058500D01*
X75941432Y-103058500D01*
X75948779Y-103057571D01*
X75954682Y-103057106D01*
X76003831Y-103055562D01*
X76024421Y-103049579D01*
X76043776Y-103045571D01*
X76065064Y-103042882D01*
X76110796Y-103024775D01*
X76116380Y-103022863D01*
X76163600Y-103009145D01*
X76182050Y-102998232D01*
X76199813Y-102989530D01*
X76219756Y-102981635D01*
X76259537Y-102952730D01*
X76264487Y-102949480D01*
X76274175Y-102943750D01*
X76306807Y-102924453D01*
X76321977Y-102909281D01*
X76337005Y-102896447D01*
X76354357Y-102883841D01*
X76385702Y-102845950D01*
X76389670Y-102841588D01*
X77304386Y-101926872D01*
X77317129Y-101916665D01*
X77316969Y-101916471D01*
X77323074Y-101911419D01*
X77323080Y-101911416D01*
X77372945Y-101858314D01*
X77394927Y-101836333D01*
X77399470Y-101830475D01*
X77403308Y-101825980D01*
X77436972Y-101790133D01*
X77447310Y-101771327D01*
X77458152Y-101754823D01*
X77471304Y-101737868D01*
X77490832Y-101692737D01*
X77493441Y-101687414D01*
X77517124Y-101644337D01*
X77522457Y-101623562D01*
X77528856Y-101604869D01*
X77537380Y-101585176D01*
X77545074Y-101536591D01*
X77546271Y-101530810D01*
X77558500Y-101483188D01*
X77558500Y-101461741D01*
X77560051Y-101442030D01*
X77563406Y-101420848D01*
X77558780Y-101371903D01*
X77558500Y-101365971D01*
X77558500Y-100661288D01*
X77578502Y-100593167D01*
X77632158Y-100546674D01*
X77702432Y-100536570D01*
X77717096Y-100539577D01*
X77920629Y-100594115D01*
X78140000Y-100613307D01*
X78359371Y-100594115D01*
X78572076Y-100537120D01*
X78572237Y-100537044D01*
X78572314Y-100537032D01*
X78577246Y-100535238D01*
X78577606Y-100536228D01*
X78642425Y-100526375D01*
X78707241Y-100555346D01*
G37*
%TD.AperFunction*%
%TA.AperFunction,Conductor*%
G36*
X59268143Y-106201146D02*
G01*
X59281444Y-106212704D01*
X59285546Y-106216806D01*
X59285547Y-106216807D01*
X59300714Y-106231974D01*
X59313552Y-106247005D01*
X59326158Y-106264356D01*
X59364040Y-106295694D01*
X59368433Y-106299692D01*
X68804595Y-115735854D01*
X68838621Y-115798166D01*
X68841500Y-115824949D01*
X68841500Y-127975049D01*
X68821498Y-128043170D01*
X68804595Y-128064144D01*
X66995611Y-129873127D01*
X66982865Y-129883340D01*
X66983025Y-129883533D01*
X66976921Y-129888582D01*
X66927054Y-129941685D01*
X66905071Y-129963668D01*
X66900527Y-129969525D01*
X66896678Y-129974031D01*
X66863029Y-130009865D01*
X66863027Y-130009867D01*
X66852691Y-130028667D01*
X66841843Y-130045180D01*
X66828699Y-130062126D01*
X66828694Y-130062135D01*
X66809172Y-130107247D01*
X66806560Y-130112577D01*
X66782877Y-130155660D01*
X66782873Y-130155670D01*
X66777541Y-130176436D01*
X66771139Y-130195136D01*
X66762620Y-130214820D01*
X66762619Y-130214824D01*
X66754928Y-130263384D01*
X66753724Y-130269198D01*
X66741499Y-130316811D01*
X66741499Y-130338261D01*
X66739949Y-130357959D01*
X66736594Y-130379149D01*
X66736594Y-130379153D01*
X66741220Y-130428094D01*
X66741500Y-130434027D01*
X66741500Y-145113389D01*
X66739708Y-145129620D01*
X66739958Y-145129644D01*
X66739211Y-145137536D01*
X66741500Y-145210341D01*
X66741500Y-145241430D01*
X66742427Y-145248776D01*
X66742893Y-145254690D01*
X66744437Y-145303829D01*
X66744438Y-145303832D01*
X66750421Y-145324429D01*
X66754428Y-145343780D01*
X66757117Y-145365060D01*
X66757117Y-145365062D01*
X66775216Y-145410778D01*
X66777139Y-145416394D01*
X66790853Y-145463597D01*
X66790853Y-145463598D01*
X66801771Y-145482058D01*
X66810468Y-145499811D01*
X66818364Y-145519755D01*
X66818367Y-145519760D01*
X66825227Y-145529201D01*
X66847265Y-145559532D01*
X66850521Y-145564490D01*
X66867701Y-145593541D01*
X66875547Y-145606807D01*
X66890714Y-145621974D01*
X66903552Y-145637005D01*
X66916158Y-145654356D01*
X66954040Y-145685695D01*
X66958421Y-145689681D01*
X67512885Y-146244145D01*
X68013140Y-146744400D01*
X68047166Y-146806712D01*
X68042101Y-146877527D01*
X68016746Y-146918833D01*
X67884280Y-147062728D01*
X67884279Y-147062729D01*
X67795483Y-147198643D01*
X67741479Y-147244731D01*
X67671131Y-147254306D01*
X67606774Y-147224329D01*
X67584517Y-147198643D01*
X67533819Y-147121044D01*
X67495722Y-147062732D01*
X67495721Y-147062731D01*
X67495720Y-147062729D01*
X67363252Y-146918833D01*
X67343240Y-146897094D01*
X67343239Y-146897093D01*
X67343237Y-146897091D01*
X67261382Y-146833381D01*
X67165576Y-146758811D01*
X66967574Y-146651658D01*
X66967572Y-146651657D01*
X66967571Y-146651656D01*
X66754639Y-146578557D01*
X66754630Y-146578555D01*
X66697812Y-146569074D01*
X66532569Y-146541500D01*
X66307431Y-146541500D01*
X66171624Y-146564162D01*
X66085369Y-146578555D01*
X66085360Y-146578557D01*
X65872428Y-146651656D01*
X65872426Y-146651658D01*
X65758592Y-146713262D01*
X65674426Y-146758810D01*
X65674424Y-146758811D01*
X65496762Y-146897091D01*
X65344279Y-147062729D01*
X65255483Y-147198643D01*
X65201479Y-147244731D01*
X65131131Y-147254306D01*
X65066774Y-147224329D01*
X65044517Y-147198643D01*
X64993819Y-147121044D01*
X64955722Y-147062732D01*
X64955721Y-147062731D01*
X64955720Y-147062729D01*
X64823252Y-146918833D01*
X64803240Y-146897094D01*
X64803239Y-146897093D01*
X64803237Y-146897091D01*
X64721382Y-146833381D01*
X64625576Y-146758811D01*
X64427574Y-146651658D01*
X64427572Y-146651657D01*
X64427571Y-146651656D01*
X64214639Y-146578557D01*
X64214630Y-146578555D01*
X64157812Y-146569074D01*
X63992569Y-146541500D01*
X63767431Y-146541500D01*
X63561731Y-146575825D01*
X63491248Y-146567307D01*
X63451898Y-146540638D01*
X60895405Y-143984145D01*
X60861379Y-143921833D01*
X60858500Y-143895050D01*
X60858500Y-143384500D01*
X60878502Y-143316379D01*
X60932158Y-143269886D01*
X60984500Y-143258500D01*
X61728632Y-143258500D01*
X61728638Y-143258500D01*
X61728645Y-143258499D01*
X61728649Y-143258499D01*
X61789196Y-143251990D01*
X61789199Y-143251989D01*
X61789201Y-143251989D01*
X61926204Y-143200889D01*
X61926799Y-143200444D01*
X62043261Y-143113261D01*
X62130887Y-142996207D01*
X62130887Y-142996206D01*
X62130889Y-142996204D01*
X62181989Y-142859201D01*
X62188500Y-142798638D01*
X62188500Y-141754000D01*
X63272000Y-141754000D01*
X63272000Y-142798597D01*
X63278505Y-142859093D01*
X63329555Y-142995964D01*
X63329555Y-142995965D01*
X63417095Y-143112904D01*
X63534034Y-143200444D01*
X63670906Y-143251494D01*
X63731402Y-143257999D01*
X63731415Y-143258000D01*
X64026000Y-143258000D01*
X64026000Y-142024624D01*
X64030000Y-142024624D01*
X64044505Y-142097545D01*
X64099760Y-142180240D01*
X64182455Y-142235495D01*
X64280000Y-142254898D01*
X64377545Y-142235495D01*
X64460240Y-142180240D01*
X64515495Y-142097545D01*
X64530000Y-142024624D01*
X64530000Y-141754000D01*
X64534000Y-141754000D01*
X64534000Y-143258000D01*
X64828585Y-143258000D01*
X64828597Y-143257999D01*
X64889093Y-143251494D01*
X65025964Y-143200444D01*
X65025965Y-143200444D01*
X65142904Y-143112904D01*
X65230444Y-142995965D01*
X65230444Y-142995964D01*
X65281494Y-142859093D01*
X65287999Y-142798597D01*
X65288000Y-142798585D01*
X65288000Y-141754000D01*
X64534000Y-141754000D01*
X64530000Y-141754000D01*
X64530000Y-140975376D01*
X64515495Y-140902455D01*
X64460240Y-140819760D01*
X64377545Y-140764505D01*
X64280000Y-140745102D01*
X64182455Y-140764505D01*
X64099760Y-140819760D01*
X64044505Y-140902455D01*
X64030000Y-140975376D01*
X64030000Y-142024624D01*
X64026000Y-142024624D01*
X64026000Y-141754000D01*
X63272000Y-141754000D01*
X62188500Y-141754000D01*
X62188500Y-141246000D01*
X63272000Y-141246000D01*
X64026000Y-141246000D01*
X64026000Y-139742000D01*
X64534000Y-139742000D01*
X64534000Y-141246000D01*
X65288000Y-141246000D01*
X65288000Y-140201414D01*
X65287999Y-140201402D01*
X65281494Y-140140906D01*
X65230444Y-140004035D01*
X65230444Y-140004034D01*
X65142904Y-139887095D01*
X65025965Y-139799555D01*
X64889093Y-139748505D01*
X64828597Y-139742000D01*
X64534000Y-139742000D01*
X64026000Y-139742000D01*
X63731402Y-139742000D01*
X63670906Y-139748505D01*
X63534035Y-139799555D01*
X63534034Y-139799555D01*
X63417095Y-139887095D01*
X63329555Y-140004034D01*
X63329555Y-140004035D01*
X63278505Y-140140906D01*
X63272000Y-140201402D01*
X63272000Y-141246000D01*
X62188500Y-141246000D01*
X62188500Y-140201362D01*
X62182001Y-140140906D01*
X62181990Y-140140803D01*
X62181988Y-140140795D01*
X62135028Y-140014893D01*
X62130889Y-140003796D01*
X62130888Y-140003794D01*
X62130887Y-140003792D01*
X62043261Y-139886738D01*
X61926207Y-139799112D01*
X61926202Y-139799110D01*
X61789204Y-139748011D01*
X61789196Y-139748009D01*
X61728649Y-139741500D01*
X61728638Y-139741500D01*
X60984500Y-139741500D01*
X60916379Y-139721498D01*
X60869886Y-139667842D01*
X60858500Y-139615500D01*
X60858500Y-125800003D01*
X63821493Y-125800003D01*
X63841498Y-126105231D01*
X63841500Y-126105245D01*
X63901176Y-126405248D01*
X63901178Y-126405258D01*
X63999498Y-126694900D01*
X63999504Y-126694914D01*
X64134792Y-126969251D01*
X64304731Y-127223584D01*
X64304734Y-127223588D01*
X64506425Y-127453574D01*
X64590426Y-127527240D01*
X64736407Y-127655262D01*
X64736409Y-127655263D01*
X64736411Y-127655265D01*
X64736415Y-127655268D01*
X64859540Y-127737537D01*
X64990746Y-127825206D01*
X65265092Y-127960499D01*
X65554750Y-128058824D01*
X65854764Y-128118501D01*
X66029184Y-128129932D01*
X66159997Y-128138507D01*
X66160000Y-128138507D01*
X66160003Y-128138507D01*
X66274463Y-128131004D01*
X66465236Y-128118501D01*
X66765250Y-128058824D01*
X67054908Y-127960499D01*
X67329254Y-127825206D01*
X67583593Y-127655262D01*
X67813574Y-127453574D01*
X68015262Y-127223593D01*
X68185206Y-126969254D01*
X68320499Y-126694908D01*
X68418824Y-126405250D01*
X68478501Y-126105236D01*
X68498507Y-125800000D01*
X68478501Y-125494764D01*
X68418824Y-125194750D01*
X68320499Y-124905092D01*
X68185206Y-124630747D01*
X68015262Y-124376407D01*
X67813574Y-124146426D01*
X67813571Y-124146424D01*
X67813570Y-124146422D01*
X67613555Y-123971014D01*
X67583593Y-123944738D01*
X67583591Y-123944736D01*
X67583588Y-123944734D01*
X67583584Y-123944731D01*
X67329251Y-123774792D01*
X67054914Y-123639504D01*
X67054908Y-123639501D01*
X67054903Y-123639499D01*
X67054900Y-123639498D01*
X66765258Y-123541178D01*
X66765252Y-123541176D01*
X66765250Y-123541176D01*
X66664789Y-123521193D01*
X66465245Y-123481500D01*
X66465231Y-123481498D01*
X66160003Y-123461493D01*
X66159997Y-123461493D01*
X65854768Y-123481498D01*
X65854754Y-123481500D01*
X65604980Y-123531184D01*
X65554750Y-123541176D01*
X65554748Y-123541176D01*
X65554741Y-123541178D01*
X65265099Y-123639498D01*
X65265091Y-123639501D01*
X64990741Y-123774797D01*
X64736409Y-123944736D01*
X64506426Y-124146426D01*
X64304736Y-124376409D01*
X64134797Y-124630741D01*
X63999501Y-124905091D01*
X63999498Y-124905099D01*
X63901178Y-125194741D01*
X63901176Y-125194751D01*
X63841500Y-125494754D01*
X63841498Y-125494768D01*
X63821493Y-125799996D01*
X63821493Y-125800003D01*
X60858500Y-125800003D01*
X60858500Y-121196615D01*
X60860292Y-121180380D01*
X60860043Y-121180357D01*
X60860789Y-121172464D01*
X60858500Y-121099625D01*
X60858500Y-121068571D01*
X60858500Y-121068568D01*
X60857570Y-121061217D01*
X60857107Y-121055331D01*
X60855563Y-121006169D01*
X60849579Y-120985573D01*
X60845569Y-120966212D01*
X60842882Y-120944936D01*
X60824780Y-120899218D01*
X60822859Y-120893604D01*
X60821984Y-120890592D01*
X60813745Y-120862233D01*
X60813946Y-120791240D01*
X60852499Y-120731622D01*
X60917163Y-120702312D01*
X60945717Y-120701559D01*
X61080000Y-120713307D01*
X61299371Y-120694115D01*
X61512076Y-120637120D01*
X61711654Y-120544056D01*
X61892038Y-120417749D01*
X62047749Y-120262038D01*
X62174056Y-120081654D01*
X62235804Y-119949232D01*
X62282722Y-119895946D01*
X62350999Y-119876485D01*
X62418959Y-119897026D01*
X62464195Y-119949232D01*
X62525944Y-120081654D01*
X62642864Y-120248632D01*
X62652251Y-120262038D01*
X62652254Y-120262042D01*
X62807957Y-120417745D01*
X62807961Y-120417748D01*
X62807962Y-120417749D01*
X62988346Y-120544056D01*
X63187924Y-120637120D01*
X63400629Y-120694115D01*
X63620000Y-120713307D01*
X63839371Y-120694115D01*
X64052076Y-120637120D01*
X64251654Y-120544056D01*
X64432038Y-120417749D01*
X64587749Y-120262038D01*
X64714056Y-120081654D01*
X64807120Y-119882076D01*
X64864115Y-119669371D01*
X64883307Y-119450000D01*
X64864115Y-119230629D01*
X64807120Y-119017924D01*
X64714056Y-118818347D01*
X64587749Y-118637962D01*
X64432038Y-118482251D01*
X64251654Y-118355944D01*
X64251650Y-118355942D01*
X64052079Y-118262881D01*
X64052073Y-118262879D01*
X63955025Y-118236875D01*
X63839371Y-118205885D01*
X63620000Y-118186693D01*
X63619999Y-118186693D01*
X63400629Y-118205885D01*
X63187926Y-118262879D01*
X63187920Y-118262881D01*
X62988346Y-118355944D01*
X62807965Y-118482248D01*
X62807959Y-118482253D01*
X62652253Y-118637959D01*
X62652248Y-118637965D01*
X62525942Y-118818348D01*
X62464193Y-118950769D01*
X62417276Y-119004053D01*
X62348999Y-119023514D01*
X62281039Y-119002972D01*
X62235804Y-118950767D01*
X62174057Y-118818348D01*
X62047751Y-118637965D01*
X62047749Y-118637962D01*
X61892038Y-118482251D01*
X61711654Y-118355944D01*
X61711650Y-118355942D01*
X61512079Y-118262881D01*
X61512073Y-118262879D01*
X61415025Y-118236875D01*
X61299371Y-118205885D01*
X61080000Y-118186693D01*
X60860629Y-118205885D01*
X60647926Y-118262879D01*
X60647920Y-118262881D01*
X60448346Y-118355944D01*
X60267965Y-118482248D01*
X60267959Y-118482253D01*
X60112253Y-118637959D01*
X60112248Y-118637965D01*
X59985944Y-118818346D01*
X59924195Y-118950768D01*
X59877278Y-119004053D01*
X59809000Y-119023514D01*
X59741040Y-119002972D01*
X59695805Y-118950768D01*
X59634056Y-118818348D01*
X59634056Y-118818347D01*
X59507749Y-118637962D01*
X59352038Y-118482251D01*
X59171654Y-118355944D01*
X59171650Y-118355942D01*
X58972079Y-118262881D01*
X58972073Y-118262879D01*
X58875025Y-118236875D01*
X58759371Y-118205885D01*
X58540000Y-118186693D01*
X58320629Y-118205885D01*
X58107926Y-118262879D01*
X58107920Y-118262881D01*
X57908346Y-118355944D01*
X57727965Y-118482248D01*
X57727959Y-118482253D01*
X57572253Y-118637959D01*
X57572248Y-118637965D01*
X57487713Y-118758694D01*
X57432256Y-118803022D01*
X57361636Y-118810331D01*
X57298276Y-118778300D01*
X57262291Y-118717099D01*
X57258500Y-118686423D01*
X57258500Y-118651367D01*
X57258499Y-118651350D01*
X57251990Y-118590803D01*
X57251988Y-118590795D01*
X57200889Y-118453797D01*
X57200887Y-118453792D01*
X57140233Y-118372769D01*
X57115422Y-118306249D01*
X57130513Y-118236875D01*
X57180715Y-118186673D01*
X57250089Y-118171581D01*
X57252031Y-118171734D01*
X57270000Y-118173307D01*
X57489371Y-118154115D01*
X57702076Y-118097120D01*
X57901654Y-118004056D01*
X58082038Y-117877749D01*
X58237749Y-117722038D01*
X58364056Y-117541654D01*
X58425804Y-117409232D01*
X58472722Y-117355946D01*
X58540999Y-117336485D01*
X58608959Y-117357026D01*
X58654195Y-117409232D01*
X58715944Y-117541654D01*
X58842250Y-117722038D01*
X58842251Y-117722038D01*
X58842254Y-117722042D01*
X58997957Y-117877745D01*
X58997961Y-117877748D01*
X58997962Y-117877749D01*
X59178346Y-118004056D01*
X59377924Y-118097120D01*
X59590629Y-118154115D01*
X59810000Y-118173307D01*
X60029371Y-118154115D01*
X60242076Y-118097120D01*
X60441654Y-118004056D01*
X60622038Y-117877749D01*
X60777749Y-117722038D01*
X60904056Y-117541654D01*
X60965804Y-117409232D01*
X61012722Y-117355946D01*
X61080999Y-117336485D01*
X61148959Y-117357026D01*
X61194195Y-117409232D01*
X61255944Y-117541654D01*
X61382250Y-117722038D01*
X61382251Y-117722038D01*
X61382254Y-117722042D01*
X61537957Y-117877745D01*
X61537961Y-117877748D01*
X61537962Y-117877749D01*
X61718346Y-118004056D01*
X61917924Y-118097120D01*
X62130629Y-118154115D01*
X62350000Y-118173307D01*
X62569371Y-118154115D01*
X62782076Y-118097120D01*
X62981654Y-118004056D01*
X63162038Y-117877749D01*
X63317749Y-117722038D01*
X63444056Y-117541654D01*
X63505805Y-117409229D01*
X63552720Y-117355947D01*
X63620997Y-117336485D01*
X63688957Y-117357026D01*
X63734194Y-117409231D01*
X63795941Y-117541648D01*
X63795944Y-117541654D01*
X63922250Y-117722038D01*
X63922251Y-117722038D01*
X63922254Y-117722042D01*
X64077957Y-117877745D01*
X64077961Y-117877748D01*
X64077962Y-117877749D01*
X64258346Y-118004056D01*
X64457924Y-118097120D01*
X64670629Y-118154115D01*
X64890000Y-118173307D01*
X65109371Y-118154115D01*
X65322076Y-118097120D01*
X65521654Y-118004056D01*
X65702038Y-117877749D01*
X65857749Y-117722038D01*
X65984056Y-117541654D01*
X66077120Y-117342076D01*
X66134115Y-117129371D01*
X66153307Y-116910000D01*
X66134115Y-116690629D01*
X66077120Y-116477924D01*
X65984056Y-116278347D01*
X65857749Y-116097962D01*
X65702038Y-115942251D01*
X65521654Y-115815944D01*
X65508622Y-115809867D01*
X65322079Y-115722881D01*
X65322073Y-115722879D01*
X65232178Y-115698791D01*
X65109371Y-115665885D01*
X64890000Y-115646693D01*
X64889999Y-115646693D01*
X64670629Y-115665885D01*
X64457926Y-115722879D01*
X64457920Y-115722881D01*
X64258346Y-115815944D01*
X64077965Y-115942248D01*
X64077959Y-115942253D01*
X63922253Y-116097959D01*
X63922248Y-116097965D01*
X63795944Y-116278346D01*
X63734195Y-116410768D01*
X63687278Y-116464053D01*
X63619000Y-116483514D01*
X63551040Y-116462972D01*
X63505805Y-116410768D01*
X63485488Y-116367198D01*
X63444056Y-116278347D01*
X63317749Y-116097962D01*
X63162038Y-115942251D01*
X62981654Y-115815944D01*
X62968622Y-115809867D01*
X62782079Y-115722881D01*
X62782073Y-115722879D01*
X62692178Y-115698791D01*
X62569371Y-115665885D01*
X62350000Y-115646693D01*
X62349999Y-115646693D01*
X62130629Y-115665885D01*
X61917926Y-115722879D01*
X61917920Y-115722881D01*
X61718346Y-115815944D01*
X61537965Y-115942248D01*
X61537959Y-115942253D01*
X61382253Y-116097959D01*
X61382248Y-116097965D01*
X61255944Y-116278346D01*
X61194195Y-116410768D01*
X61147278Y-116464053D01*
X61079000Y-116483514D01*
X61011040Y-116462972D01*
X60965805Y-116410768D01*
X60945488Y-116367198D01*
X60904056Y-116278347D01*
X60777749Y-116097962D01*
X60622038Y-115942251D01*
X60441654Y-115815944D01*
X60428622Y-115809867D01*
X60242079Y-115722881D01*
X60242073Y-115722879D01*
X60152178Y-115698791D01*
X60029371Y-115665885D01*
X59810000Y-115646693D01*
X59590629Y-115665885D01*
X59377926Y-115722879D01*
X59377920Y-115722881D01*
X59178346Y-115815944D01*
X58997965Y-115942248D01*
X58997959Y-115942253D01*
X58842253Y-116097959D01*
X58842248Y-116097965D01*
X58715944Y-116278346D01*
X58654195Y-116410768D01*
X58607278Y-116464053D01*
X58539000Y-116483514D01*
X58471040Y-116462972D01*
X58425805Y-116410768D01*
X58405488Y-116367198D01*
X58364056Y-116278347D01*
X58237749Y-116097962D01*
X58082038Y-115942251D01*
X57901654Y-115815944D01*
X57888622Y-115809867D01*
X57702079Y-115722881D01*
X57702073Y-115722879D01*
X57612178Y-115698791D01*
X57489371Y-115665885D01*
X57270000Y-115646693D01*
X57050629Y-115665885D01*
X56837926Y-115722879D01*
X56837920Y-115722881D01*
X56638346Y-115815944D01*
X56457965Y-115942248D01*
X56457959Y-115942253D01*
X56302253Y-116097959D01*
X56302248Y-116097965D01*
X56175944Y-116278346D01*
X56082881Y-116477920D01*
X56082879Y-116477926D01*
X56025885Y-116690629D01*
X56006693Y-116910000D01*
X56025885Y-117129370D01*
X56082879Y-117342073D01*
X56082881Y-117342079D01*
X56114195Y-117409232D01*
X56175944Y-117541654D01*
X56302251Y-117722038D01*
X56302254Y-117722042D01*
X56457957Y-117877745D01*
X56457966Y-117877752D01*
X56578694Y-117962287D01*
X56623023Y-118017744D01*
X56630332Y-118088363D01*
X56598302Y-118151724D01*
X56537100Y-118187709D01*
X56506424Y-118191500D01*
X55201350Y-118191500D01*
X55140803Y-118198009D01*
X55140795Y-118198011D01*
X55003797Y-118249110D01*
X55003792Y-118249112D01*
X54886738Y-118336738D01*
X54799112Y-118453792D01*
X54799110Y-118453797D01*
X54748011Y-118590795D01*
X54748009Y-118590803D01*
X54741500Y-118651350D01*
X54741500Y-120248649D01*
X54748009Y-120309196D01*
X54748011Y-120309204D01*
X54799110Y-120446202D01*
X54799112Y-120446207D01*
X54886738Y-120563261D01*
X55003792Y-120650887D01*
X55003794Y-120650888D01*
X55003796Y-120650889D01*
X55062875Y-120672924D01*
X55140795Y-120701988D01*
X55140803Y-120701990D01*
X55201350Y-120708499D01*
X55201355Y-120708499D01*
X55201362Y-120708500D01*
X55201368Y-120708500D01*
X56798632Y-120708500D01*
X56798638Y-120708500D01*
X56798645Y-120708499D01*
X56798649Y-120708499D01*
X56859196Y-120701990D01*
X56859199Y-120701989D01*
X56859201Y-120701989D01*
X56996204Y-120650889D01*
X57113261Y-120563261D01*
X57132519Y-120537536D01*
X57200887Y-120446207D01*
X57200887Y-120446206D01*
X57200889Y-120446204D01*
X57251989Y-120309201D01*
X57257060Y-120262038D01*
X57258499Y-120248649D01*
X57258500Y-120248632D01*
X57258500Y-120213576D01*
X57278502Y-120145455D01*
X57332158Y-120098962D01*
X57402432Y-120088858D01*
X57467012Y-120118352D01*
X57487713Y-120141306D01*
X57572247Y-120262033D01*
X57572254Y-120262042D01*
X57727957Y-120417745D01*
X57727961Y-120417748D01*
X57727962Y-120417749D01*
X57908346Y-120544056D01*
X58107924Y-120637120D01*
X58320629Y-120694115D01*
X58540000Y-120713307D01*
X58759371Y-120694115D01*
X58762822Y-120693190D01*
X58764403Y-120693227D01*
X58764786Y-120693160D01*
X58764799Y-120693236D01*
X58833795Y-120694872D01*
X58884538Y-120725798D01*
X59504594Y-121345854D01*
X59538620Y-121408166D01*
X59541499Y-121434949D01*
X59541500Y-141299305D01*
X59521498Y-141367426D01*
X59467842Y-141413919D01*
X59397568Y-141424023D01*
X59332988Y-141394529D01*
X59294604Y-141334803D01*
X59291219Y-141320051D01*
X59259571Y-141130386D01*
X59178828Y-140895190D01*
X59060474Y-140676491D01*
X58907738Y-140480256D01*
X58907736Y-140480254D01*
X58907732Y-140480249D01*
X58724785Y-140311835D01*
X58516606Y-140175826D01*
X58516607Y-140175826D01*
X58288884Y-140075938D01*
X58288877Y-140075935D01*
X58047828Y-140014893D01*
X58047823Y-140014892D01*
X58047821Y-140014892D01*
X57913864Y-140003792D01*
X57862069Y-139999500D01*
X57862067Y-139999500D01*
X57737933Y-139999500D01*
X57737931Y-139999500D01*
X57676707Y-140004573D01*
X57552179Y-140014892D01*
X57552177Y-140014892D01*
X57552171Y-140014893D01*
X57311122Y-140075935D01*
X57311115Y-140075938D01*
X57083393Y-140175826D01*
X56875214Y-140311835D01*
X56692267Y-140480249D01*
X56539526Y-140676490D01*
X56539525Y-140676491D01*
X56421171Y-140895190D01*
X56421170Y-140895192D01*
X56340430Y-141130381D01*
X56340428Y-141130386D01*
X56340429Y-141130386D01*
X56299500Y-141375665D01*
X56299500Y-141624335D01*
X56312242Y-141700694D01*
X56340428Y-141869609D01*
X56340430Y-141869618D01*
X56421170Y-142104807D01*
X56421171Y-142104809D01*
X56539525Y-142323508D01*
X56539526Y-142323509D01*
X56692267Y-142519750D01*
X56875214Y-142688164D01*
X57083393Y-142824173D01*
X57083392Y-142824173D01*
X57229411Y-142888222D01*
X57311119Y-142924063D01*
X57311120Y-142924063D01*
X57311122Y-142924064D01*
X57552171Y-142985106D01*
X57552179Y-142985108D01*
X57717446Y-142998802D01*
X57737931Y-143000500D01*
X57737933Y-143000500D01*
X57862069Y-143000500D01*
X57881483Y-142998891D01*
X58047821Y-142985108D01*
X58288881Y-142924063D01*
X58516607Y-142824173D01*
X58724785Y-142688164D01*
X58907732Y-142519750D01*
X58907733Y-142519748D01*
X58907738Y-142519744D01*
X59060474Y-142323509D01*
X59178828Y-142104810D01*
X59259571Y-141869614D01*
X59291219Y-141679953D01*
X59322160Y-141616056D01*
X59382736Y-141579028D01*
X59453714Y-141580629D01*
X59512560Y-141620349D01*
X59540590Y-141685578D01*
X59541500Y-141700694D01*
X59541500Y-144133389D01*
X59539708Y-144149620D01*
X59539958Y-144149644D01*
X59539211Y-144157536D01*
X59541500Y-144230341D01*
X59541500Y-144261430D01*
X59542427Y-144268776D01*
X59542893Y-144274690D01*
X59544437Y-144323829D01*
X59544438Y-144323832D01*
X59550421Y-144344429D01*
X59554428Y-144363780D01*
X59557117Y-144385060D01*
X59557117Y-144385062D01*
X59575216Y-144430778D01*
X59577139Y-144436394D01*
X59590853Y-144483597D01*
X59590853Y-144483598D01*
X59601771Y-144502058D01*
X59610468Y-144519811D01*
X59618364Y-144539755D01*
X59618367Y-144539760D01*
X59631612Y-144557989D01*
X59647265Y-144579532D01*
X59650521Y-144584490D01*
X59667397Y-144613027D01*
X59675547Y-144626807D01*
X59690714Y-144641974D01*
X59703552Y-144657005D01*
X59716158Y-144674356D01*
X59754039Y-144705694D01*
X59758420Y-144709680D01*
X60568495Y-145519755D01*
X61375145Y-146326405D01*
X61409171Y-146388717D01*
X61404106Y-146459532D01*
X61361559Y-146516368D01*
X61295039Y-146541179D01*
X61286050Y-146541500D01*
X61227431Y-146541500D01*
X61091624Y-146564162D01*
X61005369Y-146578555D01*
X61005356Y-146578558D01*
X60934180Y-146602993D01*
X60863256Y-146606193D01*
X60804174Y-146572915D01*
X59906441Y-145675182D01*
X58976875Y-144745615D01*
X58966664Y-144732869D01*
X58966471Y-144733030D01*
X58961417Y-144726921D01*
X58908314Y-144677054D01*
X58886343Y-144655082D01*
X58886325Y-144655066D01*
X58880482Y-144650534D01*
X58875967Y-144646678D01*
X58854803Y-144626804D01*
X58840133Y-144613028D01*
X58840130Y-144613026D01*
X58840125Y-144613023D01*
X58821338Y-144602694D01*
X58804818Y-144591843D01*
X58787867Y-144578695D01*
X58742739Y-144559166D01*
X58737421Y-144556561D01*
X58706850Y-144539755D01*
X58694338Y-144532876D01*
X58694335Y-144532875D01*
X58673568Y-144527543D01*
X58654865Y-144521140D01*
X58644703Y-144516743D01*
X58635176Y-144512620D01*
X58635174Y-144512619D01*
X58635175Y-144512619D01*
X58586619Y-144504929D01*
X58580804Y-144503725D01*
X58533188Y-144491500D01*
X58511741Y-144491500D01*
X58492032Y-144489949D01*
X58470848Y-144486594D01*
X58470847Y-144486594D01*
X58421906Y-144491220D01*
X58415973Y-144491500D01*
X56674949Y-144491500D01*
X56606828Y-144471498D01*
X56585854Y-144454595D01*
X55395405Y-143264145D01*
X55361379Y-143201833D01*
X55358500Y-143175050D01*
X55358500Y-134886615D01*
X55360292Y-134870380D01*
X55360043Y-134870357D01*
X55360789Y-134862464D01*
X55358500Y-134789625D01*
X55358500Y-134758571D01*
X55358500Y-134758568D01*
X55357570Y-134751217D01*
X55357107Y-134745331D01*
X55355563Y-134696169D01*
X55349579Y-134675573D01*
X55345569Y-134656212D01*
X55342882Y-134634936D01*
X55324780Y-134589218D01*
X55322862Y-134583614D01*
X55309145Y-134536400D01*
X55298224Y-134517935D01*
X55289531Y-134500189D01*
X55281635Y-134480244D01*
X55252736Y-134440470D01*
X55249482Y-134435517D01*
X55224453Y-134393193D01*
X55224452Y-134393191D01*
X55209288Y-134378027D01*
X55196447Y-134362993D01*
X55183841Y-134345643D01*
X55183836Y-134345638D01*
X55162718Y-134328169D01*
X55145950Y-134314297D01*
X55141577Y-134310317D01*
X52695405Y-131864144D01*
X52661379Y-131801832D01*
X52658500Y-131775049D01*
X52658500Y-127311793D01*
X52678502Y-127243672D01*
X52732158Y-127197179D01*
X52802432Y-127187075D01*
X52867012Y-127216569D01*
X52879222Y-127228706D01*
X52988701Y-127353543D01*
X53076425Y-127453574D01*
X53160426Y-127527240D01*
X53306407Y-127655262D01*
X53306409Y-127655263D01*
X53306411Y-127655265D01*
X53306415Y-127655268D01*
X53429540Y-127737537D01*
X53560746Y-127825206D01*
X53835092Y-127960499D01*
X54124750Y-128058824D01*
X54424764Y-128118501D01*
X54599184Y-128129932D01*
X54729997Y-128138507D01*
X54730000Y-128138507D01*
X54730003Y-128138507D01*
X54844463Y-128131004D01*
X55035236Y-128118501D01*
X55335250Y-128058824D01*
X55624908Y-127960499D01*
X55899254Y-127825206D01*
X56153593Y-127655262D01*
X56383574Y-127453574D01*
X56585262Y-127223593D01*
X56755206Y-126969254D01*
X56890499Y-126694908D01*
X56988824Y-126405250D01*
X57048501Y-126105236D01*
X57068507Y-125800000D01*
X57048501Y-125494764D01*
X56988824Y-125194750D01*
X56890499Y-124905092D01*
X56755206Y-124630747D01*
X56585262Y-124376407D01*
X56383574Y-124146426D01*
X56383571Y-124146424D01*
X56383570Y-124146422D01*
X56183555Y-123971014D01*
X56153593Y-123944738D01*
X56153591Y-123944736D01*
X56153588Y-123944734D01*
X56153584Y-123944731D01*
X55899251Y-123774792D01*
X55624914Y-123639504D01*
X55624908Y-123639501D01*
X55624903Y-123639499D01*
X55624900Y-123639498D01*
X55335258Y-123541178D01*
X55335252Y-123541176D01*
X55335250Y-123541176D01*
X55234789Y-123521193D01*
X55035245Y-123481500D01*
X55035231Y-123481498D01*
X54730003Y-123461493D01*
X54729997Y-123461493D01*
X54424768Y-123481498D01*
X54424754Y-123481500D01*
X54174980Y-123531184D01*
X54124750Y-123541176D01*
X54124748Y-123541176D01*
X54124741Y-123541178D01*
X53835099Y-123639498D01*
X53835091Y-123639501D01*
X53560741Y-123774797D01*
X53306409Y-123944736D01*
X53076426Y-124146426D01*
X52879231Y-124371283D01*
X52819277Y-124409310D01*
X52748282Y-124408888D01*
X52688785Y-124370149D01*
X52659677Y-124305394D01*
X52658499Y-124288219D01*
X52658499Y-112724948D01*
X52678501Y-112656828D01*
X52695399Y-112635859D01*
X58944386Y-106386872D01*
X58957129Y-106376665D01*
X58956969Y-106376471D01*
X58963074Y-106371419D01*
X58963080Y-106371416D01*
X59012945Y-106318314D01*
X59034927Y-106296333D01*
X59039470Y-106290475D01*
X59043308Y-106285980D01*
X59076972Y-106250133D01*
X59081936Y-106241102D01*
X59132276Y-106191045D01*
X59201693Y-106176149D01*
X59268143Y-106201146D01*
G37*
%TD.AperFunction*%
%TA.AperFunction,Conductor*%
G36*
X74603171Y-95478502D02*
G01*
X74624145Y-95495405D01*
X75594200Y-96465460D01*
X75628226Y-96527772D01*
X75626814Y-96587156D01*
X75625887Y-96590614D01*
X75625885Y-96590623D01*
X75606693Y-96810000D01*
X75625885Y-97029370D01*
X75682879Y-97242073D01*
X75682881Y-97242079D01*
X75714195Y-97309232D01*
X75775944Y-97441654D01*
X75902250Y-97622037D01*
X75902251Y-97622038D01*
X75902254Y-97622042D01*
X76057957Y-97777745D01*
X76057966Y-97777752D01*
X76178694Y-97862287D01*
X76223023Y-97917744D01*
X76230332Y-97988363D01*
X76198302Y-98051724D01*
X76137100Y-98087709D01*
X76106424Y-98091500D01*
X74801350Y-98091500D01*
X74740803Y-98098009D01*
X74740795Y-98098011D01*
X74603797Y-98149110D01*
X74603792Y-98149112D01*
X74486738Y-98236738D01*
X74399112Y-98353792D01*
X74399110Y-98353797D01*
X74348011Y-98490795D01*
X74348009Y-98490803D01*
X74341500Y-98551350D01*
X74341500Y-100148649D01*
X74348009Y-100209196D01*
X74348011Y-100209204D01*
X74399110Y-100346202D01*
X74399112Y-100346207D01*
X74486738Y-100463261D01*
X74603792Y-100550887D01*
X74603794Y-100550888D01*
X74603796Y-100550889D01*
X74615746Y-100555346D01*
X74740795Y-100601988D01*
X74740803Y-100601990D01*
X74801350Y-100608499D01*
X74801355Y-100608499D01*
X74801362Y-100608500D01*
X76115500Y-100608500D01*
X76183621Y-100628502D01*
X76230114Y-100682158D01*
X76241500Y-100734500D01*
X76241500Y-101075048D01*
X76221498Y-101143169D01*
X76204596Y-101164143D01*
X75664145Y-101704595D01*
X75601832Y-101738620D01*
X75575049Y-101741500D01*
X73186611Y-101741500D01*
X73170379Y-101739708D01*
X73170356Y-101739958D01*
X73162463Y-101739211D01*
X73091877Y-101741430D01*
X73089658Y-101741500D01*
X73058568Y-101741500D01*
X73051222Y-101742427D01*
X73045309Y-101742893D01*
X72996172Y-101744437D01*
X72996170Y-101744437D01*
X72996169Y-101744438D01*
X72975571Y-101750421D01*
X72956221Y-101754428D01*
X72934940Y-101757116D01*
X72934935Y-101757118D01*
X72889214Y-101775219D01*
X72883599Y-101777141D01*
X72836406Y-101790852D01*
X72836399Y-101790855D01*
X72817937Y-101801773D01*
X72800191Y-101810466D01*
X72780248Y-101818362D01*
X72780245Y-101818364D01*
X72740470Y-101847262D01*
X72735508Y-101850521D01*
X72693194Y-101875546D01*
X72678022Y-101890717D01*
X72662996Y-101903550D01*
X72645644Y-101916157D01*
X72645643Y-101916158D01*
X72614299Y-101954045D01*
X72610303Y-101958436D01*
X70995611Y-103573127D01*
X70982865Y-103583340D01*
X70983025Y-103583533D01*
X70976921Y-103588582D01*
X70927054Y-103641685D01*
X70905071Y-103663668D01*
X70900527Y-103669525D01*
X70896678Y-103674031D01*
X70863029Y-103709865D01*
X70863027Y-103709867D01*
X70852691Y-103728667D01*
X70841843Y-103745180D01*
X70828699Y-103762126D01*
X70828694Y-103762135D01*
X70809172Y-103807247D01*
X70806560Y-103812577D01*
X70782877Y-103855660D01*
X70782873Y-103855670D01*
X70777541Y-103876436D01*
X70771139Y-103895136D01*
X70762620Y-103914820D01*
X70762619Y-103914824D01*
X70754928Y-103963384D01*
X70753724Y-103969197D01*
X70741500Y-104016810D01*
X70741500Y-104038258D01*
X70739949Y-104057967D01*
X70736594Y-104079150D01*
X70736594Y-104079152D01*
X70741220Y-104128094D01*
X70741500Y-104134027D01*
X70741500Y-127713389D01*
X70739708Y-127729620D01*
X70739958Y-127729644D01*
X70739211Y-127737536D01*
X70741500Y-127810341D01*
X70741500Y-127841430D01*
X70742427Y-127848776D01*
X70742893Y-127854690D01*
X70744437Y-127903829D01*
X70744438Y-127903832D01*
X70750421Y-127924429D01*
X70754428Y-127943780D01*
X70757117Y-127965060D01*
X70757117Y-127965062D01*
X70775216Y-128010778D01*
X70777139Y-128016394D01*
X70790853Y-128063597D01*
X70790853Y-128063598D01*
X70801771Y-128082058D01*
X70810468Y-128099811D01*
X70818364Y-128119755D01*
X70818367Y-128119760D01*
X70836352Y-128144513D01*
X70847265Y-128159532D01*
X70850521Y-128164490D01*
X70875547Y-128206807D01*
X70890714Y-128221974D01*
X70903552Y-128237005D01*
X70916158Y-128254356D01*
X70954039Y-128285694D01*
X70958420Y-128289680D01*
X71548984Y-128880244D01*
X72104595Y-129435855D01*
X72138621Y-129498167D01*
X72141500Y-129524950D01*
X72141500Y-132721958D01*
X72121498Y-132790079D01*
X72067842Y-132836572D01*
X71997568Y-132846676D01*
X71932988Y-132817182D01*
X71907474Y-132780462D01*
X71904762Y-132781943D01*
X71900444Y-132774034D01*
X71812904Y-132657095D01*
X71695965Y-132569555D01*
X71559093Y-132518505D01*
X71498597Y-132512000D01*
X70454000Y-132512000D01*
X70454000Y-133270000D01*
X69675376Y-133270000D01*
X69602455Y-133284505D01*
X69519760Y-133339760D01*
X69464505Y-133422455D01*
X69445102Y-133520000D01*
X69464505Y-133617545D01*
X69519760Y-133700240D01*
X69602455Y-133755495D01*
X69675376Y-133770000D01*
X70454000Y-133770000D01*
X70454000Y-134528000D01*
X71498585Y-134528000D01*
X71498597Y-134527999D01*
X71559093Y-134521494D01*
X71695964Y-134470444D01*
X71695965Y-134470444D01*
X71812904Y-134382904D01*
X71900444Y-134265965D01*
X71904762Y-134258057D01*
X71908046Y-134259850D01*
X71939975Y-134217185D01*
X72006491Y-134192363D01*
X72075867Y-134207444D01*
X72126078Y-134257638D01*
X72141500Y-134318041D01*
X72141500Y-135821958D01*
X72121498Y-135890079D01*
X72067842Y-135936572D01*
X71997568Y-135946676D01*
X71932988Y-135917182D01*
X71907474Y-135880462D01*
X71904762Y-135881943D01*
X71900444Y-135874034D01*
X71812904Y-135757095D01*
X71695965Y-135669555D01*
X71559093Y-135618505D01*
X71498597Y-135612000D01*
X70454000Y-135612000D01*
X70454000Y-136370000D01*
X69675376Y-136370000D01*
X69602455Y-136384505D01*
X69519760Y-136439760D01*
X69464505Y-136522455D01*
X69445102Y-136620000D01*
X69464505Y-136717545D01*
X69519760Y-136800240D01*
X69602455Y-136855495D01*
X69675376Y-136870000D01*
X70454000Y-136870000D01*
X70454000Y-137628000D01*
X71498585Y-137628000D01*
X71498597Y-137627999D01*
X71559093Y-137621494D01*
X71695964Y-137570444D01*
X71695965Y-137570444D01*
X71812904Y-137482904D01*
X71900444Y-137365965D01*
X71904762Y-137358057D01*
X71908046Y-137359850D01*
X71939975Y-137317185D01*
X72006491Y-137292363D01*
X72075867Y-137307444D01*
X72126078Y-137357638D01*
X72141500Y-137418041D01*
X72141500Y-144120779D01*
X72121498Y-144188900D01*
X72067842Y-144235393D01*
X71997568Y-144245497D01*
X71932988Y-144216003D01*
X71904911Y-144181162D01*
X71900887Y-144173793D01*
X71813261Y-144056738D01*
X71696207Y-143969112D01*
X71696202Y-143969110D01*
X71559204Y-143918011D01*
X71559196Y-143918009D01*
X71498649Y-143911500D01*
X71498638Y-143911500D01*
X68901362Y-143911500D01*
X68901350Y-143911500D01*
X68840803Y-143918009D01*
X68840795Y-143918011D01*
X68703797Y-143969110D01*
X68703792Y-143969112D01*
X68586738Y-144056738D01*
X68499112Y-144173792D01*
X68499110Y-144173797D01*
X68448011Y-144310795D01*
X68448009Y-144310803D01*
X68441500Y-144371350D01*
X68441500Y-145006050D01*
X68421498Y-145074171D01*
X68367842Y-145120664D01*
X68297568Y-145130768D01*
X68232988Y-145101274D01*
X68226405Y-145095145D01*
X68095405Y-144964145D01*
X68061379Y-144901833D01*
X68058500Y-144875050D01*
X68058500Y-140124335D01*
X68699500Y-140124335D01*
X68719398Y-140243578D01*
X68740428Y-140369609D01*
X68740430Y-140369618D01*
X68821170Y-140604807D01*
X68821171Y-140604809D01*
X68939525Y-140823508D01*
X68939526Y-140823509D01*
X69092267Y-141019750D01*
X69275214Y-141188164D01*
X69483393Y-141324173D01*
X69483392Y-141324173D01*
X69600783Y-141375665D01*
X69711119Y-141424063D01*
X69711120Y-141424063D01*
X69711122Y-141424064D01*
X69912066Y-141474950D01*
X69952179Y-141485108D01*
X70117446Y-141498802D01*
X70137931Y-141500500D01*
X70137933Y-141500500D01*
X70262069Y-141500500D01*
X70281483Y-141498891D01*
X70447821Y-141485108D01*
X70688881Y-141424063D01*
X70916607Y-141324173D01*
X71124785Y-141188164D01*
X71124784Y-141188163D01*
X71307732Y-141019750D01*
X71307733Y-141019748D01*
X71307738Y-141019744D01*
X71460474Y-140823509D01*
X71578828Y-140604810D01*
X71659571Y-140369614D01*
X71700500Y-140124335D01*
X71700500Y-139875665D01*
X71659571Y-139630386D01*
X71598998Y-139453944D01*
X71578829Y-139395192D01*
X71578828Y-139395190D01*
X71460474Y-139176491D01*
X71460473Y-139176490D01*
X71388598Y-139084145D01*
X71307738Y-138980256D01*
X71307736Y-138980254D01*
X71307732Y-138980249D01*
X71124785Y-138811835D01*
X70916606Y-138675826D01*
X70916607Y-138675826D01*
X70688884Y-138575938D01*
X70688877Y-138575935D01*
X70447828Y-138514893D01*
X70447823Y-138514892D01*
X70447821Y-138514892D01*
X70314630Y-138503855D01*
X70262069Y-138499500D01*
X70262067Y-138499500D01*
X70137933Y-138499500D01*
X70137931Y-138499500D01*
X70076707Y-138504573D01*
X69952179Y-138514892D01*
X69952177Y-138514892D01*
X69952171Y-138514893D01*
X69711122Y-138575935D01*
X69711115Y-138575938D01*
X69483393Y-138675826D01*
X69275214Y-138811835D01*
X69092267Y-138980249D01*
X68939526Y-139176490D01*
X68939525Y-139176491D01*
X68821171Y-139395190D01*
X68821170Y-139395192D01*
X68740430Y-139630381D01*
X68740428Y-139630390D01*
X68731462Y-139684121D01*
X68699500Y-139875665D01*
X68699500Y-140124335D01*
X68058500Y-140124335D01*
X68058500Y-136874000D01*
X68442000Y-136874000D01*
X68442000Y-137168597D01*
X68448505Y-137229093D01*
X68499555Y-137365964D01*
X68499555Y-137365965D01*
X68587095Y-137482904D01*
X68704034Y-137570444D01*
X68840906Y-137621494D01*
X68901402Y-137627999D01*
X68901415Y-137628000D01*
X69946000Y-137628000D01*
X69946000Y-136874000D01*
X68442000Y-136874000D01*
X68058500Y-136874000D01*
X68058500Y-136366000D01*
X68442000Y-136366000D01*
X69946000Y-136366000D01*
X69946000Y-135612000D01*
X68901402Y-135612000D01*
X68840906Y-135618505D01*
X68704035Y-135669555D01*
X68704034Y-135669555D01*
X68587095Y-135757095D01*
X68499555Y-135874034D01*
X68499555Y-135874035D01*
X68448505Y-136010906D01*
X68442000Y-136071402D01*
X68442000Y-136366000D01*
X68058500Y-136366000D01*
X68058500Y-133774000D01*
X68442000Y-133774000D01*
X68442000Y-134068597D01*
X68448505Y-134129093D01*
X68499555Y-134265964D01*
X68499555Y-134265965D01*
X68587095Y-134382904D01*
X68704034Y-134470444D01*
X68840906Y-134521494D01*
X68901402Y-134527999D01*
X68901415Y-134528000D01*
X69946000Y-134528000D01*
X69946000Y-133774000D01*
X68442000Y-133774000D01*
X68058500Y-133774000D01*
X68058500Y-133266000D01*
X68442000Y-133266000D01*
X69946000Y-133266000D01*
X69946000Y-132512000D01*
X68901402Y-132512000D01*
X68840906Y-132518505D01*
X68704035Y-132569555D01*
X68704034Y-132569555D01*
X68587095Y-132657095D01*
X68499555Y-132774034D01*
X68499555Y-132774035D01*
X68448505Y-132910906D01*
X68442000Y-132971402D01*
X68442000Y-133266000D01*
X68058500Y-133266000D01*
X68058500Y-130724948D01*
X68078502Y-130656827D01*
X68095400Y-130635858D01*
X69904384Y-128826873D01*
X69917129Y-128816665D01*
X69916969Y-128816471D01*
X69923070Y-128811422D01*
X69923080Y-128811416D01*
X69972960Y-128758298D01*
X69994926Y-128736333D01*
X69999462Y-128730483D01*
X70003306Y-128725982D01*
X70036972Y-128690133D01*
X70047303Y-128671339D01*
X70058151Y-128654823D01*
X70071304Y-128637869D01*
X70090845Y-128592710D01*
X70093428Y-128587438D01*
X70117124Y-128544337D01*
X70122460Y-128523549D01*
X70128857Y-128504869D01*
X70137379Y-128485177D01*
X70145072Y-128436596D01*
X70146271Y-128430811D01*
X70158500Y-128383188D01*
X70158500Y-128361742D01*
X70160051Y-128342031D01*
X70163406Y-128320849D01*
X70158780Y-128271907D01*
X70158500Y-128265974D01*
X70158500Y-115586611D01*
X70160292Y-115570382D01*
X70160042Y-115570359D01*
X70160788Y-115562465D01*
X70158500Y-115489657D01*
X70158500Y-115458576D01*
X70158500Y-115458568D01*
X70157571Y-115451220D01*
X70157106Y-115445316D01*
X70155562Y-115396169D01*
X70149580Y-115375581D01*
X70145570Y-115356218D01*
X70142881Y-115334932D01*
X70128731Y-115299197D01*
X70124778Y-115289214D01*
X70122860Y-115283610D01*
X70109145Y-115236399D01*
X70098228Y-115217940D01*
X70089529Y-115200182D01*
X70081637Y-115180248D01*
X70081635Y-115180245D01*
X70081635Y-115180244D01*
X70052731Y-115140462D01*
X70049479Y-115135511D01*
X70024452Y-115093193D01*
X70024451Y-115093192D01*
X70024450Y-115093190D01*
X70009291Y-115078031D01*
X69996450Y-115062998D01*
X69992030Y-115056914D01*
X69983841Y-115045643D01*
X69945953Y-115014299D01*
X69941571Y-115010312D01*
X60631263Y-105700003D01*
X63821493Y-105700003D01*
X63841498Y-106005231D01*
X63841500Y-106005245D01*
X63870189Y-106149470D01*
X63900070Y-106299692D01*
X63901176Y-106305248D01*
X63901178Y-106305258D01*
X63999498Y-106594900D01*
X63999504Y-106594914D01*
X64134792Y-106869251D01*
X64304731Y-107123584D01*
X64304734Y-107123588D01*
X64506425Y-107353574D01*
X64652063Y-107481294D01*
X64736407Y-107555262D01*
X64736409Y-107555263D01*
X64736411Y-107555265D01*
X64736415Y-107555268D01*
X64904417Y-107667523D01*
X64990746Y-107725206D01*
X65265092Y-107860499D01*
X65554750Y-107958824D01*
X65854764Y-108018501D01*
X66029184Y-108029932D01*
X66159997Y-108038507D01*
X66160000Y-108038507D01*
X66160003Y-108038507D01*
X66274463Y-108031004D01*
X66465236Y-108018501D01*
X66765250Y-107958824D01*
X67054908Y-107860499D01*
X67329254Y-107725206D01*
X67583593Y-107555262D01*
X67813574Y-107353574D01*
X68015262Y-107123593D01*
X68185206Y-106869254D01*
X68320499Y-106594908D01*
X68418824Y-106305250D01*
X68478501Y-106005236D01*
X68498507Y-105700000D01*
X68492160Y-105603170D01*
X68485716Y-105504852D01*
X68478501Y-105394764D01*
X68418824Y-105094750D01*
X68320499Y-104805092D01*
X68185206Y-104530747D01*
X68015262Y-104276407D01*
X67813574Y-104046426D01*
X67813571Y-104046424D01*
X67813570Y-104046422D01*
X67630685Y-103886037D01*
X67583593Y-103844738D01*
X67583591Y-103844736D01*
X67583588Y-103844734D01*
X67583584Y-103844731D01*
X67329251Y-103674792D01*
X67054914Y-103539504D01*
X67054908Y-103539501D01*
X67054903Y-103539499D01*
X67054900Y-103539498D01*
X66765258Y-103441178D01*
X66765252Y-103441176D01*
X66765250Y-103441176D01*
X66664789Y-103421193D01*
X66465245Y-103381500D01*
X66465231Y-103381498D01*
X66160003Y-103361493D01*
X66159997Y-103361493D01*
X65854768Y-103381498D01*
X65854754Y-103381500D01*
X65604980Y-103431184D01*
X65554750Y-103441176D01*
X65554748Y-103441176D01*
X65554741Y-103441178D01*
X65265099Y-103539498D01*
X65265091Y-103539501D01*
X64990741Y-103674797D01*
X64736409Y-103844736D01*
X64506426Y-104046426D01*
X64304736Y-104276409D01*
X64134797Y-104530741D01*
X63999501Y-104805091D01*
X63999498Y-104805099D01*
X63901178Y-105094741D01*
X63901176Y-105094748D01*
X63901176Y-105094750D01*
X63891184Y-105144980D01*
X63841500Y-105394754D01*
X63841498Y-105394768D01*
X63821493Y-105699996D01*
X63821493Y-105700003D01*
X60631263Y-105700003D01*
X60505405Y-105574145D01*
X60471379Y-105511833D01*
X60468500Y-105485050D01*
X60468500Y-100651233D01*
X60488502Y-100583112D01*
X60542158Y-100536619D01*
X60612432Y-100526515D01*
X60642651Y-100535520D01*
X60642754Y-100535238D01*
X60647510Y-100536969D01*
X60647759Y-100537043D01*
X60647924Y-100537120D01*
X60860629Y-100594115D01*
X61080000Y-100613307D01*
X61299371Y-100594115D01*
X61512076Y-100537120D01*
X61711654Y-100444056D01*
X61892038Y-100317749D01*
X62047749Y-100162038D01*
X62174056Y-99981654D01*
X62228000Y-99865971D01*
X62235805Y-99849232D01*
X62282722Y-99795946D01*
X62350999Y-99776485D01*
X62418959Y-99797026D01*
X62464195Y-99849232D01*
X62472000Y-99865971D01*
X62525944Y-99981654D01*
X62618588Y-100113962D01*
X62652251Y-100162038D01*
X62652254Y-100162042D01*
X62807957Y-100317745D01*
X62807961Y-100317748D01*
X62807962Y-100317749D01*
X62988346Y-100444056D01*
X63187924Y-100537120D01*
X63400629Y-100594115D01*
X63620000Y-100613307D01*
X63839371Y-100594115D01*
X64052076Y-100537120D01*
X64251654Y-100444056D01*
X64432038Y-100317749D01*
X64587749Y-100162038D01*
X64714056Y-99981654D01*
X64807120Y-99782076D01*
X64864115Y-99569371D01*
X64883307Y-99350000D01*
X64864115Y-99130629D01*
X64807120Y-98917924D01*
X64714056Y-98718347D01*
X64587749Y-98537962D01*
X64432038Y-98382251D01*
X64251654Y-98255944D01*
X64231500Y-98246546D01*
X64052079Y-98162881D01*
X64052073Y-98162879D01*
X63926856Y-98129327D01*
X63839371Y-98105885D01*
X63620000Y-98086693D01*
X63619999Y-98086693D01*
X63400629Y-98105885D01*
X63187926Y-98162879D01*
X63187920Y-98162881D01*
X62988346Y-98255944D01*
X62807965Y-98382248D01*
X62807959Y-98382253D01*
X62652253Y-98537959D01*
X62652248Y-98537965D01*
X62525944Y-98718346D01*
X62464195Y-98850768D01*
X62417278Y-98904053D01*
X62349000Y-98923514D01*
X62281040Y-98902972D01*
X62235805Y-98850768D01*
X62215488Y-98807198D01*
X62174056Y-98718347D01*
X62047749Y-98537962D01*
X61892038Y-98382251D01*
X61711654Y-98255944D01*
X61691500Y-98246546D01*
X61512079Y-98162881D01*
X61512073Y-98162879D01*
X61386856Y-98129327D01*
X61299371Y-98105885D01*
X61080000Y-98086693D01*
X61079999Y-98086693D01*
X60860629Y-98105885D01*
X60647926Y-98162879D01*
X60647915Y-98162883D01*
X60647747Y-98162962D01*
X60647665Y-98162974D01*
X60642754Y-98164762D01*
X60642394Y-98163774D01*
X60577555Y-98173621D01*
X60512743Y-98144640D01*
X60473888Y-98085219D01*
X60468500Y-98048766D01*
X60468500Y-97950849D01*
X60488502Y-97882728D01*
X60522227Y-97847637D01*
X60622038Y-97777749D01*
X60777749Y-97622038D01*
X60904056Y-97441654D01*
X60965804Y-97309232D01*
X61012722Y-97255946D01*
X61080999Y-97236485D01*
X61148959Y-97257026D01*
X61194195Y-97309232D01*
X61255944Y-97441654D01*
X61382250Y-97622037D01*
X61382251Y-97622038D01*
X61382254Y-97622042D01*
X61537957Y-97777745D01*
X61537961Y-97777748D01*
X61537962Y-97777749D01*
X61718346Y-97904056D01*
X61917924Y-97997120D01*
X62130629Y-98054115D01*
X62350000Y-98073307D01*
X62569371Y-98054115D01*
X62782076Y-97997120D01*
X62981654Y-97904056D01*
X63162038Y-97777749D01*
X63317749Y-97622038D01*
X63444056Y-97441654D01*
X63505805Y-97309229D01*
X63552720Y-97255947D01*
X63620997Y-97236485D01*
X63688957Y-97257026D01*
X63734194Y-97309231D01*
X63795941Y-97441648D01*
X63795944Y-97441654D01*
X63922251Y-97622037D01*
X63922251Y-97622038D01*
X63922254Y-97622042D01*
X64077957Y-97777745D01*
X64077961Y-97777748D01*
X64077962Y-97777749D01*
X64258346Y-97904056D01*
X64457924Y-97997120D01*
X64670629Y-98054115D01*
X64890000Y-98073307D01*
X65109371Y-98054115D01*
X65322076Y-97997120D01*
X65521654Y-97904056D01*
X65702038Y-97777749D01*
X65857749Y-97622038D01*
X65984056Y-97441654D01*
X66077120Y-97242076D01*
X66134115Y-97029371D01*
X66153307Y-96810000D01*
X66134115Y-96590629D01*
X66077120Y-96377924D01*
X65984056Y-96178347D01*
X65857749Y-95997962D01*
X65702038Y-95842251D01*
X65521654Y-95715944D01*
X65521648Y-95715941D01*
X65521648Y-95715940D01*
X65484664Y-95698695D01*
X65431378Y-95651778D01*
X65411917Y-95583501D01*
X65432459Y-95515541D01*
X65486481Y-95469475D01*
X65537913Y-95458500D01*
X74535050Y-95458500D01*
X74603171Y-95478502D01*
G37*
%TD.AperFunction*%
%TA.AperFunction,Conductor*%
G36*
X51561890Y-86729166D02*
G01*
X51654424Y-86801189D01*
X51852426Y-86908342D01*
X51852427Y-86908342D01*
X51852428Y-86908343D01*
X51964227Y-86946723D01*
X52065365Y-86981444D01*
X52287431Y-87018500D01*
X52287435Y-87018500D01*
X52512564Y-87018500D01*
X52512569Y-87018500D01*
X52718271Y-86984174D01*
X52788751Y-86992691D01*
X52828101Y-87019361D01*
X61013125Y-95204385D01*
X61023338Y-95217131D01*
X61023531Y-95216972D01*
X61028583Y-95223079D01*
X61028584Y-95223080D01*
X61081685Y-95272945D01*
X61103667Y-95294927D01*
X61103675Y-95294933D01*
X61109517Y-95299465D01*
X61114033Y-95303322D01*
X61149867Y-95336972D01*
X61168669Y-95347308D01*
X61185175Y-95358151D01*
X61202132Y-95371304D01*
X61247254Y-95390829D01*
X61252580Y-95393439D01*
X61295659Y-95417123D01*
X61295663Y-95417124D01*
X61316432Y-95422456D01*
X61335134Y-95428859D01*
X61354824Y-95437380D01*
X61403395Y-95445072D01*
X61409189Y-95446271D01*
X61456812Y-95458500D01*
X61478259Y-95458500D01*
X61497967Y-95460050D01*
X61519152Y-95463406D01*
X61556880Y-95459839D01*
X61568094Y-95458780D01*
X61574027Y-95458500D01*
X61702088Y-95458500D01*
X61770209Y-95478502D01*
X61816702Y-95532158D01*
X61826806Y-95602432D01*
X61797312Y-95667012D01*
X61755337Y-95698695D01*
X61718348Y-95715942D01*
X61537965Y-95842248D01*
X61537959Y-95842253D01*
X61382253Y-95997959D01*
X61382248Y-95997965D01*
X61255942Y-96178348D01*
X61194193Y-96310769D01*
X61147276Y-96364053D01*
X61078999Y-96383514D01*
X61011039Y-96362972D01*
X60965804Y-96310767D01*
X60904057Y-96178348D01*
X60777751Y-95997965D01*
X60777749Y-95997962D01*
X60622038Y-95842251D01*
X60441654Y-95715944D01*
X60441648Y-95715941D01*
X60242079Y-95622881D01*
X60242073Y-95622879D01*
X60152178Y-95598791D01*
X60029371Y-95565885D01*
X59810000Y-95546693D01*
X59590629Y-95565885D01*
X59377926Y-95622879D01*
X59377920Y-95622881D01*
X59178346Y-95715944D01*
X58997965Y-95842248D01*
X58997959Y-95842253D01*
X58842253Y-95997959D01*
X58842248Y-95997965D01*
X58715944Y-96178346D01*
X58654195Y-96310768D01*
X58607278Y-96364053D01*
X58539000Y-96383514D01*
X58471040Y-96362972D01*
X58425805Y-96310768D01*
X58364056Y-96178348D01*
X58364056Y-96178347D01*
X58237749Y-95997962D01*
X58082038Y-95842251D01*
X57901654Y-95715944D01*
X57901648Y-95715941D01*
X57702079Y-95622881D01*
X57702073Y-95622879D01*
X57612178Y-95598791D01*
X57489371Y-95565885D01*
X57270000Y-95546693D01*
X57050629Y-95565885D01*
X56837926Y-95622879D01*
X56837920Y-95622881D01*
X56638346Y-95715944D01*
X56457965Y-95842248D01*
X56457959Y-95842253D01*
X56302253Y-95997959D01*
X56302248Y-95997965D01*
X56175944Y-96178346D01*
X56082881Y-96377920D01*
X56082879Y-96377926D01*
X56025885Y-96590629D01*
X56006693Y-96810000D01*
X56025885Y-97029370D01*
X56082879Y-97242073D01*
X56082881Y-97242079D01*
X56114195Y-97309232D01*
X56175944Y-97441654D01*
X56302250Y-97622037D01*
X56302251Y-97622038D01*
X56302254Y-97622042D01*
X56457957Y-97777745D01*
X56457966Y-97777752D01*
X56578694Y-97862287D01*
X56623023Y-97917744D01*
X56630332Y-97988363D01*
X56598302Y-98051724D01*
X56537100Y-98087709D01*
X56506424Y-98091500D01*
X55201350Y-98091500D01*
X55140803Y-98098009D01*
X55140795Y-98098011D01*
X55003797Y-98149110D01*
X55003792Y-98149112D01*
X54886738Y-98236738D01*
X54799112Y-98353792D01*
X54799110Y-98353797D01*
X54748011Y-98490795D01*
X54748009Y-98490803D01*
X54741500Y-98551350D01*
X54741500Y-100148649D01*
X54748009Y-100209196D01*
X54748011Y-100209204D01*
X54799110Y-100346202D01*
X54799112Y-100346207D01*
X54886738Y-100463261D01*
X55003792Y-100550887D01*
X55003794Y-100550888D01*
X55003796Y-100550889D01*
X55015746Y-100555346D01*
X55140795Y-100601988D01*
X55140803Y-100601990D01*
X55201350Y-100608499D01*
X55201355Y-100608499D01*
X55201362Y-100608500D01*
X55201368Y-100608500D01*
X56798632Y-100608500D01*
X56798638Y-100608500D01*
X56798645Y-100608499D01*
X56798649Y-100608499D01*
X56859196Y-100601990D01*
X56859199Y-100601989D01*
X56859201Y-100601989D01*
X56996204Y-100550889D01*
X57014698Y-100537045D01*
X57113261Y-100463261D01*
X57200887Y-100346207D01*
X57200887Y-100346206D01*
X57200889Y-100346204D01*
X57251989Y-100209201D01*
X57254052Y-100190018D01*
X57258499Y-100148649D01*
X57258500Y-100148632D01*
X57258500Y-100113576D01*
X57278502Y-100045455D01*
X57332158Y-99998962D01*
X57402432Y-99988858D01*
X57467012Y-100018352D01*
X57487713Y-100041306D01*
X57572247Y-100162033D01*
X57572254Y-100162042D01*
X57727957Y-100317745D01*
X57727961Y-100317748D01*
X57727962Y-100317749D01*
X57827771Y-100387636D01*
X57872099Y-100443093D01*
X57881500Y-100490849D01*
X57881500Y-105535049D01*
X57861498Y-105603170D01*
X57844595Y-105624145D01*
X57239162Y-106229577D01*
X57176850Y-106263602D01*
X57106034Y-106258537D01*
X57049199Y-106215990D01*
X57024388Y-106149470D01*
X57026487Y-106115903D01*
X57048501Y-106005236D01*
X57068507Y-105700000D01*
X57062160Y-105603170D01*
X57055716Y-105504852D01*
X57048501Y-105394764D01*
X56988824Y-105094750D01*
X56890499Y-104805092D01*
X56755206Y-104530747D01*
X56585262Y-104276407D01*
X56383574Y-104046426D01*
X56383571Y-104046424D01*
X56383570Y-104046422D01*
X56200685Y-103886037D01*
X56153593Y-103844738D01*
X56153591Y-103844736D01*
X56153588Y-103844734D01*
X56153584Y-103844731D01*
X55899251Y-103674792D01*
X55624914Y-103539504D01*
X55624908Y-103539501D01*
X55624903Y-103539499D01*
X55624900Y-103539498D01*
X55335258Y-103441178D01*
X55335252Y-103441176D01*
X55335250Y-103441176D01*
X55234789Y-103421193D01*
X55035245Y-103381500D01*
X55035231Y-103381498D01*
X54730003Y-103361493D01*
X54729997Y-103361493D01*
X54424768Y-103381498D01*
X54424754Y-103381500D01*
X54174980Y-103431184D01*
X54124750Y-103441176D01*
X54124748Y-103441176D01*
X54124741Y-103441178D01*
X53835099Y-103539498D01*
X53835091Y-103539501D01*
X53560741Y-103674797D01*
X53306409Y-103844736D01*
X53076426Y-104046426D01*
X52874736Y-104276409D01*
X52704797Y-104530741D01*
X52569501Y-104805091D01*
X52569498Y-104805099D01*
X52471178Y-105094741D01*
X52471176Y-105094748D01*
X52471176Y-105094750D01*
X52461184Y-105144980D01*
X52411500Y-105394754D01*
X52411498Y-105394768D01*
X52391493Y-105699996D01*
X52391493Y-105700003D01*
X52411498Y-106005231D01*
X52411500Y-106005245D01*
X52440189Y-106149470D01*
X52470070Y-106299692D01*
X52471176Y-106305248D01*
X52471178Y-106305258D01*
X52569498Y-106594900D01*
X52569504Y-106594914D01*
X52704792Y-106869251D01*
X52874731Y-107123584D01*
X52874734Y-107123588D01*
X53076425Y-107353574D01*
X53222063Y-107481294D01*
X53306407Y-107555262D01*
X53306409Y-107555263D01*
X53306411Y-107555265D01*
X53306415Y-107555268D01*
X53474417Y-107667523D01*
X53560746Y-107725206D01*
X53835092Y-107860499D01*
X54124750Y-107958824D01*
X54424764Y-108018501D01*
X54599184Y-108029933D01*
X54729997Y-108038507D01*
X54730000Y-108038507D01*
X54730003Y-108038507D01*
X54844463Y-108031004D01*
X55035236Y-108018501D01*
X55145900Y-107996488D01*
X55216613Y-108002816D01*
X55272680Y-108046370D01*
X55296300Y-108113322D01*
X55279974Y-108182416D01*
X55259576Y-108209162D01*
X51595611Y-111873127D01*
X51582865Y-111883340D01*
X51583025Y-111883533D01*
X51576919Y-111888583D01*
X51576343Y-111889198D01*
X51575771Y-111889533D01*
X51570813Y-111893636D01*
X51570150Y-111892835D01*
X51515127Y-111925158D01*
X51444187Y-111922314D01*
X51386047Y-111881569D01*
X51359164Y-111815858D01*
X51358500Y-111802937D01*
X51358500Y-86828598D01*
X51378502Y-86760477D01*
X51432158Y-86713984D01*
X51502432Y-86703880D01*
X51561890Y-86729166D01*
G37*
%TD.AperFunction*%
%TA.AperFunction,Conductor*%
G36*
X85243171Y-59278502D02*
G01*
X85264145Y-59295405D01*
X87195145Y-61226405D01*
X87229171Y-61288717D01*
X87224106Y-61359532D01*
X87181559Y-61416368D01*
X87115039Y-61441179D01*
X87106050Y-61441500D01*
X87001350Y-61441500D01*
X86940803Y-61448009D01*
X86940795Y-61448011D01*
X86803797Y-61499110D01*
X86803792Y-61499112D01*
X86686738Y-61586738D01*
X86599112Y-61703792D01*
X86599110Y-61703797D01*
X86548011Y-61840795D01*
X86548009Y-61840803D01*
X86541500Y-61901350D01*
X86541500Y-63698649D01*
X86548009Y-63759196D01*
X86548011Y-63759204D01*
X86599110Y-63896202D01*
X86599112Y-63896207D01*
X86686738Y-64013261D01*
X86803791Y-64100886D01*
X86803792Y-64100886D01*
X86803796Y-64100889D01*
X86918810Y-64143787D01*
X86975642Y-64186332D01*
X87000453Y-64252852D01*
X86985362Y-64322226D01*
X86967475Y-64347179D01*
X86824280Y-64502729D01*
X86824275Y-64502734D01*
X86701141Y-64691206D01*
X86610703Y-64897386D01*
X86610702Y-64897387D01*
X86555437Y-65115624D01*
X86536844Y-65340000D01*
X86555436Y-65564369D01*
X86576038Y-65645724D01*
X86573370Y-65716671D01*
X86542988Y-65765750D01*
X83695611Y-68613127D01*
X83682865Y-68623340D01*
X83683025Y-68623533D01*
X83676921Y-68628582D01*
X83627054Y-68681685D01*
X83605071Y-68703668D01*
X83600527Y-68709525D01*
X83596678Y-68714031D01*
X83563029Y-68749865D01*
X83563027Y-68749867D01*
X83552691Y-68768667D01*
X83541843Y-68785180D01*
X83528699Y-68802126D01*
X83528694Y-68802135D01*
X83509172Y-68847247D01*
X83506560Y-68852577D01*
X83482877Y-68895660D01*
X83482873Y-68895670D01*
X83477541Y-68916436D01*
X83471139Y-68935136D01*
X83462620Y-68954820D01*
X83462619Y-68954824D01*
X83454928Y-69003384D01*
X83453724Y-69009197D01*
X83441500Y-69056810D01*
X83441500Y-69078258D01*
X83439949Y-69097967D01*
X83436594Y-69119150D01*
X83436594Y-69119152D01*
X83441220Y-69168094D01*
X83441500Y-69174027D01*
X83441500Y-93613389D01*
X83439708Y-93629620D01*
X83439958Y-93629644D01*
X83439211Y-93637536D01*
X83441500Y-93710341D01*
X83441500Y-93741430D01*
X83442427Y-93748776D01*
X83442893Y-93754690D01*
X83444437Y-93803829D01*
X83444438Y-93803832D01*
X83450421Y-93824429D01*
X83454428Y-93843780D01*
X83457117Y-93865060D01*
X83457117Y-93865062D01*
X83475216Y-93910778D01*
X83477139Y-93916394D01*
X83490853Y-93963597D01*
X83490853Y-93963598D01*
X83501771Y-93982058D01*
X83510468Y-93999811D01*
X83518364Y-94019755D01*
X83518367Y-94019760D01*
X83536352Y-94044513D01*
X83547265Y-94059532D01*
X83550521Y-94064490D01*
X83575547Y-94106807D01*
X83590714Y-94121974D01*
X83603551Y-94137004D01*
X83616159Y-94154357D01*
X83626146Y-94162619D01*
X83654039Y-94185694D01*
X83658420Y-94189680D01*
X84241500Y-94772760D01*
X84821679Y-95352939D01*
X84855705Y-95415251D01*
X84850640Y-95486066D01*
X84808093Y-95542902D01*
X84741573Y-95567713D01*
X84714854Y-95566334D01*
X84714852Y-95566365D01*
X84714005Y-95566290D01*
X84710711Y-95566121D01*
X84709378Y-95565886D01*
X84709373Y-95565885D01*
X84709371Y-95565885D01*
X84490000Y-95546693D01*
X84489999Y-95546693D01*
X84270629Y-95565885D01*
X84057926Y-95622879D01*
X84057920Y-95622881D01*
X83858346Y-95715944D01*
X83677965Y-95842248D01*
X83677959Y-95842253D01*
X83522253Y-95997959D01*
X83522248Y-95997965D01*
X83395944Y-96178346D01*
X83334195Y-96310768D01*
X83287278Y-96364053D01*
X83219000Y-96383514D01*
X83151040Y-96362972D01*
X83105805Y-96310768D01*
X83044056Y-96178348D01*
X83044056Y-96178347D01*
X82917749Y-95997962D01*
X82762038Y-95842251D01*
X82581654Y-95715944D01*
X82581648Y-95715941D01*
X82382079Y-95622881D01*
X82382073Y-95622879D01*
X82292178Y-95598791D01*
X82169371Y-95565885D01*
X81950000Y-95546693D01*
X81949999Y-95546693D01*
X81730629Y-95565885D01*
X81517926Y-95622879D01*
X81517920Y-95622881D01*
X81318346Y-95715944D01*
X81137965Y-95842248D01*
X81137959Y-95842253D01*
X80982253Y-95997959D01*
X80982248Y-95997965D01*
X80855944Y-96178346D01*
X80794195Y-96310768D01*
X80747278Y-96364053D01*
X80679000Y-96383514D01*
X80611040Y-96362972D01*
X80565805Y-96310768D01*
X80504056Y-96178348D01*
X80504056Y-96178347D01*
X80377749Y-95997962D01*
X80222038Y-95842251D01*
X80041654Y-95715944D01*
X80041648Y-95715941D01*
X79842079Y-95622881D01*
X79842073Y-95622879D01*
X79752178Y-95598791D01*
X79629371Y-95565885D01*
X79410000Y-95546693D01*
X79190629Y-95565885D01*
X79017111Y-95612379D01*
X78946134Y-95610689D01*
X78887339Y-95570895D01*
X78859391Y-95505630D01*
X78858500Y-95490672D01*
X78858500Y-63486611D01*
X78860292Y-63470382D01*
X78860042Y-63470359D01*
X78860788Y-63462465D01*
X78858500Y-63389657D01*
X78858500Y-63358576D01*
X78858500Y-63358568D01*
X78857571Y-63351220D01*
X78857106Y-63345316D01*
X78855562Y-63296169D01*
X78849579Y-63275576D01*
X78845571Y-63256218D01*
X78842882Y-63234939D01*
X78842882Y-63234936D01*
X78824777Y-63189208D01*
X78822863Y-63183619D01*
X78809145Y-63136400D01*
X78798226Y-63117939D01*
X78789528Y-63100182D01*
X78781635Y-63080244D01*
X78752731Y-63040461D01*
X78749471Y-63035498D01*
X78724450Y-62993190D01*
X78709291Y-62978031D01*
X78696450Y-62962998D01*
X78683841Y-62945643D01*
X78645953Y-62914299D01*
X78641571Y-62910312D01*
X78152451Y-62421191D01*
X78118425Y-62358880D01*
X78123490Y-62288065D01*
X78166037Y-62231229D01*
X78220802Y-62207817D01*
X78446951Y-62170080D01*
X78667727Y-62094287D01*
X78873017Y-61983190D01*
X79057220Y-61839818D01*
X79215314Y-61668083D01*
X79342984Y-61472669D01*
X79436749Y-61258907D01*
X79494051Y-61032626D01*
X79513327Y-60800000D01*
X79494051Y-60567374D01*
X79436749Y-60341093D01*
X79342984Y-60127331D01*
X79244517Y-59976615D01*
X79215314Y-59931916D01*
X79057225Y-59760186D01*
X79057221Y-59760182D01*
X78965118Y-59688496D01*
X78873017Y-59616810D01*
X78667727Y-59505713D01*
X78667725Y-59505712D01*
X78667724Y-59505711D01*
X78661785Y-59503673D01*
X78603850Y-59462636D01*
X78577298Y-59396791D01*
X78590559Y-59327044D01*
X78639424Y-59275539D01*
X78702697Y-59258500D01*
X85175050Y-59258500D01*
X85243171Y-59278502D01*
G37*
%TD.AperFunction*%
%TA.AperFunction,Conductor*%
G36*
X90331621Y-40930502D02*
G01*
X90378114Y-40984158D01*
X90389500Y-41036500D01*
X90389500Y-74358057D01*
X90369498Y-74426178D01*
X90315842Y-74472671D01*
X90245568Y-74482775D01*
X90180988Y-74453281D01*
X90147736Y-74401540D01*
X90145800Y-74402307D01*
X90142882Y-74394936D01*
X90124777Y-74349208D01*
X90122863Y-74343619D01*
X90109145Y-74296400D01*
X90098224Y-74277935D01*
X90089531Y-74260189D01*
X90081635Y-74240244D01*
X90052736Y-74200470D01*
X90049482Y-74195517D01*
X90024453Y-74153193D01*
X90024452Y-74153191D01*
X90009288Y-74138027D01*
X89996447Y-74122993D01*
X89983841Y-74105643D01*
X89983836Y-74105638D01*
X89962718Y-74088169D01*
X89945950Y-74074297D01*
X89941577Y-74070317D01*
X89257010Y-73385750D01*
X89222984Y-73323438D01*
X89223961Y-73265724D01*
X89244564Y-73184368D01*
X89263156Y-72960000D01*
X89244564Y-72735632D01*
X89189296Y-72517384D01*
X89098860Y-72311209D01*
X89092140Y-72300924D01*
X88975724Y-72122734D01*
X88975720Y-72122729D01*
X88823237Y-71957091D01*
X88741382Y-71893381D01*
X88645576Y-71818811D01*
X88612319Y-71800813D01*
X88561929Y-71750802D01*
X88546576Y-71681485D01*
X88571136Y-71614872D01*
X88612320Y-71579186D01*
X88645576Y-71561189D01*
X88823240Y-71422906D01*
X88975722Y-71257268D01*
X89098860Y-71068791D01*
X89189296Y-70862616D01*
X89244564Y-70644368D01*
X89263156Y-70420000D01*
X89244564Y-70195632D01*
X89189296Y-69977384D01*
X89098860Y-69771209D01*
X89092140Y-69760924D01*
X88975724Y-69582734D01*
X88975720Y-69582729D01*
X88823237Y-69417091D01*
X88741382Y-69353381D01*
X88645576Y-69278811D01*
X88612319Y-69260813D01*
X88561929Y-69210802D01*
X88546576Y-69141485D01*
X88571136Y-69074872D01*
X88612320Y-69039186D01*
X88645576Y-69021189D01*
X88823240Y-68882906D01*
X88975722Y-68717268D01*
X89098860Y-68528791D01*
X89189296Y-68322616D01*
X89244564Y-68104368D01*
X89263156Y-67880000D01*
X89244564Y-67655632D01*
X89189296Y-67437384D01*
X89098860Y-67231209D01*
X89092140Y-67220924D01*
X88975724Y-67042734D01*
X88975720Y-67042729D01*
X88823237Y-66877091D01*
X88741382Y-66813381D01*
X88645576Y-66738811D01*
X88612319Y-66720813D01*
X88561929Y-66670802D01*
X88546576Y-66601485D01*
X88571136Y-66534872D01*
X88612320Y-66499186D01*
X88645576Y-66481189D01*
X88823240Y-66342906D01*
X88975722Y-66177268D01*
X89098860Y-65988791D01*
X89189296Y-65782616D01*
X89244564Y-65564368D01*
X89263156Y-65340000D01*
X89244564Y-65115632D01*
X89189296Y-64897384D01*
X89098860Y-64691209D01*
X89092140Y-64680924D01*
X88975724Y-64502734D01*
X88975719Y-64502729D01*
X88832524Y-64347179D01*
X88801103Y-64283514D01*
X88809090Y-64212968D01*
X88853948Y-64157939D01*
X88881183Y-64143789D01*
X88996204Y-64100889D01*
X89113261Y-64013261D01*
X89200889Y-63896204D01*
X89251989Y-63759201D01*
X89255672Y-63724949D01*
X89258499Y-63698649D01*
X89258500Y-63698632D01*
X89258500Y-61901367D01*
X89258499Y-61901350D01*
X89251990Y-61840803D01*
X89251988Y-61840795D01*
X89200889Y-61703797D01*
X89200887Y-61703792D01*
X89113261Y-61586738D01*
X88996207Y-61499112D01*
X88996202Y-61499110D01*
X88859204Y-61448011D01*
X88859196Y-61448009D01*
X88798649Y-61441500D01*
X88798638Y-61441500D01*
X88684500Y-61441500D01*
X88616379Y-61421498D01*
X88569886Y-61367842D01*
X88558500Y-61315500D01*
X88558500Y-61086615D01*
X88560292Y-61070380D01*
X88560043Y-61070357D01*
X88560789Y-61062464D01*
X88558500Y-60989625D01*
X88558500Y-60958570D01*
X88558500Y-60958568D01*
X88557570Y-60951217D01*
X88557107Y-60945331D01*
X88555563Y-60896169D01*
X88549579Y-60875573D01*
X88545569Y-60856212D01*
X88542882Y-60834936D01*
X88524780Y-60789218D01*
X88522862Y-60783614D01*
X88509145Y-60736400D01*
X88498224Y-60717935D01*
X88489531Y-60700189D01*
X88481635Y-60680244D01*
X88452736Y-60640470D01*
X88449482Y-60635517D01*
X88424453Y-60593193D01*
X88424452Y-60593191D01*
X88409288Y-60578027D01*
X88396447Y-60562993D01*
X88383841Y-60545643D01*
X88383836Y-60545638D01*
X88362718Y-60528169D01*
X88345950Y-60514297D01*
X88341577Y-60510317D01*
X86026874Y-58195614D01*
X86016664Y-58182869D01*
X86016471Y-58183030D01*
X86011417Y-58176921D01*
X85958314Y-58127054D01*
X85936343Y-58105082D01*
X85936325Y-58105066D01*
X85930482Y-58100534D01*
X85925967Y-58096678D01*
X85919613Y-58090711D01*
X85890133Y-58063028D01*
X85890130Y-58063026D01*
X85890125Y-58063023D01*
X85871338Y-58052694D01*
X85854818Y-58041843D01*
X85837867Y-58028695D01*
X85792739Y-58009166D01*
X85787421Y-58006561D01*
X85758851Y-57990855D01*
X85744338Y-57982876D01*
X85744335Y-57982875D01*
X85723568Y-57977543D01*
X85704865Y-57971140D01*
X85694703Y-57966743D01*
X85685176Y-57962620D01*
X85685174Y-57962619D01*
X85685175Y-57962619D01*
X85636619Y-57954929D01*
X85630804Y-57953725D01*
X85583188Y-57941500D01*
X85561741Y-57941500D01*
X85542032Y-57939949D01*
X85520848Y-57936594D01*
X85520847Y-57936594D01*
X85471906Y-57941220D01*
X85465973Y-57941500D01*
X74536611Y-57941500D01*
X74520379Y-57939708D01*
X74520356Y-57939958D01*
X74512463Y-57939211D01*
X74441877Y-57941430D01*
X74439658Y-57941500D01*
X74408568Y-57941500D01*
X74401222Y-57942427D01*
X74395309Y-57942893D01*
X74346172Y-57944437D01*
X74346170Y-57944437D01*
X74346169Y-57944438D01*
X74325571Y-57950421D01*
X74306221Y-57954428D01*
X74284940Y-57957116D01*
X74284935Y-57957118D01*
X74239214Y-57975219D01*
X74233599Y-57977141D01*
X74186406Y-57990852D01*
X74186398Y-57990855D01*
X74167941Y-58001771D01*
X74150193Y-58010466D01*
X74130244Y-58018364D01*
X74130244Y-58018365D01*
X74130239Y-58018368D01*
X74090461Y-58047268D01*
X74085510Y-58050520D01*
X74051289Y-58070759D01*
X74043191Y-58075549D01*
X74028029Y-58090711D01*
X74013002Y-58103545D01*
X73995646Y-58116156D01*
X73995643Y-58116158D01*
X73964294Y-58154051D01*
X73960298Y-58158442D01*
X72695611Y-59423127D01*
X72682864Y-59433341D01*
X72683024Y-59433534D01*
X72676920Y-59438583D01*
X72674094Y-59441593D01*
X72623159Y-59474511D01*
X72532276Y-59505711D01*
X72532273Y-59505712D01*
X72326985Y-59616809D01*
X72326983Y-59616810D01*
X72142778Y-59760182D01*
X72142774Y-59760186D01*
X71984685Y-59931916D01*
X71857015Y-60127331D01*
X71763252Y-60341089D01*
X71763249Y-60341096D01*
X71705950Y-60567366D01*
X71705949Y-60567372D01*
X71705949Y-60567374D01*
X71686673Y-60800000D01*
X71699812Y-60958569D01*
X71705950Y-61032633D01*
X71763249Y-61258903D01*
X71763252Y-61258910D01*
X71857015Y-61472668D01*
X71984685Y-61668083D01*
X72142774Y-61839813D01*
X72142778Y-61839817D01*
X72208650Y-61891087D01*
X72326983Y-61983190D01*
X72532273Y-62094287D01*
X72753049Y-62170080D01*
X72983288Y-62208500D01*
X72983292Y-62208500D01*
X73216708Y-62208500D01*
X73216712Y-62208500D01*
X73446951Y-62170080D01*
X73667727Y-62094287D01*
X73873017Y-61983190D01*
X74057220Y-61839818D01*
X74215314Y-61668083D01*
X74244517Y-61623383D01*
X74298519Y-61577296D01*
X74368867Y-61567720D01*
X74433225Y-61597696D01*
X74455481Y-61623382D01*
X74484686Y-61668083D01*
X74484687Y-61668084D01*
X74642774Y-61839813D01*
X74642778Y-61839817D01*
X74708650Y-61891087D01*
X74826983Y-61983190D01*
X75032273Y-62094287D01*
X75253049Y-62170080D01*
X75483288Y-62208500D01*
X75483292Y-62208500D01*
X75716708Y-62208500D01*
X75716712Y-62208500D01*
X75946951Y-62170080D01*
X75946962Y-62170076D01*
X75950842Y-62169094D01*
X76021788Y-62171754D01*
X76070878Y-62202138D01*
X76779043Y-62910302D01*
X77504595Y-63635854D01*
X77538621Y-63698166D01*
X77541500Y-63724949D01*
X77541500Y-95536744D01*
X77521498Y-95604865D01*
X77467842Y-95651358D01*
X77397568Y-95661462D01*
X77362251Y-95650939D01*
X77302084Y-95622883D01*
X77302073Y-95622879D01*
X77212178Y-95598791D01*
X77089371Y-95565885D01*
X76870000Y-95546693D01*
X76650623Y-95565885D01*
X76650614Y-95565887D01*
X76647156Y-95566814D01*
X76645573Y-95566776D01*
X76645206Y-95566841D01*
X76645192Y-95566767D01*
X76576180Y-95565119D01*
X76525460Y-95534200D01*
X75386875Y-94395615D01*
X75376664Y-94382869D01*
X75376471Y-94383030D01*
X75371417Y-94376921D01*
X75318314Y-94327054D01*
X75296343Y-94305082D01*
X75296325Y-94305066D01*
X75290482Y-94300534D01*
X75285967Y-94296678D01*
X75283339Y-94294210D01*
X75250133Y-94263028D01*
X75250130Y-94263026D01*
X75250125Y-94263023D01*
X75231338Y-94252694D01*
X75214818Y-94241843D01*
X75197867Y-94228695D01*
X75152739Y-94209166D01*
X75147421Y-94206561D01*
X75112903Y-94187585D01*
X75104338Y-94182876D01*
X75104335Y-94182875D01*
X75083568Y-94177543D01*
X75064865Y-94171140D01*
X75054703Y-94166743D01*
X75045176Y-94162620D01*
X75045174Y-94162619D01*
X75045175Y-94162619D01*
X74996619Y-94154929D01*
X74990804Y-94153725D01*
X74943188Y-94141500D01*
X74921741Y-94141500D01*
X74902032Y-94139949D01*
X74880848Y-94136594D01*
X74880847Y-94136594D01*
X74831906Y-94141220D01*
X74825973Y-94141500D01*
X61864950Y-94141500D01*
X61796829Y-94121498D01*
X61775855Y-94104595D01*
X53757010Y-86085750D01*
X53722984Y-86023438D01*
X53723960Y-85965725D01*
X53744564Y-85884368D01*
X53763156Y-85660000D01*
X53744564Y-85435632D01*
X53689296Y-85217384D01*
X53598860Y-85011209D01*
X53571670Y-84969592D01*
X53475724Y-84822734D01*
X53475720Y-84822729D01*
X53354497Y-84691048D01*
X53323240Y-84657094D01*
X53323239Y-84657093D01*
X53323237Y-84657091D01*
X53238109Y-84590833D01*
X53145576Y-84518811D01*
X53112319Y-84500813D01*
X53061929Y-84450802D01*
X53046576Y-84381485D01*
X53071136Y-84314872D01*
X53112320Y-84279186D01*
X53145576Y-84261189D01*
X53323240Y-84122906D01*
X53475722Y-83957268D01*
X53598860Y-83768791D01*
X53689296Y-83562616D01*
X53744564Y-83344368D01*
X53763156Y-83120000D01*
X53744564Y-82895632D01*
X53721045Y-82802757D01*
X53689297Y-82677387D01*
X53689296Y-82677386D01*
X53689296Y-82677384D01*
X53598860Y-82471209D01*
X53563592Y-82417227D01*
X53475724Y-82282734D01*
X53475720Y-82282729D01*
X53354497Y-82151048D01*
X53323240Y-82117094D01*
X53323239Y-82117093D01*
X53323237Y-82117091D01*
X53238109Y-82050833D01*
X53145576Y-81978811D01*
X53112319Y-81960813D01*
X53061929Y-81910802D01*
X53046576Y-81841485D01*
X53071136Y-81774872D01*
X53112320Y-81739186D01*
X53145576Y-81721189D01*
X53323240Y-81582906D01*
X53475722Y-81417268D01*
X53598860Y-81228791D01*
X53689296Y-81022616D01*
X53744564Y-80804368D01*
X53763156Y-80580000D01*
X53744564Y-80355632D01*
X53689296Y-80137384D01*
X53598860Y-79931209D01*
X53592140Y-79920924D01*
X53475724Y-79742734D01*
X53475720Y-79742729D01*
X53354497Y-79611048D01*
X53323240Y-79577094D01*
X53323239Y-79577093D01*
X53323237Y-79577091D01*
X53238109Y-79510833D01*
X53145576Y-79438811D01*
X53111792Y-79420528D01*
X53061402Y-79370516D01*
X53046050Y-79301199D01*
X53070610Y-79234586D01*
X53111793Y-79198901D01*
X53145300Y-79180767D01*
X53145301Y-79180767D01*
X53322902Y-79042534D01*
X53475325Y-78876958D01*
X53598419Y-78688548D01*
X53688820Y-78482456D01*
X53688823Y-78482449D01*
X53736544Y-78294000D01*
X52831116Y-78294000D01*
X52859493Y-78249844D01*
X52900000Y-78111889D01*
X52900000Y-77968111D01*
X52859493Y-77830156D01*
X52831116Y-77786000D01*
X53736544Y-77786000D01*
X53736544Y-77785999D01*
X53688823Y-77597550D01*
X53688820Y-77597543D01*
X53598419Y-77391451D01*
X53475325Y-77203041D01*
X53322902Y-77037465D01*
X53145301Y-76899232D01*
X53145300Y-76899231D01*
X53111267Y-76880814D01*
X53060876Y-76830801D01*
X53045524Y-76761484D01*
X53070085Y-76694871D01*
X53111267Y-76659186D01*
X53145300Y-76640768D01*
X53145301Y-76640767D01*
X53197674Y-76600003D01*
X56236654Y-76600003D01*
X56256016Y-76895421D01*
X56256018Y-76895435D01*
X56313776Y-77185795D01*
X56313778Y-77185805D01*
X56408938Y-77466137D01*
X56408944Y-77466151D01*
X56539883Y-77731670D01*
X56704359Y-77977827D01*
X56704361Y-77977830D01*
X56704367Y-77977838D01*
X56899573Y-78200427D01*
X57122162Y-78395633D01*
X57368327Y-78560115D01*
X57633855Y-78691059D01*
X57914203Y-78786224D01*
X58204574Y-78843983D01*
X58373388Y-78855047D01*
X58499997Y-78863346D01*
X58500000Y-78863346D01*
X58500003Y-78863346D01*
X58610784Y-78856084D01*
X58795426Y-78843983D01*
X59085797Y-78786224D01*
X59366145Y-78691059D01*
X59631673Y-78560115D01*
X59877838Y-78395633D01*
X60100427Y-78200427D01*
X60295633Y-77977838D01*
X60460115Y-77731673D01*
X60591059Y-77466145D01*
X60686224Y-77185797D01*
X60743983Y-76895426D01*
X60763346Y-76600000D01*
X60760288Y-76553349D01*
X60753664Y-76452286D01*
X60743983Y-76304574D01*
X60686224Y-76014203D01*
X60591059Y-75733855D01*
X60460115Y-75468327D01*
X60375599Y-75341840D01*
X60295640Y-75222172D01*
X60295638Y-75222170D01*
X60295633Y-75222162D01*
X60100427Y-74999573D01*
X59877838Y-74804367D01*
X59877830Y-74804361D01*
X59877827Y-74804359D01*
X59631670Y-74639883D01*
X59366151Y-74508944D01*
X59366145Y-74508941D01*
X59366140Y-74508939D01*
X59366137Y-74508938D01*
X59085805Y-74413778D01*
X59085799Y-74413776D01*
X59085797Y-74413776D01*
X58988566Y-74394435D01*
X58795435Y-74356018D01*
X58795421Y-74356016D01*
X58500003Y-74336654D01*
X58499997Y-74336654D01*
X58204578Y-74356016D01*
X58204564Y-74356018D01*
X57975717Y-74401540D01*
X57914203Y-74413776D01*
X57914201Y-74413776D01*
X57914194Y-74413778D01*
X57633862Y-74508938D01*
X57633848Y-74508944D01*
X57368329Y-74639883D01*
X57122172Y-74804359D01*
X57122165Y-74804364D01*
X57122162Y-74804367D01*
X56899573Y-74999573D01*
X56704367Y-75222162D01*
X56704364Y-75222165D01*
X56704359Y-75222172D01*
X56539883Y-75468329D01*
X56408944Y-75733848D01*
X56408938Y-75733862D01*
X56313778Y-76014194D01*
X56313776Y-76014204D01*
X56256018Y-76304564D01*
X56256016Y-76304578D01*
X56236654Y-76599996D01*
X56236654Y-76600003D01*
X53197674Y-76600003D01*
X53322902Y-76502534D01*
X53475325Y-76336958D01*
X53598419Y-76148548D01*
X53688820Y-75942456D01*
X53688823Y-75942449D01*
X53736544Y-75754000D01*
X52831116Y-75754000D01*
X52859493Y-75709844D01*
X52900000Y-75571889D01*
X52900000Y-75428111D01*
X52859493Y-75290156D01*
X52831116Y-75246000D01*
X53736544Y-75246000D01*
X53736544Y-75245999D01*
X53688823Y-75057550D01*
X53688820Y-75057543D01*
X53598419Y-74851451D01*
X53475325Y-74663041D01*
X53322902Y-74497465D01*
X53145301Y-74359232D01*
X53145300Y-74359231D01*
X53111791Y-74341097D01*
X53061401Y-74291083D01*
X53046050Y-74221766D01*
X53070612Y-74155153D01*
X53111790Y-74119472D01*
X53145576Y-74101189D01*
X53323240Y-73962906D01*
X53475722Y-73797268D01*
X53598860Y-73608791D01*
X53689296Y-73402616D01*
X53744564Y-73184368D01*
X53763156Y-72960000D01*
X53744564Y-72735632D01*
X53689296Y-72517384D01*
X53598860Y-72311209D01*
X53592140Y-72300924D01*
X53475724Y-72122734D01*
X53475720Y-72122729D01*
X53323237Y-71957091D01*
X53241382Y-71893381D01*
X53145576Y-71818811D01*
X53112319Y-71800813D01*
X53061929Y-71750802D01*
X53046576Y-71681485D01*
X53071136Y-71614872D01*
X53112320Y-71579186D01*
X53145576Y-71561189D01*
X53323240Y-71422906D01*
X53475722Y-71257268D01*
X53598860Y-71068791D01*
X53689296Y-70862616D01*
X53744564Y-70644368D01*
X53763156Y-70420000D01*
X53744564Y-70195632D01*
X53689296Y-69977384D01*
X53598860Y-69771209D01*
X53592140Y-69760924D01*
X53475724Y-69582734D01*
X53475720Y-69582729D01*
X53323237Y-69417091D01*
X53241382Y-69353381D01*
X53145576Y-69278811D01*
X53112319Y-69260813D01*
X53061929Y-69210802D01*
X53046576Y-69141485D01*
X53071136Y-69074872D01*
X53112320Y-69039186D01*
X53145576Y-69021189D01*
X53323240Y-68882906D01*
X53475722Y-68717268D01*
X53598860Y-68528791D01*
X53689296Y-68322616D01*
X53744564Y-68104368D01*
X53763156Y-67880000D01*
X53744564Y-67655632D01*
X53689296Y-67437384D01*
X53598860Y-67231209D01*
X53592140Y-67220924D01*
X53475724Y-67042734D01*
X53475720Y-67042729D01*
X53323237Y-66877091D01*
X53241382Y-66813381D01*
X53145576Y-66738811D01*
X53112319Y-66720813D01*
X53061929Y-66670802D01*
X53046576Y-66601485D01*
X53071136Y-66534872D01*
X53112320Y-66499186D01*
X53145576Y-66481189D01*
X53323240Y-66342906D01*
X53475722Y-66177268D01*
X53598860Y-65988791D01*
X53689296Y-65782616D01*
X53744564Y-65564368D01*
X53759500Y-65384113D01*
X53785060Y-65317878D01*
X53842371Y-65275975D01*
X53913240Y-65271709D01*
X53974165Y-65305425D01*
X62304595Y-73635855D01*
X62338621Y-73698167D01*
X62341500Y-73724950D01*
X62341500Y-81113389D01*
X62339708Y-81129620D01*
X62339958Y-81129644D01*
X62339211Y-81137536D01*
X62341500Y-81210341D01*
X62341500Y-81241430D01*
X62342427Y-81248776D01*
X62342893Y-81254690D01*
X62344437Y-81303829D01*
X62344438Y-81303832D01*
X62350421Y-81324429D01*
X62354428Y-81343780D01*
X62357117Y-81365060D01*
X62357117Y-81365062D01*
X62375216Y-81410778D01*
X62377139Y-81416394D01*
X62390853Y-81463597D01*
X62390853Y-81463598D01*
X62401771Y-81482058D01*
X62410468Y-81499811D01*
X62418364Y-81519755D01*
X62418367Y-81519760D01*
X62435983Y-81544004D01*
X62447265Y-81559532D01*
X62450521Y-81564490D01*
X62461411Y-81582905D01*
X62475547Y-81606807D01*
X62490714Y-81621974D01*
X62503552Y-81637005D01*
X62516158Y-81654356D01*
X62554039Y-81685694D01*
X62558420Y-81689680D01*
X62710225Y-81841485D01*
X62847547Y-81978807D01*
X62881573Y-82041119D01*
X62876508Y-82111934D01*
X62833961Y-82168770D01*
X62779192Y-82192183D01*
X62731044Y-82200218D01*
X62553051Y-82229919D01*
X62553044Y-82229921D01*
X62332276Y-82305711D01*
X62332273Y-82305713D01*
X62126985Y-82416809D01*
X62126983Y-82416810D01*
X61942778Y-82560182D01*
X61942774Y-82560186D01*
X61784686Y-82731915D01*
X61755183Y-82777073D01*
X61701179Y-82823160D01*
X61630831Y-82832735D01*
X61566474Y-82802757D01*
X61564573Y-82800564D01*
X61559202Y-82800007D01*
X60884360Y-83474848D01*
X60859493Y-83390156D01*
X60781761Y-83269202D01*
X60673100Y-83175048D01*
X60542315Y-83115320D01*
X60527586Y-83113202D01*
X61201318Y-82439470D01*
X61172743Y-82417229D01*
X61172741Y-82417228D01*
X60967525Y-82306172D01*
X60967522Y-82306170D01*
X60746832Y-82230407D01*
X60746823Y-82230405D01*
X60516666Y-82192000D01*
X60283334Y-82192000D01*
X60053176Y-82230405D01*
X60053167Y-82230407D01*
X59832477Y-82306170D01*
X59832474Y-82306172D01*
X59627259Y-82417227D01*
X59598681Y-82439470D01*
X60272412Y-83113202D01*
X60257685Y-83115320D01*
X60126900Y-83175048D01*
X60018239Y-83269202D01*
X59940507Y-83390156D01*
X59915639Y-83474849D01*
X59240796Y-82800006D01*
X59240795Y-82800007D01*
X59157461Y-82927560D01*
X59157454Y-82927574D01*
X59063726Y-83141252D01*
X59063724Y-83141256D01*
X59006444Y-83367450D01*
X58987174Y-83600000D01*
X59006444Y-83832549D01*
X59063724Y-84058743D01*
X59063726Y-84058747D01*
X59157454Y-84272425D01*
X59157461Y-84272439D01*
X59240795Y-84399991D01*
X59240796Y-84399991D01*
X59915638Y-83725149D01*
X59940507Y-83809844D01*
X60018239Y-83930798D01*
X60126900Y-84024952D01*
X60257685Y-84084680D01*
X60272411Y-84086797D01*
X59598680Y-84760528D01*
X59598681Y-84760529D01*
X59627249Y-84782765D01*
X59627258Y-84782771D01*
X59832474Y-84893827D01*
X59832477Y-84893829D01*
X60053167Y-84969592D01*
X60053176Y-84969594D01*
X60283334Y-85008000D01*
X60516666Y-85008000D01*
X60746823Y-84969594D01*
X60746832Y-84969592D01*
X60967522Y-84893829D01*
X60967525Y-84893827D01*
X61172738Y-84782772D01*
X61201317Y-84760528D01*
X60527587Y-84086797D01*
X60542315Y-84084680D01*
X60673100Y-84024952D01*
X60781761Y-83930798D01*
X60859493Y-83809844D01*
X60884361Y-83725150D01*
X61559203Y-84399991D01*
X61572736Y-84398587D01*
X61598219Y-84376839D01*
X61668567Y-84367262D01*
X61732925Y-84397239D01*
X61755184Y-84422927D01*
X61784685Y-84468083D01*
X61942774Y-84639813D01*
X61942778Y-84639817D01*
X61964972Y-84657091D01*
X62126983Y-84783190D01*
X62332273Y-84894287D01*
X62553049Y-84970080D01*
X62783288Y-85008500D01*
X62783292Y-85008500D01*
X63016708Y-85008500D01*
X63016712Y-85008500D01*
X63246951Y-84970080D01*
X63467727Y-84894287D01*
X63673017Y-84783190D01*
X63857220Y-84639818D01*
X64015314Y-84468083D01*
X64044517Y-84423383D01*
X64098519Y-84377296D01*
X64168867Y-84367720D01*
X64233225Y-84397696D01*
X64255481Y-84423382D01*
X64273396Y-84450802D01*
X64284687Y-84468084D01*
X64442774Y-84639813D01*
X64442778Y-84639817D01*
X64464972Y-84657091D01*
X64626983Y-84783190D01*
X64832273Y-84894287D01*
X65053049Y-84970080D01*
X65283288Y-85008500D01*
X65283292Y-85008500D01*
X65516708Y-85008500D01*
X65516712Y-85008500D01*
X65746951Y-84970080D01*
X65967727Y-84894287D01*
X66173017Y-84783190D01*
X66357220Y-84639818D01*
X66515314Y-84468083D01*
X66642984Y-84272669D01*
X66736749Y-84058907D01*
X66794051Y-83832626D01*
X66813327Y-83600000D01*
X66794051Y-83367374D01*
X66769191Y-83269202D01*
X66736750Y-83141096D01*
X66736747Y-83141089D01*
X66642984Y-82927331D01*
X66515314Y-82731916D01*
X66357225Y-82560186D01*
X66357221Y-82560182D01*
X66202130Y-82439470D01*
X66173017Y-82416810D01*
X65967727Y-82305713D01*
X65967724Y-82305712D01*
X65967723Y-82305711D01*
X65746955Y-82229921D01*
X65746948Y-82229919D01*
X65648411Y-82213476D01*
X65516712Y-82191500D01*
X65283288Y-82191500D01*
X65129978Y-82217082D01*
X65053041Y-82229921D01*
X65049146Y-82230908D01*
X64978199Y-82228241D01*
X64929119Y-82197859D01*
X63695405Y-80964145D01*
X63661379Y-80901833D01*
X63658500Y-80875050D01*
X63658500Y-76600003D01*
X65036654Y-76600003D01*
X65056016Y-76895421D01*
X65056018Y-76895435D01*
X65113776Y-77185795D01*
X65113778Y-77185805D01*
X65208938Y-77466137D01*
X65208944Y-77466151D01*
X65339883Y-77731670D01*
X65504359Y-77977827D01*
X65504361Y-77977830D01*
X65504367Y-77977838D01*
X65699573Y-78200427D01*
X65922162Y-78395633D01*
X66168327Y-78560115D01*
X66433855Y-78691059D01*
X66714203Y-78786224D01*
X67004574Y-78843983D01*
X67173388Y-78855047D01*
X67299997Y-78863346D01*
X67300000Y-78863346D01*
X67300003Y-78863346D01*
X67410784Y-78856084D01*
X67595426Y-78843983D01*
X67885797Y-78786224D01*
X68166145Y-78691059D01*
X68431673Y-78560115D01*
X68677838Y-78395633D01*
X68900427Y-78200427D01*
X69095633Y-77977838D01*
X69260115Y-77731673D01*
X69391059Y-77466145D01*
X69486224Y-77185797D01*
X69543983Y-76895426D01*
X69563346Y-76600000D01*
X69560288Y-76553349D01*
X69553664Y-76452286D01*
X69543983Y-76304574D01*
X69486224Y-76014203D01*
X69391059Y-75733855D01*
X69260115Y-75468327D01*
X69175599Y-75341840D01*
X69095640Y-75222172D01*
X69095638Y-75222170D01*
X69095633Y-75222162D01*
X68900427Y-74999573D01*
X68677838Y-74804367D01*
X68677830Y-74804361D01*
X68677827Y-74804359D01*
X68431670Y-74639883D01*
X68166151Y-74508944D01*
X68166145Y-74508941D01*
X68166140Y-74508939D01*
X68166137Y-74508938D01*
X67885805Y-74413778D01*
X67885799Y-74413776D01*
X67885797Y-74413776D01*
X67788566Y-74394435D01*
X67595435Y-74356018D01*
X67595421Y-74356016D01*
X67300003Y-74336654D01*
X67299997Y-74336654D01*
X67004578Y-74356016D01*
X67004564Y-74356018D01*
X66775717Y-74401540D01*
X66714203Y-74413776D01*
X66714201Y-74413776D01*
X66714194Y-74413778D01*
X66433862Y-74508938D01*
X66433848Y-74508944D01*
X66168329Y-74639883D01*
X65922172Y-74804359D01*
X65922165Y-74804364D01*
X65922162Y-74804367D01*
X65699573Y-74999573D01*
X65504367Y-75222162D01*
X65504364Y-75222165D01*
X65504359Y-75222172D01*
X65339883Y-75468329D01*
X65208944Y-75733848D01*
X65208938Y-75733862D01*
X65113778Y-76014194D01*
X65113776Y-76014204D01*
X65056018Y-76304564D01*
X65056016Y-76304578D01*
X65036654Y-76599996D01*
X65036654Y-76600003D01*
X63658500Y-76600003D01*
X63658500Y-73486614D01*
X63660292Y-73470379D01*
X63660043Y-73470356D01*
X63660787Y-73462470D01*
X63660789Y-73462463D01*
X63658500Y-73389639D01*
X63658500Y-73358568D01*
X63657569Y-73351209D01*
X63657106Y-73345322D01*
X63655562Y-73296169D01*
X63649579Y-73275576D01*
X63645571Y-73256218D01*
X63642882Y-73234939D01*
X63642882Y-73234936D01*
X63624777Y-73189208D01*
X63622863Y-73183619D01*
X63609145Y-73136400D01*
X63598224Y-73117935D01*
X63589531Y-73100189D01*
X63581635Y-73080244D01*
X63552736Y-73040470D01*
X63549482Y-73035517D01*
X63524453Y-72993193D01*
X63524452Y-72993191D01*
X63509288Y-72978027D01*
X63496447Y-72962993D01*
X63483841Y-72945643D01*
X63483836Y-72945638D01*
X63462718Y-72928169D01*
X63445950Y-72914297D01*
X63441577Y-72910317D01*
X53795405Y-63264144D01*
X53761379Y-63201833D01*
X53758500Y-63175050D01*
X53758500Y-61901367D01*
X53758499Y-61901350D01*
X53751990Y-61840803D01*
X53751988Y-61840795D01*
X53700889Y-61703797D01*
X53700887Y-61703792D01*
X53613261Y-61586738D01*
X53496207Y-61499112D01*
X53496202Y-61499110D01*
X53359204Y-61448011D01*
X53359196Y-61448009D01*
X53298649Y-61441500D01*
X53298638Y-61441500D01*
X53184500Y-61441500D01*
X53116379Y-61421498D01*
X53069886Y-61367842D01*
X53058500Y-61315500D01*
X53058500Y-57094950D01*
X53078502Y-57026829D01*
X53095400Y-57005858D01*
X53150053Y-56951206D01*
X53212362Y-56917183D01*
X53268556Y-56917783D01*
X53463289Y-56964535D01*
X53700000Y-56983165D01*
X53936711Y-56964535D01*
X54167594Y-56909105D01*
X54386963Y-56818240D01*
X54589416Y-56694176D01*
X54769969Y-56539969D01*
X54924176Y-56359416D01*
X55048240Y-56156963D01*
X55139105Y-55937594D01*
X55194535Y-55706711D01*
X55210804Y-55500000D01*
X57287337Y-55500000D01*
X57305960Y-55736632D01*
X57361371Y-55967437D01*
X57452206Y-56186733D01*
X57566897Y-56373891D01*
X58196065Y-55744723D01*
X58207188Y-55778956D01*
X58295186Y-55917619D01*
X58414903Y-56030040D01*
X58553160Y-56106048D01*
X57926107Y-56733101D01*
X57926107Y-56733102D01*
X58113261Y-56847791D01*
X58332562Y-56938628D01*
X58563367Y-56994039D01*
X58800000Y-57012662D01*
X59036632Y-56994039D01*
X59267437Y-56938628D01*
X59486738Y-56847791D01*
X59673891Y-56733102D01*
X59673892Y-56733101D01*
X59043482Y-56102691D01*
X59115629Y-56074126D01*
X59248492Y-55977595D01*
X59353175Y-55851055D01*
X59403442Y-55744231D01*
X60033102Y-56373892D01*
X60033102Y-56373891D01*
X60147791Y-56186738D01*
X60238628Y-55967437D01*
X60294039Y-55736632D01*
X60312662Y-55500000D01*
X60294039Y-55263367D01*
X60238628Y-55032562D01*
X60147791Y-54813261D01*
X60033102Y-54626107D01*
X60033100Y-54626107D01*
X59403933Y-55255273D01*
X59392812Y-55221044D01*
X59304814Y-55082381D01*
X59185097Y-54969960D01*
X59046838Y-54893951D01*
X59673891Y-54266897D01*
X59486733Y-54152206D01*
X59267437Y-54061371D01*
X59036632Y-54005960D01*
X58800000Y-53987337D01*
X58563367Y-54005960D01*
X58332562Y-54061371D01*
X58113262Y-54152208D01*
X57926107Y-54266896D01*
X57926107Y-54266898D01*
X58556517Y-54897308D01*
X58484371Y-54925874D01*
X58351508Y-55022405D01*
X58246825Y-55148945D01*
X58196558Y-55255766D01*
X57566898Y-54626107D01*
X57566896Y-54626107D01*
X57452208Y-54813262D01*
X57361371Y-55032562D01*
X57305960Y-55263367D01*
X57287337Y-55500000D01*
X55210804Y-55500000D01*
X55213165Y-55470000D01*
X55194535Y-55233289D01*
X55139105Y-55002406D01*
X55048240Y-54783037D01*
X54924176Y-54580584D01*
X54924173Y-54580580D01*
X54769969Y-54400030D01*
X54589419Y-54245826D01*
X54589417Y-54245825D01*
X54589416Y-54245824D01*
X54386963Y-54121760D01*
X54323409Y-54095435D01*
X54167592Y-54030894D01*
X54009651Y-53992976D01*
X53936711Y-53975465D01*
X53700000Y-53956835D01*
X53463289Y-53975465D01*
X53232407Y-54030894D01*
X53013038Y-54121759D01*
X52810582Y-54245825D01*
X52810580Y-54245826D01*
X52630030Y-54400030D01*
X52475826Y-54580580D01*
X52475825Y-54580582D01*
X52351759Y-54783038D01*
X52260894Y-55002407D01*
X52208405Y-55221044D01*
X52205465Y-55233289D01*
X52186835Y-55470000D01*
X52205465Y-55706711D01*
X52249723Y-55891061D01*
X52252215Y-55901438D01*
X52248668Y-55972346D01*
X52218791Y-56019947D01*
X51995611Y-56243127D01*
X51982865Y-56253340D01*
X51983025Y-56253533D01*
X51976921Y-56258582D01*
X51927054Y-56311685D01*
X51905071Y-56333668D01*
X51900527Y-56339525D01*
X51896678Y-56344031D01*
X51863029Y-56379865D01*
X51863027Y-56379867D01*
X51852691Y-56398667D01*
X51841843Y-56415180D01*
X51828699Y-56432126D01*
X51828694Y-56432135D01*
X51809172Y-56477247D01*
X51806560Y-56482577D01*
X51782877Y-56525660D01*
X51782873Y-56525670D01*
X51777541Y-56546436D01*
X51771139Y-56565136D01*
X51762620Y-56584820D01*
X51762619Y-56584824D01*
X51754928Y-56633384D01*
X51753724Y-56639197D01*
X51741500Y-56686810D01*
X51741500Y-56708258D01*
X51739949Y-56727967D01*
X51736594Y-56749150D01*
X51736594Y-56749152D01*
X51741220Y-56798094D01*
X51741500Y-56804027D01*
X51741500Y-61315500D01*
X51721498Y-61383621D01*
X51667842Y-61430114D01*
X51615500Y-61441500D01*
X51501350Y-61441500D01*
X51440803Y-61448009D01*
X51440795Y-61448011D01*
X51303797Y-61499110D01*
X51303792Y-61499112D01*
X51186738Y-61586738D01*
X51099112Y-61703792D01*
X51099110Y-61703797D01*
X51048011Y-61840795D01*
X51048009Y-61840803D01*
X51041500Y-61901350D01*
X51041500Y-63698649D01*
X51048009Y-63759196D01*
X51048011Y-63759204D01*
X51099110Y-63896202D01*
X51099112Y-63896207D01*
X51186738Y-64013261D01*
X51303791Y-64100886D01*
X51303792Y-64100886D01*
X51303796Y-64100889D01*
X51418810Y-64143787D01*
X51475642Y-64186332D01*
X51500453Y-64252852D01*
X51485362Y-64322226D01*
X51467475Y-64347179D01*
X51324280Y-64502729D01*
X51324275Y-64502734D01*
X51201141Y-64691206D01*
X51110703Y-64897386D01*
X51110702Y-64897387D01*
X51055437Y-65115624D01*
X51055436Y-65115630D01*
X51055436Y-65115632D01*
X51036844Y-65340000D01*
X51055436Y-65564368D01*
X51055436Y-65564370D01*
X51055437Y-65564375D01*
X51110702Y-65782612D01*
X51110703Y-65782613D01*
X51201141Y-65988793D01*
X51324275Y-66177265D01*
X51324279Y-66177270D01*
X51476762Y-66342908D01*
X51531331Y-66385381D01*
X51654424Y-66481189D01*
X51687680Y-66499186D01*
X51738071Y-66549200D01*
X51753423Y-66618516D01*
X51728862Y-66685129D01*
X51687680Y-66720813D01*
X51654426Y-66738810D01*
X51654424Y-66738811D01*
X51476762Y-66877091D01*
X51324279Y-67042729D01*
X51324275Y-67042734D01*
X51201141Y-67231206D01*
X51110703Y-67437386D01*
X51110702Y-67437387D01*
X51055437Y-67655624D01*
X51036844Y-67880000D01*
X51055437Y-68104375D01*
X51110702Y-68322612D01*
X51110703Y-68322613D01*
X51201141Y-68528793D01*
X51324275Y-68717265D01*
X51324279Y-68717270D01*
X51476762Y-68882908D01*
X51493146Y-68895660D01*
X51654424Y-69021189D01*
X51687680Y-69039186D01*
X51738071Y-69089200D01*
X51753423Y-69158516D01*
X51728862Y-69225129D01*
X51687680Y-69260813D01*
X51654426Y-69278810D01*
X51654424Y-69278811D01*
X51476762Y-69417091D01*
X51324279Y-69582729D01*
X51324275Y-69582734D01*
X51201141Y-69771206D01*
X51110703Y-69977386D01*
X51110702Y-69977387D01*
X51055437Y-70195624D01*
X51055436Y-70195630D01*
X51055436Y-70195632D01*
X51036844Y-70420000D01*
X51040499Y-70464113D01*
X51055437Y-70644375D01*
X51110702Y-70862612D01*
X51110703Y-70862613D01*
X51201141Y-71068793D01*
X51324275Y-71257265D01*
X51324279Y-71257270D01*
X51395872Y-71335039D01*
X51469615Y-71415145D01*
X51476762Y-71422908D01*
X51531331Y-71465381D01*
X51654424Y-71561189D01*
X51687680Y-71579186D01*
X51738071Y-71629200D01*
X51753423Y-71698516D01*
X51728862Y-71765129D01*
X51687680Y-71800813D01*
X51654426Y-71818810D01*
X51654424Y-71818811D01*
X51476762Y-71957091D01*
X51324279Y-72122729D01*
X51324275Y-72122734D01*
X51201141Y-72311206D01*
X51110703Y-72517386D01*
X51110702Y-72517387D01*
X51055437Y-72735624D01*
X51055436Y-72735630D01*
X51055436Y-72735632D01*
X51038034Y-72945638D01*
X51036844Y-72960000D01*
X51055436Y-73184369D01*
X51076038Y-73265724D01*
X51073370Y-73336671D01*
X51042988Y-73385750D01*
X50295611Y-74133127D01*
X50282865Y-74143340D01*
X50283025Y-74143533D01*
X50276921Y-74148582D01*
X50227053Y-74201686D01*
X50225595Y-74203143D01*
X50163283Y-74237169D01*
X50092468Y-74232104D01*
X50035632Y-74189557D01*
X50010821Y-74123037D01*
X50010500Y-74114048D01*
X50010500Y-53800003D01*
X68936654Y-53800003D01*
X68956016Y-54095421D01*
X68956018Y-54095435D01*
X69013776Y-54385795D01*
X69013778Y-54385805D01*
X69108938Y-54666137D01*
X69108944Y-54666151D01*
X69239883Y-54931670D01*
X69404359Y-55177827D01*
X69404361Y-55177830D01*
X69404367Y-55177838D01*
X69599573Y-55400427D01*
X69822162Y-55595633D01*
X70068327Y-55760115D01*
X70333855Y-55891059D01*
X70614203Y-55986224D01*
X70904574Y-56043983D01*
X71073388Y-56055047D01*
X71199997Y-56063346D01*
X71200000Y-56063346D01*
X71200003Y-56063346D01*
X71310784Y-56056084D01*
X71495426Y-56043983D01*
X71785797Y-55986224D01*
X72066145Y-55891059D01*
X72331673Y-55760115D01*
X72577838Y-55595633D01*
X72800427Y-55400427D01*
X72995633Y-55177838D01*
X73160115Y-54931673D01*
X73291059Y-54666145D01*
X73386224Y-54385797D01*
X73443983Y-54095426D01*
X73463346Y-53800003D01*
X77736654Y-53800003D01*
X77756016Y-54095421D01*
X77756018Y-54095435D01*
X77813776Y-54385795D01*
X77813778Y-54385805D01*
X77908938Y-54666137D01*
X77908944Y-54666151D01*
X78039883Y-54931670D01*
X78204359Y-55177827D01*
X78204361Y-55177830D01*
X78204367Y-55177838D01*
X78399573Y-55400427D01*
X78622162Y-55595633D01*
X78868327Y-55760115D01*
X79133855Y-55891059D01*
X79414203Y-55986224D01*
X79704574Y-56043983D01*
X79873388Y-56055047D01*
X79999997Y-56063346D01*
X80000000Y-56063346D01*
X80000003Y-56063346D01*
X80110784Y-56056084D01*
X80295426Y-56043983D01*
X80585797Y-55986224D01*
X80866145Y-55891059D01*
X81131673Y-55760115D01*
X81377838Y-55595633D01*
X81600427Y-55400427D01*
X81795633Y-55177838D01*
X81960115Y-54931673D01*
X82091059Y-54666145D01*
X82186224Y-54385797D01*
X82243983Y-54095426D01*
X82263346Y-53800000D01*
X82243983Y-53504574D01*
X82186224Y-53214203D01*
X82091059Y-52933855D01*
X81960115Y-52668327D01*
X81795633Y-52422162D01*
X81600427Y-52199573D01*
X81377838Y-52004367D01*
X81377830Y-52004361D01*
X81377827Y-52004359D01*
X81131670Y-51839883D01*
X80866151Y-51708944D01*
X80866145Y-51708941D01*
X80866140Y-51708939D01*
X80866137Y-51708938D01*
X80585805Y-51613778D01*
X80585799Y-51613776D01*
X80585797Y-51613776D01*
X80488566Y-51594435D01*
X80295435Y-51556018D01*
X80295421Y-51556016D01*
X80000003Y-51536654D01*
X79999997Y-51536654D01*
X79704578Y-51556016D01*
X79704564Y-51556018D01*
X79462818Y-51604105D01*
X79414203Y-51613776D01*
X79414201Y-51613776D01*
X79414194Y-51613778D01*
X79133862Y-51708938D01*
X79133848Y-51708944D01*
X78868329Y-51839883D01*
X78622172Y-52004359D01*
X78622165Y-52004364D01*
X78622162Y-52004367D01*
X78399573Y-52199573D01*
X78204367Y-52422162D01*
X78204364Y-52422165D01*
X78204359Y-52422172D01*
X78039883Y-52668329D01*
X77908944Y-52933848D01*
X77908938Y-52933862D01*
X77813778Y-53214194D01*
X77813776Y-53214204D01*
X77756018Y-53504564D01*
X77756016Y-53504578D01*
X77736654Y-53799996D01*
X77736654Y-53800003D01*
X73463346Y-53800003D01*
X73463346Y-53800000D01*
X73443983Y-53504574D01*
X73386224Y-53214203D01*
X73291059Y-52933855D01*
X73160115Y-52668327D01*
X72995633Y-52422162D01*
X72800427Y-52199573D01*
X72577838Y-52004367D01*
X72577830Y-52004361D01*
X72577827Y-52004359D01*
X72331670Y-51839883D01*
X72066151Y-51708944D01*
X72066145Y-51708941D01*
X72066140Y-51708939D01*
X72066137Y-51708938D01*
X71785805Y-51613778D01*
X71785799Y-51613776D01*
X71785797Y-51613776D01*
X71688566Y-51594435D01*
X71495435Y-51556018D01*
X71495421Y-51556016D01*
X71200003Y-51536654D01*
X71199997Y-51536654D01*
X70904578Y-51556016D01*
X70904564Y-51556018D01*
X70662818Y-51604105D01*
X70614203Y-51613776D01*
X70614201Y-51613776D01*
X70614194Y-51613778D01*
X70333862Y-51708938D01*
X70333848Y-51708944D01*
X70068329Y-51839883D01*
X69822172Y-52004359D01*
X69822165Y-52004364D01*
X69822162Y-52004367D01*
X69599573Y-52199573D01*
X69404367Y-52422162D01*
X69404364Y-52422165D01*
X69404359Y-52422172D01*
X69239883Y-52668329D01*
X69108944Y-52933848D01*
X69108938Y-52933862D01*
X69013778Y-53214194D01*
X69013776Y-53214204D01*
X68956018Y-53504564D01*
X68956016Y-53504578D01*
X68936654Y-53799996D01*
X68936654Y-53800003D01*
X50010500Y-53800003D01*
X50010500Y-41036500D01*
X50030502Y-40968379D01*
X50084158Y-40921886D01*
X50136500Y-40910500D01*
X90263500Y-40910500D01*
X90331621Y-40930502D01*
G37*
%TD.AperFunction*%
%TA.AperFunction,Conductor*%
G36*
X52654000Y-77606325D02*
G01*
X52542315Y-77555320D01*
X52435763Y-77540000D01*
X52364237Y-77540000D01*
X52257685Y-77555320D01*
X52145999Y-77606325D01*
X52145999Y-75933674D01*
X52257685Y-75984680D01*
X52364237Y-76000000D01*
X52435763Y-76000000D01*
X52542315Y-75984680D01*
X52654000Y-75933674D01*
X52654000Y-77606325D01*
G37*
%TD.AperFunction*%
%TD*%
M02*
