%TF.GenerationSoftware,KiCad,Pcbnew,7.0.6*%
%TF.CreationDate,2023-07-26T19:08:01+01:00*%
%TF.ProjectId,Hypersoniq_Controls,48797065-7273-46f6-9e69-715f436f6e74,rev?*%
%TF.SameCoordinates,Original*%
%TF.FileFunction,Legend,Bot*%
%TF.FilePolarity,Positive*%
%FSLAX46Y46*%
G04 Gerber Fmt 4.6, Leading zero omitted, Abs format (unit mm)*
G04 Created by KiCad (PCBNEW 7.0.6) date 2023-07-26 19:08:01*
%MOMM*%
%LPD*%
G01*
G04 APERTURE LIST*
%ADD10C,0.200000*%
%ADD11C,0.150000*%
%ADD12C,0.120000*%
G04 APERTURE END LIST*
D10*
X59561904Y-57029838D02*
X59657142Y-56982219D01*
X59657142Y-56982219D02*
X59799999Y-56982219D01*
X59799999Y-56982219D02*
X59942856Y-57029838D01*
X59942856Y-57029838D02*
X60038094Y-57125076D01*
X60038094Y-57125076D02*
X60085713Y-57220314D01*
X60085713Y-57220314D02*
X60133332Y-57410790D01*
X60133332Y-57410790D02*
X60133332Y-57553647D01*
X60133332Y-57553647D02*
X60085713Y-57744123D01*
X60085713Y-57744123D02*
X60038094Y-57839361D01*
X60038094Y-57839361D02*
X59942856Y-57934600D01*
X59942856Y-57934600D02*
X59799999Y-57982219D01*
X59799999Y-57982219D02*
X59704761Y-57982219D01*
X59704761Y-57982219D02*
X59561904Y-57934600D01*
X59561904Y-57934600D02*
X59514285Y-57886980D01*
X59514285Y-57886980D02*
X59514285Y-57553647D01*
X59514285Y-57553647D02*
X59704761Y-57553647D01*
X59085713Y-57982219D02*
X59085713Y-56982219D01*
X59085713Y-56982219D02*
X58514285Y-57982219D01*
X58514285Y-57982219D02*
X58514285Y-56982219D01*
X58038094Y-57982219D02*
X58038094Y-56982219D01*
X58038094Y-56982219D02*
X57799999Y-56982219D01*
X57799999Y-56982219D02*
X57657142Y-57029838D01*
X57657142Y-57029838D02*
X57561904Y-57125076D01*
X57561904Y-57125076D02*
X57514285Y-57220314D01*
X57514285Y-57220314D02*
X57466666Y-57410790D01*
X57466666Y-57410790D02*
X57466666Y-57553647D01*
X57466666Y-57553647D02*
X57514285Y-57744123D01*
X57514285Y-57744123D02*
X57561904Y-57839361D01*
X57561904Y-57839361D02*
X57657142Y-57934600D01*
X57657142Y-57934600D02*
X57799999Y-57982219D01*
X57799999Y-57982219D02*
X58038094Y-57982219D01*
X87761904Y-148929838D02*
X87857142Y-148882219D01*
X87857142Y-148882219D02*
X87999999Y-148882219D01*
X87999999Y-148882219D02*
X88142856Y-148929838D01*
X88142856Y-148929838D02*
X88238094Y-149025076D01*
X88238094Y-149025076D02*
X88285713Y-149120314D01*
X88285713Y-149120314D02*
X88333332Y-149310790D01*
X88333332Y-149310790D02*
X88333332Y-149453647D01*
X88333332Y-149453647D02*
X88285713Y-149644123D01*
X88285713Y-149644123D02*
X88238094Y-149739361D01*
X88238094Y-149739361D02*
X88142856Y-149834600D01*
X88142856Y-149834600D02*
X87999999Y-149882219D01*
X87999999Y-149882219D02*
X87904761Y-149882219D01*
X87904761Y-149882219D02*
X87761904Y-149834600D01*
X87761904Y-149834600D02*
X87714285Y-149786980D01*
X87714285Y-149786980D02*
X87714285Y-149453647D01*
X87714285Y-149453647D02*
X87904761Y-149453647D01*
X87285713Y-149882219D02*
X87285713Y-148882219D01*
X87285713Y-148882219D02*
X86714285Y-149882219D01*
X86714285Y-149882219D02*
X86714285Y-148882219D01*
X86238094Y-149882219D02*
X86238094Y-148882219D01*
X86238094Y-148882219D02*
X85999999Y-148882219D01*
X85999999Y-148882219D02*
X85857142Y-148929838D01*
X85857142Y-148929838D02*
X85761904Y-149025076D01*
X85761904Y-149025076D02*
X85714285Y-149120314D01*
X85714285Y-149120314D02*
X85666666Y-149310790D01*
X85666666Y-149310790D02*
X85666666Y-149453647D01*
X85666666Y-149453647D02*
X85714285Y-149644123D01*
X85714285Y-149644123D02*
X85761904Y-149739361D01*
X85761904Y-149739361D02*
X85857142Y-149834600D01*
X85857142Y-149834600D02*
X85999999Y-149882219D01*
X85999999Y-149882219D02*
X86238094Y-149882219D01*
X54199999Y-57952219D02*
X54771427Y-57952219D01*
X54485713Y-57952219D02*
X54485713Y-56952219D01*
X54485713Y-56952219D02*
X54580951Y-57095076D01*
X54580951Y-57095076D02*
X54676189Y-57190314D01*
X54676189Y-57190314D02*
X54771427Y-57237933D01*
X53819046Y-57047457D02*
X53771427Y-56999838D01*
X53771427Y-56999838D02*
X53676189Y-56952219D01*
X53676189Y-56952219D02*
X53438094Y-56952219D01*
X53438094Y-56952219D02*
X53342856Y-56999838D01*
X53342856Y-56999838D02*
X53295237Y-57047457D01*
X53295237Y-57047457D02*
X53247618Y-57142695D01*
X53247618Y-57142695D02*
X53247618Y-57237933D01*
X53247618Y-57237933D02*
X53295237Y-57380790D01*
X53295237Y-57380790D02*
X53866665Y-57952219D01*
X53866665Y-57952219D02*
X53247618Y-57952219D01*
X52961903Y-56952219D02*
X52628570Y-57952219D01*
X52628570Y-57952219D02*
X52295237Y-56952219D01*
D11*
X55484819Y-147566666D02*
X56199104Y-147566666D01*
X56199104Y-147566666D02*
X56341961Y-147519047D01*
X56341961Y-147519047D02*
X56437200Y-147423809D01*
X56437200Y-147423809D02*
X56484819Y-147280952D01*
X56484819Y-147280952D02*
X56484819Y-147185714D01*
X55484819Y-147947619D02*
X55484819Y-148566666D01*
X55484819Y-148566666D02*
X55865771Y-148233333D01*
X55865771Y-148233333D02*
X55865771Y-148376190D01*
X55865771Y-148376190D02*
X55913390Y-148471428D01*
X55913390Y-148471428D02*
X55961009Y-148519047D01*
X55961009Y-148519047D02*
X56056247Y-148566666D01*
X56056247Y-148566666D02*
X56294342Y-148566666D01*
X56294342Y-148566666D02*
X56389580Y-148519047D01*
X56389580Y-148519047D02*
X56437200Y-148471428D01*
X56437200Y-148471428D02*
X56484819Y-148376190D01*
X56484819Y-148376190D02*
X56484819Y-148090476D01*
X56484819Y-148090476D02*
X56437200Y-147995238D01*
X56437200Y-147995238D02*
X56389580Y-147947619D01*
X88233333Y-59484819D02*
X88233333Y-60199104D01*
X88233333Y-60199104D02*
X88280952Y-60341961D01*
X88280952Y-60341961D02*
X88376190Y-60437200D01*
X88376190Y-60437200D02*
X88519047Y-60484819D01*
X88519047Y-60484819D02*
X88614285Y-60484819D01*
X87233333Y-60484819D02*
X87804761Y-60484819D01*
X87519047Y-60484819D02*
X87519047Y-59484819D01*
X87519047Y-59484819D02*
X87614285Y-59627676D01*
X87614285Y-59627676D02*
X87709523Y-59722914D01*
X87709523Y-59722914D02*
X87804761Y-59770533D01*
X52733333Y-59484819D02*
X52733333Y-60199104D01*
X52733333Y-60199104D02*
X52780952Y-60341961D01*
X52780952Y-60341961D02*
X52876190Y-60437200D01*
X52876190Y-60437200D02*
X53019047Y-60484819D01*
X53019047Y-60484819D02*
X53114285Y-60484819D01*
X52304761Y-59580057D02*
X52257142Y-59532438D01*
X52257142Y-59532438D02*
X52161904Y-59484819D01*
X52161904Y-59484819D02*
X51923809Y-59484819D01*
X51923809Y-59484819D02*
X51828571Y-59532438D01*
X51828571Y-59532438D02*
X51780952Y-59580057D01*
X51780952Y-59580057D02*
X51733333Y-59675295D01*
X51733333Y-59675295D02*
X51733333Y-59770533D01*
X51733333Y-59770533D02*
X51780952Y-59913390D01*
X51780952Y-59913390D02*
X52352380Y-60484819D01*
X52352380Y-60484819D02*
X51733333Y-60484819D01*
D12*
%TO.C,J3*%
X82990000Y-146570000D02*
X82990000Y-149230000D01*
X60070000Y-146570000D02*
X82990000Y-146570000D01*
X60070000Y-146570000D02*
X60070000Y-149230000D01*
X57470000Y-147900000D02*
X57470000Y-149230000D01*
X60070000Y-149230000D02*
X82990000Y-149230000D01*
X57470000Y-149230000D02*
X58800000Y-149230000D01*
%TO.C,J1*%
X89230000Y-86990000D02*
X86570000Y-86990000D01*
X89230000Y-64070000D02*
X89230000Y-86990000D01*
X89230000Y-64070000D02*
X86570000Y-64070000D01*
X87900000Y-61470000D02*
X86570000Y-61470000D01*
X86570000Y-64070000D02*
X86570000Y-86990000D01*
X86570000Y-61470000D02*
X86570000Y-62800000D01*
%TO.C,J2*%
X53730000Y-86990000D02*
X51070000Y-86990000D01*
X53730000Y-64070000D02*
X53730000Y-86990000D01*
X53730000Y-64070000D02*
X51070000Y-64070000D01*
X52400000Y-61470000D02*
X51070000Y-61470000D01*
X51070000Y-64070000D02*
X51070000Y-86990000D01*
X51070000Y-61470000D02*
X51070000Y-62800000D01*
%TD*%
M02*
