M48
; DRILL file {KiCad 7.0.6} date Wed Jul 26 19:08:08 2023
; FORMAT={-:-/ absolute / inch / decimal}
; #@! TF.CreationDate,2023-07-26T19:08:08+01:00
; #@! TF.GenerationSoftware,Kicad,Pcbnew,7.0.6
; #@! TF.FileFunction,Plated,1,2,PTH
FMAT,2
INCH
; #@! TA.AperFunction,Plated,PTH,ViaDrill
T1C0.0157
; #@! TA.AperFunction,Plated,PTH,ComponentDrill
T2C0.0197
; #@! TA.AperFunction,Plated,PTH,ComponentDrill
T3C0.0354
; #@! TA.AperFunction,Plated,PTH,ComponentDrill
T4C0.0394
; #@! TA.AperFunction,Plated,PTH,ComponentDrill
T5C0.0512
%
G90
G05
T1
X2.0394Y-5.8425
X2.0906Y-3.811
X2.1181Y-4.8346
X2.122Y-4.6102
X2.1378Y-3.5512
X2.189Y-3.3701
X2.2008Y-4.0236
X2.2126Y-2.7677
X2.2205Y-5.1142
X2.2835Y-2.5197
X2.4409Y-3.622
X2.4488Y-4.374
X2.4882Y-5.1654
X2.5197Y-2.7598
X2.6102Y-4.2913
X2.6299Y-4.7992
X2.6654Y-4.5866
X2.685Y-3.5709
X2.685Y-4.0512
X2.874Y-4.4528
X2.8819Y-4.8268
X2.9528Y-2.5787
X2.9724Y-5.1181
X2.9843Y-3.2283
X3.0157Y-4.0787
X3.189Y-3.063
X3.2008Y-3.5354
X3.2165Y-4.9094
X3.2638Y-2.4764
X3.3307Y-4.311
X3.4252Y-5.2717
X3.4331Y-4.6496
X3.4606Y-2.1772
X3.4646Y-3.4843
T3
X2.2047Y-3.9114
X2.2047Y-4.7028
X2.2547Y-3.8114
X2.2547Y-4.6028
X2.3047Y-3.9114
X2.3047Y-4.7028
X2.3547Y-3.8114
X2.3547Y-4.6028
X2.4047Y-3.9114
X2.4047Y-4.7028
X2.4547Y-3.8114
X2.4547Y-4.6028
X2.5047Y-3.9114
X2.5047Y-4.7028
X2.5547Y-3.8114
X2.5547Y-4.6028
X2.9764Y-3.9114
X2.9764Y-4.7028
X3.0264Y-3.8114
X3.0264Y-4.6028
X3.0764Y-3.9114
X3.0764Y-4.7028
X3.1264Y-3.8114
X3.1264Y-4.6028
X3.1764Y-3.9114
X3.1764Y-4.7028
X3.2264Y-3.8114
X3.2264Y-4.6028
X3.2764Y-3.9114
X3.2764Y-4.7028
X3.3264Y-3.8114
X3.3264Y-4.6028
T4
X2.063Y-2.4724
X2.063Y-2.5724
X2.063Y-2.6724
X2.063Y-2.7724
X2.063Y-2.8724
X2.063Y-2.9724
X2.063Y-3.0724
X2.063Y-3.1724
X2.063Y-3.2724
X2.063Y-3.3724
X2.315Y-5.8228
X2.378Y-3.2913
X2.415Y-5.8228
X2.4764Y-3.2913
X2.515Y-5.8228
X2.5748Y-3.2913
X2.615Y-5.8228
X2.715Y-5.8228
X2.815Y-5.8228
X2.878Y-2.3937
X2.915Y-5.8228
X2.9764Y-2.3937
X3.015Y-5.8228
X3.0748Y-2.3937
X3.115Y-5.8228
X3.215Y-5.8228
X3.4606Y-2.4724
X3.4606Y-2.5724
X3.4606Y-2.6724
X3.4606Y-2.7724
X3.4606Y-2.8724
X3.4606Y-2.9724
X3.4606Y-3.0724
X3.4606Y-3.1724
X3.4606Y-3.2724
X3.4606Y-3.3724
T5
X2.1142Y-2.1839
X2.315Y-2.185
X3.4213Y-5.8031
T2
G00X2.0819Y-5.5906
M15
G01X2.0819Y-5.5512
M16
G05
G00X2.4087Y-5.5906
M15
G01X2.4087Y-5.5512
M16
G05
G00X2.5307Y-5.5906
M15
G01X2.5307Y-5.5512
M16
G05
G00X2.7835Y-5.2567
M15
G01X2.7441Y-5.2567
M16
G05
G00X2.7835Y-5.3787
M15
G01X2.7441Y-5.3787
M16
G05
G00X2.7835Y-5.7055
M15
G01X2.7441Y-5.7055
M16
G05
G00X3.0165Y-5.5512
M15
G01X3.0165Y-5.5906
M16
G05
G00X3.1386Y-5.5512
M15
G01X3.1386Y-5.5906
M16
G05
G00X3.4654Y-5.5512
M15
G01X3.4654Y-5.5906
M16
G05
T0
M30
