%TF.GenerationSoftware,KiCad,Pcbnew,7.0.6*%
%TF.CreationDate,2023-07-26T19:08:01+01:00*%
%TF.ProjectId,Hypersoniq_Controls,48797065-7273-46f6-9e69-715f436f6e74,rev?*%
%TF.SameCoordinates,Original*%
%TF.FileFunction,Copper,L2,Bot*%
%TF.FilePolarity,Positive*%
%FSLAX46Y46*%
G04 Gerber Fmt 4.6, Leading zero omitted, Abs format (unit mm)*
G04 Created by KiCad (PCBNEW 7.0.6) date 2023-07-26 19:08:01*
%MOMM*%
%LPD*%
G01*
G04 APERTURE LIST*
%TA.AperFunction,ComponentPad*%
%ADD10C,2.000000*%
%TD*%
%TA.AperFunction,ComponentPad*%
%ADD11R,2.500000X1.000000*%
%TD*%
%TA.AperFunction,WasherPad*%
%ADD12C,3.500000*%
%TD*%
%TA.AperFunction,ComponentPad*%
%ADD13C,1.800000*%
%TD*%
%TA.AperFunction,ComponentPad*%
%ADD14R,1.000000X2.500000*%
%TD*%
%TA.AperFunction,WasherPad*%
%ADD15C,3.650000*%
%TD*%
%TA.AperFunction,ComponentPad*%
%ADD16R,1.500000X1.500000*%
%TD*%
%TA.AperFunction,ComponentPad*%
%ADD17C,1.500000*%
%TD*%
%TA.AperFunction,ComponentPad*%
%ADD18R,1.700000X1.700000*%
%TD*%
%TA.AperFunction,ComponentPad*%
%ADD19O,1.700000X1.700000*%
%TD*%
%TA.AperFunction,ViaPad*%
%ADD20C,0.800000*%
%TD*%
%TA.AperFunction,Conductor*%
%ADD21C,0.300000*%
%TD*%
G04 APERTURE END LIST*
D10*
%TO.P,TP3,1,1*%
%TO.N,GND*%
X58800000Y-55500000D03*
%TD*%
D11*
%TO.P,J11,1*%
%TO.N,GND*%
X70200000Y-133520000D03*
%TO.P,J11,2*%
X70200000Y-136620000D03*
%TO.P,J11,3*%
%TO.N,/FREQ_JACK*%
X70200000Y-144920000D03*
%TD*%
D12*
%TO.P,Q_CTRL1,*%
%TO.N,*%
X58500000Y-76600000D03*
X67300000Y-76600000D03*
D13*
%TO.P,Q_CTRL1,1,1*%
%TO.N,+12V*%
X65400000Y-83600000D03*
%TO.P,Q_CTRL1,2,2*%
%TO.N,/Q_POT*%
X62900000Y-83600000D03*
%TO.P,Q_CTRL1,3,3*%
%TO.N,GND*%
X60400000Y-83600000D03*
%TD*%
D10*
%TO.P,TP4,1,1*%
%TO.N,GND*%
X86900000Y-147400000D03*
%TD*%
D14*
%TO.P,J12,1*%
%TO.N,GND*%
X76620000Y-141500000D03*
%TO.P,J12,2*%
%TO.N,unconnected-(J12-Pad2)*%
X79720000Y-141500000D03*
%TO.P,J12,3*%
%TO.N,/AUDIO_MIX_4POLE*%
X88020000Y-141500000D03*
%TD*%
%TO.P,J6,1*%
%TO.N,GND*%
X64280000Y-141500000D03*
%TO.P,J6,2*%
%TO.N,unconnected-(J6-Pad2)*%
X61180000Y-141500000D03*
%TO.P,J6,3*%
%TO.N,/AUDIO_MIX_1POLE*%
X52880000Y-141500000D03*
%TD*%
D15*
%TO.P,J4,*%
%TO.N,*%
X54730000Y-105700000D03*
X66160000Y-105700000D03*
D16*
%TO.P,J4,1*%
%TO.N,/AUDIO_IN1*%
X56000000Y-99350000D03*
D17*
%TO.P,J4,2*%
%TO.N,/AUDIO_IN2*%
X57270000Y-96810000D03*
%TO.P,J4,3*%
%TO.N,/AUDIO_IN3*%
X58540000Y-99350000D03*
%TO.P,J4,4*%
%TO.N,/AUDIO_IN4*%
X59810000Y-96810000D03*
%TO.P,J4,5*%
%TO.N,unconnected-(J4-Pad5)*%
X61080000Y-99350000D03*
%TO.P,J4,6*%
%TO.N,unconnected-(J4-Pad6)*%
X62350000Y-96810000D03*
%TO.P,J4,7*%
%TO.N,unconnected-(J4-Pad7)*%
X63620000Y-99350000D03*
%TO.P,J4,8*%
%TO.N,unconnected-(J4-Pad8)*%
X64890000Y-96810000D03*
%TD*%
D10*
%TO.P,TP1,1,1*%
%TO.N,+12V*%
X53700000Y-55470000D03*
%TD*%
D15*
%TO.P,J5,*%
%TO.N,*%
X54730000Y-125800000D03*
X66160000Y-125800000D03*
D16*
%TO.P,J5,1*%
%TO.N,/1POLE_OUT1*%
X56000000Y-119450000D03*
D17*
%TO.P,J5,2*%
%TO.N,/1POLE_OUT2*%
X57270000Y-116910000D03*
%TO.P,J5,3*%
%TO.N,/1POLE_OUT3*%
X58540000Y-119450000D03*
%TO.P,J5,4*%
%TO.N,/1POLE_OUT4*%
X59810000Y-116910000D03*
%TO.P,J5,5*%
%TO.N,unconnected-(J5-Pad5)*%
X61080000Y-119450000D03*
%TO.P,J5,6*%
%TO.N,unconnected-(J5-Pad6)*%
X62350000Y-116910000D03*
%TO.P,J5,7*%
%TO.N,unconnected-(J5-Pad7)*%
X63620000Y-119450000D03*
%TO.P,J5,8*%
%TO.N,unconnected-(J5-Pad8)*%
X64890000Y-116910000D03*
%TD*%
D15*
%TO.P,J8,*%
%TO.N,*%
X74330000Y-125800000D03*
X85760000Y-125800000D03*
D16*
%TO.P,J8,1*%
%TO.N,/4POLE_OUT1*%
X75600000Y-119450000D03*
D17*
%TO.P,J8,2*%
%TO.N,/4POLE_OUT2*%
X76870000Y-116910000D03*
%TO.P,J8,3*%
%TO.N,/4POLE_OUT3*%
X78140000Y-119450000D03*
%TO.P,J8,4*%
%TO.N,/4POLE_OUT4*%
X79410000Y-116910000D03*
%TO.P,J8,5*%
%TO.N,unconnected-(J8-Pad5)*%
X80680000Y-119450000D03*
%TO.P,J8,6*%
%TO.N,unconnected-(J8-Pad6)*%
X81950000Y-116910000D03*
%TO.P,J8,7*%
%TO.N,unconnected-(J8-Pad7)*%
X83220000Y-119450000D03*
%TO.P,J8,8*%
%TO.N,unconnected-(J8-Pad8)*%
X84490000Y-116910000D03*
%TD*%
D15*
%TO.P,J7,*%
%TO.N,*%
X74330000Y-105700000D03*
X85760000Y-105700000D03*
D16*
%TO.P,J7,1*%
%TO.N,/FREQ_CV1*%
X75600000Y-99350000D03*
D17*
%TO.P,J7,2*%
%TO.N,/FREQ_CV2*%
X76870000Y-96810000D03*
%TO.P,J7,3*%
%TO.N,/FREQ_CV3*%
X78140000Y-99350000D03*
%TO.P,J7,4*%
%TO.N,/FREQ_CV4*%
X79410000Y-96810000D03*
%TO.P,J7,5*%
%TO.N,unconnected-(J7-Pad5)*%
X80680000Y-99350000D03*
%TO.P,J7,6*%
%TO.N,unconnected-(J7-Pad6)*%
X81950000Y-96810000D03*
%TO.P,J7,7*%
%TO.N,unconnected-(J7-Pad7)*%
X83220000Y-99350000D03*
%TO.P,J7,8*%
%TO.N,unconnected-(J7-Pad8)*%
X84490000Y-96810000D03*
%TD*%
D12*
%TO.P,FREQ_POT1,*%
%TO.N,*%
X71200000Y-53800000D03*
X80000000Y-53800000D03*
D13*
%TO.P,FREQ_POT1,1,1*%
%TO.N,/FREQ_POT_VH*%
X78100000Y-60800000D03*
%TO.P,FREQ_POT1,2,2*%
%TO.N,/FREQ_POT*%
X75600000Y-60800000D03*
%TO.P,FREQ_POT1,3,3*%
%TO.N,/FREQ_POT_VL*%
X73100000Y-60800000D03*
%TD*%
D18*
%TO.P,J3,1,Pin_1*%
%TO.N,/FREQ_CV3*%
X58800000Y-147900000D03*
D19*
%TO.P,J3,2,Pin_2*%
%TO.N,/AUDIO_IN3*%
X61340000Y-147900000D03*
%TO.P,J3,3,Pin_3*%
%TO.N,/1POLE_OUT3*%
X63880000Y-147900000D03*
%TO.P,J3,4,Pin_4*%
%TO.N,/FREQ_POT*%
X66420000Y-147900000D03*
%TO.P,J3,5,Pin_5*%
%TO.N,-12V*%
X68960000Y-147900000D03*
%TO.P,J3,6,Pin_6*%
%TO.N,/AUDIO_IN4*%
X71500000Y-147900000D03*
%TO.P,J3,7,Pin_7*%
%TO.N,GND*%
X74040000Y-147900000D03*
%TO.P,J3,8,Pin_8*%
X76580000Y-147900000D03*
%TO.P,J3,9,Pin_9*%
%TO.N,/FREQ_CV4*%
X79120000Y-147900000D03*
%TO.P,J3,10,Pin_10*%
%TO.N,/FREQ_JACK*%
X81660000Y-147900000D03*
%TD*%
D18*
%TO.P,J1,1,Pin_1*%
%TO.N,/FREQ_POT_VL*%
X87900000Y-62800000D03*
D19*
%TO.P,J1,2,Pin_2*%
%TO.N,/4POLE_OUT2*%
X87900000Y-65340000D03*
%TO.P,J1,3,Pin_3*%
%TO.N,/4POLE_OUT3*%
X87900000Y-67880000D03*
%TO.P,J1,4,Pin_4*%
%TO.N,/4POLE_OUT4*%
X87900000Y-70420000D03*
%TO.P,J1,5,Pin_5*%
%TO.N,/AUDIO_MIX_4POLE*%
X87900000Y-72960000D03*
%TO.P,J1,6,Pin_6*%
%TO.N,GND*%
X87900000Y-75500000D03*
%TO.P,J1,7,Pin_7*%
%TO.N,/1POLE_OUT1*%
X87900000Y-78040000D03*
%TO.P,J1,8,Pin_8*%
%TO.N,/Q_POT*%
X87900000Y-80580000D03*
%TO.P,J1,9,Pin_9*%
%TO.N,/AUDIO_IN1*%
X87900000Y-83120000D03*
%TO.P,J1,10,Pin_10*%
%TO.N,/FREQ_CV1*%
X87900000Y-85660000D03*
%TD*%
D18*
%TO.P,J2,1,Pin_1*%
%TO.N,+12V*%
X52400000Y-62800000D03*
D19*
%TO.P,J2,2,Pin_2*%
%TO.N,/4POLE_OUT1*%
X52400000Y-65340000D03*
%TO.P,J2,3,Pin_3*%
%TO.N,/FREQ_POT_VH*%
X52400000Y-67880000D03*
%TO.P,J2,4,Pin_4*%
%TO.N,/1POLE_OUT4*%
X52400000Y-70420000D03*
%TO.P,J2,5,Pin_5*%
%TO.N,/AUDIO_MIX_1POLE*%
X52400000Y-72960000D03*
%TO.P,J2,6,Pin_6*%
%TO.N,GND*%
X52400000Y-75500000D03*
%TO.P,J2,7,Pin_7*%
X52400000Y-78040000D03*
%TO.P,J2,8,Pin_8*%
%TO.N,/AUDIO_IN2*%
X52400000Y-80580000D03*
%TO.P,J2,9,Pin_9*%
%TO.N,/1POLE_OUT2*%
X52400000Y-83120000D03*
%TO.P,J2,10,Pin_10*%
%TO.N,/FREQ_CV2*%
X52400000Y-85660000D03*
%TD*%
D20*
%TO.N,GND*%
X75000000Y-65500000D03*
X82900000Y-62900000D03*
X81300000Y-89800000D03*
X55900000Y-102200000D03*
X51800000Y-148400000D03*
X66800000Y-121900000D03*
X58000000Y-64000000D03*
X62200000Y-111100000D03*
X67700000Y-116500000D03*
X87000000Y-133900000D03*
X88000000Y-88500000D03*
X73000000Y-113100000D03*
X76600000Y-103600000D03*
X84600000Y-109500000D03*
X73200000Y-122600000D03*
X56400000Y-129900000D03*
X62000000Y-92000000D03*
X81700000Y-124700000D03*
X87900000Y-55300000D03*
X68200000Y-90700000D03*
X81000000Y-77800000D03*
X66300000Y-109000000D03*
X64000000Y-70100000D03*
X56200000Y-70300000D03*
X75500000Y-130000000D03*
X54300000Y-90200000D03*
X63200000Y-131200000D03*
X55600000Y-85600000D03*
X75800000Y-82000000D03*
X53800000Y-122800000D03*
X68200000Y-102900000D03*
X53900000Y-117100000D03*
X87200000Y-118100000D03*
X53100000Y-96800000D03*
%TD*%
D21*
%TO.N,/FREQ_POT_VH*%
X52400000Y-67880000D02*
X75720000Y-67880000D01*
X75720000Y-67880000D02*
X78100000Y-65500000D01*
X78100000Y-65500000D02*
X78100000Y-60800000D01*
%TO.N,/AUDIO_IN1*%
X70900000Y-93000000D02*
X80780000Y-83120000D01*
X80780000Y-83120000D02*
X87900000Y-83120000D01*
X70900000Y-114800000D02*
X70900000Y-93000000D01*
X56000000Y-99350000D02*
X51700000Y-103650000D01*
X51700000Y-103650000D02*
X51700000Y-119000000D01*
X54300000Y-121600000D02*
X64100000Y-121600000D01*
X51700000Y-119000000D02*
X54300000Y-121600000D01*
X64100000Y-121600000D02*
X70900000Y-114800000D01*
%TO.N,/1POLE_OUT1*%
X87900000Y-78040000D02*
X89200000Y-79340000D01*
X88500000Y-81900000D02*
X79700000Y-81900000D01*
X61100000Y-116200000D02*
X61100000Y-117500000D01*
X89200000Y-81200000D02*
X88500000Y-81900000D01*
X61100000Y-117500000D02*
X60400000Y-118200000D01*
X89200000Y-79340000D02*
X89200000Y-81200000D01*
X60400000Y-118200000D02*
X57250000Y-118200000D01*
X69700000Y-91900000D02*
X69700000Y-107600000D01*
X57250000Y-118200000D02*
X56000000Y-119450000D01*
X69700000Y-107600000D02*
X61100000Y-116200000D01*
X79700000Y-81900000D02*
X69700000Y-91900000D01*
%TO.N,/FREQ_CV1*%
X81040000Y-85660000D02*
X87900000Y-85660000D01*
X75600000Y-99350000D02*
X75600000Y-91100000D01*
X75600000Y-91100000D02*
X81040000Y-85660000D01*
%TO.N,/FREQ_JACK*%
X70200000Y-144920000D02*
X78680000Y-144920000D01*
X78680000Y-144920000D02*
X81660000Y-147900000D01*
%TO.N,/4POLE_OUT1*%
X75600000Y-119450000D02*
X77850000Y-121700000D01*
X89000000Y-58700000D02*
X59040000Y-58700000D01*
X77850000Y-121700000D02*
X87300000Y-121700000D01*
X59040000Y-58700000D02*
X52400000Y-65340000D01*
X87300000Y-121700000D02*
X89800000Y-119200000D01*
X89800000Y-119200000D02*
X89800000Y-59500000D01*
X89800000Y-59500000D02*
X89000000Y-58700000D01*
%TO.N,/AUDIO_IN2*%
X50900000Y-82080000D02*
X50900000Y-90440000D01*
X52400000Y-80580000D02*
X50900000Y-82080000D01*
X50900000Y-90440000D02*
X57270000Y-96810000D01*
%TO.N,/1POLE_OUT4*%
X52400000Y-70420000D02*
X56100000Y-74120000D01*
X56100000Y-81800000D02*
X67900000Y-93600000D01*
X59810000Y-108290000D02*
X59810000Y-116910000D01*
X67900000Y-93600000D02*
X67900000Y-100200000D01*
X56100000Y-74120000D02*
X56100000Y-81800000D01*
X67900000Y-100200000D02*
X59810000Y-108290000D01*
%TO.N,/Q_POT*%
X62900000Y-83600000D02*
X65920000Y-80580000D01*
X65920000Y-80580000D02*
X87900000Y-80580000D01*
%TO.N,/1POLE_OUT2*%
X66800000Y-94700000D02*
X66800000Y-99400000D01*
X57270000Y-108930000D02*
X57270000Y-116910000D01*
X52400000Y-83120000D02*
X55220000Y-83120000D01*
X66800000Y-99400000D02*
X57270000Y-108930000D01*
X55220000Y-83120000D02*
X66800000Y-94700000D01*
%TO.N,/FREQ_CV3*%
X65900000Y-131010000D02*
X69400000Y-127510000D01*
X61100000Y-144400000D02*
X64700000Y-144400000D01*
X58800000Y-147900000D02*
X58800000Y-146700000D01*
X69400000Y-118000000D02*
X78140000Y-109260000D01*
X64700000Y-144400000D02*
X65900000Y-143200000D01*
X78140000Y-109260000D02*
X78140000Y-99350000D01*
X69400000Y-127510000D02*
X69400000Y-118000000D01*
X65900000Y-143200000D02*
X65900000Y-131010000D01*
X58800000Y-146700000D02*
X61100000Y-144400000D01*
%TD*%
%TA.AperFunction,Conductor*%
%TO.N,GND*%
G36*
X86707416Y-86338502D02*
G01*
X86744778Y-86375585D01*
X86824275Y-86497264D01*
X86824279Y-86497270D01*
X86976762Y-86662908D01*
X87031331Y-86705381D01*
X87154424Y-86801189D01*
X87352426Y-86908342D01*
X87352427Y-86908342D01*
X87352428Y-86908343D01*
X87464227Y-86946723D01*
X87565365Y-86981444D01*
X87787431Y-87018500D01*
X87787435Y-87018500D01*
X88012565Y-87018500D01*
X88012569Y-87018500D01*
X88234635Y-86981444D01*
X88447574Y-86908342D01*
X88645576Y-86801189D01*
X88823240Y-86662906D01*
X88922799Y-86554756D01*
X88983653Y-86518186D01*
X89054617Y-86520321D01*
X89113162Y-86560483D01*
X89140700Y-86625921D01*
X89141500Y-86640095D01*
X89141500Y-118875049D01*
X89121498Y-118943170D01*
X89104595Y-118964144D01*
X87064145Y-121004595D01*
X87001833Y-121038620D01*
X86975050Y-121041500D01*
X78174950Y-121041500D01*
X78106829Y-121021498D01*
X78085855Y-121004595D01*
X78006235Y-120924975D01*
X77972209Y-120862663D01*
X77977274Y-120791848D01*
X78019821Y-120735012D01*
X78086341Y-120710201D01*
X78106312Y-120710360D01*
X78139994Y-120713307D01*
X78139996Y-120713306D01*
X78140000Y-120713307D01*
X78359371Y-120694115D01*
X78572076Y-120637120D01*
X78771654Y-120544056D01*
X78952038Y-120417749D01*
X79107749Y-120262038D01*
X79234056Y-120081654D01*
X79295804Y-119949232D01*
X79342722Y-119895946D01*
X79410999Y-119876485D01*
X79478959Y-119897026D01*
X79524195Y-119949232D01*
X79585944Y-120081654D01*
X79702864Y-120248632D01*
X79712251Y-120262038D01*
X79712254Y-120262042D01*
X79867957Y-120417745D01*
X79867961Y-120417748D01*
X79867962Y-120417749D01*
X80048346Y-120544056D01*
X80247924Y-120637120D01*
X80460629Y-120694115D01*
X80680000Y-120713307D01*
X80899371Y-120694115D01*
X81112076Y-120637120D01*
X81311654Y-120544056D01*
X81492038Y-120417749D01*
X81647749Y-120262038D01*
X81774056Y-120081654D01*
X81835804Y-119949232D01*
X81882722Y-119895946D01*
X81950999Y-119876485D01*
X82018959Y-119897026D01*
X82064195Y-119949232D01*
X82125944Y-120081654D01*
X82242864Y-120248632D01*
X82252251Y-120262038D01*
X82252254Y-120262042D01*
X82407957Y-120417745D01*
X82407961Y-120417748D01*
X82407962Y-120417749D01*
X82588346Y-120544056D01*
X82787924Y-120637120D01*
X83000629Y-120694115D01*
X83220000Y-120713307D01*
X83439371Y-120694115D01*
X83652076Y-120637120D01*
X83851654Y-120544056D01*
X84032038Y-120417749D01*
X84187749Y-120262038D01*
X84314056Y-120081654D01*
X84407120Y-119882076D01*
X84464115Y-119669371D01*
X84483307Y-119450000D01*
X84464115Y-119230629D01*
X84407120Y-119017924D01*
X84314056Y-118818347D01*
X84187749Y-118637962D01*
X84032038Y-118482251D01*
X83851654Y-118355944D01*
X83851648Y-118355941D01*
X83652079Y-118262881D01*
X83652073Y-118262879D01*
X83551215Y-118235854D01*
X83439371Y-118205885D01*
X83220000Y-118186693D01*
X83219999Y-118186693D01*
X83000629Y-118205885D01*
X82787926Y-118262879D01*
X82787920Y-118262881D01*
X82588346Y-118355944D01*
X82407965Y-118482248D01*
X82407959Y-118482253D01*
X82252253Y-118637959D01*
X82252248Y-118637965D01*
X82125944Y-118818346D01*
X82064195Y-118950768D01*
X82017278Y-119004053D01*
X81949000Y-119023514D01*
X81881040Y-119002972D01*
X81835805Y-118950768D01*
X81800496Y-118875049D01*
X81774056Y-118818347D01*
X81647749Y-118637962D01*
X81492038Y-118482251D01*
X81311654Y-118355944D01*
X81311648Y-118355941D01*
X81112079Y-118262881D01*
X81112073Y-118262879D01*
X81011215Y-118235854D01*
X80899371Y-118205885D01*
X80680000Y-118186693D01*
X80679999Y-118186693D01*
X80460629Y-118205885D01*
X80247926Y-118262879D01*
X80247920Y-118262881D01*
X80048346Y-118355944D01*
X79867965Y-118482248D01*
X79867959Y-118482253D01*
X79712253Y-118637959D01*
X79712248Y-118637965D01*
X79585944Y-118818346D01*
X79524195Y-118950768D01*
X79477278Y-119004053D01*
X79409000Y-119023514D01*
X79341040Y-119002972D01*
X79295805Y-118950768D01*
X79260496Y-118875049D01*
X79234056Y-118818347D01*
X79107749Y-118637962D01*
X78952038Y-118482251D01*
X78771654Y-118355944D01*
X78771648Y-118355941D01*
X78572079Y-118262881D01*
X78572073Y-118262879D01*
X78471215Y-118235854D01*
X78359371Y-118205885D01*
X78140000Y-118186693D01*
X77920629Y-118205885D01*
X77707926Y-118262879D01*
X77707920Y-118262881D01*
X77508346Y-118355944D01*
X77327965Y-118482248D01*
X77327959Y-118482253D01*
X77172253Y-118637959D01*
X77172248Y-118637965D01*
X77087713Y-118758694D01*
X77032256Y-118803022D01*
X76961636Y-118810331D01*
X76898276Y-118778300D01*
X76862291Y-118717099D01*
X76858500Y-118686423D01*
X76858500Y-118651367D01*
X76858499Y-118651350D01*
X76851990Y-118590803D01*
X76851988Y-118590795D01*
X76800889Y-118453797D01*
X76800887Y-118453792D01*
X76740233Y-118372769D01*
X76715422Y-118306249D01*
X76730513Y-118236875D01*
X76780715Y-118186673D01*
X76850089Y-118171581D01*
X76852031Y-118171734D01*
X76870000Y-118173307D01*
X77089371Y-118154115D01*
X77302076Y-118097120D01*
X77501654Y-118004056D01*
X77682038Y-117877749D01*
X77837749Y-117722038D01*
X77964056Y-117541654D01*
X78025804Y-117409232D01*
X78072722Y-117355946D01*
X78140999Y-117336485D01*
X78208959Y-117357026D01*
X78254195Y-117409232D01*
X78315944Y-117541654D01*
X78442251Y-117722038D01*
X78442254Y-117722042D01*
X78597957Y-117877745D01*
X78597961Y-117877748D01*
X78597962Y-117877749D01*
X78778346Y-118004056D01*
X78977924Y-118097120D01*
X79190629Y-118154115D01*
X79410000Y-118173307D01*
X79629371Y-118154115D01*
X79842076Y-118097120D01*
X80041654Y-118004056D01*
X80222038Y-117877749D01*
X80377749Y-117722038D01*
X80504056Y-117541654D01*
X80565804Y-117409232D01*
X80612722Y-117355946D01*
X80680999Y-117336485D01*
X80748959Y-117357026D01*
X80794195Y-117409232D01*
X80855944Y-117541654D01*
X80982250Y-117722038D01*
X80982251Y-117722038D01*
X80982254Y-117722042D01*
X81137957Y-117877745D01*
X81137961Y-117877748D01*
X81137962Y-117877749D01*
X81318346Y-118004056D01*
X81517924Y-118097120D01*
X81730629Y-118154115D01*
X81950000Y-118173307D01*
X82169371Y-118154115D01*
X82382076Y-118097120D01*
X82581654Y-118004056D01*
X82762038Y-117877749D01*
X82917749Y-117722038D01*
X83044056Y-117541654D01*
X83105804Y-117409232D01*
X83152722Y-117355946D01*
X83220999Y-117336485D01*
X83288959Y-117357026D01*
X83334195Y-117409232D01*
X83395944Y-117541654D01*
X83522250Y-117722038D01*
X83522251Y-117722038D01*
X83522254Y-117722042D01*
X83677957Y-117877745D01*
X83677961Y-117877748D01*
X83677962Y-117877749D01*
X83858346Y-118004056D01*
X84057924Y-118097120D01*
X84270629Y-118154115D01*
X84490000Y-118173307D01*
X84709371Y-118154115D01*
X84922076Y-118097120D01*
X85121654Y-118004056D01*
X85302038Y-117877749D01*
X85457749Y-117722038D01*
X85584056Y-117541654D01*
X85677120Y-117342076D01*
X85734115Y-117129371D01*
X85753307Y-116910000D01*
X85734115Y-116690629D01*
X85677120Y-116477924D01*
X85584056Y-116278347D01*
X85457749Y-116097962D01*
X85302038Y-115942251D01*
X85121654Y-115815944D01*
X85027126Y-115771865D01*
X84922079Y-115722881D01*
X84922073Y-115722879D01*
X84803753Y-115691175D01*
X84709371Y-115665885D01*
X84490000Y-115646693D01*
X84489999Y-115646693D01*
X84270629Y-115665885D01*
X84057926Y-115722879D01*
X84057920Y-115722881D01*
X83858346Y-115815944D01*
X83677965Y-115942248D01*
X83677959Y-115942253D01*
X83522253Y-116097959D01*
X83522248Y-116097965D01*
X83395944Y-116278346D01*
X83334195Y-116410768D01*
X83287278Y-116464053D01*
X83219000Y-116483514D01*
X83151040Y-116462972D01*
X83105805Y-116410768D01*
X83085488Y-116367198D01*
X83044056Y-116278347D01*
X82917749Y-116097962D01*
X82762038Y-115942251D01*
X82581654Y-115815944D01*
X82487126Y-115771865D01*
X82382079Y-115722881D01*
X82382073Y-115722879D01*
X82263753Y-115691175D01*
X82169371Y-115665885D01*
X81950000Y-115646693D01*
X81949999Y-115646693D01*
X81730629Y-115665885D01*
X81517926Y-115722879D01*
X81517920Y-115722881D01*
X81318346Y-115815944D01*
X81137965Y-115942248D01*
X81137959Y-115942253D01*
X80982253Y-116097959D01*
X80982248Y-116097965D01*
X80855944Y-116278346D01*
X80794195Y-116410768D01*
X80747278Y-116464053D01*
X80679000Y-116483514D01*
X80611040Y-116462972D01*
X80565805Y-116410768D01*
X80545488Y-116367198D01*
X80504056Y-116278347D01*
X80377749Y-116097962D01*
X80222038Y-115942251D01*
X80041654Y-115815944D01*
X79947126Y-115771865D01*
X79842079Y-115722881D01*
X79842073Y-115722879D01*
X79723753Y-115691175D01*
X79629371Y-115665885D01*
X79410000Y-115646693D01*
X79190629Y-115665885D01*
X78977926Y-115722879D01*
X78977920Y-115722881D01*
X78778346Y-115815944D01*
X78597965Y-115942248D01*
X78597959Y-115942253D01*
X78442253Y-116097959D01*
X78442248Y-116097965D01*
X78315944Y-116278346D01*
X78254195Y-116410768D01*
X78207278Y-116464053D01*
X78139000Y-116483514D01*
X78071040Y-116462972D01*
X78025805Y-116410768D01*
X78005488Y-116367198D01*
X77964056Y-116278347D01*
X77837749Y-116097962D01*
X77682038Y-115942251D01*
X77501654Y-115815944D01*
X77407126Y-115771865D01*
X77302079Y-115722881D01*
X77302073Y-115722879D01*
X77183753Y-115691175D01*
X77089371Y-115665885D01*
X76870000Y-115646693D01*
X76650629Y-115665885D01*
X76437926Y-115722879D01*
X76437920Y-115722881D01*
X76238346Y-115815944D01*
X76057965Y-115942248D01*
X76057959Y-115942253D01*
X75902253Y-116097959D01*
X75902248Y-116097965D01*
X75775944Y-116278346D01*
X75682881Y-116477920D01*
X75682879Y-116477926D01*
X75625885Y-116690629D01*
X75606693Y-116910000D01*
X75625885Y-117129370D01*
X75682879Y-117342073D01*
X75682881Y-117342079D01*
X75714195Y-117409232D01*
X75775944Y-117541654D01*
X75902250Y-117722037D01*
X75902251Y-117722038D01*
X75902254Y-117722042D01*
X76057957Y-117877745D01*
X76057966Y-117877752D01*
X76178694Y-117962287D01*
X76223023Y-118017744D01*
X76230332Y-118088363D01*
X76198302Y-118151724D01*
X76137100Y-118187709D01*
X76106424Y-118191500D01*
X74801350Y-118191500D01*
X74740803Y-118198009D01*
X74740795Y-118198011D01*
X74603797Y-118249110D01*
X74603792Y-118249112D01*
X74486738Y-118336738D01*
X74399112Y-118453792D01*
X74399110Y-118453797D01*
X74348011Y-118590795D01*
X74348009Y-118590803D01*
X74341500Y-118651350D01*
X74341500Y-120248649D01*
X74348009Y-120309196D01*
X74348011Y-120309204D01*
X74399110Y-120446202D01*
X74399112Y-120446207D01*
X74486738Y-120563261D01*
X74603792Y-120650887D01*
X74603794Y-120650888D01*
X74603796Y-120650889D01*
X74662875Y-120672924D01*
X74740795Y-120701988D01*
X74740803Y-120701990D01*
X74801350Y-120708499D01*
X74801355Y-120708499D01*
X74801362Y-120708500D01*
X75875050Y-120708500D01*
X75943171Y-120728502D01*
X75964145Y-120745405D01*
X77323125Y-122104385D01*
X77333338Y-122117131D01*
X77333531Y-122116972D01*
X77338583Y-122123079D01*
X77338584Y-122123080D01*
X77391685Y-122172945D01*
X77413667Y-122194927D01*
X77413675Y-122194933D01*
X77419517Y-122199465D01*
X77424033Y-122203322D01*
X77459867Y-122236972D01*
X77478669Y-122247308D01*
X77495175Y-122258151D01*
X77512132Y-122271304D01*
X77557254Y-122290829D01*
X77562580Y-122293439D01*
X77605659Y-122317123D01*
X77605663Y-122317124D01*
X77626432Y-122322456D01*
X77645134Y-122328859D01*
X77664824Y-122337380D01*
X77713407Y-122345074D01*
X77719180Y-122346269D01*
X77766812Y-122358500D01*
X77788253Y-122358500D01*
X77807961Y-122360050D01*
X77829152Y-122363407D01*
X77864654Y-122360051D01*
X77878104Y-122358780D01*
X77884037Y-122358500D01*
X87213389Y-122358500D01*
X87229620Y-122360291D01*
X87229644Y-122360042D01*
X87237536Y-122360788D01*
X87237536Y-122360787D01*
X87237537Y-122360788D01*
X87310342Y-122358500D01*
X87341432Y-122358500D01*
X87348779Y-122357571D01*
X87354682Y-122357106D01*
X87403831Y-122355562D01*
X87424421Y-122349579D01*
X87443776Y-122345571D01*
X87465064Y-122342882D01*
X87510796Y-122324775D01*
X87516380Y-122322863D01*
X87563600Y-122309145D01*
X87582050Y-122298232D01*
X87599813Y-122289530D01*
X87619756Y-122281635D01*
X87659537Y-122252730D01*
X87664487Y-122249480D01*
X87685637Y-122236972D01*
X87706807Y-122224453D01*
X87721977Y-122209281D01*
X87737005Y-122196447D01*
X87754357Y-122183841D01*
X87785702Y-122145950D01*
X87789670Y-122141588D01*
X90174405Y-119756854D01*
X90236717Y-119722828D01*
X90307533Y-119727893D01*
X90364368Y-119770440D01*
X90389179Y-119836960D01*
X90389500Y-119845949D01*
X90389500Y-150763500D01*
X90369498Y-150831621D01*
X90315842Y-150878114D01*
X90263500Y-150889500D01*
X50136500Y-150889500D01*
X50068379Y-150869498D01*
X50021886Y-150815842D01*
X50010500Y-150763500D01*
X50010500Y-142798649D01*
X51871500Y-142798649D01*
X51878009Y-142859196D01*
X51878011Y-142859204D01*
X51929110Y-142996202D01*
X51929112Y-142996207D01*
X52016738Y-143113261D01*
X52133792Y-143200887D01*
X52133794Y-143200888D01*
X52133796Y-143200889D01*
X52187310Y-143220849D01*
X52270795Y-143251988D01*
X52270803Y-143251990D01*
X52331350Y-143258499D01*
X52331355Y-143258499D01*
X52331362Y-143258500D01*
X52331368Y-143258500D01*
X53428632Y-143258500D01*
X53428638Y-143258500D01*
X53428645Y-143258499D01*
X53428649Y-143258499D01*
X53489196Y-143251990D01*
X53489199Y-143251989D01*
X53489201Y-143251989D01*
X53489644Y-143251824D01*
X53515918Y-143242024D01*
X53626204Y-143200889D01*
X53626799Y-143200444D01*
X53743261Y-143113261D01*
X53830887Y-142996207D01*
X53830887Y-142996206D01*
X53830889Y-142996204D01*
X53881989Y-142859201D01*
X53888500Y-142798638D01*
X53888500Y-141624335D01*
X56299500Y-141624335D01*
X56321137Y-141754000D01*
X56340428Y-141869609D01*
X56340430Y-141869618D01*
X56421170Y-142104807D01*
X56421171Y-142104809D01*
X56539525Y-142323508D01*
X56539526Y-142323509D01*
X56692267Y-142519750D01*
X56875214Y-142688164D01*
X57083393Y-142824173D01*
X57083392Y-142824173D01*
X57229411Y-142888222D01*
X57311119Y-142924063D01*
X57311120Y-142924063D01*
X57311122Y-142924064D01*
X57552171Y-142985106D01*
X57552179Y-142985108D01*
X57717446Y-142998802D01*
X57737931Y-143000500D01*
X57737933Y-143000500D01*
X57862069Y-143000500D01*
X57881483Y-142998891D01*
X58047821Y-142985108D01*
X58288881Y-142924063D01*
X58516607Y-142824173D01*
X58555675Y-142798649D01*
X60171500Y-142798649D01*
X60178009Y-142859196D01*
X60178011Y-142859204D01*
X60229110Y-142996202D01*
X60229112Y-142996207D01*
X60316738Y-143113261D01*
X60433792Y-143200887D01*
X60433794Y-143200888D01*
X60433796Y-143200889D01*
X60487310Y-143220849D01*
X60570795Y-143251988D01*
X60570803Y-143251990D01*
X60631350Y-143258499D01*
X60631355Y-143258499D01*
X60631362Y-143258500D01*
X60631368Y-143258500D01*
X61728632Y-143258500D01*
X61728638Y-143258500D01*
X61728645Y-143258499D01*
X61728649Y-143258499D01*
X61789196Y-143251990D01*
X61789199Y-143251989D01*
X61789201Y-143251989D01*
X61789644Y-143251824D01*
X61815918Y-143242024D01*
X61926204Y-143200889D01*
X61926799Y-143200444D01*
X62043261Y-143113261D01*
X62130887Y-142996207D01*
X62130887Y-142996206D01*
X62130889Y-142996204D01*
X62181989Y-142859201D01*
X62188500Y-142798638D01*
X62188500Y-141754000D01*
X63272000Y-141754000D01*
X63272000Y-142798597D01*
X63278505Y-142859093D01*
X63329555Y-142995964D01*
X63329555Y-142995965D01*
X63417095Y-143112904D01*
X63534034Y-143200444D01*
X63670906Y-143251494D01*
X63731402Y-143257999D01*
X63731415Y-143258000D01*
X64026000Y-143258000D01*
X64026000Y-142024624D01*
X64030000Y-142024624D01*
X64044505Y-142097545D01*
X64099760Y-142180240D01*
X64182455Y-142235495D01*
X64280000Y-142254898D01*
X64377545Y-142235495D01*
X64460240Y-142180240D01*
X64515495Y-142097545D01*
X64530000Y-142024624D01*
X64530000Y-140975376D01*
X64515495Y-140902455D01*
X64460240Y-140819760D01*
X64377545Y-140764505D01*
X64280000Y-140745102D01*
X64182455Y-140764505D01*
X64099760Y-140819760D01*
X64044505Y-140902455D01*
X64030000Y-140975376D01*
X64030000Y-142024624D01*
X64026000Y-142024624D01*
X64026000Y-141754000D01*
X63272000Y-141754000D01*
X62188500Y-141754000D01*
X62188500Y-141246000D01*
X63272000Y-141246000D01*
X64026000Y-141246000D01*
X64026000Y-139742000D01*
X63731402Y-139742000D01*
X63670906Y-139748505D01*
X63534035Y-139799555D01*
X63534034Y-139799555D01*
X63417095Y-139887095D01*
X63329555Y-140004034D01*
X63329555Y-140004035D01*
X63278505Y-140140906D01*
X63272000Y-140201402D01*
X63272000Y-141246000D01*
X62188500Y-141246000D01*
X62188500Y-140201362D01*
X62182001Y-140140906D01*
X62181990Y-140140803D01*
X62181988Y-140140795D01*
X62135028Y-140014893D01*
X62130889Y-140003796D01*
X62130888Y-140003794D01*
X62130887Y-140003792D01*
X62043261Y-139886738D01*
X61926207Y-139799112D01*
X61926202Y-139799110D01*
X61789204Y-139748011D01*
X61789196Y-139748009D01*
X61728649Y-139741500D01*
X61728638Y-139741500D01*
X60631362Y-139741500D01*
X60631350Y-139741500D01*
X60570803Y-139748009D01*
X60570795Y-139748011D01*
X60433797Y-139799110D01*
X60433792Y-139799112D01*
X60316738Y-139886738D01*
X60229112Y-140003792D01*
X60229110Y-140003797D01*
X60178011Y-140140795D01*
X60178009Y-140140803D01*
X60171500Y-140201350D01*
X60171500Y-142798649D01*
X58555675Y-142798649D01*
X58724785Y-142688164D01*
X58907732Y-142519750D01*
X58907733Y-142519748D01*
X58907738Y-142519744D01*
X59060474Y-142323509D01*
X59178828Y-142104810D01*
X59259571Y-141869614D01*
X59300500Y-141624335D01*
X59300500Y-141375665D01*
X59259571Y-141130386D01*
X59178828Y-140895190D01*
X59060474Y-140676491D01*
X58907738Y-140480256D01*
X58907736Y-140480254D01*
X58907732Y-140480249D01*
X58724785Y-140311835D01*
X58516606Y-140175826D01*
X58516607Y-140175826D01*
X58288884Y-140075938D01*
X58288877Y-140075935D01*
X58047828Y-140014893D01*
X58047823Y-140014892D01*
X58047821Y-140014892D01*
X57913864Y-140003792D01*
X57862069Y-139999500D01*
X57862067Y-139999500D01*
X57737933Y-139999500D01*
X57737931Y-139999500D01*
X57676707Y-140004573D01*
X57552179Y-140014892D01*
X57552177Y-140014892D01*
X57552171Y-140014893D01*
X57311122Y-140075935D01*
X57311115Y-140075938D01*
X57083393Y-140175826D01*
X56875214Y-140311835D01*
X56692267Y-140480249D01*
X56539526Y-140676490D01*
X56539525Y-140676491D01*
X56421171Y-140895190D01*
X56421170Y-140895192D01*
X56340430Y-141130381D01*
X56340428Y-141130386D01*
X56340429Y-141130386D01*
X56299500Y-141375665D01*
X56299500Y-141624335D01*
X53888500Y-141624335D01*
X53888500Y-140201362D01*
X53882001Y-140140906D01*
X53881990Y-140140803D01*
X53881988Y-140140795D01*
X53835028Y-140014893D01*
X53830889Y-140003796D01*
X53830888Y-140003794D01*
X53830887Y-140003792D01*
X53743261Y-139886738D01*
X53626207Y-139799112D01*
X53626202Y-139799110D01*
X53489204Y-139748011D01*
X53489196Y-139748009D01*
X53428649Y-139741500D01*
X53428638Y-139741500D01*
X52331362Y-139741500D01*
X52331350Y-139741500D01*
X52270803Y-139748009D01*
X52270795Y-139748011D01*
X52133797Y-139799110D01*
X52133792Y-139799112D01*
X52016738Y-139886738D01*
X51929112Y-140003792D01*
X51929110Y-140003797D01*
X51878011Y-140140795D01*
X51878009Y-140140803D01*
X51871500Y-140201350D01*
X51871500Y-142798649D01*
X50010500Y-142798649D01*
X50010500Y-125800003D01*
X52391493Y-125800003D01*
X52411498Y-126105231D01*
X52411500Y-126105245D01*
X52471176Y-126405248D01*
X52471178Y-126405258D01*
X52569498Y-126694900D01*
X52569504Y-126694914D01*
X52704792Y-126969251D01*
X52874731Y-127223584D01*
X52874734Y-127223588D01*
X52874736Y-127223591D01*
X52874738Y-127223593D01*
X52919070Y-127274144D01*
X53076425Y-127453574D01*
X53199861Y-127561824D01*
X53306407Y-127655262D01*
X53306409Y-127655263D01*
X53306411Y-127655265D01*
X53306415Y-127655268D01*
X53454683Y-127754337D01*
X53560746Y-127825206D01*
X53835092Y-127960499D01*
X54124750Y-128058824D01*
X54424764Y-128118501D01*
X54599184Y-128129932D01*
X54729997Y-128138507D01*
X54730000Y-128138507D01*
X54730003Y-128138507D01*
X54844463Y-128131004D01*
X55035236Y-128118501D01*
X55335250Y-128058824D01*
X55624908Y-127960499D01*
X55899254Y-127825206D01*
X56153593Y-127655262D01*
X56383574Y-127453574D01*
X56585262Y-127223593D01*
X56755206Y-126969254D01*
X56890499Y-126694908D01*
X56988824Y-126405250D01*
X57048501Y-126105236D01*
X57068507Y-125800000D01*
X57061556Y-125693954D01*
X57048501Y-125494768D01*
X57048501Y-125494764D01*
X56988824Y-125194750D01*
X56890499Y-124905092D01*
X56755206Y-124630747D01*
X56585262Y-124376407D01*
X56383574Y-124146426D01*
X56383571Y-124146424D01*
X56383570Y-124146422D01*
X56153588Y-123944734D01*
X56153584Y-123944731D01*
X55899251Y-123774792D01*
X55624914Y-123639504D01*
X55624908Y-123639501D01*
X55624903Y-123639499D01*
X55624900Y-123639498D01*
X55335258Y-123541178D01*
X55335252Y-123541176D01*
X55335250Y-123541176D01*
X55234789Y-123521193D01*
X55035245Y-123481500D01*
X55035231Y-123481498D01*
X54730003Y-123461493D01*
X54729997Y-123461493D01*
X54424768Y-123481498D01*
X54424754Y-123481500D01*
X54174980Y-123531184D01*
X54124750Y-123541176D01*
X54124748Y-123541176D01*
X54124741Y-123541178D01*
X53835099Y-123639498D01*
X53835091Y-123639501D01*
X53560741Y-123774797D01*
X53306409Y-123944736D01*
X53076426Y-124146426D01*
X52874736Y-124376409D01*
X52704797Y-124630741D01*
X52569501Y-124905091D01*
X52569498Y-124905099D01*
X52471178Y-125194741D01*
X52471176Y-125194751D01*
X52411500Y-125494754D01*
X52411498Y-125494768D01*
X52391493Y-125799996D01*
X52391493Y-125800003D01*
X50010500Y-125800003D01*
X50010500Y-120708499D01*
X50010500Y-90641938D01*
X50030501Y-90573821D01*
X50084157Y-90527328D01*
X50154431Y-90517224D01*
X50219011Y-90546718D01*
X50252264Y-90598461D01*
X50254201Y-90597695D01*
X50275216Y-90650778D01*
X50277139Y-90656394D01*
X50290853Y-90703597D01*
X50290853Y-90703598D01*
X50301771Y-90722058D01*
X50310468Y-90739811D01*
X50318364Y-90759755D01*
X50318367Y-90759760D01*
X50320093Y-90762135D01*
X50347265Y-90799532D01*
X50350521Y-90804490D01*
X50353768Y-90809981D01*
X50375547Y-90846807D01*
X50390714Y-90861974D01*
X50403552Y-90877005D01*
X50416158Y-90894356D01*
X50454040Y-90925695D01*
X50458421Y-90929681D01*
X53401500Y-93872760D01*
X55994200Y-96465460D01*
X56028226Y-96527772D01*
X56026814Y-96587156D01*
X56025887Y-96590614D01*
X56025885Y-96590623D01*
X56006693Y-96810000D01*
X56025885Y-97029370D01*
X56082879Y-97242073D01*
X56082881Y-97242079D01*
X56114195Y-97309232D01*
X56175944Y-97441654D01*
X56216674Y-97499822D01*
X56302251Y-97622038D01*
X56302254Y-97622042D01*
X56457957Y-97777745D01*
X56457966Y-97777752D01*
X56578694Y-97862287D01*
X56623023Y-97917744D01*
X56630332Y-97988363D01*
X56598302Y-98051724D01*
X56537100Y-98087709D01*
X56506424Y-98091500D01*
X55201350Y-98091500D01*
X55140803Y-98098009D01*
X55140795Y-98098011D01*
X55003797Y-98149110D01*
X55003792Y-98149112D01*
X54886738Y-98236738D01*
X54799112Y-98353792D01*
X54799110Y-98353797D01*
X54748011Y-98490795D01*
X54748009Y-98490803D01*
X54741500Y-98551350D01*
X54741500Y-99625049D01*
X54721498Y-99693170D01*
X54704595Y-99714144D01*
X51295611Y-103123127D01*
X51282865Y-103133340D01*
X51283025Y-103133533D01*
X51276921Y-103138582D01*
X51227054Y-103191685D01*
X51205071Y-103213668D01*
X51200527Y-103219525D01*
X51196678Y-103224031D01*
X51163029Y-103259865D01*
X51163027Y-103259867D01*
X51152691Y-103278667D01*
X51141843Y-103295180D01*
X51128699Y-103312126D01*
X51128694Y-103312135D01*
X51109172Y-103357247D01*
X51106560Y-103362577D01*
X51082877Y-103405660D01*
X51082873Y-103405670D01*
X51077541Y-103426436D01*
X51071139Y-103445136D01*
X51062620Y-103464820D01*
X51062619Y-103464824D01*
X51054928Y-103513384D01*
X51053724Y-103519197D01*
X51041500Y-103566810D01*
X51041500Y-103588258D01*
X51039949Y-103607967D01*
X51036594Y-103629150D01*
X51036594Y-103629152D01*
X51041220Y-103678094D01*
X51041500Y-103684027D01*
X51041500Y-118913389D01*
X51039708Y-118929620D01*
X51039958Y-118929644D01*
X51039211Y-118937536D01*
X51041500Y-119010341D01*
X51041500Y-119041430D01*
X51042427Y-119048776D01*
X51042893Y-119054690D01*
X51044437Y-119103829D01*
X51044438Y-119103832D01*
X51050421Y-119124429D01*
X51054428Y-119143780D01*
X51057117Y-119165060D01*
X51057117Y-119165062D01*
X51075216Y-119210778D01*
X51077139Y-119216394D01*
X51090853Y-119263597D01*
X51090853Y-119263598D01*
X51101771Y-119282058D01*
X51110468Y-119299811D01*
X51118364Y-119319755D01*
X51118367Y-119319760D01*
X51136352Y-119344513D01*
X51147265Y-119359532D01*
X51150521Y-119364490D01*
X51162754Y-119385176D01*
X51175547Y-119406807D01*
X51190714Y-119421974D01*
X51203552Y-119437005D01*
X51216158Y-119454356D01*
X51254040Y-119485695D01*
X51258421Y-119489681D01*
X52560589Y-120791848D01*
X53773124Y-122004383D01*
X53783340Y-122017133D01*
X53783533Y-122016974D01*
X53788584Y-122023080D01*
X53841701Y-122072960D01*
X53863658Y-122094918D01*
X53863662Y-122094921D01*
X53863667Y-122094926D01*
X53869523Y-122099468D01*
X53874020Y-122103310D01*
X53909867Y-122136972D01*
X53909869Y-122136973D01*
X53928654Y-122147300D01*
X53945183Y-122158158D01*
X53962126Y-122171301D01*
X53962129Y-122171303D01*
X53962130Y-122171303D01*
X53962131Y-122171304D01*
X54004247Y-122189529D01*
X54007254Y-122190830D01*
X54012587Y-122193442D01*
X54055663Y-122217124D01*
X54076430Y-122222456D01*
X54095131Y-122228858D01*
X54114823Y-122237380D01*
X54154164Y-122243610D01*
X54163390Y-122245072D01*
X54169186Y-122246271D01*
X54216812Y-122258500D01*
X54238258Y-122258500D01*
X54257966Y-122260050D01*
X54279151Y-122263406D01*
X54316879Y-122259839D01*
X54328093Y-122258780D01*
X54334026Y-122258500D01*
X64013389Y-122258500D01*
X64029620Y-122260291D01*
X64029644Y-122260042D01*
X64037536Y-122260788D01*
X64037536Y-122260787D01*
X64037537Y-122260788D01*
X64110342Y-122258500D01*
X64141432Y-122258500D01*
X64148779Y-122257571D01*
X64154682Y-122257106D01*
X64203831Y-122255562D01*
X64224421Y-122249579D01*
X64243776Y-122245571D01*
X64265064Y-122242882D01*
X64310796Y-122224775D01*
X64316380Y-122222863D01*
X64363600Y-122209145D01*
X64382050Y-122198232D01*
X64399813Y-122189530D01*
X64419756Y-122181635D01*
X64459537Y-122152730D01*
X64464487Y-122149480D01*
X64477869Y-122141566D01*
X64506807Y-122124453D01*
X64521977Y-122109281D01*
X64537005Y-122096447D01*
X64554357Y-122083841D01*
X64585702Y-122045950D01*
X64589670Y-122041588D01*
X68526405Y-118104853D01*
X68588717Y-118070828D01*
X68659533Y-118075893D01*
X68716368Y-118118440D01*
X68741179Y-118184960D01*
X68741500Y-118193949D01*
X68741500Y-125658456D01*
X68721498Y-125726577D01*
X68667842Y-125773070D01*
X68597568Y-125783174D01*
X68532988Y-125753680D01*
X68494604Y-125693954D01*
X68489770Y-125666697D01*
X68478501Y-125494768D01*
X68478501Y-125494764D01*
X68418824Y-125194750D01*
X68320499Y-124905092D01*
X68185206Y-124630747D01*
X68015262Y-124376407D01*
X67813574Y-124146426D01*
X67813571Y-124146424D01*
X67813570Y-124146422D01*
X67583588Y-123944734D01*
X67583584Y-123944731D01*
X67329251Y-123774792D01*
X67054914Y-123639504D01*
X67054908Y-123639501D01*
X67054903Y-123639499D01*
X67054900Y-123639498D01*
X66765258Y-123541178D01*
X66765252Y-123541176D01*
X66765250Y-123541176D01*
X66664789Y-123521193D01*
X66465245Y-123481500D01*
X66465231Y-123481498D01*
X66160003Y-123461493D01*
X66159997Y-123461493D01*
X65854768Y-123481498D01*
X65854754Y-123481500D01*
X65604980Y-123531184D01*
X65554750Y-123541176D01*
X65554748Y-123541176D01*
X65554741Y-123541178D01*
X65265099Y-123639498D01*
X65265091Y-123639501D01*
X64990741Y-123774797D01*
X64736409Y-123944736D01*
X64506426Y-124146426D01*
X64304736Y-124376409D01*
X64134797Y-124630741D01*
X63999501Y-124905091D01*
X63999498Y-124905099D01*
X63901178Y-125194741D01*
X63901176Y-125194751D01*
X63841500Y-125494754D01*
X63841498Y-125494768D01*
X63821493Y-125799996D01*
X63821493Y-125800003D01*
X63841498Y-126105231D01*
X63841500Y-126105245D01*
X63901176Y-126405248D01*
X63901178Y-126405258D01*
X63999498Y-126694900D01*
X63999504Y-126694914D01*
X64134792Y-126969251D01*
X64304731Y-127223584D01*
X64304734Y-127223588D01*
X64304736Y-127223591D01*
X64304738Y-127223593D01*
X64349070Y-127274144D01*
X64506425Y-127453574D01*
X64629861Y-127561824D01*
X64736407Y-127655262D01*
X64736409Y-127655263D01*
X64736411Y-127655265D01*
X64736415Y-127655268D01*
X64884683Y-127754337D01*
X64990746Y-127825206D01*
X65265092Y-127960499D01*
X65554750Y-128058824D01*
X65854764Y-128118501D01*
X66029184Y-128129932D01*
X66159997Y-128138507D01*
X66160000Y-128138507D01*
X66160003Y-128138507D01*
X66274463Y-128131004D01*
X66465236Y-128118501D01*
X66765250Y-128058824D01*
X67054908Y-127960499D01*
X67329254Y-127825206D01*
X67583593Y-127655262D01*
X67813574Y-127453574D01*
X68015262Y-127223593D01*
X68185206Y-126969254D01*
X68320499Y-126694908D01*
X68418824Y-126405250D01*
X68478501Y-126105236D01*
X68489770Y-125933301D01*
X68514184Y-125866635D01*
X68570766Y-125823751D01*
X68641550Y-125818265D01*
X68704064Y-125851919D01*
X68738459Y-125914028D01*
X68741500Y-125941543D01*
X68741500Y-127185049D01*
X68721498Y-127253170D01*
X68704595Y-127274144D01*
X65495611Y-130483127D01*
X65482865Y-130493340D01*
X65483025Y-130493533D01*
X65476921Y-130498582D01*
X65427054Y-130551685D01*
X65405071Y-130573668D01*
X65400527Y-130579525D01*
X65396678Y-130584031D01*
X65363029Y-130619865D01*
X65363027Y-130619867D01*
X65352691Y-130638667D01*
X65341843Y-130655180D01*
X65328699Y-130672126D01*
X65328694Y-130672135D01*
X65309172Y-130717247D01*
X65306560Y-130722577D01*
X65282877Y-130765660D01*
X65282873Y-130765670D01*
X65277541Y-130786436D01*
X65271139Y-130805136D01*
X65262620Y-130824820D01*
X65262619Y-130824824D01*
X65254928Y-130873384D01*
X65253724Y-130879197D01*
X65241500Y-130926810D01*
X65241500Y-130948258D01*
X65239949Y-130967967D01*
X65236594Y-130989150D01*
X65236594Y-130989152D01*
X65241220Y-131038094D01*
X65241500Y-131044027D01*
X65241499Y-139709187D01*
X65221497Y-139777308D01*
X65167841Y-139823801D01*
X65097567Y-139833904D01*
X65039989Y-139810054D01*
X65025966Y-139799556D01*
X65025964Y-139799555D01*
X64889093Y-139748505D01*
X64828597Y-139742000D01*
X64534000Y-139742000D01*
X64534000Y-143258000D01*
X64606548Y-143258000D01*
X64674669Y-143278002D01*
X64721162Y-143331658D01*
X64731266Y-143401932D01*
X64701772Y-143466512D01*
X64695644Y-143473095D01*
X64464145Y-143704595D01*
X64401832Y-143738620D01*
X64375049Y-143741500D01*
X61186611Y-143741500D01*
X61170379Y-143739708D01*
X61170356Y-143739958D01*
X61162463Y-143739211D01*
X61091877Y-143741430D01*
X61089658Y-143741500D01*
X61058568Y-143741500D01*
X61051222Y-143742427D01*
X61045309Y-143742893D01*
X60996172Y-143744437D01*
X60996170Y-143744437D01*
X60996169Y-143744438D01*
X60975571Y-143750421D01*
X60956221Y-143754428D01*
X60934940Y-143757116D01*
X60934935Y-143757118D01*
X60889214Y-143775219D01*
X60883599Y-143777141D01*
X60836406Y-143790852D01*
X60836398Y-143790855D01*
X60817941Y-143801771D01*
X60800193Y-143810466D01*
X60780244Y-143818364D01*
X60780244Y-143818365D01*
X60780239Y-143818368D01*
X60740461Y-143847268D01*
X60735510Y-143850520D01*
X60701289Y-143870759D01*
X60693191Y-143875549D01*
X60678029Y-143890711D01*
X60663002Y-143903545D01*
X60645646Y-143916156D01*
X60645643Y-143916158D01*
X60614294Y-143954051D01*
X60610298Y-143958442D01*
X58395611Y-146173127D01*
X58382865Y-146183340D01*
X58383025Y-146183533D01*
X58376921Y-146188582D01*
X58327054Y-146241685D01*
X58305071Y-146263668D01*
X58300527Y-146269525D01*
X58296678Y-146274031D01*
X58263029Y-146309865D01*
X58263027Y-146309867D01*
X58252691Y-146328667D01*
X58241843Y-146345180D01*
X58228699Y-146362126D01*
X58228694Y-146362135D01*
X58209172Y-146407247D01*
X58206560Y-146412577D01*
X58182875Y-146455663D01*
X58180412Y-146461886D01*
X58136736Y-146517859D01*
X58069733Y-146541334D01*
X58063261Y-146541500D01*
X57901350Y-146541500D01*
X57840803Y-146548009D01*
X57840795Y-146548011D01*
X57703797Y-146599110D01*
X57703792Y-146599112D01*
X57586738Y-146686738D01*
X57499112Y-146803792D01*
X57499110Y-146803797D01*
X57448011Y-146940795D01*
X57448009Y-146940803D01*
X57441500Y-147001350D01*
X57441500Y-148798649D01*
X57448009Y-148859196D01*
X57448011Y-148859204D01*
X57499110Y-148996202D01*
X57499112Y-148996207D01*
X57586738Y-149113261D01*
X57703792Y-149200887D01*
X57703794Y-149200888D01*
X57703796Y-149200889D01*
X57757600Y-149220957D01*
X57840795Y-149251988D01*
X57840803Y-149251990D01*
X57901350Y-149258499D01*
X57901355Y-149258499D01*
X57901362Y-149258500D01*
X57901368Y-149258500D01*
X59698632Y-149258500D01*
X59698638Y-149258500D01*
X59698645Y-149258499D01*
X59698649Y-149258499D01*
X59759196Y-149251990D01*
X59759199Y-149251989D01*
X59759201Y-149251989D01*
X59896204Y-149200889D01*
X59966399Y-149148342D01*
X60013261Y-149113261D01*
X60100886Y-148996208D01*
X60100885Y-148996208D01*
X60100889Y-148996204D01*
X60144999Y-148877939D01*
X60187545Y-148821107D01*
X60254066Y-148796296D01*
X60323440Y-148811388D01*
X60355753Y-148836635D01*
X60376529Y-148859204D01*
X60416762Y-148902908D01*
X60429294Y-148912662D01*
X60594424Y-149041189D01*
X60792426Y-149148342D01*
X60792427Y-149148342D01*
X60792428Y-149148343D01*
X60904227Y-149186723D01*
X61005365Y-149221444D01*
X61227431Y-149258500D01*
X61227435Y-149258500D01*
X61452565Y-149258500D01*
X61452569Y-149258500D01*
X61674635Y-149221444D01*
X61887574Y-149148342D01*
X62085576Y-149041189D01*
X62263240Y-148902906D01*
X62415722Y-148737268D01*
X62415927Y-148736955D01*
X62504517Y-148601357D01*
X62558520Y-148555268D01*
X62628868Y-148545693D01*
X62693226Y-148575670D01*
X62715483Y-148601357D01*
X62804275Y-148737265D01*
X62804279Y-148737270D01*
X62956762Y-148902908D01*
X62969294Y-148912662D01*
X63134424Y-149041189D01*
X63332426Y-149148342D01*
X63332427Y-149148342D01*
X63332428Y-149148343D01*
X63444227Y-149186723D01*
X63545365Y-149221444D01*
X63767431Y-149258500D01*
X63767435Y-149258500D01*
X63992565Y-149258500D01*
X63992569Y-149258500D01*
X64214635Y-149221444D01*
X64427574Y-149148342D01*
X64625576Y-149041189D01*
X64803240Y-148902906D01*
X64955722Y-148737268D01*
X64955927Y-148736955D01*
X64961115Y-148729012D01*
X65044518Y-148601354D01*
X65098520Y-148555268D01*
X65168868Y-148545692D01*
X65233225Y-148575669D01*
X65255480Y-148601353D01*
X65276223Y-148633102D01*
X65344275Y-148737265D01*
X65344279Y-148737270D01*
X65496762Y-148902908D01*
X65509294Y-148912662D01*
X65674424Y-149041189D01*
X65872426Y-149148342D01*
X65872427Y-149148342D01*
X65872428Y-149148343D01*
X65984227Y-149186723D01*
X66085365Y-149221444D01*
X66307431Y-149258500D01*
X66307435Y-149258500D01*
X66532565Y-149258500D01*
X66532569Y-149258500D01*
X66754635Y-149221444D01*
X66967574Y-149148342D01*
X67165576Y-149041189D01*
X67343240Y-148902906D01*
X67495722Y-148737268D01*
X67495927Y-148736955D01*
X67501115Y-148729012D01*
X67584518Y-148601354D01*
X67638520Y-148555268D01*
X67708868Y-148545692D01*
X67773225Y-148575669D01*
X67795480Y-148601353D01*
X67816223Y-148633102D01*
X67884275Y-148737265D01*
X67884279Y-148737270D01*
X68036762Y-148902908D01*
X68049294Y-148912662D01*
X68214424Y-149041189D01*
X68412426Y-149148342D01*
X68412427Y-149148342D01*
X68412428Y-149148343D01*
X68524227Y-149186723D01*
X68625365Y-149221444D01*
X68847431Y-149258500D01*
X68847435Y-149258500D01*
X69072565Y-149258500D01*
X69072569Y-149258500D01*
X69294635Y-149221444D01*
X69507574Y-149148342D01*
X69705576Y-149041189D01*
X69883240Y-148902906D01*
X70035722Y-148737268D01*
X70124519Y-148601353D01*
X70178518Y-148555268D01*
X70248866Y-148545692D01*
X70313224Y-148575668D01*
X70335482Y-148601356D01*
X70424275Y-148737265D01*
X70424279Y-148737270D01*
X70576762Y-148902908D01*
X70589294Y-148912662D01*
X70754424Y-149041189D01*
X70952426Y-149148342D01*
X70952427Y-149148342D01*
X70952428Y-149148343D01*
X71064227Y-149186723D01*
X71165365Y-149221444D01*
X71387431Y-149258500D01*
X71387435Y-149258500D01*
X71612565Y-149258500D01*
X71612569Y-149258500D01*
X71834635Y-149221444D01*
X72047574Y-149148342D01*
X72245576Y-149041189D01*
X72423240Y-148902906D01*
X72575722Y-148737268D01*
X72575927Y-148736955D01*
X72643777Y-148633102D01*
X72664816Y-148600898D01*
X72718819Y-148554810D01*
X72789167Y-148545235D01*
X72853524Y-148575212D01*
X72875782Y-148600898D01*
X72964674Y-148736958D01*
X73117097Y-148902534D01*
X73294698Y-149040767D01*
X73294699Y-149040768D01*
X73492628Y-149147882D01*
X73492630Y-149147883D01*
X73705483Y-149220955D01*
X73705492Y-149220957D01*
X73786000Y-149234391D01*
X73786000Y-148333674D01*
X73897685Y-148384680D01*
X74004237Y-148400000D01*
X74075763Y-148400000D01*
X74182315Y-148384680D01*
X74294000Y-148333674D01*
X74294000Y-149234390D01*
X74374507Y-149220957D01*
X74374516Y-149220955D01*
X74587369Y-149147883D01*
X74587371Y-149147882D01*
X74785300Y-149040768D01*
X74785301Y-149040767D01*
X74962902Y-148902534D01*
X75115327Y-148736955D01*
X75204517Y-148600441D01*
X75258521Y-148554352D01*
X75328868Y-148544777D01*
X75393226Y-148574754D01*
X75415483Y-148600441D01*
X75504672Y-148736955D01*
X75657097Y-148902534D01*
X75834698Y-149040767D01*
X75834699Y-149040768D01*
X76032628Y-149147882D01*
X76032630Y-149147883D01*
X76245483Y-149220955D01*
X76245492Y-149220957D01*
X76326000Y-149234391D01*
X76326000Y-148333674D01*
X76437685Y-148384680D01*
X76544237Y-148400000D01*
X76615763Y-148400000D01*
X76722315Y-148384680D01*
X76834000Y-148333674D01*
X76834000Y-149234390D01*
X76914507Y-149220957D01*
X76914516Y-149220955D01*
X77127369Y-149147883D01*
X77127371Y-149147882D01*
X77325300Y-149040768D01*
X77325301Y-149040767D01*
X77502902Y-148902534D01*
X77655327Y-148736955D01*
X77744217Y-148600899D01*
X77798220Y-148554810D01*
X77868568Y-148545235D01*
X77932925Y-148575212D01*
X77955183Y-148600898D01*
X78044279Y-148737270D01*
X78196762Y-148902908D01*
X78209294Y-148912662D01*
X78374424Y-149041189D01*
X78572426Y-149148342D01*
X78572427Y-149148342D01*
X78572428Y-149148343D01*
X78684227Y-149186723D01*
X78785365Y-149221444D01*
X79007431Y-149258500D01*
X79007435Y-149258500D01*
X79232565Y-149258500D01*
X79232569Y-149258500D01*
X79454635Y-149221444D01*
X79667574Y-149148342D01*
X79865576Y-149041189D01*
X80043240Y-148902906D01*
X80195722Y-148737268D01*
X80195927Y-148736955D01*
X80201115Y-148729012D01*
X80284518Y-148601354D01*
X80338520Y-148555268D01*
X80408868Y-148545692D01*
X80473225Y-148575669D01*
X80495480Y-148601353D01*
X80516223Y-148633102D01*
X80584275Y-148737265D01*
X80584279Y-148737270D01*
X80736762Y-148902908D01*
X80749294Y-148912662D01*
X80914424Y-149041189D01*
X81112426Y-149148342D01*
X81112427Y-149148342D01*
X81112428Y-149148343D01*
X81224227Y-149186723D01*
X81325365Y-149221444D01*
X81547431Y-149258500D01*
X81547435Y-149258500D01*
X81772565Y-149258500D01*
X81772569Y-149258500D01*
X81994635Y-149221444D01*
X82207574Y-149148342D01*
X82405576Y-149041189D01*
X82583240Y-148902906D01*
X82735722Y-148737268D01*
X82735927Y-148736955D01*
X82803777Y-148633102D01*
X82858860Y-148548791D01*
X82949296Y-148342616D01*
X83004564Y-148124368D01*
X83023156Y-147900000D01*
X83004564Y-147675632D01*
X82949296Y-147457384D01*
X82924125Y-147399999D01*
X85387337Y-147399999D01*
X85405960Y-147636632D01*
X85461371Y-147867437D01*
X85552206Y-148086733D01*
X85666897Y-148273891D01*
X86296065Y-147644723D01*
X86307188Y-147678956D01*
X86395186Y-147817619D01*
X86514903Y-147930040D01*
X86653160Y-148006048D01*
X86026107Y-148633101D01*
X86026107Y-148633102D01*
X86213261Y-148747791D01*
X86432562Y-148838628D01*
X86663367Y-148894039D01*
X86899999Y-148912662D01*
X87136632Y-148894039D01*
X87367437Y-148838628D01*
X87586738Y-148747791D01*
X87773891Y-148633102D01*
X87773892Y-148633101D01*
X87143482Y-148002691D01*
X87215629Y-147974126D01*
X87348492Y-147877595D01*
X87453175Y-147751055D01*
X87503442Y-147644232D01*
X88133102Y-148273892D01*
X88133102Y-148273891D01*
X88247791Y-148086738D01*
X88338628Y-147867437D01*
X88394039Y-147636632D01*
X88412662Y-147400000D01*
X88394039Y-147163367D01*
X88338628Y-146932562D01*
X88247791Y-146713261D01*
X88133102Y-146526107D01*
X88133100Y-146526107D01*
X87503933Y-147155273D01*
X87492812Y-147121044D01*
X87404814Y-146982381D01*
X87285097Y-146869960D01*
X87146838Y-146793951D01*
X87773891Y-146166897D01*
X87586733Y-146052206D01*
X87367437Y-145961371D01*
X87136632Y-145905960D01*
X86900000Y-145887337D01*
X86663367Y-145905960D01*
X86432562Y-145961371D01*
X86213262Y-146052208D01*
X86026107Y-146166896D01*
X86026107Y-146166898D01*
X86656517Y-146797308D01*
X86584371Y-146825874D01*
X86451508Y-146922405D01*
X86346825Y-147048945D01*
X86296558Y-147155767D01*
X85666898Y-146526107D01*
X85666896Y-146526107D01*
X85552208Y-146713262D01*
X85461371Y-146932562D01*
X85405960Y-147163367D01*
X85387337Y-147399999D01*
X82924125Y-147399999D01*
X82858860Y-147251209D01*
X82841500Y-147224637D01*
X82735724Y-147062734D01*
X82735720Y-147062729D01*
X82606220Y-146922057D01*
X82583240Y-146897094D01*
X82583239Y-146897093D01*
X82583237Y-146897091D01*
X82501382Y-146833381D01*
X82405576Y-146758811D01*
X82207574Y-146651658D01*
X82207572Y-146651657D01*
X82207571Y-146651656D01*
X81994639Y-146578557D01*
X81994630Y-146578555D01*
X81937812Y-146569074D01*
X81772569Y-146541500D01*
X81547431Y-146541500D01*
X81402971Y-146565606D01*
X81341730Y-146575825D01*
X81271246Y-146567307D01*
X81231897Y-146540638D01*
X80220463Y-145529204D01*
X79206875Y-144515615D01*
X79196664Y-144502869D01*
X79196471Y-144503030D01*
X79191417Y-144496921D01*
X79138314Y-144447054D01*
X79116343Y-144425082D01*
X79116325Y-144425066D01*
X79110482Y-144420534D01*
X79105967Y-144416678D01*
X79103339Y-144414210D01*
X79070133Y-144383028D01*
X79070130Y-144383026D01*
X79070125Y-144383023D01*
X79051338Y-144372694D01*
X79034818Y-144361843D01*
X79017867Y-144348695D01*
X78972739Y-144329166D01*
X78967421Y-144326561D01*
X78938742Y-144310795D01*
X78924338Y-144302876D01*
X78924335Y-144302875D01*
X78903568Y-144297543D01*
X78884865Y-144291140D01*
X78874703Y-144286743D01*
X78865176Y-144282620D01*
X78865174Y-144282619D01*
X78865175Y-144282619D01*
X78816619Y-144274929D01*
X78810804Y-144273725D01*
X78763188Y-144261500D01*
X78741741Y-144261500D01*
X78722032Y-144259949D01*
X78700848Y-144256594D01*
X78700847Y-144256594D01*
X78651906Y-144261220D01*
X78645973Y-144261500D01*
X72021084Y-144261500D01*
X71952963Y-144241498D01*
X71906470Y-144187842D01*
X71903029Y-144179533D01*
X71900889Y-144173797D01*
X71900887Y-144173792D01*
X71813261Y-144056738D01*
X71696207Y-143969112D01*
X71696202Y-143969110D01*
X71559204Y-143918011D01*
X71559196Y-143918009D01*
X71498649Y-143911500D01*
X71498638Y-143911500D01*
X68901362Y-143911500D01*
X68901350Y-143911500D01*
X68840803Y-143918009D01*
X68840795Y-143918011D01*
X68703797Y-143969110D01*
X68703792Y-143969112D01*
X68586738Y-144056738D01*
X68499112Y-144173792D01*
X68499110Y-144173797D01*
X68448011Y-144310795D01*
X68448009Y-144310803D01*
X68441500Y-144371350D01*
X68441500Y-145468649D01*
X68448009Y-145529196D01*
X68448011Y-145529204D01*
X68499110Y-145666202D01*
X68499112Y-145666207D01*
X68586738Y-145783261D01*
X68703792Y-145870887D01*
X68703794Y-145870888D01*
X68703796Y-145870889D01*
X68762875Y-145892924D01*
X68840795Y-145921988D01*
X68840803Y-145921990D01*
X68901350Y-145928499D01*
X68901355Y-145928499D01*
X68901362Y-145928500D01*
X68901368Y-145928500D01*
X71498632Y-145928500D01*
X71498638Y-145928500D01*
X71498645Y-145928499D01*
X71498649Y-145928499D01*
X71559196Y-145921990D01*
X71559199Y-145921989D01*
X71559201Y-145921989D01*
X71696204Y-145870889D01*
X71813261Y-145783261D01*
X71900889Y-145666204D01*
X71903028Y-145660467D01*
X71945576Y-145603631D01*
X72012096Y-145578821D01*
X72021084Y-145578500D01*
X78355050Y-145578500D01*
X78423171Y-145598502D01*
X78444145Y-145615405D01*
X79155145Y-146326405D01*
X79189171Y-146388717D01*
X79184106Y-146459532D01*
X79141559Y-146516368D01*
X79075039Y-146541179D01*
X79066050Y-146541500D01*
X79007431Y-146541500D01*
X78862971Y-146565606D01*
X78785369Y-146578555D01*
X78785360Y-146578557D01*
X78572428Y-146651656D01*
X78572426Y-146651658D01*
X78458592Y-146713262D01*
X78374426Y-146758810D01*
X78374424Y-146758811D01*
X78196762Y-146897091D01*
X78044279Y-147062729D01*
X77955183Y-147199101D01*
X77901179Y-147245189D01*
X77830831Y-147254764D01*
X77766474Y-147224786D01*
X77744217Y-147199100D01*
X77655327Y-147063044D01*
X77502902Y-146897465D01*
X77325301Y-146759232D01*
X77325300Y-146759231D01*
X77127371Y-146652117D01*
X77127369Y-146652116D01*
X76914512Y-146579043D01*
X76914501Y-146579040D01*
X76834000Y-146565606D01*
X76834000Y-147466325D01*
X76722315Y-147415320D01*
X76615763Y-147400000D01*
X76544237Y-147400000D01*
X76437685Y-147415320D01*
X76326000Y-147466325D01*
X76326000Y-146565606D01*
X76325999Y-146565606D01*
X76245498Y-146579040D01*
X76245487Y-146579043D01*
X76032630Y-146652116D01*
X76032628Y-146652117D01*
X75834699Y-146759231D01*
X75834698Y-146759232D01*
X75657097Y-146897465D01*
X75504674Y-147063042D01*
X75415483Y-147199559D01*
X75361479Y-147245647D01*
X75291131Y-147255222D01*
X75226774Y-147225244D01*
X75204517Y-147199559D01*
X75115325Y-147063042D01*
X74962902Y-146897465D01*
X74785301Y-146759232D01*
X74785300Y-146759231D01*
X74587371Y-146652117D01*
X74587369Y-146652116D01*
X74374512Y-146579043D01*
X74374501Y-146579040D01*
X74294000Y-146565606D01*
X74294000Y-147466325D01*
X74182315Y-147415320D01*
X74075763Y-147400000D01*
X74004237Y-147400000D01*
X73897685Y-147415320D01*
X73786000Y-147466325D01*
X73786000Y-146565607D01*
X73785999Y-146565606D01*
X73705498Y-146579040D01*
X73705487Y-146579043D01*
X73492630Y-146652116D01*
X73492628Y-146652117D01*
X73294699Y-146759231D01*
X73294698Y-146759232D01*
X73117097Y-146897465D01*
X72964670Y-147063045D01*
X72875780Y-147199101D01*
X72821776Y-147245189D01*
X72751428Y-147254764D01*
X72687071Y-147224786D01*
X72664816Y-147199101D01*
X72613819Y-147121044D01*
X72575724Y-147062734D01*
X72575720Y-147062729D01*
X72446220Y-146922057D01*
X72423240Y-146897094D01*
X72423239Y-146897093D01*
X72423237Y-146897091D01*
X72341382Y-146833381D01*
X72245576Y-146758811D01*
X72047574Y-146651658D01*
X72047572Y-146651657D01*
X72047571Y-146651656D01*
X71834639Y-146578557D01*
X71834630Y-146578555D01*
X71777812Y-146569074D01*
X71612569Y-146541500D01*
X71387431Y-146541500D01*
X71242971Y-146565606D01*
X71165369Y-146578555D01*
X71165360Y-146578557D01*
X70952428Y-146651656D01*
X70952426Y-146651658D01*
X70838592Y-146713262D01*
X70754426Y-146758810D01*
X70754424Y-146758811D01*
X70576762Y-146897091D01*
X70424279Y-147062729D01*
X70335483Y-147198643D01*
X70281479Y-147244731D01*
X70211131Y-147254306D01*
X70146774Y-147224329D01*
X70124517Y-147198643D01*
X70035926Y-147063044D01*
X70035722Y-147062732D01*
X70035721Y-147062731D01*
X70035720Y-147062729D01*
X69906220Y-146922057D01*
X69883240Y-146897094D01*
X69883239Y-146897093D01*
X69883237Y-146897091D01*
X69801382Y-146833381D01*
X69705576Y-146758811D01*
X69507574Y-146651658D01*
X69507572Y-146651657D01*
X69507571Y-146651656D01*
X69294639Y-146578557D01*
X69294630Y-146578555D01*
X69237812Y-146569074D01*
X69072569Y-146541500D01*
X68847431Y-146541500D01*
X68702971Y-146565606D01*
X68625369Y-146578555D01*
X68625360Y-146578557D01*
X68412428Y-146651656D01*
X68412426Y-146651658D01*
X68298592Y-146713262D01*
X68214426Y-146758810D01*
X68214424Y-146758811D01*
X68036762Y-146897091D01*
X67884279Y-147062729D01*
X67795483Y-147198643D01*
X67741479Y-147244731D01*
X67671131Y-147254306D01*
X67606774Y-147224329D01*
X67584517Y-147198643D01*
X67495926Y-147063044D01*
X67495722Y-147062732D01*
X67495721Y-147062731D01*
X67495720Y-147062729D01*
X67366220Y-146922057D01*
X67343240Y-146897094D01*
X67343239Y-146897093D01*
X67343237Y-146897091D01*
X67261382Y-146833381D01*
X67165576Y-146758811D01*
X66967574Y-146651658D01*
X66967572Y-146651657D01*
X66967571Y-146651656D01*
X66754639Y-146578557D01*
X66754630Y-146578555D01*
X66697812Y-146569074D01*
X66532569Y-146541500D01*
X66307431Y-146541500D01*
X66162971Y-146565606D01*
X66085369Y-146578555D01*
X66085360Y-146578557D01*
X65872428Y-146651656D01*
X65872426Y-146651658D01*
X65758592Y-146713262D01*
X65674426Y-146758810D01*
X65674424Y-146758811D01*
X65496762Y-146897091D01*
X65344279Y-147062729D01*
X65255483Y-147198643D01*
X65201479Y-147244731D01*
X65131131Y-147254306D01*
X65066774Y-147224329D01*
X65044517Y-147198643D01*
X64955926Y-147063044D01*
X64955722Y-147062732D01*
X64955721Y-147062731D01*
X64955720Y-147062729D01*
X64826220Y-146922057D01*
X64803240Y-146897094D01*
X64803239Y-146897093D01*
X64803237Y-146897091D01*
X64721382Y-146833381D01*
X64625576Y-146758811D01*
X64427574Y-146651658D01*
X64427572Y-146651657D01*
X64427571Y-146651656D01*
X64214639Y-146578557D01*
X64214630Y-146578555D01*
X64157812Y-146569074D01*
X63992569Y-146541500D01*
X63767431Y-146541500D01*
X63622971Y-146565606D01*
X63545369Y-146578555D01*
X63545360Y-146578557D01*
X63332428Y-146651656D01*
X63332426Y-146651658D01*
X63218592Y-146713262D01*
X63134426Y-146758810D01*
X63134424Y-146758811D01*
X62956762Y-146897091D01*
X62804279Y-147062729D01*
X62715483Y-147198643D01*
X62661479Y-147244731D01*
X62591131Y-147254306D01*
X62526774Y-147224329D01*
X62504517Y-147198643D01*
X62415926Y-147063044D01*
X62415722Y-147062732D01*
X62415721Y-147062731D01*
X62415720Y-147062729D01*
X62286220Y-146922057D01*
X62263240Y-146897094D01*
X62263239Y-146897093D01*
X62263237Y-146897091D01*
X62181382Y-146833381D01*
X62085576Y-146758811D01*
X61887574Y-146651658D01*
X61887572Y-146651657D01*
X61887571Y-146651656D01*
X61674639Y-146578557D01*
X61674630Y-146578555D01*
X61617812Y-146569074D01*
X61452569Y-146541500D01*
X61227431Y-146541500D01*
X61082971Y-146565606D01*
X61005369Y-146578555D01*
X61005360Y-146578557D01*
X60792428Y-146651656D01*
X60792426Y-146651658D01*
X60678592Y-146713262D01*
X60594426Y-146758810D01*
X60594424Y-146758811D01*
X60416762Y-146897091D01*
X60355754Y-146963363D01*
X60294901Y-146999933D01*
X60223936Y-146997798D01*
X60165391Y-146957636D01*
X60144999Y-146922057D01*
X60100889Y-146803797D01*
X60100887Y-146803792D01*
X60013261Y-146686738D01*
X59975978Y-146658829D01*
X59933431Y-146601994D01*
X59928366Y-146531178D01*
X59962388Y-146468870D01*
X61335857Y-145095402D01*
X61398167Y-145061379D01*
X61424950Y-145058500D01*
X64613389Y-145058500D01*
X64629620Y-145060291D01*
X64629644Y-145060042D01*
X64637536Y-145060788D01*
X64637536Y-145060787D01*
X64637537Y-145060788D01*
X64710342Y-145058500D01*
X64741432Y-145058500D01*
X64748779Y-145057571D01*
X64754682Y-145057106D01*
X64803831Y-145055562D01*
X64824421Y-145049579D01*
X64843776Y-145045571D01*
X64865064Y-145042882D01*
X64910796Y-145024775D01*
X64916380Y-145022863D01*
X64963600Y-145009145D01*
X64982050Y-144998232D01*
X64999813Y-144989530D01*
X65019756Y-144981635D01*
X65059537Y-144952730D01*
X65064487Y-144949480D01*
X65074175Y-144943750D01*
X65106807Y-144924453D01*
X65121977Y-144909281D01*
X65137005Y-144896447D01*
X65154357Y-144883841D01*
X65185703Y-144845949D01*
X65189671Y-144841587D01*
X66304387Y-143726871D01*
X66317130Y-143716663D01*
X66316971Y-143716470D01*
X66323078Y-143711417D01*
X66323077Y-143711417D01*
X66323080Y-143711416D01*
X66372960Y-143658298D01*
X66394926Y-143636333D01*
X66399462Y-143630483D01*
X66403306Y-143625982D01*
X66436972Y-143590133D01*
X66447303Y-143571339D01*
X66458151Y-143554823D01*
X66471304Y-143537869D01*
X66490845Y-143492710D01*
X66493428Y-143487438D01*
X66517124Y-143444337D01*
X66522460Y-143423549D01*
X66528857Y-143404869D01*
X66537379Y-143385177D01*
X66545072Y-143336595D01*
X66546266Y-143330831D01*
X66558500Y-143283188D01*
X66558499Y-143261740D01*
X66560051Y-143242024D01*
X66563406Y-143220849D01*
X66558778Y-143171891D01*
X66558499Y-143165994D01*
X66558499Y-141754000D01*
X75612000Y-141754000D01*
X75612000Y-142798597D01*
X75618505Y-142859093D01*
X75669555Y-142995964D01*
X75669555Y-142995965D01*
X75757095Y-143112904D01*
X75874034Y-143200444D01*
X76010906Y-143251494D01*
X76071402Y-143257999D01*
X76071415Y-143258000D01*
X76366000Y-143258000D01*
X76366000Y-142024624D01*
X76370000Y-142024624D01*
X76384505Y-142097545D01*
X76439760Y-142180240D01*
X76522455Y-142235495D01*
X76620000Y-142254898D01*
X76717545Y-142235495D01*
X76800240Y-142180240D01*
X76855495Y-142097545D01*
X76870000Y-142024624D01*
X76870000Y-141754000D01*
X76874000Y-141754000D01*
X76874000Y-143258000D01*
X77168585Y-143258000D01*
X77168597Y-143257999D01*
X77229093Y-143251494D01*
X77365964Y-143200444D01*
X77365965Y-143200444D01*
X77482904Y-143112904D01*
X77570444Y-142995965D01*
X77570444Y-142995964D01*
X77621494Y-142859093D01*
X77627993Y-142798649D01*
X78711500Y-142798649D01*
X78718009Y-142859196D01*
X78718011Y-142859204D01*
X78769110Y-142996202D01*
X78769112Y-142996207D01*
X78856738Y-143113261D01*
X78973792Y-143200887D01*
X78973794Y-143200888D01*
X78973796Y-143200889D01*
X79027310Y-143220849D01*
X79110795Y-143251988D01*
X79110803Y-143251990D01*
X79171350Y-143258499D01*
X79171355Y-143258499D01*
X79171362Y-143258500D01*
X79171368Y-143258500D01*
X80268632Y-143258500D01*
X80268638Y-143258500D01*
X80268645Y-143258499D01*
X80268649Y-143258499D01*
X80329196Y-143251990D01*
X80329199Y-143251989D01*
X80329201Y-143251989D01*
X80329644Y-143251824D01*
X80355918Y-143242024D01*
X80466204Y-143200889D01*
X80466799Y-143200444D01*
X80583261Y-143113261D01*
X80670887Y-142996207D01*
X80670887Y-142996206D01*
X80670889Y-142996204D01*
X80721989Y-142859201D01*
X80728500Y-142798638D01*
X80728500Y-141624335D01*
X81599500Y-141624335D01*
X81621137Y-141754000D01*
X81640428Y-141869609D01*
X81640430Y-141869618D01*
X81721170Y-142104807D01*
X81721171Y-142104809D01*
X81839525Y-142323508D01*
X81839526Y-142323509D01*
X81992267Y-142519750D01*
X82175214Y-142688164D01*
X82383393Y-142824173D01*
X82383392Y-142824173D01*
X82529411Y-142888222D01*
X82611119Y-142924063D01*
X82611120Y-142924063D01*
X82611122Y-142924064D01*
X82852171Y-142985106D01*
X82852179Y-142985108D01*
X83017446Y-142998802D01*
X83037931Y-143000500D01*
X83037933Y-143000500D01*
X83162069Y-143000500D01*
X83181483Y-142998891D01*
X83347821Y-142985108D01*
X83588881Y-142924063D01*
X83816607Y-142824173D01*
X83855675Y-142798649D01*
X87011500Y-142798649D01*
X87018009Y-142859196D01*
X87018011Y-142859204D01*
X87069110Y-142996202D01*
X87069112Y-142996207D01*
X87156738Y-143113261D01*
X87273792Y-143200887D01*
X87273794Y-143200888D01*
X87273796Y-143200889D01*
X87327310Y-143220849D01*
X87410795Y-143251988D01*
X87410803Y-143251990D01*
X87471350Y-143258499D01*
X87471355Y-143258499D01*
X87471362Y-143258500D01*
X87471368Y-143258500D01*
X88568632Y-143258500D01*
X88568638Y-143258500D01*
X88568645Y-143258499D01*
X88568649Y-143258499D01*
X88629196Y-143251990D01*
X88629199Y-143251989D01*
X88629201Y-143251989D01*
X88629644Y-143251824D01*
X88655918Y-143242024D01*
X88766204Y-143200889D01*
X88766799Y-143200444D01*
X88883261Y-143113261D01*
X88970887Y-142996207D01*
X88970887Y-142996206D01*
X88970889Y-142996204D01*
X89021989Y-142859201D01*
X89028500Y-142798638D01*
X89028500Y-140201362D01*
X89022001Y-140140906D01*
X89021990Y-140140803D01*
X89021988Y-140140795D01*
X88975028Y-140014893D01*
X88970889Y-140003796D01*
X88970888Y-140003794D01*
X88970887Y-140003792D01*
X88883261Y-139886738D01*
X88766207Y-139799112D01*
X88766202Y-139799110D01*
X88629204Y-139748011D01*
X88629196Y-139748009D01*
X88568649Y-139741500D01*
X88568638Y-139741500D01*
X87471362Y-139741500D01*
X87471350Y-139741500D01*
X87410803Y-139748009D01*
X87410795Y-139748011D01*
X87273797Y-139799110D01*
X87273792Y-139799112D01*
X87156738Y-139886738D01*
X87069112Y-140003792D01*
X87069110Y-140003797D01*
X87018011Y-140140795D01*
X87018009Y-140140803D01*
X87011500Y-140201350D01*
X87011500Y-142798649D01*
X83855675Y-142798649D01*
X84024785Y-142688164D01*
X84024785Y-142688163D01*
X84207732Y-142519750D01*
X84207733Y-142519748D01*
X84207738Y-142519744D01*
X84360474Y-142323509D01*
X84478828Y-142104810D01*
X84559571Y-141869614D01*
X84600500Y-141624335D01*
X84600500Y-141375665D01*
X84559571Y-141130386D01*
X84478828Y-140895190D01*
X84360474Y-140676491D01*
X84207738Y-140480256D01*
X84207736Y-140480254D01*
X84207732Y-140480249D01*
X84024785Y-140311835D01*
X83816606Y-140175826D01*
X83816607Y-140175826D01*
X83588884Y-140075938D01*
X83588877Y-140075935D01*
X83347828Y-140014893D01*
X83347823Y-140014892D01*
X83347821Y-140014892D01*
X83213864Y-140003792D01*
X83162069Y-139999500D01*
X83162067Y-139999500D01*
X83037933Y-139999500D01*
X83037931Y-139999500D01*
X82976707Y-140004573D01*
X82852179Y-140014892D01*
X82852177Y-140014892D01*
X82852171Y-140014893D01*
X82611122Y-140075935D01*
X82611115Y-140075938D01*
X82383393Y-140175826D01*
X82175214Y-140311835D01*
X81992267Y-140480249D01*
X81839526Y-140676490D01*
X81839525Y-140676491D01*
X81721171Y-140895190D01*
X81721170Y-140895192D01*
X81640430Y-141130381D01*
X81640428Y-141130386D01*
X81640429Y-141130386D01*
X81599500Y-141375665D01*
X81599500Y-141624335D01*
X80728500Y-141624335D01*
X80728500Y-140201362D01*
X80722001Y-140140906D01*
X80721990Y-140140803D01*
X80721988Y-140140795D01*
X80675028Y-140014893D01*
X80670889Y-140003796D01*
X80670888Y-140003794D01*
X80670887Y-140003792D01*
X80583261Y-139886738D01*
X80466207Y-139799112D01*
X80466202Y-139799110D01*
X80329204Y-139748011D01*
X80329196Y-139748009D01*
X80268649Y-139741500D01*
X80268638Y-139741500D01*
X79171362Y-139741500D01*
X79171350Y-139741500D01*
X79110803Y-139748009D01*
X79110795Y-139748011D01*
X78973797Y-139799110D01*
X78973792Y-139799112D01*
X78856738Y-139886738D01*
X78769112Y-140003792D01*
X78769110Y-140003797D01*
X78718011Y-140140795D01*
X78718009Y-140140803D01*
X78711500Y-140201350D01*
X78711500Y-142798649D01*
X77627993Y-142798649D01*
X77627999Y-142798597D01*
X77628000Y-142798585D01*
X77628000Y-141754000D01*
X76874000Y-141754000D01*
X76870000Y-141754000D01*
X76870000Y-140975376D01*
X76855495Y-140902455D01*
X76800240Y-140819760D01*
X76717545Y-140764505D01*
X76620000Y-140745102D01*
X76522455Y-140764505D01*
X76439760Y-140819760D01*
X76384505Y-140902455D01*
X76370000Y-140975376D01*
X76370000Y-142024624D01*
X76366000Y-142024624D01*
X76366000Y-141754000D01*
X75612000Y-141754000D01*
X66558499Y-141754000D01*
X66558499Y-140124335D01*
X68699500Y-140124335D01*
X68712360Y-140201402D01*
X68740428Y-140369609D01*
X68740430Y-140369618D01*
X68821170Y-140604807D01*
X68821171Y-140604809D01*
X68939525Y-140823508D01*
X68939526Y-140823509D01*
X69092267Y-141019750D01*
X69275214Y-141188164D01*
X69483393Y-141324173D01*
X69483392Y-141324173D01*
X69600783Y-141375665D01*
X69711119Y-141424063D01*
X69711120Y-141424063D01*
X69711122Y-141424064D01*
X69952171Y-141485106D01*
X69952179Y-141485108D01*
X70117446Y-141498802D01*
X70137931Y-141500500D01*
X70137933Y-141500500D01*
X70262069Y-141500500D01*
X70281483Y-141498891D01*
X70447821Y-141485108D01*
X70688881Y-141424063D01*
X70916607Y-141324173D01*
X71036260Y-141246000D01*
X75612000Y-141246000D01*
X76366000Y-141246000D01*
X76366000Y-139742000D01*
X76874000Y-139742000D01*
X76874000Y-141246000D01*
X77628000Y-141246000D01*
X77628000Y-140201414D01*
X77627999Y-140201402D01*
X77621494Y-140140906D01*
X77570444Y-140004035D01*
X77570444Y-140004034D01*
X77482904Y-139887095D01*
X77365965Y-139799555D01*
X77229093Y-139748505D01*
X77168597Y-139742000D01*
X76874000Y-139742000D01*
X76366000Y-139742000D01*
X76071402Y-139742000D01*
X76010906Y-139748505D01*
X75874035Y-139799555D01*
X75874034Y-139799555D01*
X75757095Y-139887095D01*
X75669555Y-140004034D01*
X75669555Y-140004035D01*
X75618505Y-140140906D01*
X75612000Y-140201402D01*
X75612000Y-141246000D01*
X71036260Y-141246000D01*
X71124785Y-141188164D01*
X71124784Y-141188163D01*
X71307732Y-141019750D01*
X71307733Y-141019748D01*
X71307738Y-141019744D01*
X71460474Y-140823509D01*
X71578828Y-140604810D01*
X71659571Y-140369614D01*
X71700500Y-140124335D01*
X71700500Y-139875665D01*
X71659571Y-139630386D01*
X71578828Y-139395190D01*
X71460474Y-139176491D01*
X71307738Y-138980256D01*
X71307736Y-138980254D01*
X71307732Y-138980249D01*
X71124785Y-138811835D01*
X70916606Y-138675826D01*
X70916607Y-138675826D01*
X70688884Y-138575938D01*
X70688877Y-138575935D01*
X70447828Y-138514893D01*
X70447823Y-138514892D01*
X70447821Y-138514892D01*
X70314630Y-138503855D01*
X70262069Y-138499500D01*
X70262067Y-138499500D01*
X70137933Y-138499500D01*
X70137931Y-138499500D01*
X70076707Y-138504573D01*
X69952179Y-138514892D01*
X69952177Y-138514892D01*
X69952171Y-138514893D01*
X69711122Y-138575935D01*
X69711115Y-138575938D01*
X69483393Y-138675826D01*
X69275214Y-138811835D01*
X69092267Y-138980249D01*
X68939526Y-139176490D01*
X68939525Y-139176491D01*
X68821171Y-139395190D01*
X68821170Y-139395192D01*
X68740430Y-139630381D01*
X68740428Y-139630386D01*
X68740429Y-139630386D01*
X68699500Y-139875665D01*
X68699500Y-140124335D01*
X66558499Y-140124335D01*
X66558499Y-136874000D01*
X68442000Y-136874000D01*
X68442000Y-137168597D01*
X68448505Y-137229093D01*
X68499555Y-137365964D01*
X68499555Y-137365965D01*
X68587095Y-137482904D01*
X68704034Y-137570444D01*
X68840906Y-137621494D01*
X68901402Y-137627999D01*
X68901415Y-137628000D01*
X69946000Y-137628000D01*
X69946000Y-136874000D01*
X70454000Y-136874000D01*
X70454000Y-137628000D01*
X71498585Y-137628000D01*
X71498597Y-137627999D01*
X71559093Y-137621494D01*
X71695964Y-137570444D01*
X71695965Y-137570444D01*
X71812904Y-137482904D01*
X71900444Y-137365965D01*
X71900444Y-137365964D01*
X71951494Y-137229093D01*
X71957999Y-137168597D01*
X71958000Y-137168585D01*
X71958000Y-136874000D01*
X70454000Y-136874000D01*
X69946000Y-136874000D01*
X68442000Y-136874000D01*
X66558499Y-136874000D01*
X66558499Y-136620000D01*
X69445102Y-136620000D01*
X69464505Y-136717545D01*
X69519760Y-136800240D01*
X69602455Y-136855495D01*
X69675376Y-136870000D01*
X70724624Y-136870000D01*
X70797545Y-136855495D01*
X70880240Y-136800240D01*
X70935495Y-136717545D01*
X70954898Y-136620000D01*
X70935495Y-136522455D01*
X70880240Y-136439760D01*
X70797545Y-136384505D01*
X70724624Y-136370000D01*
X69675376Y-136370000D01*
X69602455Y-136384505D01*
X69519760Y-136439760D01*
X69464505Y-136522455D01*
X69445102Y-136620000D01*
X66558499Y-136620000D01*
X66558499Y-136366000D01*
X68442000Y-136366000D01*
X69946000Y-136366000D01*
X69946000Y-135612000D01*
X70454000Y-135612000D01*
X70454000Y-136366000D01*
X71958000Y-136366000D01*
X71958000Y-136071414D01*
X71957999Y-136071402D01*
X71951494Y-136010906D01*
X71900444Y-135874035D01*
X71900444Y-135874034D01*
X71812904Y-135757095D01*
X71695965Y-135669555D01*
X71559093Y-135618505D01*
X71498597Y-135612000D01*
X70454000Y-135612000D01*
X69946000Y-135612000D01*
X68901402Y-135612000D01*
X68840906Y-135618505D01*
X68704035Y-135669555D01*
X68704034Y-135669555D01*
X68587095Y-135757095D01*
X68499555Y-135874034D01*
X68499555Y-135874035D01*
X68448505Y-136010906D01*
X68442000Y-136071402D01*
X68442000Y-136366000D01*
X66558499Y-136366000D01*
X66558499Y-133774000D01*
X68442000Y-133774000D01*
X68442000Y-134068597D01*
X68448505Y-134129093D01*
X68499555Y-134265964D01*
X68499555Y-134265965D01*
X68587095Y-134382904D01*
X68704034Y-134470444D01*
X68840906Y-134521494D01*
X68901402Y-134527999D01*
X68901415Y-134528000D01*
X69946000Y-134528000D01*
X69946000Y-133774000D01*
X70454000Y-133774000D01*
X70454000Y-134528000D01*
X71498585Y-134528000D01*
X71498597Y-134527999D01*
X71559093Y-134521494D01*
X71695964Y-134470444D01*
X71695965Y-134470444D01*
X71812904Y-134382904D01*
X71900444Y-134265965D01*
X71900444Y-134265964D01*
X71951494Y-134129093D01*
X71957999Y-134068597D01*
X71958000Y-134068585D01*
X71958000Y-133774000D01*
X70454000Y-133774000D01*
X69946000Y-133774000D01*
X68442000Y-133774000D01*
X66558499Y-133774000D01*
X66558499Y-133520000D01*
X69445102Y-133520000D01*
X69464505Y-133617545D01*
X69519760Y-133700240D01*
X69602455Y-133755495D01*
X69675376Y-133770000D01*
X70724624Y-133770000D01*
X70797545Y-133755495D01*
X70880240Y-133700240D01*
X70935495Y-133617545D01*
X70954898Y-133520000D01*
X70935495Y-133422455D01*
X70880240Y-133339760D01*
X70797545Y-133284505D01*
X70724624Y-133270000D01*
X69675376Y-133270000D01*
X69602455Y-133284505D01*
X69519760Y-133339760D01*
X69464505Y-133422455D01*
X69445102Y-133520000D01*
X66558499Y-133520000D01*
X66558499Y-133266000D01*
X68442000Y-133266000D01*
X69946000Y-133266000D01*
X69946000Y-132512000D01*
X70454000Y-132512000D01*
X70454000Y-133266000D01*
X71958000Y-133266000D01*
X71958000Y-132971414D01*
X71957999Y-132971402D01*
X71951494Y-132910906D01*
X71900444Y-132774035D01*
X71900444Y-132774034D01*
X71812904Y-132657095D01*
X71695965Y-132569555D01*
X71559093Y-132518505D01*
X71498597Y-132512000D01*
X70454000Y-132512000D01*
X69946000Y-132512000D01*
X68901402Y-132512000D01*
X68840906Y-132518505D01*
X68704035Y-132569555D01*
X68704034Y-132569555D01*
X68587095Y-132657095D01*
X68499555Y-132774034D01*
X68499555Y-132774035D01*
X68448505Y-132910906D01*
X68442000Y-132971402D01*
X68442000Y-133266000D01*
X66558499Y-133266000D01*
X66558499Y-131334947D01*
X66578501Y-131266827D01*
X66595399Y-131245858D01*
X69804384Y-128036873D01*
X69817129Y-128026665D01*
X69816969Y-128026471D01*
X69823070Y-128021422D01*
X69823080Y-128021416D01*
X69872960Y-127968298D01*
X69894926Y-127946333D01*
X69899462Y-127940483D01*
X69903306Y-127935982D01*
X69936972Y-127900133D01*
X69947303Y-127881339D01*
X69958151Y-127864823D01*
X69971304Y-127847869D01*
X69990845Y-127802710D01*
X69993428Y-127797438D01*
X70017124Y-127754337D01*
X70022460Y-127733549D01*
X70028857Y-127714869D01*
X70037379Y-127695177D01*
X70045072Y-127646596D01*
X70046271Y-127640811D01*
X70058500Y-127593188D01*
X70058500Y-127571742D01*
X70060051Y-127552031D01*
X70063406Y-127530849D01*
X70058780Y-127481907D01*
X70058500Y-127475974D01*
X70058500Y-125800003D01*
X71991493Y-125800003D01*
X72011498Y-126105231D01*
X72011500Y-126105245D01*
X72071176Y-126405248D01*
X72071178Y-126405258D01*
X72169498Y-126694900D01*
X72169504Y-126694914D01*
X72304792Y-126969251D01*
X72474731Y-127223584D01*
X72474734Y-127223588D01*
X72474736Y-127223591D01*
X72474738Y-127223593D01*
X72519070Y-127274144D01*
X72676425Y-127453574D01*
X72799861Y-127561824D01*
X72906407Y-127655262D01*
X72906409Y-127655263D01*
X72906411Y-127655265D01*
X72906415Y-127655268D01*
X73054683Y-127754337D01*
X73160746Y-127825206D01*
X73435092Y-127960499D01*
X73724750Y-128058824D01*
X74024764Y-128118501D01*
X74199184Y-128129932D01*
X74329997Y-128138507D01*
X74330000Y-128138507D01*
X74330003Y-128138507D01*
X74444463Y-128131004D01*
X74635236Y-128118501D01*
X74935250Y-128058824D01*
X75224908Y-127960499D01*
X75499254Y-127825206D01*
X75753593Y-127655262D01*
X75983574Y-127453574D01*
X76185262Y-127223593D01*
X76355206Y-126969254D01*
X76490499Y-126694908D01*
X76588824Y-126405250D01*
X76648501Y-126105236D01*
X76668507Y-125800003D01*
X83421493Y-125800003D01*
X83441498Y-126105231D01*
X83441500Y-126105245D01*
X83501176Y-126405248D01*
X83501178Y-126405258D01*
X83599498Y-126694900D01*
X83599504Y-126694914D01*
X83734792Y-126969251D01*
X83904731Y-127223584D01*
X83904734Y-127223588D01*
X83904736Y-127223591D01*
X83904738Y-127223593D01*
X83949070Y-127274144D01*
X84106425Y-127453574D01*
X84229861Y-127561824D01*
X84336407Y-127655262D01*
X84336409Y-127655263D01*
X84336411Y-127655265D01*
X84336415Y-127655268D01*
X84484683Y-127754337D01*
X84590746Y-127825206D01*
X84865092Y-127960499D01*
X85154750Y-128058824D01*
X85454764Y-128118501D01*
X85629184Y-128129932D01*
X85759997Y-128138507D01*
X85760000Y-128138507D01*
X85760003Y-128138507D01*
X85874463Y-128131004D01*
X86065236Y-128118501D01*
X86365250Y-128058824D01*
X86654908Y-127960499D01*
X86929254Y-127825206D01*
X87183593Y-127655262D01*
X87413574Y-127453574D01*
X87615262Y-127223593D01*
X87785206Y-126969254D01*
X87920499Y-126694908D01*
X88018824Y-126405250D01*
X88078501Y-126105236D01*
X88098507Y-125800000D01*
X88091556Y-125693954D01*
X88078501Y-125494768D01*
X88078501Y-125494764D01*
X88018824Y-125194750D01*
X87920499Y-124905092D01*
X87785206Y-124630747D01*
X87615262Y-124376407D01*
X87413574Y-124146426D01*
X87413571Y-124146424D01*
X87413570Y-124146422D01*
X87183588Y-123944734D01*
X87183584Y-123944731D01*
X86929251Y-123774792D01*
X86654914Y-123639504D01*
X86654908Y-123639501D01*
X86654903Y-123639499D01*
X86654900Y-123639498D01*
X86365258Y-123541178D01*
X86365252Y-123541176D01*
X86365250Y-123541176D01*
X86264789Y-123521193D01*
X86065245Y-123481500D01*
X86065231Y-123481498D01*
X85760003Y-123461493D01*
X85759997Y-123461493D01*
X85454768Y-123481498D01*
X85454754Y-123481500D01*
X85204980Y-123531184D01*
X85154750Y-123541176D01*
X85154748Y-123541176D01*
X85154741Y-123541178D01*
X84865099Y-123639498D01*
X84865091Y-123639501D01*
X84590741Y-123774797D01*
X84336409Y-123944736D01*
X84106426Y-124146426D01*
X83904736Y-124376409D01*
X83734797Y-124630741D01*
X83599501Y-124905091D01*
X83599498Y-124905099D01*
X83501178Y-125194741D01*
X83501176Y-125194751D01*
X83441500Y-125494754D01*
X83441498Y-125494768D01*
X83421493Y-125799996D01*
X83421493Y-125800003D01*
X76668507Y-125800003D01*
X76668507Y-125800000D01*
X76661556Y-125693954D01*
X76648501Y-125494768D01*
X76648501Y-125494764D01*
X76588824Y-125194750D01*
X76490499Y-124905092D01*
X76355206Y-124630747D01*
X76185262Y-124376407D01*
X75983574Y-124146426D01*
X75983571Y-124146424D01*
X75983570Y-124146422D01*
X75753588Y-123944734D01*
X75753584Y-123944731D01*
X75499251Y-123774792D01*
X75224914Y-123639504D01*
X75224908Y-123639501D01*
X75224903Y-123639499D01*
X75224900Y-123639498D01*
X74935258Y-123541178D01*
X74935252Y-123541176D01*
X74935250Y-123541176D01*
X74834789Y-123521193D01*
X74635245Y-123481500D01*
X74635231Y-123481498D01*
X74330003Y-123461493D01*
X74329997Y-123461493D01*
X74024768Y-123481498D01*
X74024754Y-123481500D01*
X73774980Y-123531184D01*
X73724750Y-123541176D01*
X73724748Y-123541176D01*
X73724741Y-123541178D01*
X73435099Y-123639498D01*
X73435091Y-123639501D01*
X73160741Y-123774797D01*
X72906409Y-123944736D01*
X72676426Y-124146426D01*
X72474736Y-124376409D01*
X72304797Y-124630741D01*
X72169501Y-124905091D01*
X72169498Y-124905099D01*
X72071178Y-125194741D01*
X72071176Y-125194751D01*
X72011500Y-125494754D01*
X72011498Y-125494768D01*
X71991493Y-125799996D01*
X71991493Y-125800003D01*
X70058500Y-125800003D01*
X70058500Y-118324949D01*
X70078502Y-118256828D01*
X70095400Y-118235859D01*
X78544386Y-109786872D01*
X78557129Y-109776665D01*
X78556969Y-109776471D01*
X78563074Y-109771419D01*
X78563080Y-109771416D01*
X78612945Y-109718314D01*
X78634927Y-109696333D01*
X78639470Y-109690475D01*
X78643308Y-109685980D01*
X78676972Y-109650133D01*
X78687310Y-109631327D01*
X78698152Y-109614823D01*
X78711304Y-109597868D01*
X78730832Y-109552737D01*
X78733441Y-109547414D01*
X78757124Y-109504337D01*
X78762457Y-109483562D01*
X78768856Y-109464869D01*
X78777380Y-109445176D01*
X78785074Y-109396591D01*
X78786271Y-109390810D01*
X78798500Y-109343188D01*
X78798500Y-109321741D01*
X78800051Y-109302030D01*
X78803406Y-109280848D01*
X78798780Y-109231903D01*
X78798500Y-109225971D01*
X78798500Y-105700003D01*
X83421493Y-105700003D01*
X83441498Y-106005231D01*
X83441500Y-106005245D01*
X83501176Y-106305248D01*
X83501178Y-106305258D01*
X83599498Y-106594900D01*
X83599504Y-106594914D01*
X83734792Y-106869251D01*
X83904731Y-107123584D01*
X83904734Y-107123588D01*
X84106425Y-107353574D01*
X84252063Y-107481294D01*
X84336407Y-107555262D01*
X84336409Y-107555263D01*
X84336411Y-107555265D01*
X84336415Y-107555268D01*
X84504417Y-107667523D01*
X84590746Y-107725206D01*
X84865092Y-107860499D01*
X85154750Y-107958824D01*
X85454764Y-108018501D01*
X85601737Y-108028134D01*
X85759997Y-108038507D01*
X85760000Y-108038507D01*
X85760003Y-108038507D01*
X85874463Y-108031004D01*
X86065236Y-108018501D01*
X86365250Y-107958824D01*
X86654908Y-107860499D01*
X86929254Y-107725206D01*
X87183593Y-107555262D01*
X87413574Y-107353574D01*
X87615262Y-107123593D01*
X87785206Y-106869254D01*
X87920499Y-106594908D01*
X88018824Y-106305250D01*
X88078501Y-106005236D01*
X88098507Y-105700000D01*
X88078501Y-105394764D01*
X88018824Y-105094750D01*
X87920499Y-104805092D01*
X87785206Y-104530747D01*
X87615262Y-104276407D01*
X87413574Y-104046426D01*
X87413571Y-104046424D01*
X87413570Y-104046422D01*
X87183588Y-103844734D01*
X87183584Y-103844731D01*
X86929251Y-103674792D01*
X86654914Y-103539504D01*
X86654908Y-103539501D01*
X86654903Y-103539499D01*
X86654900Y-103539498D01*
X86365258Y-103441178D01*
X86365252Y-103441176D01*
X86365250Y-103441176D01*
X86264789Y-103421193D01*
X86065245Y-103381500D01*
X86065231Y-103381498D01*
X85760003Y-103361493D01*
X85759997Y-103361493D01*
X85454768Y-103381498D01*
X85454754Y-103381500D01*
X85228852Y-103426436D01*
X85154750Y-103441176D01*
X85154748Y-103441176D01*
X85154741Y-103441178D01*
X84865099Y-103539498D01*
X84865091Y-103539501D01*
X84590741Y-103674797D01*
X84336409Y-103844736D01*
X84106426Y-104046426D01*
X83904736Y-104276409D01*
X83734797Y-104530741D01*
X83599501Y-104805091D01*
X83599498Y-104805099D01*
X83501178Y-105094741D01*
X83501176Y-105094748D01*
X83501176Y-105094750D01*
X83491184Y-105144980D01*
X83441500Y-105394754D01*
X83441498Y-105394768D01*
X83421493Y-105699996D01*
X83421493Y-105700003D01*
X78798500Y-105700003D01*
X78798500Y-100490849D01*
X78818502Y-100422728D01*
X78852227Y-100387637D01*
X78952038Y-100317749D01*
X79107749Y-100162038D01*
X79234056Y-99981654D01*
X79295804Y-99849232D01*
X79342722Y-99795946D01*
X79410999Y-99776485D01*
X79478959Y-99797026D01*
X79524195Y-99849232D01*
X79585944Y-99981654D01*
X79702864Y-100148632D01*
X79712251Y-100162038D01*
X79712254Y-100162042D01*
X79867957Y-100317745D01*
X79867961Y-100317748D01*
X79867962Y-100317749D01*
X80048346Y-100444056D01*
X80247924Y-100537120D01*
X80460629Y-100594115D01*
X80680000Y-100613307D01*
X80899371Y-100594115D01*
X81112076Y-100537120D01*
X81311654Y-100444056D01*
X81492038Y-100317749D01*
X81647749Y-100162038D01*
X81774056Y-99981654D01*
X81835804Y-99849232D01*
X81882722Y-99795946D01*
X81950999Y-99776485D01*
X82018959Y-99797026D01*
X82064195Y-99849232D01*
X82125944Y-99981654D01*
X82242864Y-100148632D01*
X82252251Y-100162038D01*
X82252254Y-100162042D01*
X82407957Y-100317745D01*
X82407961Y-100317748D01*
X82407962Y-100317749D01*
X82588346Y-100444056D01*
X82787924Y-100537120D01*
X83000629Y-100594115D01*
X83220000Y-100613307D01*
X83439371Y-100594115D01*
X83652076Y-100537120D01*
X83851654Y-100444056D01*
X84032038Y-100317749D01*
X84187749Y-100162038D01*
X84314056Y-99981654D01*
X84407120Y-99782076D01*
X84464115Y-99569371D01*
X84483307Y-99350000D01*
X84464115Y-99130629D01*
X84407120Y-98917924D01*
X84314056Y-98718347D01*
X84187749Y-98537962D01*
X84032038Y-98382251D01*
X83851654Y-98255944D01*
X83851650Y-98255942D01*
X83652079Y-98162881D01*
X83652073Y-98162879D01*
X83555025Y-98136875D01*
X83439371Y-98105885D01*
X83220000Y-98086693D01*
X83219999Y-98086693D01*
X83000629Y-98105885D01*
X82787926Y-98162879D01*
X82787920Y-98162881D01*
X82588346Y-98255944D01*
X82407965Y-98382248D01*
X82407959Y-98382253D01*
X82252253Y-98537959D01*
X82252248Y-98537965D01*
X82125944Y-98718346D01*
X82064195Y-98850768D01*
X82017278Y-98904053D01*
X81949000Y-98923514D01*
X81881040Y-98902972D01*
X81835805Y-98850768D01*
X81815488Y-98807198D01*
X81774056Y-98718347D01*
X81647749Y-98537962D01*
X81492038Y-98382251D01*
X81311654Y-98255944D01*
X81311650Y-98255942D01*
X81112079Y-98162881D01*
X81112073Y-98162879D01*
X81015025Y-98136875D01*
X80899371Y-98105885D01*
X80680000Y-98086693D01*
X80460629Y-98105885D01*
X80247926Y-98162879D01*
X80247920Y-98162881D01*
X80048346Y-98255944D01*
X79867965Y-98382248D01*
X79867959Y-98382253D01*
X79712253Y-98537959D01*
X79712248Y-98537965D01*
X79585944Y-98718346D01*
X79524195Y-98850768D01*
X79477278Y-98904053D01*
X79409000Y-98923514D01*
X79341040Y-98902972D01*
X79295805Y-98850768D01*
X79275488Y-98807198D01*
X79234056Y-98718347D01*
X79107749Y-98537962D01*
X78952038Y-98382251D01*
X78771654Y-98255944D01*
X78771650Y-98255942D01*
X78572079Y-98162881D01*
X78572073Y-98162879D01*
X78475025Y-98136875D01*
X78359371Y-98105885D01*
X78140000Y-98086693D01*
X77920629Y-98105885D01*
X77707926Y-98162879D01*
X77707920Y-98162881D01*
X77508346Y-98255944D01*
X77327965Y-98382248D01*
X77327959Y-98382253D01*
X77172253Y-98537959D01*
X77172248Y-98537965D01*
X77087713Y-98658694D01*
X77032256Y-98703022D01*
X76961636Y-98710331D01*
X76898276Y-98678300D01*
X76862291Y-98617099D01*
X76858500Y-98586423D01*
X76858500Y-98551367D01*
X76858499Y-98551350D01*
X76851990Y-98490803D01*
X76851988Y-98490795D01*
X76800889Y-98353797D01*
X76800887Y-98353792D01*
X76740233Y-98272769D01*
X76715422Y-98206249D01*
X76730513Y-98136875D01*
X76780715Y-98086673D01*
X76850089Y-98071581D01*
X76852031Y-98071734D01*
X76870000Y-98073307D01*
X77089371Y-98054115D01*
X77302076Y-97997120D01*
X77501654Y-97904056D01*
X77682038Y-97777749D01*
X77837749Y-97622038D01*
X77964056Y-97441654D01*
X78025804Y-97309232D01*
X78072722Y-97255946D01*
X78140999Y-97236485D01*
X78208959Y-97257026D01*
X78254195Y-97309232D01*
X78315944Y-97441654D01*
X78387714Y-97544151D01*
X78442251Y-97622038D01*
X78442254Y-97622042D01*
X78597957Y-97777745D01*
X78597961Y-97777748D01*
X78597962Y-97777749D01*
X78778346Y-97904056D01*
X78977924Y-97997120D01*
X79190629Y-98054115D01*
X79410000Y-98073307D01*
X79629371Y-98054115D01*
X79842076Y-97997120D01*
X80041654Y-97904056D01*
X80222038Y-97777749D01*
X80377749Y-97622038D01*
X80504056Y-97441654D01*
X80565804Y-97309232D01*
X80612722Y-97255946D01*
X80680999Y-97236485D01*
X80748959Y-97257026D01*
X80794195Y-97309232D01*
X80855944Y-97441654D01*
X80927714Y-97544151D01*
X80982251Y-97622038D01*
X80982254Y-97622042D01*
X81137957Y-97777745D01*
X81137961Y-97777748D01*
X81137962Y-97777749D01*
X81318346Y-97904056D01*
X81517924Y-97997120D01*
X81730629Y-98054115D01*
X81950000Y-98073307D01*
X82169371Y-98054115D01*
X82382076Y-97997120D01*
X82581654Y-97904056D01*
X82762038Y-97777749D01*
X82917749Y-97622038D01*
X83044056Y-97441654D01*
X83105804Y-97309232D01*
X83152722Y-97255946D01*
X83220999Y-97236485D01*
X83288959Y-97257026D01*
X83334195Y-97309232D01*
X83395944Y-97441654D01*
X83467714Y-97544151D01*
X83522251Y-97622038D01*
X83522254Y-97622042D01*
X83677957Y-97777745D01*
X83677961Y-97777748D01*
X83677962Y-97777749D01*
X83858346Y-97904056D01*
X84057924Y-97997120D01*
X84270629Y-98054115D01*
X84490000Y-98073307D01*
X84709371Y-98054115D01*
X84922076Y-97997120D01*
X85121654Y-97904056D01*
X85302038Y-97777749D01*
X85457749Y-97622038D01*
X85584056Y-97441654D01*
X85677120Y-97242076D01*
X85734115Y-97029371D01*
X85753307Y-96810000D01*
X85734115Y-96590629D01*
X85677120Y-96377924D01*
X85584056Y-96178347D01*
X85457749Y-95997962D01*
X85302038Y-95842251D01*
X85121654Y-95715944D01*
X85101500Y-95706546D01*
X84922079Y-95622881D01*
X84922073Y-95622879D01*
X84832178Y-95598791D01*
X84709371Y-95565885D01*
X84490000Y-95546693D01*
X84489999Y-95546693D01*
X84270629Y-95565885D01*
X84057926Y-95622879D01*
X84057920Y-95622881D01*
X83858346Y-95715944D01*
X83677965Y-95842248D01*
X83677959Y-95842253D01*
X83522253Y-95997959D01*
X83522248Y-95997965D01*
X83395944Y-96178346D01*
X83334195Y-96310768D01*
X83287278Y-96364053D01*
X83219000Y-96383514D01*
X83151040Y-96362972D01*
X83105805Y-96310768D01*
X83044056Y-96178348D01*
X83044056Y-96178347D01*
X82917749Y-95997962D01*
X82762038Y-95842251D01*
X82581654Y-95715944D01*
X82561500Y-95706546D01*
X82382079Y-95622881D01*
X82382073Y-95622879D01*
X82292178Y-95598791D01*
X82169371Y-95565885D01*
X81950000Y-95546693D01*
X81949999Y-95546693D01*
X81730629Y-95565885D01*
X81517926Y-95622879D01*
X81517920Y-95622881D01*
X81318346Y-95715944D01*
X81137965Y-95842248D01*
X81137959Y-95842253D01*
X80982253Y-95997959D01*
X80982248Y-95997965D01*
X80855944Y-96178346D01*
X80794195Y-96310768D01*
X80747278Y-96364053D01*
X80679000Y-96383514D01*
X80611040Y-96362972D01*
X80565805Y-96310768D01*
X80504056Y-96178348D01*
X80504056Y-96178347D01*
X80377749Y-95997962D01*
X80222038Y-95842251D01*
X80041654Y-95715944D01*
X80021500Y-95706546D01*
X79842079Y-95622881D01*
X79842073Y-95622879D01*
X79752178Y-95598791D01*
X79629371Y-95565885D01*
X79410000Y-95546693D01*
X79190629Y-95565885D01*
X78977926Y-95622879D01*
X78977920Y-95622881D01*
X78778346Y-95715944D01*
X78597965Y-95842248D01*
X78597959Y-95842253D01*
X78442253Y-95997959D01*
X78442248Y-95997965D01*
X78315944Y-96178346D01*
X78254195Y-96310768D01*
X78207278Y-96364053D01*
X78139000Y-96383514D01*
X78071040Y-96362972D01*
X78025805Y-96310768D01*
X77964056Y-96178348D01*
X77964056Y-96178347D01*
X77837749Y-95997962D01*
X77682038Y-95842251D01*
X77501654Y-95715944D01*
X77481500Y-95706546D01*
X77302079Y-95622881D01*
X77302073Y-95622879D01*
X77212178Y-95598791D01*
X77089371Y-95565885D01*
X76870000Y-95546693D01*
X76650629Y-95565885D01*
X76437926Y-95622879D01*
X76437915Y-95622883D01*
X76437747Y-95622962D01*
X76437665Y-95622974D01*
X76432754Y-95624762D01*
X76432394Y-95623774D01*
X76367555Y-95633621D01*
X76302743Y-95604640D01*
X76263888Y-95545219D01*
X76258500Y-95508766D01*
X76258500Y-91424950D01*
X76278502Y-91356829D01*
X76295405Y-91335855D01*
X81275855Y-86355405D01*
X81338167Y-86321379D01*
X81364950Y-86318500D01*
X86639295Y-86318500D01*
X86707416Y-86338502D01*
G37*
%TD.AperFunction*%
%TA.AperFunction,Conductor*%
G36*
X76120507Y-147690156D02*
G01*
X76080000Y-147828111D01*
X76080000Y-147971889D01*
X76120507Y-148109844D01*
X76148884Y-148154000D01*
X74471116Y-148154000D01*
X74499493Y-148109844D01*
X74540000Y-147971889D01*
X74540000Y-147828111D01*
X74499493Y-147690156D01*
X74471116Y-147646000D01*
X76148884Y-147646000D01*
X76120507Y-147690156D01*
G37*
%TD.AperFunction*%
%TA.AperFunction,Conductor*%
G36*
X63688957Y-97257026D02*
G01*
X63734194Y-97309231D01*
X63795941Y-97441648D01*
X63795944Y-97441654D01*
X63836674Y-97499822D01*
X63922251Y-97622038D01*
X63922254Y-97622042D01*
X64077957Y-97777745D01*
X64077961Y-97777748D01*
X64077962Y-97777749D01*
X64258346Y-97904056D01*
X64457924Y-97997120D01*
X64670629Y-98054115D01*
X64890000Y-98073307D01*
X65109371Y-98054115D01*
X65322076Y-97997120D01*
X65521654Y-97904056D01*
X65702038Y-97777749D01*
X65857749Y-97622038D01*
X65912288Y-97544148D01*
X65967742Y-97499822D01*
X66038361Y-97492513D01*
X66101722Y-97524543D01*
X66137708Y-97585744D01*
X66141499Y-97616421D01*
X66141499Y-99075050D01*
X66121497Y-99143171D01*
X66104594Y-99164145D01*
X56865611Y-108403127D01*
X56852865Y-108413340D01*
X56853025Y-108413533D01*
X56846921Y-108418582D01*
X56797054Y-108471685D01*
X56775071Y-108493668D01*
X56770527Y-108499525D01*
X56766678Y-108504031D01*
X56733029Y-108539865D01*
X56733027Y-108539867D01*
X56722691Y-108558667D01*
X56711843Y-108575180D01*
X56698699Y-108592126D01*
X56698694Y-108592135D01*
X56679172Y-108637247D01*
X56676560Y-108642577D01*
X56652877Y-108685660D01*
X56652873Y-108685670D01*
X56647541Y-108706436D01*
X56641139Y-108725136D01*
X56632620Y-108744820D01*
X56632619Y-108744824D01*
X56624928Y-108793384D01*
X56623724Y-108799197D01*
X56611500Y-108846810D01*
X56611500Y-108868258D01*
X56609949Y-108887967D01*
X56606594Y-108909150D01*
X56606594Y-108909152D01*
X56611220Y-108958094D01*
X56611500Y-108964027D01*
X56611500Y-115769150D01*
X56591498Y-115837271D01*
X56557771Y-115872363D01*
X56457962Y-115942250D01*
X56302248Y-116097965D01*
X56175944Y-116278346D01*
X56082881Y-116477920D01*
X56082879Y-116477926D01*
X56025885Y-116690629D01*
X56006693Y-116910000D01*
X56025885Y-117129370D01*
X56082879Y-117342073D01*
X56082881Y-117342079D01*
X56114195Y-117409232D01*
X56175944Y-117541654D01*
X56302251Y-117722038D01*
X56302254Y-117722042D01*
X56460380Y-117880168D01*
X56494406Y-117942480D01*
X56489341Y-118013295D01*
X56460381Y-118058358D01*
X56364145Y-118154595D01*
X56301833Y-118188620D01*
X56275049Y-118191500D01*
X55201350Y-118191500D01*
X55140803Y-118198009D01*
X55140795Y-118198011D01*
X55003797Y-118249110D01*
X55003792Y-118249112D01*
X54886738Y-118336738D01*
X54799112Y-118453792D01*
X54799110Y-118453797D01*
X54748011Y-118590795D01*
X54748009Y-118590803D01*
X54741500Y-118651350D01*
X54741500Y-120248649D01*
X54748009Y-120309196D01*
X54748011Y-120309204D01*
X54799110Y-120446202D01*
X54799112Y-120446207D01*
X54886738Y-120563261D01*
X55003792Y-120650887D01*
X55003796Y-120650889D01*
X55128615Y-120697445D01*
X55185451Y-120739992D01*
X55210261Y-120806512D01*
X55195169Y-120875886D01*
X55144967Y-120926088D01*
X55084582Y-120941500D01*
X54624949Y-120941500D01*
X54556828Y-120921498D01*
X54535854Y-120904595D01*
X52395405Y-118764145D01*
X52361379Y-118701833D01*
X52358500Y-118675050D01*
X52358500Y-106707424D01*
X52378502Y-106639303D01*
X52432158Y-106592810D01*
X52502432Y-106582706D01*
X52567012Y-106612200D01*
X52597506Y-106651696D01*
X52704792Y-106869251D01*
X52874731Y-107123584D01*
X52874734Y-107123588D01*
X53076425Y-107353574D01*
X53222063Y-107481294D01*
X53306407Y-107555262D01*
X53306409Y-107555263D01*
X53306411Y-107555265D01*
X53306415Y-107555268D01*
X53474417Y-107667523D01*
X53560746Y-107725206D01*
X53835092Y-107860499D01*
X54124750Y-107958824D01*
X54424764Y-108018501D01*
X54571737Y-108028134D01*
X54729997Y-108038507D01*
X54730000Y-108038507D01*
X54730003Y-108038507D01*
X54844463Y-108031004D01*
X55035236Y-108018501D01*
X55335250Y-107958824D01*
X55624908Y-107860499D01*
X55899254Y-107725206D01*
X56153593Y-107555262D01*
X56383574Y-107353574D01*
X56585262Y-107123593D01*
X56755206Y-106869254D01*
X56890499Y-106594908D01*
X56988824Y-106305250D01*
X57048501Y-106005236D01*
X57068507Y-105700000D01*
X57048501Y-105394764D01*
X56988824Y-105094750D01*
X56890499Y-104805092D01*
X56755206Y-104530747D01*
X56585262Y-104276407D01*
X56383574Y-104046426D01*
X56383571Y-104046424D01*
X56383570Y-104046422D01*
X56153588Y-103844734D01*
X56153584Y-103844731D01*
X55899251Y-103674792D01*
X55624914Y-103539504D01*
X55624908Y-103539501D01*
X55624903Y-103539499D01*
X55624900Y-103539498D01*
X55335258Y-103441178D01*
X55335252Y-103441176D01*
X55335250Y-103441176D01*
X55234789Y-103421193D01*
X55035245Y-103381500D01*
X55035231Y-103381498D01*
X54730003Y-103361493D01*
X54729997Y-103361493D01*
X54424768Y-103381498D01*
X54424754Y-103381500D01*
X54198852Y-103426436D01*
X54124750Y-103441176D01*
X54124748Y-103441176D01*
X54124741Y-103441178D01*
X53835099Y-103539498D01*
X53835091Y-103539501D01*
X53560741Y-103674797D01*
X53306409Y-103844736D01*
X53076426Y-104046426D01*
X52874736Y-104276409D01*
X52704797Y-104530741D01*
X52704794Y-104530746D01*
X52704794Y-104530747D01*
X52597504Y-104748306D01*
X52549437Y-104800554D01*
X52480752Y-104818520D01*
X52413256Y-104796500D01*
X52368380Y-104741485D01*
X52358500Y-104692576D01*
X52358500Y-103974949D01*
X52378502Y-103906828D01*
X52395405Y-103885854D01*
X55635854Y-100645405D01*
X55698166Y-100611379D01*
X55724949Y-100608500D01*
X56798632Y-100608500D01*
X56798638Y-100608500D01*
X56798645Y-100608499D01*
X56798649Y-100608499D01*
X56859196Y-100601990D01*
X56859199Y-100601989D01*
X56859201Y-100601989D01*
X56996204Y-100550889D01*
X57013600Y-100537867D01*
X57113261Y-100463261D01*
X57200887Y-100346207D01*
X57200887Y-100346206D01*
X57200889Y-100346204D01*
X57251989Y-100209201D01*
X57257060Y-100162038D01*
X57258499Y-100148649D01*
X57258500Y-100148632D01*
X57258500Y-100113576D01*
X57278502Y-100045455D01*
X57332158Y-99998962D01*
X57402432Y-99988858D01*
X57467012Y-100018352D01*
X57487713Y-100041306D01*
X57572247Y-100162033D01*
X57572254Y-100162042D01*
X57727957Y-100317745D01*
X57727961Y-100317748D01*
X57727962Y-100317749D01*
X57908346Y-100444056D01*
X58107924Y-100537120D01*
X58320629Y-100594115D01*
X58540000Y-100613307D01*
X58759371Y-100594115D01*
X58972076Y-100537120D01*
X59171654Y-100444056D01*
X59352038Y-100317749D01*
X59507749Y-100162038D01*
X59634056Y-99981654D01*
X59695804Y-99849232D01*
X59742722Y-99795946D01*
X59810999Y-99776485D01*
X59878959Y-99797026D01*
X59924195Y-99849232D01*
X59985944Y-99981654D01*
X60102864Y-100148632D01*
X60112251Y-100162038D01*
X60112254Y-100162042D01*
X60267957Y-100317745D01*
X60267961Y-100317748D01*
X60267962Y-100317749D01*
X60448346Y-100444056D01*
X60647924Y-100537120D01*
X60860629Y-100594115D01*
X61080000Y-100613307D01*
X61299371Y-100594115D01*
X61512076Y-100537120D01*
X61711654Y-100444056D01*
X61892038Y-100317749D01*
X62047749Y-100162038D01*
X62174056Y-99981654D01*
X62235804Y-99849232D01*
X62282722Y-99795946D01*
X62350999Y-99776485D01*
X62418959Y-99797026D01*
X62464195Y-99849232D01*
X62525944Y-99981654D01*
X62642864Y-100148632D01*
X62652251Y-100162038D01*
X62652254Y-100162042D01*
X62807957Y-100317745D01*
X62807961Y-100317748D01*
X62807962Y-100317749D01*
X62988346Y-100444056D01*
X63187924Y-100537120D01*
X63400629Y-100594115D01*
X63620000Y-100613307D01*
X63839371Y-100594115D01*
X64052076Y-100537120D01*
X64251654Y-100444056D01*
X64432038Y-100317749D01*
X64587749Y-100162038D01*
X64714056Y-99981654D01*
X64807120Y-99782076D01*
X64864115Y-99569371D01*
X64883307Y-99350000D01*
X64864115Y-99130629D01*
X64807120Y-98917924D01*
X64714056Y-98718347D01*
X64587749Y-98537962D01*
X64432038Y-98382251D01*
X64251654Y-98255944D01*
X64251650Y-98255942D01*
X64052079Y-98162881D01*
X64052073Y-98162879D01*
X63955025Y-98136875D01*
X63839371Y-98105885D01*
X63620000Y-98086693D01*
X63619999Y-98086693D01*
X63400629Y-98105885D01*
X63187926Y-98162879D01*
X63187920Y-98162881D01*
X62988346Y-98255944D01*
X62807965Y-98382248D01*
X62807959Y-98382253D01*
X62652253Y-98537959D01*
X62652248Y-98537965D01*
X62525944Y-98718346D01*
X62464195Y-98850768D01*
X62417278Y-98904053D01*
X62349000Y-98923514D01*
X62281040Y-98902972D01*
X62235805Y-98850768D01*
X62215488Y-98807198D01*
X62174056Y-98718347D01*
X62047749Y-98537962D01*
X61892038Y-98382251D01*
X61711654Y-98255944D01*
X61711650Y-98255942D01*
X61512079Y-98162881D01*
X61512073Y-98162879D01*
X61415025Y-98136875D01*
X61299371Y-98105885D01*
X61080000Y-98086693D01*
X61079999Y-98086693D01*
X60860629Y-98105885D01*
X60647926Y-98162879D01*
X60647920Y-98162881D01*
X60448346Y-98255944D01*
X60267965Y-98382248D01*
X60267959Y-98382253D01*
X60112253Y-98537959D01*
X60112248Y-98537965D01*
X59985944Y-98718346D01*
X59924195Y-98850768D01*
X59877278Y-98904053D01*
X59809000Y-98923514D01*
X59741040Y-98902972D01*
X59695805Y-98850768D01*
X59675488Y-98807198D01*
X59634056Y-98718347D01*
X59507749Y-98537962D01*
X59352038Y-98382251D01*
X59171654Y-98255944D01*
X59171650Y-98255942D01*
X58972079Y-98162881D01*
X58972073Y-98162879D01*
X58875025Y-98136875D01*
X58759371Y-98105885D01*
X58540000Y-98086693D01*
X58320629Y-98105885D01*
X58107926Y-98162879D01*
X58107920Y-98162881D01*
X57908346Y-98255944D01*
X57727965Y-98382248D01*
X57727959Y-98382253D01*
X57572253Y-98537959D01*
X57572248Y-98537965D01*
X57487713Y-98658694D01*
X57432256Y-98703022D01*
X57361636Y-98710331D01*
X57298276Y-98678300D01*
X57262291Y-98617099D01*
X57258500Y-98586423D01*
X57258500Y-98551367D01*
X57258499Y-98551350D01*
X57251990Y-98490803D01*
X57251988Y-98490795D01*
X57200889Y-98353797D01*
X57200887Y-98353792D01*
X57140233Y-98272769D01*
X57115422Y-98206249D01*
X57130513Y-98136875D01*
X57180715Y-98086673D01*
X57250089Y-98071581D01*
X57252031Y-98071734D01*
X57270000Y-98073307D01*
X57489371Y-98054115D01*
X57702076Y-97997120D01*
X57901654Y-97904056D01*
X58082038Y-97777749D01*
X58237749Y-97622038D01*
X58364056Y-97441654D01*
X58425805Y-97309229D01*
X58472720Y-97255947D01*
X58540997Y-97236485D01*
X58608957Y-97257026D01*
X58654194Y-97309231D01*
X58715941Y-97441648D01*
X58715944Y-97441654D01*
X58756674Y-97499822D01*
X58842251Y-97622038D01*
X58842254Y-97622042D01*
X58997957Y-97777745D01*
X58997961Y-97777748D01*
X58997962Y-97777749D01*
X59178346Y-97904056D01*
X59377924Y-97997120D01*
X59590629Y-98054115D01*
X59810000Y-98073307D01*
X60029371Y-98054115D01*
X60242076Y-97997120D01*
X60441654Y-97904056D01*
X60622038Y-97777749D01*
X60777749Y-97622038D01*
X60904056Y-97441654D01*
X60965804Y-97309232D01*
X61012722Y-97255946D01*
X61080999Y-97236485D01*
X61148959Y-97257026D01*
X61194195Y-97309232D01*
X61255944Y-97441654D01*
X61327714Y-97544151D01*
X61382251Y-97622038D01*
X61382254Y-97622042D01*
X61537957Y-97777745D01*
X61537961Y-97777748D01*
X61537962Y-97777749D01*
X61718346Y-97904056D01*
X61917924Y-97997120D01*
X62130629Y-98054115D01*
X62350000Y-98073307D01*
X62569371Y-98054115D01*
X62782076Y-97997120D01*
X62981654Y-97904056D01*
X63162038Y-97777749D01*
X63317749Y-97622038D01*
X63444056Y-97441654D01*
X63505805Y-97309229D01*
X63552720Y-97255947D01*
X63620997Y-97236485D01*
X63688957Y-97257026D01*
G37*
%TD.AperFunction*%
%TA.AperFunction,Conductor*%
G36*
X70159532Y-108175893D02*
G01*
X70216368Y-108218440D01*
X70241179Y-108284960D01*
X70241500Y-108293949D01*
X70241500Y-114475049D01*
X70221498Y-114543170D01*
X70204595Y-114564144D01*
X65086346Y-119682392D01*
X65024034Y-119716418D01*
X64953219Y-119711353D01*
X64896383Y-119668806D01*
X64871572Y-119602286D01*
X64871731Y-119582315D01*
X64873452Y-119562651D01*
X64875655Y-119537460D01*
X64883307Y-119450005D01*
X64883307Y-119450004D01*
X64883307Y-119449999D01*
X64864115Y-119230629D01*
X64807120Y-119017924D01*
X64714056Y-118818347D01*
X64587749Y-118637962D01*
X64432038Y-118482251D01*
X64251654Y-118355944D01*
X64251648Y-118355941D01*
X64052079Y-118262881D01*
X64052073Y-118262879D01*
X63951215Y-118235854D01*
X63839371Y-118205885D01*
X63620000Y-118186693D01*
X63619999Y-118186693D01*
X63400629Y-118205885D01*
X63187926Y-118262879D01*
X63187920Y-118262881D01*
X62988346Y-118355944D01*
X62807965Y-118482248D01*
X62807959Y-118482253D01*
X62652253Y-118637959D01*
X62652248Y-118637965D01*
X62525942Y-118818348D01*
X62464193Y-118950769D01*
X62417276Y-119004053D01*
X62348999Y-119023514D01*
X62281039Y-119002972D01*
X62235804Y-118950767D01*
X62229634Y-118937536D01*
X62214958Y-118906063D01*
X62174057Y-118818348D01*
X62047751Y-118637965D01*
X62047749Y-118637962D01*
X61892038Y-118482251D01*
X61711654Y-118355944D01*
X61711648Y-118355941D01*
X61711648Y-118355940D01*
X61508965Y-118261429D01*
X61455679Y-118214512D01*
X61436218Y-118146235D01*
X61456760Y-118078275D01*
X61473119Y-118058139D01*
X61504380Y-118026878D01*
X61517126Y-118016668D01*
X61516966Y-118016474D01*
X61523075Y-118011419D01*
X61523074Y-118011419D01*
X61523080Y-118011416D01*
X61529995Y-118004051D01*
X61591204Y-117968086D01*
X61662144Y-117970921D01*
X61694117Y-117987090D01*
X61718346Y-118004056D01*
X61917924Y-118097120D01*
X62130629Y-118154115D01*
X62350000Y-118173307D01*
X62569371Y-118154115D01*
X62782076Y-118097120D01*
X62981654Y-118004056D01*
X63162038Y-117877749D01*
X63317749Y-117722038D01*
X63444056Y-117541654D01*
X63505805Y-117409229D01*
X63552720Y-117355947D01*
X63620997Y-117336485D01*
X63688957Y-117357026D01*
X63734194Y-117409231D01*
X63795872Y-117541500D01*
X63795944Y-117541654D01*
X63922250Y-117722038D01*
X63922251Y-117722038D01*
X63922254Y-117722042D01*
X64077957Y-117877745D01*
X64077961Y-117877748D01*
X64077962Y-117877749D01*
X64258346Y-118004056D01*
X64457924Y-118097120D01*
X64670629Y-118154115D01*
X64890000Y-118173307D01*
X65109371Y-118154115D01*
X65322076Y-118097120D01*
X65521654Y-118004056D01*
X65702038Y-117877749D01*
X65857749Y-117722038D01*
X65984056Y-117541654D01*
X66077120Y-117342076D01*
X66134115Y-117129371D01*
X66153307Y-116910000D01*
X66134115Y-116690629D01*
X66077120Y-116477924D01*
X65984056Y-116278347D01*
X65857749Y-116097962D01*
X65702038Y-115942251D01*
X65521654Y-115815944D01*
X65427126Y-115771865D01*
X65322079Y-115722881D01*
X65322073Y-115722879D01*
X65203753Y-115691175D01*
X65109371Y-115665885D01*
X64890000Y-115646693D01*
X64889999Y-115646693D01*
X64670629Y-115665885D01*
X64457926Y-115722879D01*
X64457920Y-115722881D01*
X64258346Y-115815944D01*
X64077965Y-115942248D01*
X64077959Y-115942253D01*
X63922253Y-116097959D01*
X63922248Y-116097965D01*
X63795944Y-116278346D01*
X63734195Y-116410768D01*
X63687278Y-116464053D01*
X63619000Y-116483514D01*
X63551040Y-116462972D01*
X63505805Y-116410768D01*
X63485488Y-116367198D01*
X63444056Y-116278347D01*
X63317749Y-116097962D01*
X63162038Y-115942251D01*
X62981654Y-115815944D01*
X62887126Y-115771865D01*
X62782079Y-115722881D01*
X62782065Y-115722876D01*
X62777018Y-115721524D01*
X62716395Y-115684572D01*
X62685374Y-115620711D01*
X62693804Y-115550217D01*
X62720532Y-115510726D01*
X70026404Y-108204853D01*
X70088717Y-108170828D01*
X70159532Y-108175893D01*
G37*
%TD.AperFunction*%
%TA.AperFunction,Conductor*%
G36*
X79192972Y-81258502D02*
G01*
X79239465Y-81312158D01*
X79249569Y-81382432D01*
X79221925Y-81444828D01*
X79214293Y-81454052D01*
X79210301Y-81458438D01*
X69295611Y-91373127D01*
X69282865Y-91383340D01*
X69283025Y-91383533D01*
X69276921Y-91388582D01*
X69227054Y-91441685D01*
X69205071Y-91463668D01*
X69200527Y-91469525D01*
X69196678Y-91474031D01*
X69163029Y-91509865D01*
X69163027Y-91509867D01*
X69152691Y-91528667D01*
X69141843Y-91545180D01*
X69128699Y-91562126D01*
X69128694Y-91562135D01*
X69109172Y-91607247D01*
X69106560Y-91612577D01*
X69082877Y-91655660D01*
X69082873Y-91655670D01*
X69077541Y-91676436D01*
X69071139Y-91695136D01*
X69062620Y-91714820D01*
X69062619Y-91714824D01*
X69054928Y-91763384D01*
X69053724Y-91769197D01*
X69041500Y-91816810D01*
X69041500Y-91838258D01*
X69039949Y-91857967D01*
X69036594Y-91879150D01*
X69036594Y-91879152D01*
X69041220Y-91928094D01*
X69041500Y-91934027D01*
X69041500Y-107275049D01*
X69021498Y-107343170D01*
X69004595Y-107364144D01*
X60695611Y-115673127D01*
X60682862Y-115683343D01*
X60683022Y-115683536D01*
X60674814Y-115690326D01*
X60672836Y-115691175D01*
X60670249Y-115692818D01*
X60669983Y-115692399D01*
X60609575Y-115718335D01*
X60539551Y-115706627D01*
X60486972Y-115658919D01*
X60468500Y-115593240D01*
X60468500Y-108614949D01*
X60488502Y-108546828D01*
X60505400Y-108525859D01*
X63619158Y-105412100D01*
X63681470Y-105378075D01*
X63752285Y-105383140D01*
X63809121Y-105425687D01*
X63833932Y-105492207D01*
X63833983Y-105509437D01*
X63821493Y-105699996D01*
X63821493Y-105700003D01*
X63841498Y-106005231D01*
X63841500Y-106005245D01*
X63901176Y-106305248D01*
X63901178Y-106305258D01*
X63999498Y-106594900D01*
X63999504Y-106594914D01*
X64134792Y-106869251D01*
X64304731Y-107123584D01*
X64304734Y-107123588D01*
X64506425Y-107353574D01*
X64652063Y-107481294D01*
X64736407Y-107555262D01*
X64736409Y-107555263D01*
X64736411Y-107555265D01*
X64736415Y-107555268D01*
X64904417Y-107667523D01*
X64990746Y-107725206D01*
X65265092Y-107860499D01*
X65554750Y-107958824D01*
X65854764Y-108018501D01*
X66001737Y-108028134D01*
X66159997Y-108038507D01*
X66160000Y-108038507D01*
X66160003Y-108038507D01*
X66274463Y-108031004D01*
X66465236Y-108018501D01*
X66765250Y-107958824D01*
X67054908Y-107860499D01*
X67329254Y-107725206D01*
X67583593Y-107555262D01*
X67813574Y-107353574D01*
X68015262Y-107123593D01*
X68185206Y-106869254D01*
X68320499Y-106594908D01*
X68418824Y-106305250D01*
X68478501Y-106005236D01*
X68498507Y-105700000D01*
X68478501Y-105394764D01*
X68418824Y-105094750D01*
X68320499Y-104805092D01*
X68185206Y-104530747D01*
X68015262Y-104276407D01*
X67813574Y-104046426D01*
X67813571Y-104046424D01*
X67813570Y-104046422D01*
X67583588Y-103844734D01*
X67583584Y-103844731D01*
X67329251Y-103674792D01*
X67054914Y-103539504D01*
X67054908Y-103539501D01*
X67054903Y-103539499D01*
X67054900Y-103539498D01*
X66765258Y-103441178D01*
X66765252Y-103441176D01*
X66765250Y-103441176D01*
X66664789Y-103421193D01*
X66465245Y-103381500D01*
X66465231Y-103381498D01*
X66160003Y-103361493D01*
X66159997Y-103361493D01*
X65969436Y-103373983D01*
X65900153Y-103358479D01*
X65850250Y-103307979D01*
X65835572Y-103238517D01*
X65860778Y-103172145D01*
X65872093Y-103159165D01*
X68304386Y-100726872D01*
X68317129Y-100716665D01*
X68316969Y-100716471D01*
X68323074Y-100711419D01*
X68323080Y-100711416D01*
X68372945Y-100658314D01*
X68394927Y-100636333D01*
X68399470Y-100630475D01*
X68403308Y-100625980D01*
X68436972Y-100590133D01*
X68447310Y-100571327D01*
X68458152Y-100554823D01*
X68471304Y-100537868D01*
X68490832Y-100492737D01*
X68493441Y-100487414D01*
X68517124Y-100444337D01*
X68522457Y-100423562D01*
X68528856Y-100404869D01*
X68537380Y-100385176D01*
X68545074Y-100336591D01*
X68546271Y-100330810D01*
X68558500Y-100283188D01*
X68558500Y-100261741D01*
X68560051Y-100242030D01*
X68563406Y-100220848D01*
X68558780Y-100171903D01*
X68558500Y-100165971D01*
X68558500Y-93686611D01*
X68560292Y-93670382D01*
X68560042Y-93670359D01*
X68560788Y-93662465D01*
X68558500Y-93589657D01*
X68558500Y-93558576D01*
X68558500Y-93558568D01*
X68557571Y-93551220D01*
X68557106Y-93545316D01*
X68555562Y-93496169D01*
X68549579Y-93475576D01*
X68545571Y-93456218D01*
X68542882Y-93434939D01*
X68542882Y-93434936D01*
X68524777Y-93389208D01*
X68522863Y-93383619D01*
X68509145Y-93336400D01*
X68498224Y-93317935D01*
X68489531Y-93300189D01*
X68481635Y-93280244D01*
X68452736Y-93240470D01*
X68449482Y-93235517D01*
X68424453Y-93193193D01*
X68424452Y-93193191D01*
X68409288Y-93178027D01*
X68396447Y-93162993D01*
X68383841Y-93145643D01*
X68383836Y-93145638D01*
X68362718Y-93128169D01*
X68345950Y-93114297D01*
X68341577Y-93110317D01*
X60452018Y-85220758D01*
X60417992Y-85158446D01*
X60423057Y-85087631D01*
X60465604Y-85030795D01*
X60520375Y-85007381D01*
X60746823Y-84969594D01*
X60746832Y-84969592D01*
X60967522Y-84893829D01*
X60967525Y-84893827D01*
X61172738Y-84782772D01*
X61201317Y-84760527D01*
X60527587Y-84086797D01*
X60542315Y-84084680D01*
X60673100Y-84024952D01*
X60781761Y-83930798D01*
X60859493Y-83809844D01*
X60884361Y-83725150D01*
X61559203Y-84399991D01*
X61572736Y-84398587D01*
X61598219Y-84376839D01*
X61668567Y-84367262D01*
X61732925Y-84397239D01*
X61755184Y-84422927D01*
X61784685Y-84468083D01*
X61942774Y-84639813D01*
X61942778Y-84639817D01*
X61964972Y-84657091D01*
X62126983Y-84783190D01*
X62332273Y-84894287D01*
X62553049Y-84970080D01*
X62783288Y-85008500D01*
X62783292Y-85008500D01*
X63016708Y-85008500D01*
X63016712Y-85008500D01*
X63246951Y-84970080D01*
X63467727Y-84894287D01*
X63673017Y-84783190D01*
X63857220Y-84639818D01*
X64015314Y-84468083D01*
X64044517Y-84423383D01*
X64098519Y-84377296D01*
X64168867Y-84367720D01*
X64233225Y-84397696D01*
X64255481Y-84423382D01*
X64273396Y-84450802D01*
X64284687Y-84468084D01*
X64442774Y-84639813D01*
X64442778Y-84639817D01*
X64464972Y-84657091D01*
X64626983Y-84783190D01*
X64832273Y-84894287D01*
X65053049Y-84970080D01*
X65283288Y-85008500D01*
X65283292Y-85008500D01*
X65516708Y-85008500D01*
X65516712Y-85008500D01*
X65746951Y-84970080D01*
X65967727Y-84894287D01*
X66173017Y-84783190D01*
X66357220Y-84639818D01*
X66515314Y-84468083D01*
X66642984Y-84272669D01*
X66736749Y-84058907D01*
X66794051Y-83832626D01*
X66813327Y-83600000D01*
X66794051Y-83367374D01*
X66769191Y-83269202D01*
X66736750Y-83141096D01*
X66736747Y-83141089D01*
X66642984Y-82927331D01*
X66515314Y-82731916D01*
X66357225Y-82560186D01*
X66357221Y-82560182D01*
X66230434Y-82461500D01*
X66173017Y-82416810D01*
X65967727Y-82305713D01*
X65967724Y-82305712D01*
X65967723Y-82305711D01*
X65746955Y-82229921D01*
X65746948Y-82229919D01*
X65633964Y-82211066D01*
X65520806Y-82192183D01*
X65456909Y-82161242D01*
X65419881Y-82100666D01*
X65421482Y-82029687D01*
X65452450Y-81978809D01*
X66155855Y-81275404D01*
X66218168Y-81241379D01*
X66244951Y-81238500D01*
X79124851Y-81238500D01*
X79192972Y-81258502D01*
G37*
%TD.AperFunction*%
%TA.AperFunction,Conductor*%
G36*
X86707416Y-83798502D02*
G01*
X86744778Y-83835585D01*
X86824275Y-83957264D01*
X86824279Y-83957270D01*
X86976762Y-84122908D01*
X87031331Y-84165381D01*
X87154424Y-84261189D01*
X87187680Y-84279186D01*
X87238071Y-84329200D01*
X87253423Y-84398516D01*
X87228862Y-84465129D01*
X87187680Y-84500813D01*
X87154426Y-84518810D01*
X87154424Y-84518811D01*
X86976762Y-84657091D01*
X86824279Y-84822729D01*
X86824275Y-84822735D01*
X86744778Y-84944415D01*
X86690774Y-84990504D01*
X86639295Y-85001500D01*
X81126614Y-85001500D01*
X81110379Y-84999707D01*
X81110356Y-84999957D01*
X81102463Y-84999211D01*
X81029640Y-85001500D01*
X80998568Y-85001500D01*
X80998563Y-85001500D01*
X80998554Y-85001501D01*
X80991219Y-85002427D01*
X80985305Y-85002893D01*
X80936172Y-85004437D01*
X80936170Y-85004437D01*
X80936169Y-85004438D01*
X80915571Y-85010421D01*
X80896221Y-85014428D01*
X80874940Y-85017116D01*
X80874935Y-85017118D01*
X80829214Y-85035219D01*
X80823599Y-85037141D01*
X80776406Y-85050852D01*
X80776399Y-85050855D01*
X80757937Y-85061773D01*
X80740191Y-85070466D01*
X80720248Y-85078362D01*
X80720245Y-85078364D01*
X80680470Y-85107262D01*
X80675508Y-85110521D01*
X80633194Y-85135546D01*
X80618022Y-85150717D01*
X80602996Y-85163550D01*
X80585644Y-85176157D01*
X80585643Y-85176158D01*
X80554299Y-85214045D01*
X80550303Y-85218436D01*
X75195611Y-90573127D01*
X75182865Y-90583340D01*
X75183025Y-90583533D01*
X75176921Y-90588582D01*
X75127054Y-90641685D01*
X75105071Y-90663668D01*
X75100527Y-90669525D01*
X75096678Y-90674031D01*
X75063029Y-90709865D01*
X75063027Y-90709867D01*
X75052691Y-90728667D01*
X75041843Y-90745180D01*
X75028699Y-90762126D01*
X75028694Y-90762135D01*
X75009172Y-90807247D01*
X75006560Y-90812577D01*
X74982877Y-90855660D01*
X74982873Y-90855670D01*
X74977541Y-90876436D01*
X74971139Y-90895136D01*
X74962620Y-90914820D01*
X74962619Y-90914824D01*
X74954928Y-90963384D01*
X74953724Y-90969197D01*
X74941500Y-91016810D01*
X74941500Y-91038258D01*
X74939949Y-91057967D01*
X74936594Y-91079150D01*
X74936594Y-91079152D01*
X74941220Y-91128094D01*
X74941500Y-91134027D01*
X74941500Y-97965500D01*
X74921498Y-98033621D01*
X74867842Y-98080114D01*
X74815500Y-98091500D01*
X74801350Y-98091500D01*
X74740803Y-98098009D01*
X74740795Y-98098011D01*
X74603797Y-98149110D01*
X74603792Y-98149112D01*
X74486738Y-98236738D01*
X74399112Y-98353792D01*
X74399110Y-98353797D01*
X74348011Y-98490795D01*
X74348009Y-98490803D01*
X74341500Y-98551350D01*
X74341500Y-100148649D01*
X74348009Y-100209196D01*
X74348011Y-100209204D01*
X74399110Y-100346202D01*
X74399112Y-100346207D01*
X74486738Y-100463261D01*
X74603792Y-100550887D01*
X74603794Y-100550888D01*
X74603796Y-100550889D01*
X74635331Y-100562651D01*
X74740795Y-100601988D01*
X74740803Y-100601990D01*
X74801350Y-100608499D01*
X74801355Y-100608499D01*
X74801362Y-100608500D01*
X74801368Y-100608500D01*
X76398632Y-100608500D01*
X76398638Y-100608500D01*
X76398645Y-100608499D01*
X76398649Y-100608499D01*
X76459196Y-100601990D01*
X76459199Y-100601989D01*
X76459201Y-100601989D01*
X76596204Y-100550889D01*
X76613600Y-100537867D01*
X76713261Y-100463261D01*
X76800887Y-100346207D01*
X76800887Y-100346206D01*
X76800889Y-100346204D01*
X76851989Y-100209201D01*
X76857060Y-100162038D01*
X76858499Y-100148649D01*
X76858500Y-100148632D01*
X76858500Y-100113576D01*
X76878502Y-100045455D01*
X76932158Y-99998962D01*
X77002432Y-99988858D01*
X77067012Y-100018352D01*
X77087713Y-100041306D01*
X77172247Y-100162033D01*
X77172254Y-100162042D01*
X77327957Y-100317745D01*
X77327961Y-100317748D01*
X77327962Y-100317749D01*
X77427771Y-100387636D01*
X77472099Y-100443093D01*
X77481500Y-100490849D01*
X77481500Y-108935049D01*
X77461498Y-109003170D01*
X77444595Y-109024144D01*
X71773595Y-114695144D01*
X71711283Y-114729170D01*
X71640468Y-114724105D01*
X71583632Y-114681558D01*
X71558821Y-114615038D01*
X71558500Y-114606049D01*
X71558500Y-105700003D01*
X71991493Y-105700003D01*
X72011498Y-106005231D01*
X72011500Y-106005245D01*
X72071176Y-106305248D01*
X72071178Y-106305258D01*
X72169498Y-106594900D01*
X72169504Y-106594914D01*
X72304792Y-106869251D01*
X72474731Y-107123584D01*
X72474734Y-107123588D01*
X72676425Y-107353574D01*
X72822063Y-107481294D01*
X72906407Y-107555262D01*
X72906409Y-107555263D01*
X72906411Y-107555265D01*
X72906415Y-107555268D01*
X73074417Y-107667523D01*
X73160746Y-107725206D01*
X73435092Y-107860499D01*
X73724750Y-107958824D01*
X74024764Y-108018501D01*
X74171737Y-108028134D01*
X74329997Y-108038507D01*
X74330000Y-108038507D01*
X74330003Y-108038507D01*
X74444463Y-108031004D01*
X74635236Y-108018501D01*
X74935250Y-107958824D01*
X75224908Y-107860499D01*
X75499254Y-107725206D01*
X75753593Y-107555262D01*
X75983574Y-107353574D01*
X76185262Y-107123593D01*
X76355206Y-106869254D01*
X76490499Y-106594908D01*
X76588824Y-106305250D01*
X76648501Y-106005236D01*
X76668507Y-105700000D01*
X76648501Y-105394764D01*
X76588824Y-105094750D01*
X76490499Y-104805092D01*
X76355206Y-104530747D01*
X76185262Y-104276407D01*
X75983574Y-104046426D01*
X75983571Y-104046424D01*
X75983570Y-104046422D01*
X75753588Y-103844734D01*
X75753584Y-103844731D01*
X75499251Y-103674792D01*
X75224914Y-103539504D01*
X75224908Y-103539501D01*
X75224903Y-103539499D01*
X75224900Y-103539498D01*
X74935258Y-103441178D01*
X74935252Y-103441176D01*
X74935250Y-103441176D01*
X74834789Y-103421193D01*
X74635245Y-103381500D01*
X74635231Y-103381498D01*
X74330003Y-103361493D01*
X74329997Y-103361493D01*
X74024768Y-103381498D01*
X74024754Y-103381500D01*
X73798852Y-103426436D01*
X73724750Y-103441176D01*
X73724748Y-103441176D01*
X73724741Y-103441178D01*
X73435099Y-103539498D01*
X73435091Y-103539501D01*
X73160741Y-103674797D01*
X72906409Y-103844736D01*
X72676426Y-104046426D01*
X72474736Y-104276409D01*
X72304797Y-104530741D01*
X72169501Y-104805091D01*
X72169498Y-104805099D01*
X72071178Y-105094741D01*
X72071176Y-105094748D01*
X72071176Y-105094750D01*
X72061184Y-105144980D01*
X72011500Y-105394754D01*
X72011498Y-105394768D01*
X71991493Y-105699996D01*
X71991493Y-105700003D01*
X71558500Y-105700003D01*
X71558500Y-93324949D01*
X71578502Y-93256828D01*
X71595400Y-93235859D01*
X81015855Y-83815404D01*
X81078167Y-83781379D01*
X81104950Y-83778500D01*
X86639295Y-83778500D01*
X86707416Y-83798502D01*
G37*
%TD.AperFunction*%
%TA.AperFunction,Conductor*%
G36*
X54963171Y-83798502D02*
G01*
X54984145Y-83815405D01*
X66104593Y-94935854D01*
X66138619Y-94998166D01*
X66141498Y-95024949D01*
X66141499Y-96003577D01*
X66121497Y-96071698D01*
X66067841Y-96118191D01*
X65997567Y-96128295D01*
X65932987Y-96098802D01*
X65912286Y-96075848D01*
X65857751Y-95997965D01*
X65857749Y-95997962D01*
X65702038Y-95842251D01*
X65521654Y-95715944D01*
X65501500Y-95706546D01*
X65322079Y-95622881D01*
X65322073Y-95622879D01*
X65232178Y-95598791D01*
X65109371Y-95565885D01*
X64890000Y-95546693D01*
X64889999Y-95546693D01*
X64670629Y-95565885D01*
X64457926Y-95622879D01*
X64457920Y-95622881D01*
X64258346Y-95715944D01*
X64077965Y-95842248D01*
X64077959Y-95842253D01*
X63922253Y-95997959D01*
X63922248Y-95997965D01*
X63795944Y-96178346D01*
X63734195Y-96310768D01*
X63687278Y-96364053D01*
X63619000Y-96383514D01*
X63551040Y-96362972D01*
X63505805Y-96310768D01*
X63444056Y-96178348D01*
X63444056Y-96178347D01*
X63317749Y-95997962D01*
X63162038Y-95842251D01*
X62981654Y-95715944D01*
X62961500Y-95706546D01*
X62782079Y-95622881D01*
X62782073Y-95622879D01*
X62692178Y-95598791D01*
X62569371Y-95565885D01*
X62350000Y-95546693D01*
X62349999Y-95546693D01*
X62130629Y-95565885D01*
X61917926Y-95622879D01*
X61917920Y-95622881D01*
X61718346Y-95715944D01*
X61537965Y-95842248D01*
X61537959Y-95842253D01*
X61382253Y-95997959D01*
X61382248Y-95997965D01*
X61255942Y-96178348D01*
X61194193Y-96310769D01*
X61147276Y-96364053D01*
X61078999Y-96383514D01*
X61011039Y-96362972D01*
X60965804Y-96310767D01*
X60904057Y-96178348D01*
X60777751Y-95997965D01*
X60777749Y-95997962D01*
X60622038Y-95842251D01*
X60441654Y-95715944D01*
X60421500Y-95706546D01*
X60242079Y-95622881D01*
X60242073Y-95622879D01*
X60152178Y-95598791D01*
X60029371Y-95565885D01*
X59810000Y-95546693D01*
X59590629Y-95565885D01*
X59377926Y-95622879D01*
X59377920Y-95622881D01*
X59178346Y-95715944D01*
X58997965Y-95842248D01*
X58997959Y-95842253D01*
X58842253Y-95997959D01*
X58842248Y-95997965D01*
X58715944Y-96178346D01*
X58654195Y-96310768D01*
X58607278Y-96364053D01*
X58539000Y-96383514D01*
X58471040Y-96362972D01*
X58425805Y-96310768D01*
X58364056Y-96178348D01*
X58364056Y-96178347D01*
X58237749Y-95997962D01*
X58082038Y-95842251D01*
X57901654Y-95715944D01*
X57881500Y-95706546D01*
X57702079Y-95622881D01*
X57702073Y-95622879D01*
X57612178Y-95598791D01*
X57489371Y-95565885D01*
X57270000Y-95546693D01*
X57050623Y-95565885D01*
X57050614Y-95565887D01*
X57047156Y-95566814D01*
X57045573Y-95566776D01*
X57045206Y-95566841D01*
X57045192Y-95566767D01*
X56976180Y-95565119D01*
X56925460Y-95534200D01*
X51595404Y-90204144D01*
X51561378Y-90141832D01*
X51558499Y-90115058D01*
X51558499Y-86960731D01*
X51578501Y-86892611D01*
X51632157Y-86846118D01*
X51702431Y-86836014D01*
X51744466Y-86849917D01*
X51852426Y-86908342D01*
X51852427Y-86908342D01*
X51852428Y-86908343D01*
X51964227Y-86946723D01*
X52065365Y-86981444D01*
X52287431Y-87018500D01*
X52287435Y-87018500D01*
X52512565Y-87018500D01*
X52512569Y-87018500D01*
X52734635Y-86981444D01*
X52947574Y-86908342D01*
X53145576Y-86801189D01*
X53323240Y-86662906D01*
X53475722Y-86497268D01*
X53598860Y-86308791D01*
X53689296Y-86102616D01*
X53744564Y-85884368D01*
X53763156Y-85660000D01*
X53744564Y-85435632D01*
X53744562Y-85435624D01*
X53689297Y-85217387D01*
X53689296Y-85217386D01*
X53689296Y-85217384D01*
X53598860Y-85011209D01*
X53571670Y-84969592D01*
X53475724Y-84822734D01*
X53475720Y-84822729D01*
X53323237Y-84657091D01*
X53241382Y-84593381D01*
X53145576Y-84518811D01*
X53112319Y-84500813D01*
X53061929Y-84450802D01*
X53046576Y-84381485D01*
X53071136Y-84314872D01*
X53112320Y-84279186D01*
X53145576Y-84261189D01*
X53323240Y-84122906D01*
X53475722Y-83957268D01*
X53519380Y-83890443D01*
X53555222Y-83835585D01*
X53609226Y-83789496D01*
X53660705Y-83778500D01*
X54895050Y-83778500D01*
X54963171Y-83798502D01*
G37*
%TD.AperFunction*%
%TA.AperFunction,Conductor*%
G36*
X88743171Y-59378502D02*
G01*
X88764145Y-59395405D01*
X89104595Y-59735855D01*
X89138621Y-59798167D01*
X89141500Y-59824950D01*
X89141500Y-61371829D01*
X89121498Y-61439950D01*
X89067842Y-61486443D01*
X88997568Y-61496547D01*
X88971471Y-61489886D01*
X88859201Y-61448011D01*
X88859196Y-61448009D01*
X88798649Y-61441500D01*
X88798638Y-61441500D01*
X87001362Y-61441500D01*
X87001350Y-61441500D01*
X86940803Y-61448009D01*
X86940795Y-61448011D01*
X86803797Y-61499110D01*
X86803792Y-61499112D01*
X86686738Y-61586738D01*
X86599112Y-61703792D01*
X86599110Y-61703797D01*
X86548011Y-61840795D01*
X86548009Y-61840803D01*
X86541500Y-61901350D01*
X86541500Y-63698649D01*
X86548009Y-63759196D01*
X86548011Y-63759204D01*
X86599110Y-63896202D01*
X86599112Y-63896207D01*
X86686738Y-64013261D01*
X86803791Y-64100886D01*
X86803792Y-64100886D01*
X86803796Y-64100889D01*
X86918810Y-64143787D01*
X86975642Y-64186332D01*
X87000453Y-64252852D01*
X86985362Y-64322226D01*
X86967475Y-64347179D01*
X86824280Y-64502729D01*
X86824275Y-64502734D01*
X86701141Y-64691206D01*
X86610703Y-64897386D01*
X86610702Y-64897387D01*
X86555437Y-65115624D01*
X86555437Y-65115627D01*
X86555436Y-65115632D01*
X86536844Y-65340000D01*
X86555218Y-65561742D01*
X86555437Y-65564375D01*
X86610702Y-65782612D01*
X86610703Y-65782613D01*
X86610704Y-65782616D01*
X86645811Y-65862652D01*
X86701141Y-65988793D01*
X86824275Y-66177265D01*
X86824279Y-66177270D01*
X86976762Y-66342908D01*
X87031331Y-66385381D01*
X87154424Y-66481189D01*
X87187680Y-66499186D01*
X87238071Y-66549200D01*
X87253423Y-66618516D01*
X87228862Y-66685129D01*
X87187680Y-66720813D01*
X87154426Y-66738810D01*
X87154424Y-66738811D01*
X86976762Y-66877091D01*
X86824279Y-67042729D01*
X86824275Y-67042734D01*
X86701141Y-67231206D01*
X86610703Y-67437386D01*
X86610702Y-67437387D01*
X86555437Y-67655624D01*
X86536844Y-67879999D01*
X86555437Y-68104375D01*
X86610702Y-68322612D01*
X86610703Y-68322613D01*
X86610704Y-68322616D01*
X86701140Y-68528791D01*
X86701141Y-68528793D01*
X86824275Y-68717265D01*
X86824279Y-68717270D01*
X86976762Y-68882908D01*
X87031331Y-68925381D01*
X87154424Y-69021189D01*
X87187680Y-69039186D01*
X87238071Y-69089200D01*
X87253423Y-69158516D01*
X87228862Y-69225129D01*
X87187680Y-69260813D01*
X87154426Y-69278810D01*
X87154424Y-69278811D01*
X86976762Y-69417091D01*
X86824279Y-69582729D01*
X86824275Y-69582734D01*
X86701141Y-69771206D01*
X86610703Y-69977386D01*
X86610702Y-69977387D01*
X86555437Y-70195624D01*
X86536844Y-70420000D01*
X86555437Y-70644375D01*
X86610702Y-70862612D01*
X86610703Y-70862613D01*
X86701141Y-71068793D01*
X86824275Y-71257265D01*
X86824279Y-71257270D01*
X86976762Y-71422908D01*
X87031331Y-71465381D01*
X87154424Y-71561189D01*
X87187680Y-71579186D01*
X87238071Y-71629200D01*
X87253423Y-71698516D01*
X87228862Y-71765129D01*
X87187680Y-71800813D01*
X87154426Y-71818810D01*
X87154424Y-71818811D01*
X86976762Y-71957091D01*
X86824279Y-72122729D01*
X86824275Y-72122734D01*
X86701141Y-72311206D01*
X86610703Y-72517386D01*
X86610702Y-72517387D01*
X86555437Y-72735624D01*
X86536844Y-72960000D01*
X86555437Y-73184375D01*
X86610702Y-73402612D01*
X86610703Y-73402613D01*
X86701141Y-73608793D01*
X86824275Y-73797265D01*
X86824279Y-73797270D01*
X86976762Y-73962908D01*
X87018739Y-73995580D01*
X87154424Y-74101189D01*
X87188205Y-74119470D01*
X87238596Y-74169482D01*
X87253949Y-74238799D01*
X87229389Y-74305412D01*
X87188209Y-74341096D01*
X87154704Y-74359228D01*
X87154698Y-74359232D01*
X86977097Y-74497465D01*
X86824674Y-74663041D01*
X86701580Y-74851451D01*
X86611179Y-75057543D01*
X86611176Y-75057550D01*
X86563455Y-75245999D01*
X86563456Y-75246000D01*
X87468884Y-75246000D01*
X87440507Y-75290156D01*
X87400000Y-75428111D01*
X87400000Y-75571889D01*
X87440507Y-75709844D01*
X87468884Y-75754000D01*
X86563455Y-75754000D01*
X86611176Y-75942449D01*
X86611179Y-75942456D01*
X86701580Y-76148548D01*
X86824674Y-76336958D01*
X86977097Y-76502534D01*
X87154698Y-76640767D01*
X87154704Y-76640771D01*
X87188207Y-76658902D01*
X87238597Y-76708915D01*
X87253949Y-76778232D01*
X87229388Y-76844845D01*
X87188207Y-76880528D01*
X87154430Y-76898807D01*
X87154424Y-76898811D01*
X86976762Y-77037091D01*
X86824279Y-77202729D01*
X86824275Y-77202734D01*
X86701141Y-77391206D01*
X86610703Y-77597386D01*
X86610702Y-77597387D01*
X86555437Y-77815624D01*
X86555436Y-77815630D01*
X86555436Y-77815632D01*
X86536844Y-78040000D01*
X86555079Y-78260065D01*
X86555437Y-78264375D01*
X86610702Y-78482612D01*
X86610703Y-78482613D01*
X86610704Y-78482616D01*
X86701140Y-78688791D01*
X86701141Y-78688793D01*
X86824275Y-78877265D01*
X86824279Y-78877270D01*
X86976762Y-79042908D01*
X87031331Y-79085381D01*
X87154424Y-79181189D01*
X87187153Y-79198901D01*
X87187680Y-79199186D01*
X87238071Y-79249200D01*
X87253423Y-79318516D01*
X87228862Y-79385129D01*
X87187680Y-79420813D01*
X87154426Y-79438810D01*
X87154424Y-79438811D01*
X86976762Y-79577091D01*
X86824279Y-79742729D01*
X86824275Y-79742735D01*
X86744778Y-79864415D01*
X86690774Y-79910504D01*
X86639295Y-79921500D01*
X66006611Y-79921500D01*
X65990379Y-79919708D01*
X65990356Y-79919958D01*
X65982463Y-79919211D01*
X65911877Y-79921430D01*
X65909658Y-79921500D01*
X65878568Y-79921500D01*
X65871222Y-79922427D01*
X65865309Y-79922893D01*
X65816172Y-79924437D01*
X65816170Y-79924437D01*
X65816169Y-79924438D01*
X65795571Y-79930421D01*
X65776221Y-79934428D01*
X65754940Y-79937116D01*
X65754935Y-79937118D01*
X65709214Y-79955219D01*
X65703599Y-79957141D01*
X65656406Y-79970852D01*
X65656399Y-79970855D01*
X65637937Y-79981773D01*
X65620191Y-79990466D01*
X65600248Y-79998362D01*
X65600245Y-79998364D01*
X65560470Y-80027262D01*
X65555508Y-80030521D01*
X65513194Y-80055546D01*
X65498022Y-80070717D01*
X65482996Y-80083550D01*
X65465644Y-80096157D01*
X65465643Y-80096158D01*
X65434299Y-80134045D01*
X65430303Y-80138436D01*
X63370880Y-82197858D01*
X63308568Y-82231884D01*
X63250863Y-82230910D01*
X63246958Y-82229921D01*
X63199297Y-82221968D01*
X63016712Y-82191500D01*
X62783288Y-82191500D01*
X62668066Y-82210727D01*
X62553051Y-82229919D01*
X62553044Y-82229921D01*
X62332276Y-82305711D01*
X62332273Y-82305713D01*
X62293369Y-82326767D01*
X62126985Y-82416809D01*
X62126983Y-82416810D01*
X61942778Y-82560182D01*
X61942774Y-82560186D01*
X61784686Y-82731915D01*
X61755183Y-82777073D01*
X61701179Y-82823160D01*
X61630831Y-82832735D01*
X61566474Y-82802757D01*
X61564573Y-82800564D01*
X61559202Y-82800007D01*
X60884360Y-83474848D01*
X60859493Y-83390156D01*
X60781761Y-83269202D01*
X60673100Y-83175048D01*
X60542315Y-83115320D01*
X60527586Y-83113202D01*
X61201318Y-82439470D01*
X61172743Y-82417229D01*
X61172741Y-82417228D01*
X60967525Y-82306172D01*
X60967522Y-82306170D01*
X60746832Y-82230407D01*
X60746823Y-82230405D01*
X60516666Y-82192000D01*
X60283334Y-82192000D01*
X60053176Y-82230405D01*
X60053167Y-82230407D01*
X59832477Y-82306170D01*
X59832474Y-82306172D01*
X59627259Y-82417227D01*
X59598681Y-82439470D01*
X60272412Y-83113202D01*
X60257685Y-83115320D01*
X60126900Y-83175048D01*
X60018239Y-83269202D01*
X59940507Y-83390156D01*
X59915639Y-83474849D01*
X59240796Y-82800006D01*
X59240795Y-82800007D01*
X59157461Y-82927560D01*
X59157454Y-82927574D01*
X59063726Y-83141252D01*
X59063724Y-83141256D01*
X59006444Y-83367449D01*
X58997691Y-83473077D01*
X58972131Y-83539313D01*
X58914819Y-83581216D01*
X58843951Y-83585482D01*
X58783026Y-83551766D01*
X56795405Y-81564145D01*
X56761379Y-81501833D01*
X56758500Y-81475050D01*
X56758500Y-78354797D01*
X56778502Y-78286676D01*
X56832158Y-78240183D01*
X56902432Y-78230079D01*
X56967012Y-78259573D01*
X56967449Y-78259953D01*
X57122162Y-78395633D01*
X57368327Y-78560115D01*
X57633855Y-78691059D01*
X57914203Y-78786224D01*
X58204574Y-78843983D01*
X58373388Y-78855047D01*
X58499997Y-78863346D01*
X58500000Y-78863346D01*
X58500003Y-78863346D01*
X58610784Y-78856084D01*
X58795426Y-78843983D01*
X59085797Y-78786224D01*
X59366145Y-78691059D01*
X59631673Y-78560115D01*
X59877838Y-78395633D01*
X60100427Y-78200427D01*
X60295633Y-77977838D01*
X60460115Y-77731673D01*
X60591059Y-77466145D01*
X60686224Y-77185797D01*
X60743983Y-76895426D01*
X60759485Y-76658902D01*
X60763346Y-76600003D01*
X65036654Y-76600003D01*
X65056016Y-76895421D01*
X65056018Y-76895435D01*
X65088734Y-77059904D01*
X65113542Y-77184622D01*
X65113776Y-77185795D01*
X65113778Y-77185805D01*
X65208938Y-77466137D01*
X65208944Y-77466151D01*
X65339883Y-77731670D01*
X65504359Y-77977827D01*
X65504361Y-77977830D01*
X65504367Y-77977838D01*
X65699573Y-78200427D01*
X65922162Y-78395633D01*
X66168327Y-78560115D01*
X66433855Y-78691059D01*
X66714203Y-78786224D01*
X67004574Y-78843983D01*
X67173388Y-78855047D01*
X67299997Y-78863346D01*
X67300000Y-78863346D01*
X67300003Y-78863346D01*
X67410784Y-78856084D01*
X67595426Y-78843983D01*
X67885797Y-78786224D01*
X68166145Y-78691059D01*
X68431673Y-78560115D01*
X68677838Y-78395633D01*
X68900427Y-78200427D01*
X69095633Y-77977838D01*
X69260115Y-77731673D01*
X69391059Y-77466145D01*
X69486224Y-77185797D01*
X69543983Y-76895426D01*
X69559485Y-76658902D01*
X69563346Y-76600003D01*
X69563346Y-76599996D01*
X69553664Y-76452286D01*
X69543983Y-76304574D01*
X69486224Y-76014203D01*
X69391059Y-75733855D01*
X69260115Y-75468327D01*
X69111561Y-75246000D01*
X69095640Y-75222172D01*
X69095638Y-75222170D01*
X69095633Y-75222162D01*
X68900427Y-74999573D01*
X68677838Y-74804367D01*
X68677828Y-74804360D01*
X68677827Y-74804359D01*
X68431670Y-74639883D01*
X68166151Y-74508944D01*
X68166145Y-74508941D01*
X68166140Y-74508939D01*
X68166137Y-74508938D01*
X67885805Y-74413778D01*
X67885799Y-74413776D01*
X67885797Y-74413776D01*
X67780144Y-74392760D01*
X67595435Y-74356018D01*
X67595421Y-74356016D01*
X67300003Y-74336654D01*
X67299997Y-74336654D01*
X67004578Y-74356016D01*
X67004564Y-74356018D01*
X66762818Y-74404105D01*
X66714203Y-74413776D01*
X66714201Y-74413776D01*
X66714194Y-74413778D01*
X66433862Y-74508938D01*
X66433848Y-74508944D01*
X66168329Y-74639883D01*
X65922172Y-74804359D01*
X65922165Y-74804364D01*
X65922162Y-74804367D01*
X65699573Y-74999573D01*
X65504367Y-75222162D01*
X65504364Y-75222165D01*
X65504359Y-75222172D01*
X65339883Y-75468329D01*
X65208944Y-75733848D01*
X65208938Y-75733862D01*
X65113778Y-76014194D01*
X65113776Y-76014204D01*
X65056018Y-76304564D01*
X65056016Y-76304578D01*
X65036654Y-76599996D01*
X65036654Y-76600003D01*
X60763346Y-76600003D01*
X60763346Y-76599996D01*
X60753664Y-76452286D01*
X60743983Y-76304574D01*
X60686224Y-76014203D01*
X60591059Y-75733855D01*
X60460115Y-75468327D01*
X60311561Y-75246000D01*
X60295640Y-75222172D01*
X60295638Y-75222170D01*
X60295633Y-75222162D01*
X60100427Y-74999573D01*
X59877838Y-74804367D01*
X59877828Y-74804360D01*
X59877827Y-74804359D01*
X59631670Y-74639883D01*
X59366151Y-74508944D01*
X59366145Y-74508941D01*
X59366140Y-74508939D01*
X59366137Y-74508938D01*
X59085805Y-74413778D01*
X59085799Y-74413776D01*
X59085797Y-74413776D01*
X58980144Y-74392760D01*
X58795435Y-74356018D01*
X58795421Y-74356016D01*
X58500003Y-74336654D01*
X58499997Y-74336654D01*
X58204578Y-74356016D01*
X58204564Y-74356018D01*
X57962818Y-74404105D01*
X57914203Y-74413776D01*
X57914201Y-74413776D01*
X57914194Y-74413778D01*
X57633862Y-74508938D01*
X57633848Y-74508944D01*
X57368329Y-74639883D01*
X57122170Y-74804360D01*
X57122166Y-74804363D01*
X56967577Y-74939934D01*
X56903173Y-74969811D01*
X56832840Y-74960125D01*
X56778909Y-74913952D01*
X56758502Y-74845951D01*
X56758500Y-74845202D01*
X56758500Y-74206610D01*
X56760292Y-74190381D01*
X56760042Y-74190358D01*
X56760786Y-74182469D01*
X56760788Y-74182463D01*
X56758499Y-74109657D01*
X56758500Y-74078568D01*
X56757571Y-74071220D01*
X56757106Y-74065313D01*
X56755562Y-74016169D01*
X56749579Y-73995576D01*
X56745571Y-73976218D01*
X56742882Y-73954939D01*
X56742882Y-73954936D01*
X56724777Y-73909208D01*
X56722863Y-73903619D01*
X56709145Y-73856400D01*
X56698226Y-73837939D01*
X56689528Y-73820182D01*
X56688738Y-73818186D01*
X56681635Y-73800244D01*
X56652731Y-73760461D01*
X56649471Y-73755498D01*
X56624450Y-73713190D01*
X56609291Y-73698031D01*
X56596450Y-73682998D01*
X56583841Y-73665643D01*
X56545953Y-73634299D01*
X56541571Y-73630312D01*
X53757010Y-70845750D01*
X53722984Y-70783438D01*
X53723960Y-70725725D01*
X53744564Y-70644368D01*
X53763156Y-70420000D01*
X53744564Y-70195632D01*
X53689296Y-69977384D01*
X53598860Y-69771209D01*
X53592140Y-69760924D01*
X53475724Y-69582734D01*
X53475720Y-69582729D01*
X53323237Y-69417091D01*
X53241382Y-69353381D01*
X53145576Y-69278811D01*
X53112319Y-69260813D01*
X53061929Y-69210802D01*
X53046576Y-69141485D01*
X53071136Y-69074872D01*
X53112320Y-69039186D01*
X53145576Y-69021189D01*
X53323240Y-68882906D01*
X53475722Y-68717268D01*
X53519380Y-68650443D01*
X53555222Y-68595585D01*
X53609226Y-68549496D01*
X53660705Y-68538500D01*
X75633389Y-68538500D01*
X75649620Y-68540291D01*
X75649644Y-68540042D01*
X75657536Y-68540788D01*
X75657536Y-68540787D01*
X75657537Y-68540788D01*
X75730342Y-68538500D01*
X75761432Y-68538500D01*
X75768779Y-68537571D01*
X75774682Y-68537106D01*
X75823831Y-68535562D01*
X75844421Y-68529579D01*
X75863776Y-68525571D01*
X75885064Y-68522882D01*
X75930796Y-68504775D01*
X75936380Y-68502863D01*
X75983600Y-68489145D01*
X76002050Y-68478232D01*
X76019813Y-68469530D01*
X76039756Y-68461635D01*
X76079537Y-68432730D01*
X76084487Y-68429480D01*
X76094175Y-68423750D01*
X76126807Y-68404453D01*
X76141977Y-68389281D01*
X76157005Y-68376447D01*
X76174357Y-68363841D01*
X76205703Y-68325949D01*
X76209671Y-68321587D01*
X78504384Y-66026873D01*
X78517129Y-66016665D01*
X78516969Y-66016471D01*
X78523070Y-66011422D01*
X78523080Y-66011416D01*
X78572960Y-65958298D01*
X78594926Y-65936333D01*
X78599462Y-65930483D01*
X78603306Y-65925982D01*
X78636972Y-65890133D01*
X78647303Y-65871339D01*
X78658151Y-65854823D01*
X78671304Y-65837869D01*
X78690845Y-65792710D01*
X78693428Y-65787438D01*
X78717124Y-65744337D01*
X78722460Y-65723549D01*
X78728857Y-65704869D01*
X78737379Y-65685177D01*
X78745072Y-65636596D01*
X78746271Y-65630811D01*
X78758500Y-65583188D01*
X78758500Y-65561742D01*
X78760051Y-65542031D01*
X78763406Y-65520849D01*
X78758780Y-65471904D01*
X78758500Y-65465972D01*
X78758500Y-62120242D01*
X78778502Y-62052121D01*
X78824528Y-62009430D01*
X78873017Y-61983190D01*
X79057220Y-61839818D01*
X79215314Y-61668083D01*
X79342984Y-61472669D01*
X79436749Y-61258907D01*
X79494051Y-61032626D01*
X79513327Y-60800000D01*
X79494051Y-60567374D01*
X79436749Y-60341093D01*
X79342984Y-60127331D01*
X79244517Y-59976615D01*
X79215314Y-59931916D01*
X79057225Y-59760186D01*
X79057221Y-59760182D01*
X78965118Y-59688496D01*
X78873017Y-59616810D01*
X78833294Y-59595313D01*
X78782904Y-59545301D01*
X78767552Y-59475984D01*
X78792112Y-59409371D01*
X78848788Y-59366611D01*
X78893264Y-59358500D01*
X88675050Y-59358500D01*
X88743171Y-59378502D01*
G37*
%TD.AperFunction*%
%TA.AperFunction,Conductor*%
G36*
X53974165Y-72925425D02*
G01*
X55404595Y-74355855D01*
X55438621Y-74418167D01*
X55441500Y-74444950D01*
X55441499Y-81713389D01*
X55439709Y-81729620D01*
X55439958Y-81729644D01*
X55439211Y-81737536D01*
X55441500Y-81810341D01*
X55441500Y-81841430D01*
X55442427Y-81848776D01*
X55442893Y-81854690D01*
X55444437Y-81903829D01*
X55444438Y-81903832D01*
X55450421Y-81924429D01*
X55454428Y-81943780D01*
X55457117Y-81965060D01*
X55457117Y-81965062D01*
X55475216Y-82010778D01*
X55477139Y-82016394D01*
X55490853Y-82063597D01*
X55490853Y-82063598D01*
X55501771Y-82082058D01*
X55510468Y-82099811D01*
X55518364Y-82119755D01*
X55518367Y-82119760D01*
X55536352Y-82144513D01*
X55547265Y-82159532D01*
X55550521Y-82164490D01*
X55570254Y-82197858D01*
X55575547Y-82206807D01*
X55590714Y-82221974D01*
X55603552Y-82237005D01*
X55616158Y-82254356D01*
X55654039Y-82285694D01*
X55658420Y-82289680D01*
X55742889Y-82374150D01*
X55742890Y-82374150D01*
X55776916Y-82436462D01*
X55771851Y-82507277D01*
X55729304Y-82564113D01*
X55662784Y-82588924D01*
X55593410Y-82573833D01*
X55593107Y-82573667D01*
X55591353Y-82572703D01*
X55574818Y-82561843D01*
X55557867Y-82548695D01*
X55512739Y-82529166D01*
X55507421Y-82526561D01*
X55480235Y-82511616D01*
X55464338Y-82502876D01*
X55464335Y-82502875D01*
X55443568Y-82497543D01*
X55424865Y-82491140D01*
X55414703Y-82486743D01*
X55405176Y-82482620D01*
X55405174Y-82482619D01*
X55405175Y-82482619D01*
X55356619Y-82474929D01*
X55350804Y-82473725D01*
X55303188Y-82461500D01*
X55281741Y-82461500D01*
X55262032Y-82459949D01*
X55240848Y-82456594D01*
X55240847Y-82456594D01*
X55191906Y-82461220D01*
X55185973Y-82461500D01*
X53660705Y-82461500D01*
X53592584Y-82441498D01*
X53555222Y-82404415D01*
X53475724Y-82282735D01*
X53475720Y-82282729D01*
X53325694Y-82119760D01*
X53323240Y-82117094D01*
X53323239Y-82117093D01*
X53323237Y-82117091D01*
X53241382Y-82053381D01*
X53145576Y-81978811D01*
X53112319Y-81960813D01*
X53061929Y-81910802D01*
X53046576Y-81841485D01*
X53071136Y-81774872D01*
X53112320Y-81739186D01*
X53129952Y-81729644D01*
X53145576Y-81721189D01*
X53323240Y-81582906D01*
X53475722Y-81417268D01*
X53598860Y-81228791D01*
X53689296Y-81022616D01*
X53744564Y-80804368D01*
X53763156Y-80580000D01*
X53744564Y-80355632D01*
X53744562Y-80355624D01*
X53689297Y-80137387D01*
X53689296Y-80137386D01*
X53689296Y-80137384D01*
X53598860Y-79931209D01*
X53585333Y-79910504D01*
X53475724Y-79742734D01*
X53475720Y-79742729D01*
X53323237Y-79577091D01*
X53241382Y-79513381D01*
X53145576Y-79438811D01*
X53111792Y-79420528D01*
X53061402Y-79370516D01*
X53046050Y-79301199D01*
X53070610Y-79234586D01*
X53111793Y-79198901D01*
X53145300Y-79180767D01*
X53145301Y-79180767D01*
X53322902Y-79042534D01*
X53475325Y-78876958D01*
X53598419Y-78688548D01*
X53688820Y-78482456D01*
X53688823Y-78482449D01*
X53736544Y-78294000D01*
X52831116Y-78294000D01*
X52859493Y-78249844D01*
X52900000Y-78111889D01*
X52900000Y-77968111D01*
X52859493Y-77830156D01*
X52831116Y-77786000D01*
X53736544Y-77786000D01*
X53736544Y-77785999D01*
X53688823Y-77597550D01*
X53688820Y-77597543D01*
X53598419Y-77391451D01*
X53475325Y-77203041D01*
X53322902Y-77037465D01*
X53145301Y-76899232D01*
X53145300Y-76899231D01*
X53111267Y-76880814D01*
X53060876Y-76830801D01*
X53045524Y-76761484D01*
X53070085Y-76694871D01*
X53111267Y-76659186D01*
X53145300Y-76640768D01*
X53145301Y-76640767D01*
X53322902Y-76502534D01*
X53475325Y-76336958D01*
X53598419Y-76148548D01*
X53688820Y-75942456D01*
X53688823Y-75942449D01*
X53736544Y-75754000D01*
X52831116Y-75754000D01*
X52859493Y-75709844D01*
X52900000Y-75571889D01*
X52900000Y-75428111D01*
X52859493Y-75290156D01*
X52831116Y-75246000D01*
X53736544Y-75246000D01*
X53736544Y-75245999D01*
X53688823Y-75057550D01*
X53688820Y-75057543D01*
X53598419Y-74851451D01*
X53475325Y-74663041D01*
X53322902Y-74497465D01*
X53145301Y-74359232D01*
X53145300Y-74359231D01*
X53111791Y-74341097D01*
X53061401Y-74291083D01*
X53046050Y-74221766D01*
X53070612Y-74155153D01*
X53111790Y-74119472D01*
X53145576Y-74101189D01*
X53323240Y-73962906D01*
X53475722Y-73797268D01*
X53598860Y-73608791D01*
X53689296Y-73402616D01*
X53744564Y-73184368D01*
X53759500Y-73004113D01*
X53785060Y-72937878D01*
X53842371Y-72895975D01*
X53913240Y-72891709D01*
X53974165Y-72925425D01*
G37*
%TD.AperFunction*%
%TA.AperFunction,Conductor*%
G36*
X90331621Y-40930502D02*
G01*
X90378114Y-40984158D01*
X90389500Y-41036500D01*
X90389499Y-58854049D01*
X90369497Y-58922170D01*
X90315841Y-58968663D01*
X90245567Y-58978767D01*
X90180987Y-58949273D01*
X90174404Y-58943144D01*
X89526875Y-58295615D01*
X89516664Y-58282869D01*
X89516471Y-58283030D01*
X89511417Y-58276921D01*
X89491732Y-58258436D01*
X89458314Y-58227054D01*
X89447417Y-58216157D01*
X89436343Y-58205082D01*
X89436325Y-58205066D01*
X89430482Y-58200534D01*
X89425967Y-58196678D01*
X89403463Y-58175546D01*
X89390133Y-58163028D01*
X89390130Y-58163026D01*
X89390125Y-58163023D01*
X89371338Y-58152694D01*
X89354818Y-58141843D01*
X89337867Y-58128695D01*
X89292739Y-58109166D01*
X89287421Y-58106561D01*
X89258851Y-58090855D01*
X89244338Y-58082876D01*
X89244335Y-58082875D01*
X89223568Y-58077543D01*
X89204865Y-58071140D01*
X89194703Y-58066743D01*
X89185176Y-58062620D01*
X89185174Y-58062619D01*
X89185175Y-58062619D01*
X89136619Y-58054929D01*
X89130804Y-58053725D01*
X89083188Y-58041500D01*
X89061741Y-58041500D01*
X89042032Y-58039949D01*
X89020848Y-58036594D01*
X89020847Y-58036594D01*
X88971906Y-58041220D01*
X88965973Y-58041500D01*
X59126611Y-58041500D01*
X59110379Y-58039708D01*
X59110356Y-58039958D01*
X59102463Y-58039211D01*
X59031877Y-58041430D01*
X59029658Y-58041500D01*
X58998568Y-58041500D01*
X58991222Y-58042427D01*
X58985309Y-58042893D01*
X58936172Y-58044437D01*
X58936170Y-58044437D01*
X58936169Y-58044438D01*
X58915571Y-58050421D01*
X58896221Y-58054428D01*
X58874940Y-58057116D01*
X58874935Y-58057118D01*
X58829214Y-58075219D01*
X58823599Y-58077141D01*
X58776406Y-58090852D01*
X58776399Y-58090855D01*
X58757937Y-58101773D01*
X58740191Y-58110466D01*
X58720248Y-58118362D01*
X58720245Y-58118364D01*
X58680470Y-58147262D01*
X58675508Y-58150521D01*
X58633194Y-58175546D01*
X58618022Y-58190717D01*
X58602996Y-58203550D01*
X58585644Y-58216157D01*
X58585643Y-58216158D01*
X58554299Y-58254045D01*
X58550303Y-58258436D01*
X53973594Y-62835144D01*
X53911282Y-62869170D01*
X53840467Y-62864105D01*
X53783631Y-62821558D01*
X53758820Y-62755038D01*
X53758499Y-62746049D01*
X53758500Y-61901362D01*
X53758499Y-61901350D01*
X53751990Y-61840803D01*
X53751988Y-61840795D01*
X53700889Y-61703797D01*
X53700887Y-61703792D01*
X53613261Y-61586738D01*
X53496207Y-61499112D01*
X53496202Y-61499110D01*
X53359204Y-61448011D01*
X53359196Y-61448009D01*
X53298649Y-61441500D01*
X53298638Y-61441500D01*
X51501362Y-61441500D01*
X51501350Y-61441500D01*
X51440803Y-61448009D01*
X51440795Y-61448011D01*
X51303797Y-61499110D01*
X51303792Y-61499112D01*
X51186738Y-61586738D01*
X51099112Y-61703792D01*
X51099110Y-61703797D01*
X51048011Y-61840795D01*
X51048009Y-61840803D01*
X51041500Y-61901350D01*
X51041500Y-63698649D01*
X51048009Y-63759196D01*
X51048011Y-63759204D01*
X51099110Y-63896202D01*
X51099112Y-63896207D01*
X51186738Y-64013261D01*
X51303791Y-64100886D01*
X51303792Y-64100886D01*
X51303796Y-64100889D01*
X51418810Y-64143787D01*
X51475642Y-64186332D01*
X51500453Y-64252852D01*
X51485362Y-64322226D01*
X51467475Y-64347179D01*
X51324280Y-64502729D01*
X51324275Y-64502734D01*
X51201141Y-64691206D01*
X51110703Y-64897386D01*
X51110702Y-64897387D01*
X51055437Y-65115624D01*
X51055437Y-65115627D01*
X51055436Y-65115632D01*
X51036844Y-65340000D01*
X51055218Y-65561742D01*
X51055437Y-65564375D01*
X51110702Y-65782612D01*
X51110703Y-65782613D01*
X51110704Y-65782616D01*
X51145811Y-65862652D01*
X51201141Y-65988793D01*
X51324275Y-66177265D01*
X51324279Y-66177270D01*
X51476762Y-66342908D01*
X51531331Y-66385381D01*
X51654424Y-66481189D01*
X51687680Y-66499186D01*
X51738071Y-66549200D01*
X51753423Y-66618516D01*
X51728862Y-66685129D01*
X51687680Y-66720813D01*
X51654426Y-66738810D01*
X51654424Y-66738811D01*
X51476762Y-66877091D01*
X51324279Y-67042729D01*
X51324275Y-67042734D01*
X51201141Y-67231206D01*
X51110703Y-67437386D01*
X51110702Y-67437387D01*
X51055437Y-67655624D01*
X51036844Y-67880000D01*
X51055437Y-68104375D01*
X51110702Y-68322612D01*
X51110703Y-68322613D01*
X51110704Y-68322616D01*
X51201140Y-68528791D01*
X51201141Y-68528793D01*
X51324275Y-68717265D01*
X51324279Y-68717270D01*
X51476762Y-68882908D01*
X51531331Y-68925381D01*
X51654424Y-69021189D01*
X51687680Y-69039186D01*
X51738071Y-69089200D01*
X51753423Y-69158516D01*
X51728862Y-69225129D01*
X51687680Y-69260813D01*
X51654426Y-69278810D01*
X51654424Y-69278811D01*
X51476762Y-69417091D01*
X51324279Y-69582729D01*
X51324275Y-69582734D01*
X51201141Y-69771206D01*
X51110703Y-69977386D01*
X51110702Y-69977387D01*
X51055437Y-70195624D01*
X51036844Y-70419999D01*
X51055437Y-70644375D01*
X51110702Y-70862612D01*
X51110703Y-70862613D01*
X51201141Y-71068793D01*
X51324275Y-71257265D01*
X51324279Y-71257270D01*
X51476762Y-71422908D01*
X51531331Y-71465381D01*
X51654424Y-71561189D01*
X51687680Y-71579186D01*
X51738071Y-71629200D01*
X51753423Y-71698516D01*
X51728862Y-71765129D01*
X51687680Y-71800813D01*
X51654426Y-71818810D01*
X51654424Y-71818811D01*
X51476762Y-71957091D01*
X51324279Y-72122729D01*
X51324275Y-72122734D01*
X51201141Y-72311206D01*
X51110703Y-72517386D01*
X51110702Y-72517387D01*
X51055437Y-72735624D01*
X51036844Y-72960000D01*
X51055437Y-73184375D01*
X51110702Y-73402612D01*
X51110703Y-73402613D01*
X51201141Y-73608793D01*
X51324275Y-73797265D01*
X51324279Y-73797270D01*
X51476762Y-73962908D01*
X51518739Y-73995580D01*
X51654424Y-74101189D01*
X51688205Y-74119470D01*
X51738596Y-74169482D01*
X51753949Y-74238799D01*
X51729389Y-74305412D01*
X51688209Y-74341096D01*
X51654704Y-74359228D01*
X51654698Y-74359232D01*
X51477097Y-74497465D01*
X51324674Y-74663041D01*
X51201580Y-74851451D01*
X51111179Y-75057543D01*
X51111176Y-75057550D01*
X51063455Y-75245999D01*
X51063456Y-75246000D01*
X51968884Y-75246000D01*
X51940507Y-75290156D01*
X51900000Y-75428111D01*
X51900000Y-75571889D01*
X51940507Y-75709844D01*
X51968884Y-75754000D01*
X51063455Y-75754000D01*
X51111176Y-75942449D01*
X51111179Y-75942456D01*
X51201580Y-76148548D01*
X51324674Y-76336958D01*
X51477097Y-76502534D01*
X51654698Y-76640767D01*
X51654699Y-76640768D01*
X51688734Y-76659187D01*
X51739123Y-76709201D01*
X51754475Y-76778518D01*
X51729913Y-76845130D01*
X51688734Y-76880813D01*
X51654699Y-76899231D01*
X51654698Y-76899232D01*
X51477097Y-77037465D01*
X51324674Y-77203041D01*
X51201580Y-77391451D01*
X51111179Y-77597543D01*
X51111176Y-77597550D01*
X51063455Y-77785999D01*
X51063456Y-77786000D01*
X51968884Y-77786000D01*
X51940507Y-77830156D01*
X51900000Y-77968111D01*
X51900000Y-78111889D01*
X51940507Y-78249844D01*
X51968884Y-78294000D01*
X51063455Y-78294000D01*
X51111176Y-78482449D01*
X51111179Y-78482456D01*
X51201580Y-78688548D01*
X51324674Y-78876958D01*
X51477097Y-79042534D01*
X51654698Y-79180767D01*
X51654704Y-79180771D01*
X51688207Y-79198902D01*
X51738597Y-79248915D01*
X51753949Y-79318232D01*
X51729388Y-79384845D01*
X51688207Y-79420528D01*
X51654430Y-79438807D01*
X51654424Y-79438811D01*
X51476762Y-79577091D01*
X51324279Y-79742729D01*
X51324275Y-79742734D01*
X51201141Y-79931206D01*
X51110703Y-80137386D01*
X51110702Y-80137387D01*
X51055437Y-80355624D01*
X51036844Y-80579999D01*
X51055436Y-80804369D01*
X51076038Y-80885724D01*
X51073370Y-80956671D01*
X51042988Y-81005751D01*
X50495608Y-81553130D01*
X50482865Y-81563340D01*
X50483025Y-81563533D01*
X50476921Y-81568582D01*
X50427054Y-81621685D01*
X50405071Y-81643668D01*
X50400527Y-81649525D01*
X50396678Y-81654031D01*
X50363029Y-81689865D01*
X50363027Y-81689867D01*
X50352691Y-81708667D01*
X50341843Y-81725180D01*
X50328699Y-81742126D01*
X50328694Y-81742135D01*
X50309172Y-81787247D01*
X50306560Y-81792577D01*
X50282877Y-81835660D01*
X50282873Y-81835670D01*
X50277541Y-81856436D01*
X50271139Y-81875136D01*
X50262620Y-81894820D01*
X50262619Y-81894824D01*
X50260949Y-81905374D01*
X50230536Y-81969527D01*
X50170268Y-82007054D01*
X50099279Y-82006040D01*
X50040107Y-81966807D01*
X50011539Y-81901812D01*
X50010500Y-81885663D01*
X50010500Y-55470000D01*
X52186835Y-55470000D01*
X52205465Y-55706711D01*
X52218286Y-55760115D01*
X52260894Y-55937592D01*
X52351759Y-56156961D01*
X52475825Y-56359417D01*
X52475826Y-56359419D01*
X52630030Y-56539969D01*
X52810580Y-56694173D01*
X52810584Y-56694176D01*
X53013037Y-56818240D01*
X53232406Y-56909105D01*
X53463289Y-56964535D01*
X53700000Y-56983165D01*
X53936711Y-56964535D01*
X54167594Y-56909105D01*
X54386963Y-56818240D01*
X54589416Y-56694176D01*
X54769969Y-56539969D01*
X54924176Y-56359416D01*
X55048240Y-56156963D01*
X55139105Y-55937594D01*
X55194535Y-55706711D01*
X55210804Y-55500000D01*
X57287337Y-55500000D01*
X57305960Y-55736632D01*
X57361371Y-55967437D01*
X57452206Y-56186733D01*
X57566897Y-56373891D01*
X58196065Y-55744723D01*
X58207188Y-55778956D01*
X58295186Y-55917619D01*
X58414903Y-56030040D01*
X58553160Y-56106048D01*
X57926107Y-56733101D01*
X57926107Y-56733102D01*
X58113261Y-56847791D01*
X58332562Y-56938628D01*
X58563367Y-56994039D01*
X58800000Y-57012662D01*
X59036632Y-56994039D01*
X59267437Y-56938628D01*
X59486738Y-56847791D01*
X59673891Y-56733102D01*
X59673892Y-56733101D01*
X59043482Y-56102691D01*
X59115629Y-56074126D01*
X59248492Y-55977595D01*
X59353175Y-55851055D01*
X59403442Y-55744231D01*
X60033102Y-56373892D01*
X60033102Y-56373891D01*
X60147791Y-56186738D01*
X60238628Y-55967437D01*
X60294039Y-55736632D01*
X60312662Y-55500000D01*
X60294039Y-55263367D01*
X60238628Y-55032562D01*
X60147791Y-54813261D01*
X60033102Y-54626107D01*
X60033100Y-54626107D01*
X59403933Y-55255273D01*
X59392812Y-55221044D01*
X59304814Y-55082381D01*
X59185097Y-54969960D01*
X59046838Y-54893951D01*
X59673891Y-54266897D01*
X59486733Y-54152206D01*
X59267437Y-54061371D01*
X59036632Y-54005960D01*
X58800000Y-53987337D01*
X58563367Y-54005960D01*
X58332562Y-54061371D01*
X58113262Y-54152208D01*
X57926107Y-54266896D01*
X57926107Y-54266898D01*
X58556517Y-54897308D01*
X58484371Y-54925874D01*
X58351508Y-55022405D01*
X58246825Y-55148945D01*
X58196558Y-55255766D01*
X57566898Y-54626107D01*
X57566896Y-54626107D01*
X57452208Y-54813262D01*
X57361371Y-55032562D01*
X57305960Y-55263367D01*
X57287337Y-55500000D01*
X55210804Y-55500000D01*
X55213165Y-55470000D01*
X55194535Y-55233289D01*
X55139105Y-55002406D01*
X55048240Y-54783037D01*
X54924176Y-54580584D01*
X54924173Y-54580580D01*
X54769969Y-54400030D01*
X54589419Y-54245826D01*
X54589417Y-54245825D01*
X54589416Y-54245824D01*
X54386963Y-54121760D01*
X54323409Y-54095435D01*
X54167592Y-54030894D01*
X54009651Y-53992976D01*
X53936711Y-53975465D01*
X53700000Y-53956835D01*
X53463289Y-53975465D01*
X53232407Y-54030894D01*
X53013038Y-54121759D01*
X52810582Y-54245825D01*
X52810580Y-54245826D01*
X52630030Y-54400030D01*
X52475826Y-54580580D01*
X52475825Y-54580582D01*
X52351759Y-54783038D01*
X52260894Y-55002407D01*
X52208405Y-55221044D01*
X52205465Y-55233289D01*
X52186835Y-55470000D01*
X50010500Y-55470000D01*
X50010500Y-53800003D01*
X68936654Y-53800003D01*
X68956016Y-54095421D01*
X68956018Y-54095435D01*
X69013776Y-54385795D01*
X69013778Y-54385805D01*
X69108938Y-54666137D01*
X69108944Y-54666151D01*
X69239883Y-54931670D01*
X69404359Y-55177827D01*
X69404361Y-55177830D01*
X69404367Y-55177838D01*
X69599573Y-55400427D01*
X69822162Y-55595633D01*
X70068327Y-55760115D01*
X70333855Y-55891059D01*
X70614203Y-55986224D01*
X70904574Y-56043983D01*
X71073388Y-56055047D01*
X71199997Y-56063346D01*
X71200000Y-56063346D01*
X71200003Y-56063346D01*
X71310784Y-56056084D01*
X71495426Y-56043983D01*
X71785797Y-55986224D01*
X72066145Y-55891059D01*
X72331673Y-55760115D01*
X72577838Y-55595633D01*
X72800427Y-55400427D01*
X72995633Y-55177838D01*
X73160115Y-54931673D01*
X73291059Y-54666145D01*
X73386224Y-54385797D01*
X73443983Y-54095426D01*
X73463346Y-53800003D01*
X77736654Y-53800003D01*
X77756016Y-54095421D01*
X77756018Y-54095435D01*
X77813776Y-54385795D01*
X77813778Y-54385805D01*
X77908938Y-54666137D01*
X77908944Y-54666151D01*
X78039883Y-54931670D01*
X78204359Y-55177827D01*
X78204361Y-55177830D01*
X78204367Y-55177838D01*
X78399573Y-55400427D01*
X78622162Y-55595633D01*
X78868327Y-55760115D01*
X79133855Y-55891059D01*
X79414203Y-55986224D01*
X79704574Y-56043983D01*
X79873388Y-56055047D01*
X79999997Y-56063346D01*
X80000000Y-56063346D01*
X80000003Y-56063346D01*
X80110784Y-56056084D01*
X80295426Y-56043983D01*
X80585797Y-55986224D01*
X80866145Y-55891059D01*
X81131673Y-55760115D01*
X81377838Y-55595633D01*
X81600427Y-55400427D01*
X81795633Y-55177838D01*
X81960115Y-54931673D01*
X82091059Y-54666145D01*
X82186224Y-54385797D01*
X82243983Y-54095426D01*
X82263346Y-53800000D01*
X82243983Y-53504574D01*
X82186224Y-53214203D01*
X82091059Y-52933855D01*
X81960115Y-52668327D01*
X81795633Y-52422162D01*
X81600427Y-52199573D01*
X81377838Y-52004367D01*
X81377830Y-52004361D01*
X81377827Y-52004359D01*
X81131670Y-51839883D01*
X80866151Y-51708944D01*
X80866145Y-51708941D01*
X80866140Y-51708939D01*
X80866137Y-51708938D01*
X80585805Y-51613778D01*
X80585799Y-51613776D01*
X80585797Y-51613776D01*
X80488566Y-51594435D01*
X80295435Y-51556018D01*
X80295421Y-51556016D01*
X80000003Y-51536654D01*
X79999997Y-51536654D01*
X79704578Y-51556016D01*
X79704564Y-51556018D01*
X79462818Y-51604105D01*
X79414203Y-51613776D01*
X79414201Y-51613776D01*
X79414194Y-51613778D01*
X79133862Y-51708938D01*
X79133848Y-51708944D01*
X78868329Y-51839883D01*
X78622172Y-52004359D01*
X78622165Y-52004364D01*
X78622162Y-52004367D01*
X78399573Y-52199573D01*
X78204367Y-52422162D01*
X78204364Y-52422165D01*
X78204359Y-52422172D01*
X78039883Y-52668329D01*
X77908944Y-52933848D01*
X77908938Y-52933862D01*
X77813778Y-53214194D01*
X77813776Y-53214204D01*
X77756018Y-53504564D01*
X77756016Y-53504578D01*
X77736654Y-53799996D01*
X77736654Y-53800003D01*
X73463346Y-53800003D01*
X73463346Y-53800000D01*
X73443983Y-53504574D01*
X73386224Y-53214203D01*
X73291059Y-52933855D01*
X73160115Y-52668327D01*
X72995633Y-52422162D01*
X72800427Y-52199573D01*
X72577838Y-52004367D01*
X72577830Y-52004361D01*
X72577827Y-52004359D01*
X72331670Y-51839883D01*
X72066151Y-51708944D01*
X72066145Y-51708941D01*
X72066140Y-51708939D01*
X72066137Y-51708938D01*
X71785805Y-51613778D01*
X71785799Y-51613776D01*
X71785797Y-51613776D01*
X71688566Y-51594435D01*
X71495435Y-51556018D01*
X71495421Y-51556016D01*
X71200003Y-51536654D01*
X71199997Y-51536654D01*
X70904578Y-51556016D01*
X70904564Y-51556018D01*
X70662818Y-51604105D01*
X70614203Y-51613776D01*
X70614201Y-51613776D01*
X70614194Y-51613778D01*
X70333862Y-51708938D01*
X70333848Y-51708944D01*
X70068329Y-51839883D01*
X69822172Y-52004359D01*
X69822165Y-52004364D01*
X69822162Y-52004367D01*
X69599573Y-52199573D01*
X69404367Y-52422162D01*
X69404364Y-52422165D01*
X69404359Y-52422172D01*
X69239883Y-52668329D01*
X69108944Y-52933848D01*
X69108938Y-52933862D01*
X69013778Y-53214194D01*
X69013776Y-53214204D01*
X68956018Y-53504564D01*
X68956016Y-53504578D01*
X68936654Y-53799996D01*
X68936654Y-53800003D01*
X50010500Y-53800003D01*
X50010500Y-41036500D01*
X50030502Y-40968379D01*
X50084158Y-40921886D01*
X50136500Y-40910500D01*
X90263500Y-40910500D01*
X90331621Y-40930502D01*
G37*
%TD.AperFunction*%
%TA.AperFunction,Conductor*%
G36*
X52654000Y-77606325D02*
G01*
X52542315Y-77555320D01*
X52435763Y-77540000D01*
X52364237Y-77540000D01*
X52257685Y-77555320D01*
X52146000Y-77606325D01*
X52146000Y-75933674D01*
X52257685Y-75984680D01*
X52364237Y-76000000D01*
X52435763Y-76000000D01*
X52542315Y-75984680D01*
X52654000Y-75933674D01*
X52654000Y-77606325D01*
G37*
%TD.AperFunction*%
%TA.AperFunction,Conductor*%
G36*
X72374857Y-59378502D02*
G01*
X72421350Y-59432158D01*
X72431454Y-59502432D01*
X72401960Y-59567012D01*
X72366706Y-59595312D01*
X72348316Y-59605264D01*
X72326984Y-59616809D01*
X72326983Y-59616810D01*
X72142778Y-59760182D01*
X72142774Y-59760186D01*
X71984685Y-59931916D01*
X71857015Y-60127331D01*
X71763252Y-60341089D01*
X71763249Y-60341096D01*
X71705950Y-60567366D01*
X71686673Y-60800000D01*
X71705950Y-61032633D01*
X71763249Y-61258903D01*
X71763252Y-61258910D01*
X71857015Y-61472668D01*
X71984685Y-61668083D01*
X72142774Y-61839813D01*
X72142778Y-61839817D01*
X72208650Y-61891087D01*
X72326983Y-61983190D01*
X72532273Y-62094287D01*
X72753049Y-62170080D01*
X72983288Y-62208500D01*
X72983292Y-62208500D01*
X73216708Y-62208500D01*
X73216712Y-62208500D01*
X73446951Y-62170080D01*
X73667727Y-62094287D01*
X73873017Y-61983190D01*
X74057220Y-61839818D01*
X74215314Y-61668083D01*
X74244517Y-61623383D01*
X74298519Y-61577296D01*
X74368867Y-61567720D01*
X74433225Y-61597696D01*
X74455481Y-61623382D01*
X74484686Y-61668083D01*
X74484687Y-61668084D01*
X74642774Y-61839813D01*
X74642778Y-61839817D01*
X74708650Y-61891087D01*
X74826983Y-61983190D01*
X75032273Y-62094287D01*
X75253049Y-62170080D01*
X75483288Y-62208500D01*
X75483292Y-62208500D01*
X75716708Y-62208500D01*
X75716712Y-62208500D01*
X75946951Y-62170080D01*
X76167727Y-62094287D01*
X76373017Y-61983190D01*
X76557220Y-61839818D01*
X76715314Y-61668083D01*
X76744517Y-61623383D01*
X76798519Y-61577296D01*
X76868867Y-61567720D01*
X76933225Y-61597696D01*
X76955481Y-61623382D01*
X76984686Y-61668083D01*
X76984687Y-61668084D01*
X77142774Y-61839813D01*
X77142778Y-61839816D01*
X77142780Y-61839818D01*
X77326983Y-61983190D01*
X77375471Y-62009430D01*
X77425859Y-62059441D01*
X77441500Y-62120242D01*
X77441500Y-65175049D01*
X77421498Y-65243170D01*
X77404595Y-65264144D01*
X75484145Y-67184595D01*
X75421833Y-67218620D01*
X75395050Y-67221500D01*
X53660705Y-67221500D01*
X53592584Y-67201498D01*
X53555222Y-67164415D01*
X53475724Y-67042735D01*
X53475720Y-67042729D01*
X53323237Y-66877091D01*
X53241382Y-66813381D01*
X53145576Y-66738811D01*
X53112319Y-66720813D01*
X53061929Y-66670802D01*
X53046576Y-66601485D01*
X53071136Y-66534872D01*
X53112320Y-66499186D01*
X53145576Y-66481189D01*
X53323240Y-66342906D01*
X53475722Y-66177268D01*
X53598860Y-65988791D01*
X53689296Y-65782616D01*
X53744564Y-65564368D01*
X53763156Y-65340000D01*
X53744564Y-65115632D01*
X53723961Y-65034274D01*
X53726627Y-64963329D01*
X53757008Y-64914250D01*
X59275854Y-59395405D01*
X59338167Y-59361379D01*
X59364950Y-59358500D01*
X72306736Y-59358500D01*
X72374857Y-59378502D01*
G37*
%TD.AperFunction*%
%TD*%
M02*
