%TF.GenerationSoftware,KiCad,Pcbnew,7.0.6*%
%TF.CreationDate,2023-07-26T19:09:21+01:00*%
%TF.ProjectId,Hypersoniq_Panel,48797065-7273-46f6-9e69-715f50616e65,rev?*%
%TF.SameCoordinates,Original*%
%TF.FileFunction,Legend,Bot*%
%TF.FilePolarity,Positive*%
%FSLAX46Y46*%
G04 Gerber Fmt 4.6, Leading zero omitted, Abs format (unit mm)*
G04 Created by KiCad (PCBNEW 7.0.6) date 2023-07-26 19:09:21*
%MOMM*%
%LPD*%
G01*
G04 APERTURE LIST*
%ADD10C,0.300000*%
%ADD11C,0.150000*%
G04 APERTURE END LIST*
D10*
X82728571Y-45770828D02*
X82728571Y-44270828D01*
X82728571Y-44985114D02*
X81871428Y-44985114D01*
X81871428Y-45770828D02*
X81871428Y-44270828D01*
X81299999Y-44770828D02*
X80942856Y-45770828D01*
X80585713Y-44770828D02*
X80942856Y-45770828D01*
X80942856Y-45770828D02*
X81085713Y-46127971D01*
X81085713Y-46127971D02*
X81157142Y-46199400D01*
X81157142Y-46199400D02*
X81299999Y-46270828D01*
X80014285Y-44770828D02*
X80014285Y-46270828D01*
X80014285Y-44842257D02*
X79871428Y-44770828D01*
X79871428Y-44770828D02*
X79585713Y-44770828D01*
X79585713Y-44770828D02*
X79442856Y-44842257D01*
X79442856Y-44842257D02*
X79371428Y-44913685D01*
X79371428Y-44913685D02*
X79299999Y-45056542D01*
X79299999Y-45056542D02*
X79299999Y-45485114D01*
X79299999Y-45485114D02*
X79371428Y-45627971D01*
X79371428Y-45627971D02*
X79442856Y-45699400D01*
X79442856Y-45699400D02*
X79585713Y-45770828D01*
X79585713Y-45770828D02*
X79871428Y-45770828D01*
X79871428Y-45770828D02*
X80014285Y-45699400D01*
X78085713Y-45699400D02*
X78228570Y-45770828D01*
X78228570Y-45770828D02*
X78514285Y-45770828D01*
X78514285Y-45770828D02*
X78657142Y-45699400D01*
X78657142Y-45699400D02*
X78728570Y-45556542D01*
X78728570Y-45556542D02*
X78728570Y-44985114D01*
X78728570Y-44985114D02*
X78657142Y-44842257D01*
X78657142Y-44842257D02*
X78514285Y-44770828D01*
X78514285Y-44770828D02*
X78228570Y-44770828D01*
X78228570Y-44770828D02*
X78085713Y-44842257D01*
X78085713Y-44842257D02*
X78014285Y-44985114D01*
X78014285Y-44985114D02*
X78014285Y-45127971D01*
X78014285Y-45127971D02*
X78728570Y-45270828D01*
X77371428Y-45770828D02*
X77371428Y-44770828D01*
X77371428Y-45056542D02*
X77299999Y-44913685D01*
X77299999Y-44913685D02*
X77228571Y-44842257D01*
X77228571Y-44842257D02*
X77085713Y-44770828D01*
X77085713Y-44770828D02*
X76942856Y-44770828D01*
X76514285Y-45699400D02*
X76371428Y-45770828D01*
X76371428Y-45770828D02*
X76085714Y-45770828D01*
X76085714Y-45770828D02*
X75942857Y-45699400D01*
X75942857Y-45699400D02*
X75871428Y-45556542D01*
X75871428Y-45556542D02*
X75871428Y-45485114D01*
X75871428Y-45485114D02*
X75942857Y-45342257D01*
X75942857Y-45342257D02*
X76085714Y-45270828D01*
X76085714Y-45270828D02*
X76300000Y-45270828D01*
X76300000Y-45270828D02*
X76442857Y-45199400D01*
X76442857Y-45199400D02*
X76514285Y-45056542D01*
X76514285Y-45056542D02*
X76514285Y-44985114D01*
X76514285Y-44985114D02*
X76442857Y-44842257D01*
X76442857Y-44842257D02*
X76300000Y-44770828D01*
X76300000Y-44770828D02*
X76085714Y-44770828D01*
X76085714Y-44770828D02*
X75942857Y-44842257D01*
X75014285Y-45770828D02*
X75157142Y-45699400D01*
X75157142Y-45699400D02*
X75228571Y-45627971D01*
X75228571Y-45627971D02*
X75299999Y-45485114D01*
X75299999Y-45485114D02*
X75299999Y-45056542D01*
X75299999Y-45056542D02*
X75228571Y-44913685D01*
X75228571Y-44913685D02*
X75157142Y-44842257D01*
X75157142Y-44842257D02*
X75014285Y-44770828D01*
X75014285Y-44770828D02*
X74799999Y-44770828D01*
X74799999Y-44770828D02*
X74657142Y-44842257D01*
X74657142Y-44842257D02*
X74585714Y-44913685D01*
X74585714Y-44913685D02*
X74514285Y-45056542D01*
X74514285Y-45056542D02*
X74514285Y-45485114D01*
X74514285Y-45485114D02*
X74585714Y-45627971D01*
X74585714Y-45627971D02*
X74657142Y-45699400D01*
X74657142Y-45699400D02*
X74799999Y-45770828D01*
X74799999Y-45770828D02*
X75014285Y-45770828D01*
X73871428Y-44770828D02*
X73871428Y-45770828D01*
X73871428Y-44913685D02*
X73799999Y-44842257D01*
X73799999Y-44842257D02*
X73657142Y-44770828D01*
X73657142Y-44770828D02*
X73442856Y-44770828D01*
X73442856Y-44770828D02*
X73299999Y-44842257D01*
X73299999Y-44842257D02*
X73228571Y-44985114D01*
X73228571Y-44985114D02*
X73228571Y-45770828D01*
X72514285Y-45770828D02*
X72514285Y-44770828D01*
X72514285Y-44270828D02*
X72585713Y-44342257D01*
X72585713Y-44342257D02*
X72514285Y-44413685D01*
X72514285Y-44413685D02*
X72442856Y-44342257D01*
X72442856Y-44342257D02*
X72514285Y-44270828D01*
X72514285Y-44270828D02*
X72514285Y-44413685D01*
X71157142Y-44770828D02*
X71157142Y-46270828D01*
X71157142Y-45699400D02*
X71299999Y-45770828D01*
X71299999Y-45770828D02*
X71585713Y-45770828D01*
X71585713Y-45770828D02*
X71728570Y-45699400D01*
X71728570Y-45699400D02*
X71799999Y-45627971D01*
X71799999Y-45627971D02*
X71871427Y-45485114D01*
X71871427Y-45485114D02*
X71871427Y-45056542D01*
X71871427Y-45056542D02*
X71799999Y-44913685D01*
X71799999Y-44913685D02*
X71728570Y-44842257D01*
X71728570Y-44842257D02*
X71585713Y-44770828D01*
X71585713Y-44770828D02*
X71299999Y-44770828D01*
X71299999Y-44770828D02*
X71157142Y-44842257D01*
X69299999Y-45770828D02*
X69299999Y-44270828D01*
X69299999Y-44270828D02*
X68728570Y-44270828D01*
X68728570Y-44270828D02*
X68585713Y-44342257D01*
X68585713Y-44342257D02*
X68514284Y-44413685D01*
X68514284Y-44413685D02*
X68442856Y-44556542D01*
X68442856Y-44556542D02*
X68442856Y-44770828D01*
X68442856Y-44770828D02*
X68514284Y-44913685D01*
X68514284Y-44913685D02*
X68585713Y-44985114D01*
X68585713Y-44985114D02*
X68728570Y-45056542D01*
X68728570Y-45056542D02*
X69299999Y-45056542D01*
X67157142Y-45770828D02*
X67157142Y-44985114D01*
X67157142Y-44985114D02*
X67228570Y-44842257D01*
X67228570Y-44842257D02*
X67371427Y-44770828D01*
X67371427Y-44770828D02*
X67657142Y-44770828D01*
X67657142Y-44770828D02*
X67799999Y-44842257D01*
X67157142Y-45699400D02*
X67299999Y-45770828D01*
X67299999Y-45770828D02*
X67657142Y-45770828D01*
X67657142Y-45770828D02*
X67799999Y-45699400D01*
X67799999Y-45699400D02*
X67871427Y-45556542D01*
X67871427Y-45556542D02*
X67871427Y-45413685D01*
X67871427Y-45413685D02*
X67799999Y-45270828D01*
X67799999Y-45270828D02*
X67657142Y-45199400D01*
X67657142Y-45199400D02*
X67299999Y-45199400D01*
X67299999Y-45199400D02*
X67157142Y-45127971D01*
X66442856Y-44770828D02*
X66442856Y-45770828D01*
X66442856Y-44913685D02*
X66371427Y-44842257D01*
X66371427Y-44842257D02*
X66228570Y-44770828D01*
X66228570Y-44770828D02*
X66014284Y-44770828D01*
X66014284Y-44770828D02*
X65871427Y-44842257D01*
X65871427Y-44842257D02*
X65799999Y-44985114D01*
X65799999Y-44985114D02*
X65799999Y-45770828D01*
X64514284Y-45699400D02*
X64657141Y-45770828D01*
X64657141Y-45770828D02*
X64942856Y-45770828D01*
X64942856Y-45770828D02*
X65085713Y-45699400D01*
X65085713Y-45699400D02*
X65157141Y-45556542D01*
X65157141Y-45556542D02*
X65157141Y-44985114D01*
X65157141Y-44985114D02*
X65085713Y-44842257D01*
X65085713Y-44842257D02*
X64942856Y-44770828D01*
X64942856Y-44770828D02*
X64657141Y-44770828D01*
X64657141Y-44770828D02*
X64514284Y-44842257D01*
X64514284Y-44842257D02*
X64442856Y-44985114D01*
X64442856Y-44985114D02*
X64442856Y-45127971D01*
X64442856Y-45127971D02*
X65157141Y-45270828D01*
X63585713Y-45770828D02*
X63728570Y-45699400D01*
X63728570Y-45699400D02*
X63799999Y-45556542D01*
X63799999Y-45556542D02*
X63799999Y-44270828D01*
X62014285Y-44770828D02*
X61657142Y-45770828D01*
X61657142Y-45770828D02*
X61299999Y-44770828D01*
X59942856Y-45770828D02*
X60799999Y-45770828D01*
X60371428Y-45770828D02*
X60371428Y-44270828D01*
X60371428Y-44270828D02*
X60514285Y-44485114D01*
X60514285Y-44485114D02*
X60657142Y-44627971D01*
X60657142Y-44627971D02*
X60799999Y-44699400D01*
X59300000Y-45627971D02*
X59228571Y-45699400D01*
X59228571Y-45699400D02*
X59300000Y-45770828D01*
X59300000Y-45770828D02*
X59371428Y-45699400D01*
X59371428Y-45699400D02*
X59300000Y-45627971D01*
X59300000Y-45627971D02*
X59300000Y-45770828D01*
X58299999Y-44270828D02*
X58157142Y-44270828D01*
X58157142Y-44270828D02*
X58014285Y-44342257D01*
X58014285Y-44342257D02*
X57942857Y-44413685D01*
X57942857Y-44413685D02*
X57871428Y-44556542D01*
X57871428Y-44556542D02*
X57799999Y-44842257D01*
X57799999Y-44842257D02*
X57799999Y-45199400D01*
X57799999Y-45199400D02*
X57871428Y-45485114D01*
X57871428Y-45485114D02*
X57942857Y-45627971D01*
X57942857Y-45627971D02*
X58014285Y-45699400D01*
X58014285Y-45699400D02*
X58157142Y-45770828D01*
X58157142Y-45770828D02*
X58299999Y-45770828D01*
X58299999Y-45770828D02*
X58442857Y-45699400D01*
X58442857Y-45699400D02*
X58514285Y-45627971D01*
X58514285Y-45627971D02*
X58585714Y-45485114D01*
X58585714Y-45485114D02*
X58657142Y-45199400D01*
X58657142Y-45199400D02*
X58657142Y-44842257D01*
X58657142Y-44842257D02*
X58585714Y-44556542D01*
X58585714Y-44556542D02*
X58514285Y-44413685D01*
X58514285Y-44413685D02*
X58442857Y-44342257D01*
X58442857Y-44342257D02*
X58299999Y-44270828D01*
X83371427Y-46828685D02*
X83299999Y-46757257D01*
X83299999Y-46757257D02*
X83157142Y-46685828D01*
X83157142Y-46685828D02*
X82799999Y-46685828D01*
X82799999Y-46685828D02*
X82657142Y-46757257D01*
X82657142Y-46757257D02*
X82585713Y-46828685D01*
X82585713Y-46828685D02*
X82514284Y-46971542D01*
X82514284Y-46971542D02*
X82514284Y-47114400D01*
X82514284Y-47114400D02*
X82585713Y-47328685D01*
X82585713Y-47328685D02*
X83442856Y-48185828D01*
X83442856Y-48185828D02*
X82514284Y-48185828D01*
X81585713Y-46685828D02*
X81442856Y-46685828D01*
X81442856Y-46685828D02*
X81299999Y-46757257D01*
X81299999Y-46757257D02*
X81228571Y-46828685D01*
X81228571Y-46828685D02*
X81157142Y-46971542D01*
X81157142Y-46971542D02*
X81085713Y-47257257D01*
X81085713Y-47257257D02*
X81085713Y-47614400D01*
X81085713Y-47614400D02*
X81157142Y-47900114D01*
X81157142Y-47900114D02*
X81228571Y-48042971D01*
X81228571Y-48042971D02*
X81299999Y-48114400D01*
X81299999Y-48114400D02*
X81442856Y-48185828D01*
X81442856Y-48185828D02*
X81585713Y-48185828D01*
X81585713Y-48185828D02*
X81728571Y-48114400D01*
X81728571Y-48114400D02*
X81799999Y-48042971D01*
X81799999Y-48042971D02*
X81871428Y-47900114D01*
X81871428Y-47900114D02*
X81942856Y-47614400D01*
X81942856Y-47614400D02*
X81942856Y-47257257D01*
X81942856Y-47257257D02*
X81871428Y-46971542D01*
X81871428Y-46971542D02*
X81799999Y-46828685D01*
X81799999Y-46828685D02*
X81728571Y-46757257D01*
X81728571Y-46757257D02*
X81585713Y-46685828D01*
X80514285Y-46828685D02*
X80442857Y-46757257D01*
X80442857Y-46757257D02*
X80300000Y-46685828D01*
X80300000Y-46685828D02*
X79942857Y-46685828D01*
X79942857Y-46685828D02*
X79800000Y-46757257D01*
X79800000Y-46757257D02*
X79728571Y-46828685D01*
X79728571Y-46828685D02*
X79657142Y-46971542D01*
X79657142Y-46971542D02*
X79657142Y-47114400D01*
X79657142Y-47114400D02*
X79728571Y-47328685D01*
X79728571Y-47328685D02*
X80585714Y-48185828D01*
X80585714Y-48185828D02*
X79657142Y-48185828D01*
X79157143Y-46685828D02*
X78228571Y-46685828D01*
X78228571Y-46685828D02*
X78728571Y-47257257D01*
X78728571Y-47257257D02*
X78514286Y-47257257D01*
X78514286Y-47257257D02*
X78371429Y-47328685D01*
X78371429Y-47328685D02*
X78300000Y-47400114D01*
X78300000Y-47400114D02*
X78228571Y-47542971D01*
X78228571Y-47542971D02*
X78228571Y-47900114D01*
X78228571Y-47900114D02*
X78300000Y-48042971D01*
X78300000Y-48042971D02*
X78371429Y-48114400D01*
X78371429Y-48114400D02*
X78514286Y-48185828D01*
X78514286Y-48185828D02*
X78942857Y-48185828D01*
X78942857Y-48185828D02*
X79085714Y-48114400D01*
X79085714Y-48114400D02*
X79157143Y-48042971D01*
X76442858Y-48185828D02*
X76442858Y-46685828D01*
X76442858Y-46685828D02*
X75942858Y-47757257D01*
X75942858Y-47757257D02*
X75442858Y-46685828D01*
X75442858Y-46685828D02*
X75442858Y-48185828D01*
X74514286Y-48185828D02*
X74657143Y-48114400D01*
X74657143Y-48114400D02*
X74728572Y-48042971D01*
X74728572Y-48042971D02*
X74800000Y-47900114D01*
X74800000Y-47900114D02*
X74800000Y-47471542D01*
X74800000Y-47471542D02*
X74728572Y-47328685D01*
X74728572Y-47328685D02*
X74657143Y-47257257D01*
X74657143Y-47257257D02*
X74514286Y-47185828D01*
X74514286Y-47185828D02*
X74300000Y-47185828D01*
X74300000Y-47185828D02*
X74157143Y-47257257D01*
X74157143Y-47257257D02*
X74085715Y-47328685D01*
X74085715Y-47328685D02*
X74014286Y-47471542D01*
X74014286Y-47471542D02*
X74014286Y-47900114D01*
X74014286Y-47900114D02*
X74085715Y-48042971D01*
X74085715Y-48042971D02*
X74157143Y-48114400D01*
X74157143Y-48114400D02*
X74300000Y-48185828D01*
X74300000Y-48185828D02*
X74514286Y-48185828D01*
X72728572Y-47185828D02*
X72728572Y-48185828D01*
X73371429Y-47185828D02*
X73371429Y-47971542D01*
X73371429Y-47971542D02*
X73300000Y-48114400D01*
X73300000Y-48114400D02*
X73157143Y-48185828D01*
X73157143Y-48185828D02*
X72942857Y-48185828D01*
X72942857Y-48185828D02*
X72800000Y-48114400D01*
X72800000Y-48114400D02*
X72728572Y-48042971D01*
X72014286Y-47185828D02*
X72014286Y-48185828D01*
X72014286Y-47328685D02*
X71942857Y-47257257D01*
X71942857Y-47257257D02*
X71800000Y-47185828D01*
X71800000Y-47185828D02*
X71585714Y-47185828D01*
X71585714Y-47185828D02*
X71442857Y-47257257D01*
X71442857Y-47257257D02*
X71371429Y-47400114D01*
X71371429Y-47400114D02*
X71371429Y-48185828D01*
X70871428Y-47185828D02*
X70300000Y-47185828D01*
X70657143Y-46685828D02*
X70657143Y-47971542D01*
X70657143Y-47971542D02*
X70585714Y-48114400D01*
X70585714Y-48114400D02*
X70442857Y-48185828D01*
X70442857Y-48185828D02*
X70300000Y-48185828D01*
X69800000Y-47185828D02*
X69800000Y-48471542D01*
X69800000Y-48471542D02*
X69871428Y-48614400D01*
X69871428Y-48614400D02*
X70014285Y-48685828D01*
X70014285Y-48685828D02*
X70085714Y-48685828D01*
X69800000Y-46685828D02*
X69871428Y-46757257D01*
X69871428Y-46757257D02*
X69800000Y-46828685D01*
X69800000Y-46828685D02*
X69728571Y-46757257D01*
X69728571Y-46757257D02*
X69800000Y-46685828D01*
X69800000Y-46685828D02*
X69800000Y-46828685D01*
X68871428Y-48185828D02*
X69014285Y-48114400D01*
X69014285Y-48114400D02*
X69085714Y-48042971D01*
X69085714Y-48042971D02*
X69157142Y-47900114D01*
X69157142Y-47900114D02*
X69157142Y-47471542D01*
X69157142Y-47471542D02*
X69085714Y-47328685D01*
X69085714Y-47328685D02*
X69014285Y-47257257D01*
X69014285Y-47257257D02*
X68871428Y-47185828D01*
X68871428Y-47185828D02*
X68657142Y-47185828D01*
X68657142Y-47185828D02*
X68514285Y-47257257D01*
X68514285Y-47257257D02*
X68442857Y-47328685D01*
X68442857Y-47328685D02*
X68371428Y-47471542D01*
X68371428Y-47471542D02*
X68371428Y-47900114D01*
X68371428Y-47900114D02*
X68442857Y-48042971D01*
X68442857Y-48042971D02*
X68514285Y-48114400D01*
X68514285Y-48114400D02*
X68657142Y-48185828D01*
X68657142Y-48185828D02*
X68871428Y-48185828D01*
X67871428Y-47185828D02*
X67514285Y-48185828D01*
X67157142Y-47185828D02*
X67514285Y-48185828D01*
X67514285Y-48185828D02*
X67657142Y-48542971D01*
X67657142Y-48542971D02*
X67728571Y-48614400D01*
X67728571Y-48614400D02*
X67871428Y-48685828D01*
X65442857Y-48185828D02*
X65442857Y-46685828D01*
X65442857Y-46685828D02*
X64942857Y-47757257D01*
X64942857Y-47757257D02*
X64442857Y-46685828D01*
X64442857Y-46685828D02*
X64442857Y-48185828D01*
X63514285Y-48185828D02*
X63657142Y-48114400D01*
X63657142Y-48114400D02*
X63728571Y-48042971D01*
X63728571Y-48042971D02*
X63799999Y-47900114D01*
X63799999Y-47900114D02*
X63799999Y-47471542D01*
X63799999Y-47471542D02*
X63728571Y-47328685D01*
X63728571Y-47328685D02*
X63657142Y-47257257D01*
X63657142Y-47257257D02*
X63514285Y-47185828D01*
X63514285Y-47185828D02*
X63299999Y-47185828D01*
X63299999Y-47185828D02*
X63157142Y-47257257D01*
X63157142Y-47257257D02*
X63085714Y-47328685D01*
X63085714Y-47328685D02*
X63014285Y-47471542D01*
X63014285Y-47471542D02*
X63014285Y-47900114D01*
X63014285Y-47900114D02*
X63085714Y-48042971D01*
X63085714Y-48042971D02*
X63157142Y-48114400D01*
X63157142Y-48114400D02*
X63299999Y-48185828D01*
X63299999Y-48185828D02*
X63514285Y-48185828D01*
X61728571Y-48185828D02*
X61728571Y-46685828D01*
X61728571Y-48114400D02*
X61871428Y-48185828D01*
X61871428Y-48185828D02*
X62157142Y-48185828D01*
X62157142Y-48185828D02*
X62299999Y-48114400D01*
X62299999Y-48114400D02*
X62371428Y-48042971D01*
X62371428Y-48042971D02*
X62442856Y-47900114D01*
X62442856Y-47900114D02*
X62442856Y-47471542D01*
X62442856Y-47471542D02*
X62371428Y-47328685D01*
X62371428Y-47328685D02*
X62299999Y-47257257D01*
X62299999Y-47257257D02*
X62157142Y-47185828D01*
X62157142Y-47185828D02*
X61871428Y-47185828D01*
X61871428Y-47185828D02*
X61728571Y-47257257D01*
X60371428Y-47185828D02*
X60371428Y-48185828D01*
X61014285Y-47185828D02*
X61014285Y-47971542D01*
X61014285Y-47971542D02*
X60942856Y-48114400D01*
X60942856Y-48114400D02*
X60799999Y-48185828D01*
X60799999Y-48185828D02*
X60585713Y-48185828D01*
X60585713Y-48185828D02*
X60442856Y-48114400D01*
X60442856Y-48114400D02*
X60371428Y-48042971D01*
X59442856Y-48185828D02*
X59585713Y-48114400D01*
X59585713Y-48114400D02*
X59657142Y-47971542D01*
X59657142Y-47971542D02*
X59657142Y-46685828D01*
X58228571Y-48185828D02*
X58228571Y-47400114D01*
X58228571Y-47400114D02*
X58299999Y-47257257D01*
X58299999Y-47257257D02*
X58442856Y-47185828D01*
X58442856Y-47185828D02*
X58728571Y-47185828D01*
X58728571Y-47185828D02*
X58871428Y-47257257D01*
X58228571Y-48114400D02*
X58371428Y-48185828D01*
X58371428Y-48185828D02*
X58728571Y-48185828D01*
X58728571Y-48185828D02*
X58871428Y-48114400D01*
X58871428Y-48114400D02*
X58942856Y-47971542D01*
X58942856Y-47971542D02*
X58942856Y-47828685D01*
X58942856Y-47828685D02*
X58871428Y-47685828D01*
X58871428Y-47685828D02*
X58728571Y-47614400D01*
X58728571Y-47614400D02*
X58371428Y-47614400D01*
X58371428Y-47614400D02*
X58228571Y-47542971D01*
X57514285Y-48185828D02*
X57514285Y-47185828D01*
X57514285Y-47471542D02*
X57442856Y-47328685D01*
X57442856Y-47328685D02*
X57371428Y-47257257D01*
X57371428Y-47257257D02*
X57228570Y-47185828D01*
X57228570Y-47185828D02*
X57085713Y-47185828D01*
D11*
X74819048Y-152454819D02*
X74819048Y-153169104D01*
X74819048Y-153169104D02*
X74866667Y-153311961D01*
X74866667Y-153311961D02*
X74961905Y-153407200D01*
X74961905Y-153407200D02*
X75104762Y-153454819D01*
X75104762Y-153454819D02*
X75200000Y-153454819D01*
X73866667Y-153454819D02*
X74342857Y-153454819D01*
X74342857Y-153454819D02*
X74342857Y-152454819D01*
X72961905Y-153359580D02*
X73009524Y-153407200D01*
X73009524Y-153407200D02*
X73152381Y-153454819D01*
X73152381Y-153454819D02*
X73247619Y-153454819D01*
X73247619Y-153454819D02*
X73390476Y-153407200D01*
X73390476Y-153407200D02*
X73485714Y-153311961D01*
X73485714Y-153311961D02*
X73533333Y-153216723D01*
X73533333Y-153216723D02*
X73580952Y-153026247D01*
X73580952Y-153026247D02*
X73580952Y-152883390D01*
X73580952Y-152883390D02*
X73533333Y-152692914D01*
X73533333Y-152692914D02*
X73485714Y-152597676D01*
X73485714Y-152597676D02*
X73390476Y-152502438D01*
X73390476Y-152502438D02*
X73247619Y-152454819D01*
X73247619Y-152454819D02*
X73152381Y-152454819D01*
X73152381Y-152454819D02*
X73009524Y-152502438D01*
X73009524Y-152502438D02*
X72961905Y-152550057D01*
X72247619Y-152454819D02*
X72247619Y-153169104D01*
X72247619Y-153169104D02*
X72295238Y-153311961D01*
X72295238Y-153311961D02*
X72390476Y-153407200D01*
X72390476Y-153407200D02*
X72533333Y-153454819D01*
X72533333Y-153454819D02*
X72628571Y-153454819D01*
X71295238Y-153454819D02*
X71771428Y-153454819D01*
X71771428Y-153454819D02*
X71771428Y-152454819D01*
X70390476Y-153359580D02*
X70438095Y-153407200D01*
X70438095Y-153407200D02*
X70580952Y-153454819D01*
X70580952Y-153454819D02*
X70676190Y-153454819D01*
X70676190Y-153454819D02*
X70819047Y-153407200D01*
X70819047Y-153407200D02*
X70914285Y-153311961D01*
X70914285Y-153311961D02*
X70961904Y-153216723D01*
X70961904Y-153216723D02*
X71009523Y-153026247D01*
X71009523Y-153026247D02*
X71009523Y-152883390D01*
X71009523Y-152883390D02*
X70961904Y-152692914D01*
X70961904Y-152692914D02*
X70914285Y-152597676D01*
X70914285Y-152597676D02*
X70819047Y-152502438D01*
X70819047Y-152502438D02*
X70676190Y-152454819D01*
X70676190Y-152454819D02*
X70580952Y-152454819D01*
X70580952Y-152454819D02*
X70438095Y-152502438D01*
X70438095Y-152502438D02*
X70390476Y-152550057D01*
X69676190Y-152454819D02*
X69676190Y-153169104D01*
X69676190Y-153169104D02*
X69723809Y-153311961D01*
X69723809Y-153311961D02*
X69819047Y-153407200D01*
X69819047Y-153407200D02*
X69961904Y-153454819D01*
X69961904Y-153454819D02*
X70057142Y-153454819D01*
X68723809Y-153454819D02*
X69199999Y-153454819D01*
X69199999Y-153454819D02*
X69199999Y-152454819D01*
X67819047Y-153359580D02*
X67866666Y-153407200D01*
X67866666Y-153407200D02*
X68009523Y-153454819D01*
X68009523Y-153454819D02*
X68104761Y-153454819D01*
X68104761Y-153454819D02*
X68247618Y-153407200D01*
X68247618Y-153407200D02*
X68342856Y-153311961D01*
X68342856Y-153311961D02*
X68390475Y-153216723D01*
X68390475Y-153216723D02*
X68438094Y-153026247D01*
X68438094Y-153026247D02*
X68438094Y-152883390D01*
X68438094Y-152883390D02*
X68390475Y-152692914D01*
X68390475Y-152692914D02*
X68342856Y-152597676D01*
X68342856Y-152597676D02*
X68247618Y-152502438D01*
X68247618Y-152502438D02*
X68104761Y-152454819D01*
X68104761Y-152454819D02*
X68009523Y-152454819D01*
X68009523Y-152454819D02*
X67866666Y-152502438D01*
X67866666Y-152502438D02*
X67819047Y-152550057D01*
X67104761Y-152454819D02*
X67104761Y-153169104D01*
X67104761Y-153169104D02*
X67152380Y-153311961D01*
X67152380Y-153311961D02*
X67247618Y-153407200D01*
X67247618Y-153407200D02*
X67390475Y-153454819D01*
X67390475Y-153454819D02*
X67485713Y-153454819D01*
X66152380Y-153454819D02*
X66628570Y-153454819D01*
X66628570Y-153454819D02*
X66628570Y-152454819D01*
X65247618Y-153359580D02*
X65295237Y-153407200D01*
X65295237Y-153407200D02*
X65438094Y-153454819D01*
X65438094Y-153454819D02*
X65533332Y-153454819D01*
X65533332Y-153454819D02*
X65676189Y-153407200D01*
X65676189Y-153407200D02*
X65771427Y-153311961D01*
X65771427Y-153311961D02*
X65819046Y-153216723D01*
X65819046Y-153216723D02*
X65866665Y-153026247D01*
X65866665Y-153026247D02*
X65866665Y-152883390D01*
X65866665Y-152883390D02*
X65819046Y-152692914D01*
X65819046Y-152692914D02*
X65771427Y-152597676D01*
X65771427Y-152597676D02*
X65676189Y-152502438D01*
X65676189Y-152502438D02*
X65533332Y-152454819D01*
X65533332Y-152454819D02*
X65438094Y-152454819D01*
X65438094Y-152454819D02*
X65295237Y-152502438D01*
X65295237Y-152502438D02*
X65247618Y-152550057D01*
M02*
