%TF.GenerationSoftware,KiCad,Pcbnew,7.0.6*%
%TF.CreationDate,2023-07-26T19:09:21+01:00*%
%TF.ProjectId,Hypersoniq_Panel,48797065-7273-46f6-9e69-715f50616e65,rev?*%
%TF.SameCoordinates,Original*%
%TF.FileFunction,Soldermask,Top*%
%TF.FilePolarity,Negative*%
%FSLAX46Y46*%
G04 Gerber Fmt 4.6, Leading zero omitted, Abs format (unit mm)*
G04 Created by KiCad (PCBNEW 7.0.6) date 2023-07-26 19:09:21*
%MOMM*%
%LPD*%
G01*
G04 APERTURE LIST*
%ADD10C,0.100000*%
%ADD11C,0.500000*%
%ADD12C,0.700000*%
%ADD13C,0.150000*%
%ADD14C,0.200000*%
%ADD15C,6.000000*%
%ADD16C,7.000000*%
%ADD17O,5.000000X3.200000*%
G04 APERTURE END LIST*
D10*
X51100000Y-114700000D02*
X69700000Y-114700000D01*
X69700000Y-133600000D01*
X51100000Y-133600000D01*
X51100000Y-114700000D01*
G36*
X51100000Y-114700000D02*
G01*
X69700000Y-114700000D01*
X69700000Y-133600000D01*
X51100000Y-133600000D01*
X51100000Y-114700000D01*
G37*
X60200000Y-150955052D02*
X57800000Y-152755052D01*
X55400000Y-150955052D01*
X55400000Y-150300000D01*
X60200000Y-150300000D01*
X60200000Y-150955052D01*
G36*
X60200000Y-150955052D02*
G01*
X57800000Y-152755052D01*
X55400000Y-150955052D01*
X55400000Y-150300000D01*
X60200000Y-150300000D01*
X60200000Y-150955052D01*
G37*
D11*
X84200581Y-53200000D02*
G75*
G03*
X84200581Y-53200000I-8600581J0D01*
G01*
D10*
X62200000Y-93655052D02*
X60400000Y-95455052D01*
X58600000Y-93655052D01*
X58600000Y-92800000D01*
X62200000Y-92800000D01*
X62200000Y-93655052D01*
G36*
X62200000Y-93655052D02*
G01*
X60400000Y-95455052D01*
X58600000Y-93655052D01*
X58600000Y-92800000D01*
X62200000Y-92800000D01*
X62200000Y-93655052D01*
G37*
X70600000Y-114700000D02*
X89200000Y-114700000D01*
X89200000Y-133600000D01*
X70600000Y-133600000D01*
X70600000Y-114700000D01*
G36*
X70600000Y-114700000D02*
G01*
X89200000Y-114700000D01*
X89200000Y-133600000D01*
X70600000Y-133600000D01*
X70600000Y-114700000D01*
G37*
X85500000Y-150855052D02*
X83100000Y-152655052D01*
X80700000Y-150855052D01*
X80700000Y-150200000D01*
X85500000Y-150200000D01*
X85500000Y-150855052D01*
G36*
X85500000Y-150855052D02*
G01*
X83100000Y-152655052D01*
X80700000Y-150855052D01*
X80700000Y-150200000D01*
X85500000Y-150200000D01*
X85500000Y-150855052D01*
G37*
X80700000Y-133600000D02*
X85500000Y-133600000D01*
X85500000Y-146600000D01*
X80700000Y-146600000D01*
X80700000Y-133600000D01*
G36*
X80700000Y-133600000D02*
G01*
X85500000Y-133600000D01*
X85500000Y-146600000D01*
X80700000Y-146600000D01*
X80700000Y-133600000D01*
G37*
D12*
X71500581Y-76100000D02*
G75*
G03*
X71500581Y-76100000I-8600581J0D01*
G01*
D11*
X86200000Y-53200000D02*
G75*
G03*
X86200000Y-53200000I-10600000J0D01*
G01*
D10*
X55400000Y-133700000D02*
X60200000Y-133700000D01*
X60200000Y-146700000D01*
X55400000Y-146700000D01*
X55400000Y-133700000D01*
G36*
X55400000Y-133700000D02*
G01*
X60200000Y-133700000D01*
X60200000Y-146700000D01*
X55400000Y-146700000D01*
X55400000Y-133700000D01*
G37*
D11*
X88200000Y-53200000D02*
G75*
G03*
X88200000Y-53200000I-12600000J0D01*
G01*
D13*
G36*
X65398360Y-34501165D02*
G01*
X65396140Y-34533711D01*
X65393877Y-34567511D01*
X65391572Y-34602565D01*
X65389223Y-34638872D01*
X65386832Y-34676433D01*
X65384398Y-34715248D01*
X65381920Y-34755316D01*
X65379400Y-34796638D01*
X65376837Y-34839213D01*
X65374231Y-34883042D01*
X65371582Y-34928125D01*
X65368890Y-34974462D01*
X65366155Y-35022052D01*
X65363378Y-35070896D01*
X65360557Y-35120993D01*
X65357693Y-35172344D01*
X65354787Y-35224949D01*
X65351837Y-35278807D01*
X65348845Y-35333919D01*
X65345809Y-35390285D01*
X65342731Y-35447905D01*
X65339610Y-35506778D01*
X65336445Y-35566904D01*
X65333238Y-35628285D01*
X65329988Y-35690919D01*
X65326695Y-35754806D01*
X65323359Y-35819947D01*
X65319981Y-35886342D01*
X65316559Y-35953991D01*
X65313094Y-36022893D01*
X65309586Y-36093049D01*
X65306036Y-36164459D01*
X65304959Y-36199133D01*
X65303835Y-36234646D01*
X65302663Y-36270998D01*
X65301445Y-36308188D01*
X65300179Y-36346217D01*
X65298866Y-36385084D01*
X65297506Y-36424791D01*
X65296098Y-36465335D01*
X65294643Y-36506719D01*
X65293141Y-36548941D01*
X65291592Y-36592001D01*
X65289996Y-36635901D01*
X65288352Y-36680639D01*
X65286661Y-36726215D01*
X65284923Y-36772631D01*
X65283138Y-36819884D01*
X65281305Y-36867977D01*
X65279426Y-36916908D01*
X65277499Y-36966678D01*
X65275525Y-37017286D01*
X65273503Y-37068733D01*
X65271434Y-37121019D01*
X65269319Y-37174143D01*
X65267155Y-37228106D01*
X65264945Y-37282907D01*
X65262687Y-37338547D01*
X65260383Y-37395026D01*
X65258031Y-37452344D01*
X65255631Y-37510500D01*
X65253185Y-37569494D01*
X65250691Y-37629328D01*
X65248150Y-37690000D01*
X64196685Y-37690000D01*
X64173970Y-36986580D01*
X64143244Y-36996984D01*
X64112966Y-37007929D01*
X64081264Y-37019710D01*
X64050792Y-37031219D01*
X64023761Y-37041535D01*
X63991464Y-37054575D01*
X63961616Y-37066951D01*
X63934219Y-37078663D01*
X63903418Y-37092370D01*
X63876445Y-37105039D01*
X63849131Y-37118872D01*
X63833984Y-37127264D01*
X63727006Y-36882533D01*
X63713121Y-36850539D01*
X63699229Y-36820335D01*
X63686595Y-36793854D01*
X63672610Y-36765312D01*
X63657274Y-36734709D01*
X63640587Y-36702045D01*
X63622550Y-36667321D01*
X63617829Y-36658318D01*
X63597313Y-37690000D01*
X62436671Y-37690000D01*
X62376587Y-36164459D01*
X62375388Y-36126722D01*
X62374080Y-36088066D01*
X62372663Y-36048492D01*
X62371137Y-36007998D01*
X62369503Y-35966586D01*
X62367760Y-35924255D01*
X62365908Y-35881006D01*
X62363948Y-35836837D01*
X62361878Y-35791750D01*
X62359700Y-35745744D01*
X62357413Y-35698820D01*
X62355017Y-35650976D01*
X62352513Y-35602214D01*
X62349900Y-35552533D01*
X62347178Y-35501933D01*
X62344347Y-35450415D01*
X62341408Y-35397977D01*
X62338359Y-35344621D01*
X62335202Y-35290346D01*
X62331936Y-35235153D01*
X62328562Y-35179040D01*
X62325079Y-35122009D01*
X62321486Y-35064059D01*
X62317786Y-35005191D01*
X62313976Y-34945403D01*
X62310058Y-34884697D01*
X62306030Y-34823072D01*
X62301895Y-34760528D01*
X62297650Y-34697065D01*
X62293296Y-34632684D01*
X62288834Y-34567384D01*
X62284263Y-34501165D01*
X63731402Y-34501165D01*
X63634682Y-36462679D01*
X63672051Y-36465851D01*
X63709054Y-36468404D01*
X63745690Y-36470338D01*
X63781960Y-36471655D01*
X63817864Y-36472353D01*
X63853401Y-36472434D01*
X63888572Y-36471896D01*
X63923377Y-36470739D01*
X63958788Y-36469477D01*
X63991604Y-36467756D01*
X64027424Y-36465427D01*
X64058245Y-36463126D01*
X64090989Y-36460435D01*
X64125656Y-36457355D01*
X64162247Y-36453886D01*
X64056734Y-34501165D01*
X65398360Y-34501165D01*
G37*
G36*
X68401814Y-34501165D02*
G01*
X68014200Y-35223635D01*
X67994262Y-35261654D01*
X67973465Y-35301522D01*
X67951810Y-35343239D01*
X67929296Y-35386805D01*
X67905923Y-35432220D01*
X67881691Y-35479483D01*
X67856601Y-35528596D01*
X67830652Y-35579558D01*
X67817356Y-35605732D01*
X67803844Y-35632369D01*
X67790119Y-35659468D01*
X67776178Y-35687029D01*
X67762023Y-35715052D01*
X67747653Y-35743538D01*
X67733069Y-35772485D01*
X67718270Y-35801895D01*
X67703256Y-35831768D01*
X67688028Y-35862102D01*
X67672584Y-35892899D01*
X67656927Y-35924158D01*
X67641054Y-35955879D01*
X67624967Y-35988063D01*
X67608665Y-36020709D01*
X67592149Y-36053817D01*
X67588977Y-36091126D01*
X67585692Y-36130330D01*
X67582291Y-36171428D01*
X67578777Y-36214422D01*
X67575147Y-36259310D01*
X67571403Y-36306093D01*
X67567545Y-36354771D01*
X67563572Y-36405343D01*
X67559485Y-36457811D01*
X67555283Y-36512173D01*
X67550967Y-36568430D01*
X67546536Y-36626581D01*
X67544278Y-36656368D01*
X67541991Y-36686628D01*
X67539676Y-36717362D01*
X67537332Y-36748569D01*
X67534959Y-36780250D01*
X67532557Y-36812405D01*
X67530127Y-36845034D01*
X67527669Y-36878136D01*
X67526135Y-36914624D01*
X67524463Y-36953012D01*
X67522654Y-36993301D01*
X67520708Y-37035490D01*
X67518624Y-37079579D01*
X67516403Y-37125570D01*
X67514045Y-37173460D01*
X67511549Y-37223251D01*
X67508915Y-37274943D01*
X67506145Y-37328535D01*
X67503237Y-37384028D01*
X67500191Y-37441421D01*
X67498617Y-37470831D01*
X67497009Y-37500715D01*
X67495366Y-37531075D01*
X67493688Y-37561909D01*
X67491977Y-37593219D01*
X67490231Y-37625004D01*
X67488451Y-37657264D01*
X67486636Y-37690000D01*
X66431507Y-37690000D01*
X66430416Y-37656640D01*
X66429160Y-37620860D01*
X66427737Y-37582658D01*
X66426149Y-37542034D01*
X66424394Y-37498989D01*
X66422474Y-37453523D01*
X66420387Y-37405635D01*
X66418135Y-37355326D01*
X66415716Y-37302595D01*
X66413131Y-37247443D01*
X66410381Y-37189869D01*
X66408943Y-37160175D01*
X66407464Y-37129874D01*
X66405944Y-37098969D01*
X66404382Y-37067458D01*
X66402778Y-37035342D01*
X66401133Y-37002620D01*
X66399446Y-36969293D01*
X66397718Y-36935361D01*
X66395949Y-36900823D01*
X66394138Y-36865680D01*
X66390729Y-36822188D01*
X66388027Y-36789445D01*
X66384981Y-36753701D01*
X66381593Y-36714958D01*
X66377860Y-36673216D01*
X66373784Y-36628473D01*
X66369365Y-36580731D01*
X66364602Y-36529990D01*
X66359496Y-36476249D01*
X66354047Y-36419508D01*
X66351193Y-36390013D01*
X66348253Y-36359768D01*
X66345228Y-36328773D01*
X66342117Y-36297028D01*
X66338920Y-36264533D01*
X66335637Y-36231289D01*
X66332268Y-36197294D01*
X66328813Y-36162550D01*
X66325273Y-36127055D01*
X66321646Y-36090811D01*
X66317934Y-36053817D01*
X66303998Y-36024986D01*
X66288934Y-35993996D01*
X66272742Y-35960849D01*
X66255423Y-35925543D01*
X66236976Y-35888080D01*
X66217401Y-35848458D01*
X66196699Y-35806678D01*
X66174869Y-35762740D01*
X66151911Y-35716644D01*
X66127825Y-35668390D01*
X66102612Y-35617978D01*
X66076271Y-35565407D01*
X66062677Y-35538313D01*
X66048802Y-35510679D01*
X66034645Y-35482505D01*
X66020206Y-35453792D01*
X66005485Y-35424540D01*
X65990482Y-35394747D01*
X65975197Y-35364416D01*
X65959630Y-35333545D01*
X65938715Y-35294744D01*
X65916639Y-35254181D01*
X65893401Y-35211854D01*
X65869000Y-35167765D01*
X65843438Y-35121912D01*
X65816713Y-35074296D01*
X65788827Y-35024917D01*
X65759778Y-34973775D01*
X65744818Y-34947543D01*
X65729567Y-34920870D01*
X65714026Y-34893756D01*
X65698194Y-34866201D01*
X65682072Y-34838206D01*
X65665660Y-34809770D01*
X65648956Y-34780893D01*
X65631963Y-34751575D01*
X65614678Y-34721816D01*
X65597104Y-34691617D01*
X65579238Y-34660977D01*
X65561083Y-34629896D01*
X65542636Y-34598374D01*
X65523899Y-34566412D01*
X65504872Y-34534009D01*
X65485554Y-34501165D01*
X67006699Y-34501165D01*
X67016900Y-34537309D01*
X67025677Y-34567618D01*
X67035421Y-34600670D01*
X67046131Y-34636466D01*
X67057807Y-34675005D01*
X67070448Y-34716287D01*
X67079413Y-34745333D01*
X67088807Y-34775598D01*
X67098630Y-34807083D01*
X67108882Y-34839786D01*
X67119564Y-34873709D01*
X67130675Y-34908852D01*
X67136392Y-34926880D01*
X67334228Y-35487418D01*
X67349418Y-35449956D01*
X67365587Y-35409287D01*
X67376910Y-35380393D01*
X67388668Y-35350074D01*
X67400861Y-35318329D01*
X67413489Y-35285159D01*
X67426552Y-35250563D01*
X67440050Y-35214542D01*
X67453984Y-35177096D01*
X67468352Y-35138224D01*
X67483155Y-35097926D01*
X67498394Y-35056204D01*
X67514067Y-35013056D01*
X67530176Y-34968483D01*
X67546720Y-34922484D01*
X67555469Y-34893755D01*
X67564683Y-34862798D01*
X67574360Y-34829613D01*
X67584501Y-34794199D01*
X67595106Y-34756557D01*
X67606174Y-34716687D01*
X67617706Y-34674589D01*
X67625651Y-34645286D01*
X67633803Y-34614992D01*
X67642160Y-34583708D01*
X67650724Y-34551433D01*
X67659494Y-34518169D01*
X67663956Y-34501165D01*
X68401814Y-34501165D01*
G37*
G36*
X69486369Y-34407674D02*
G01*
X69532792Y-34408569D01*
X69578625Y-34410061D01*
X69623868Y-34412150D01*
X69668521Y-34414835D01*
X69712585Y-34418118D01*
X69756059Y-34421997D01*
X69798944Y-34426472D01*
X69841239Y-34431545D01*
X69882944Y-34437214D01*
X69924060Y-34443480D01*
X69964586Y-34450343D01*
X70004523Y-34457803D01*
X70043870Y-34465859D01*
X70082627Y-34474513D01*
X70120795Y-34483763D01*
X70158373Y-34493609D01*
X70195362Y-34504053D01*
X70231760Y-34515093D01*
X70267570Y-34526730D01*
X70302789Y-34538964D01*
X70337419Y-34551795D01*
X70371460Y-34565222D01*
X70404911Y-34579246D01*
X70437772Y-34593867D01*
X70470043Y-34609085D01*
X70501725Y-34624899D01*
X70532817Y-34641311D01*
X70563320Y-34658319D01*
X70593233Y-34675924D01*
X70622557Y-34694125D01*
X70651290Y-34712923D01*
X70683117Y-34734993D01*
X70713933Y-34757694D01*
X70743739Y-34781029D01*
X70772534Y-34804995D01*
X70800319Y-34829595D01*
X70827094Y-34854827D01*
X70852858Y-34880691D01*
X70877612Y-34907188D01*
X70901356Y-34934318D01*
X70924089Y-34962080D01*
X70945812Y-34990474D01*
X70966524Y-35019502D01*
X70986226Y-35049161D01*
X71004918Y-35079454D01*
X71022599Y-35110379D01*
X71039270Y-35141936D01*
X71054931Y-35174126D01*
X71069581Y-35206948D01*
X71083221Y-35240404D01*
X71095851Y-35274491D01*
X71107470Y-35309211D01*
X71118079Y-35344564D01*
X71127677Y-35380549D01*
X71136265Y-35417167D01*
X71143843Y-35454418D01*
X71150410Y-35492300D01*
X71155967Y-35530816D01*
X71160514Y-35569964D01*
X71164050Y-35609745D01*
X71166576Y-35650158D01*
X71168092Y-35691203D01*
X71168597Y-35732882D01*
X71168231Y-35769607D01*
X71167134Y-35805871D01*
X71165306Y-35841672D01*
X71162746Y-35877012D01*
X71159456Y-35911888D01*
X71155433Y-35946303D01*
X71150680Y-35980255D01*
X71145195Y-36013746D01*
X71138979Y-36046773D01*
X71132032Y-36079339D01*
X71124353Y-36111442D01*
X71115943Y-36143084D01*
X71106802Y-36174262D01*
X71096930Y-36204979D01*
X71086326Y-36235234D01*
X71074991Y-36265026D01*
X71062924Y-36294356D01*
X71050127Y-36323223D01*
X71036598Y-36351629D01*
X71022337Y-36379572D01*
X71007346Y-36407053D01*
X70991623Y-36434071D01*
X70975169Y-36460628D01*
X70957983Y-36486722D01*
X70940066Y-36512354D01*
X70921418Y-36537523D01*
X70902039Y-36562231D01*
X70881928Y-36586476D01*
X70861086Y-36610259D01*
X70839513Y-36633580D01*
X70817208Y-36656438D01*
X70794173Y-36678834D01*
X70770579Y-36700653D01*
X70746508Y-36721779D01*
X70721961Y-36742212D01*
X70696937Y-36761953D01*
X70671437Y-36781001D01*
X70645460Y-36799357D01*
X70619007Y-36817019D01*
X70592077Y-36833989D01*
X70564670Y-36850267D01*
X70536787Y-36865852D01*
X70508428Y-36880744D01*
X70479592Y-36894943D01*
X70450279Y-36908450D01*
X70420490Y-36921264D01*
X70390224Y-36933386D01*
X70359481Y-36944815D01*
X70328262Y-36955551D01*
X70296567Y-36965594D01*
X70264395Y-36974945D01*
X70231746Y-36983603D01*
X70198621Y-36991569D01*
X70165019Y-36998842D01*
X70130941Y-37005422D01*
X70096386Y-37011310D01*
X70061355Y-37016505D01*
X70025847Y-37021007D01*
X69989862Y-37024817D01*
X69953401Y-37027933D01*
X69916463Y-37030358D01*
X69879049Y-37032089D01*
X69841158Y-37033128D01*
X69802791Y-37033475D01*
X69777878Y-37690000D01*
X68642149Y-37690000D01*
X68594788Y-36470739D01*
X69818911Y-36470739D01*
X69849340Y-36469377D01*
X69878803Y-36467305D01*
X69934831Y-36461031D01*
X69986995Y-36451917D01*
X70035295Y-36439965D01*
X70079731Y-36425173D01*
X70120303Y-36407541D01*
X70157011Y-36387071D01*
X70189855Y-36363761D01*
X70218835Y-36337612D01*
X70243951Y-36308623D01*
X70265203Y-36276795D01*
X70282591Y-36242128D01*
X70296115Y-36204621D01*
X70305775Y-36164275D01*
X70311571Y-36121090D01*
X70313503Y-36075066D01*
X70312014Y-36037001D01*
X70307549Y-36001392D01*
X70300107Y-35968239D01*
X70289689Y-35937542D01*
X70276294Y-35909300D01*
X70259922Y-35883515D01*
X70240573Y-35860185D01*
X70218248Y-35839310D01*
X70192946Y-35820892D01*
X70164667Y-35804929D01*
X70133412Y-35791423D01*
X70099180Y-35780372D01*
X70061971Y-35771776D01*
X70021785Y-35765637D01*
X69978623Y-35761953D01*
X69932484Y-35760725D01*
X69900991Y-35761504D01*
X69868980Y-35763842D01*
X69839427Y-35767320D01*
X69818911Y-36470739D01*
X68594788Y-36470739D01*
X68582065Y-36143210D01*
X68580386Y-36105405D01*
X68578645Y-36066728D01*
X68576842Y-36027180D01*
X68574978Y-35986761D01*
X68573053Y-35945469D01*
X68571066Y-35903307D01*
X68569017Y-35860273D01*
X68566907Y-35816367D01*
X68564735Y-35771590D01*
X68562502Y-35725941D01*
X68560207Y-35679420D01*
X68557851Y-35632028D01*
X68555433Y-35583765D01*
X68552953Y-35534630D01*
X68550413Y-35484623D01*
X68547810Y-35433745D01*
X68545146Y-35381995D01*
X68542420Y-35329374D01*
X68539633Y-35275881D01*
X68536785Y-35221517D01*
X68533875Y-35166281D01*
X68530903Y-35110174D01*
X68527870Y-35053195D01*
X68524775Y-34995344D01*
X68521619Y-34936622D01*
X68518401Y-34877029D01*
X68515121Y-34816564D01*
X68511780Y-34755227D01*
X68508378Y-34693019D01*
X68504914Y-34629939D01*
X68501388Y-34565988D01*
X68497801Y-34501165D01*
X68539175Y-34489808D01*
X68582878Y-34479183D01*
X68628911Y-34469291D01*
X68677274Y-34460132D01*
X68727967Y-34451706D01*
X68780989Y-34444012D01*
X68836342Y-34437051D01*
X68894024Y-34430823D01*
X68923739Y-34427984D01*
X68954036Y-34425327D01*
X68984916Y-34422855D01*
X69016378Y-34420565D01*
X69048423Y-34418458D01*
X69081050Y-34416535D01*
X69114260Y-34414795D01*
X69148052Y-34413237D01*
X69182427Y-34411864D01*
X69217384Y-34410673D01*
X69252923Y-34409665D01*
X69289045Y-34408841D01*
X69325750Y-34408200D01*
X69363036Y-34407742D01*
X69400906Y-34407467D01*
X69439357Y-34407376D01*
X69486369Y-34407674D01*
G37*
G36*
X73456908Y-34501165D02*
G01*
X73368248Y-35767320D01*
X73333438Y-35763533D01*
X73303304Y-35760465D01*
X73267629Y-35756961D01*
X73237237Y-35754048D01*
X73203727Y-35750891D01*
X73167101Y-35747488D01*
X73127358Y-35743841D01*
X73084497Y-35739949D01*
X73054192Y-35737219D01*
X73038520Y-35735812D01*
X73005807Y-35733561D01*
X72972514Y-35731476D01*
X72938642Y-35729559D01*
X72904190Y-35727810D01*
X72869159Y-35726228D01*
X72833548Y-35724813D01*
X72797357Y-35723566D01*
X72760587Y-35722486D01*
X72723237Y-35721574D01*
X72685308Y-35720829D01*
X72659699Y-35720425D01*
X72628925Y-36142477D01*
X72658346Y-36143210D01*
X72690005Y-36143759D01*
X72723902Y-36144125D01*
X72760037Y-36144309D01*
X72798411Y-36144309D01*
X72839023Y-36144125D01*
X72881874Y-36143759D01*
X72926962Y-36143210D01*
X72974289Y-36142477D01*
X73023854Y-36141561D01*
X73075657Y-36140462D01*
X73129699Y-36139180D01*
X73185979Y-36137714D01*
X73244497Y-36136065D01*
X73274595Y-36135172D01*
X73305253Y-36134234D01*
X73336471Y-36133249D01*
X73368248Y-36132219D01*
X73360506Y-36161141D01*
X73351475Y-36197077D01*
X73343324Y-36230874D01*
X73334348Y-36269159D01*
X73327075Y-36300818D01*
X73319338Y-36335001D01*
X73311138Y-36371709D01*
X73302474Y-36410942D01*
X73296441Y-36438499D01*
X73289388Y-36473052D01*
X73282519Y-36508933D01*
X73275833Y-36546142D01*
X73269330Y-36584678D01*
X73264573Y-36614453D01*
X73259919Y-36644974D01*
X73255368Y-36676242D01*
X73250920Y-36708258D01*
X73246575Y-36741020D01*
X73245150Y-36752107D01*
X73216333Y-36745701D01*
X73182716Y-36739812D01*
X73149537Y-36734740D01*
X73110771Y-36729348D01*
X73078030Y-36725093D01*
X73042147Y-36720658D01*
X73003120Y-36716043D01*
X72960951Y-36711247D01*
X72946196Y-36709609D01*
X72916681Y-36708097D01*
X72883823Y-36706861D01*
X72847621Y-36705899D01*
X72818276Y-36705358D01*
X72787051Y-36704972D01*
X72753945Y-36704740D01*
X72718959Y-36704663D01*
X72682092Y-36704740D01*
X72643345Y-36704972D01*
X72616468Y-36705212D01*
X72595952Y-37127264D01*
X72627220Y-37126873D01*
X72663048Y-37126251D01*
X72703436Y-37125396D01*
X72732894Y-37124698D01*
X72764378Y-37123897D01*
X72797889Y-37122992D01*
X72833426Y-37121985D01*
X72870990Y-37120874D01*
X72910580Y-37119660D01*
X72952197Y-37118344D01*
X72995840Y-37116924D01*
X73041510Y-37115402D01*
X73089206Y-37113776D01*
X73138928Y-37112047D01*
X73164549Y-37111144D01*
X73197256Y-37108723D01*
X73229982Y-37105524D01*
X73259743Y-37102192D01*
X73292687Y-37098174D01*
X73328814Y-37093468D01*
X73357998Y-37089488D01*
X73388973Y-37085122D01*
X73421737Y-37080369D01*
X73414147Y-37109882D01*
X73405460Y-37143881D01*
X73396965Y-37177238D01*
X73389692Y-37205846D01*
X73381646Y-37237533D01*
X73372827Y-37272298D01*
X73363236Y-37310142D01*
X73352872Y-37351064D01*
X73345533Y-37380055D01*
X73338195Y-37411826D01*
X73330467Y-37445589D01*
X73322349Y-37481344D01*
X73313843Y-37519091D01*
X73307207Y-37548708D01*
X73300353Y-37579446D01*
X73293280Y-37611305D01*
X73285988Y-37644284D01*
X73278477Y-37678384D01*
X73275924Y-37690000D01*
X71431646Y-37690000D01*
X71371563Y-36062609D01*
X71370508Y-36027279D01*
X71369359Y-35991080D01*
X71368115Y-35954012D01*
X71366777Y-35916075D01*
X71365344Y-35877270D01*
X71363817Y-35837596D01*
X71362196Y-35797053D01*
X71360480Y-35755642D01*
X71358670Y-35713362D01*
X71356765Y-35670213D01*
X71354766Y-35626196D01*
X71352672Y-35581310D01*
X71350484Y-35535555D01*
X71348201Y-35488932D01*
X71345824Y-35441440D01*
X71343353Y-35393079D01*
X71340787Y-35343849D01*
X71338126Y-35293751D01*
X71335371Y-35242784D01*
X71332522Y-35190949D01*
X71329578Y-35138244D01*
X71326540Y-35084672D01*
X71323407Y-35030230D01*
X71320180Y-34974920D01*
X71316858Y-34918741D01*
X71313442Y-34861693D01*
X71309932Y-34803777D01*
X71306327Y-34744992D01*
X71302627Y-34685338D01*
X71298834Y-34624816D01*
X71294945Y-34563425D01*
X71290963Y-34501165D01*
X73456908Y-34501165D01*
G37*
G36*
X74762311Y-34408612D02*
G01*
X74865584Y-34412322D01*
X74965472Y-34418504D01*
X75061973Y-34427159D01*
X75155088Y-34438288D01*
X75244817Y-34451889D01*
X75331160Y-34467963D01*
X75414118Y-34486510D01*
X75493689Y-34507530D01*
X75569874Y-34531024D01*
X75642673Y-34556990D01*
X75712086Y-34585429D01*
X75778113Y-34616341D01*
X75840755Y-34649726D01*
X75900010Y-34685584D01*
X75955879Y-34723914D01*
X76008362Y-34764718D01*
X76057459Y-34807995D01*
X76103170Y-34853745D01*
X76145495Y-34901967D01*
X76184434Y-34952663D01*
X76219987Y-35005832D01*
X76252154Y-35061473D01*
X76280935Y-35119588D01*
X76306331Y-35180175D01*
X76328340Y-35243236D01*
X76346963Y-35308769D01*
X76362200Y-35376775D01*
X76374051Y-35447255D01*
X76382516Y-35520207D01*
X76387595Y-35595632D01*
X76389288Y-35673531D01*
X76388458Y-35721364D01*
X76385968Y-35768510D01*
X76381817Y-35814970D01*
X76376007Y-35860743D01*
X76368537Y-35905828D01*
X76359406Y-35950227D01*
X76348616Y-35993939D01*
X76336165Y-36036964D01*
X76322054Y-36079302D01*
X76306283Y-36120953D01*
X76288852Y-36161917D01*
X76269761Y-36202194D01*
X76249010Y-36241784D01*
X76226599Y-36280688D01*
X76202528Y-36318904D01*
X76176796Y-36356434D01*
X76152980Y-36388373D01*
X76128425Y-36419162D01*
X76103131Y-36448800D01*
X76077100Y-36477288D01*
X76050329Y-36504625D01*
X76022820Y-36530811D01*
X75994573Y-36555847D01*
X75965587Y-36579733D01*
X75935863Y-36602467D01*
X75905401Y-36624051D01*
X75874200Y-36644485D01*
X75842260Y-36663767D01*
X75809582Y-36681900D01*
X75776166Y-36698881D01*
X75742011Y-36714712D01*
X75707117Y-36729392D01*
X75724863Y-36755862D01*
X75741749Y-36779922D01*
X75761700Y-36807588D01*
X75784717Y-36838861D01*
X75810799Y-36873740D01*
X75829890Y-36898996D01*
X75850343Y-36925855D01*
X75872159Y-36954317D01*
X75895337Y-36984382D01*
X75919878Y-37016050D01*
X75945781Y-37049320D01*
X75973046Y-37084193D01*
X76001674Y-37120669D01*
X76024745Y-37146852D01*
X76049991Y-37174568D01*
X76077415Y-37203816D01*
X76107015Y-37234597D01*
X76127958Y-37255969D01*
X76149869Y-37278023D01*
X76172746Y-37300757D01*
X76196592Y-37324173D01*
X76221404Y-37348270D01*
X76247184Y-37373049D01*
X76273932Y-37398508D01*
X76301647Y-37424649D01*
X76330329Y-37451471D01*
X76359979Y-37478974D01*
X76332158Y-37489873D01*
X76297056Y-37504253D01*
X76265950Y-37517322D01*
X76230749Y-37532348D01*
X76191452Y-37549333D01*
X76162979Y-37561743D01*
X76132685Y-37575024D01*
X76100571Y-37589175D01*
X76066637Y-37604196D01*
X76030882Y-37620087D01*
X75993307Y-37636848D01*
X75953911Y-37654479D01*
X75933531Y-37663621D01*
X75904785Y-37677251D01*
X75876252Y-37690847D01*
X75847930Y-37704408D01*
X75819820Y-37717935D01*
X75791922Y-37731427D01*
X75764236Y-37744885D01*
X75736761Y-37758309D01*
X75709499Y-37771699D01*
X75682448Y-37785054D01*
X75655609Y-37798375D01*
X75628982Y-37811661D01*
X75602566Y-37824913D01*
X75576363Y-37838131D01*
X75537454Y-37857893D01*
X75499023Y-37877578D01*
X75476686Y-37849256D01*
X75453691Y-37818459D01*
X75433455Y-37790612D01*
X75410655Y-37758696D01*
X75385292Y-37722709D01*
X75366960Y-37696457D01*
X75347488Y-37668395D01*
X75326877Y-37638525D01*
X75305127Y-37606846D01*
X75282238Y-37573358D01*
X75258210Y-37538061D01*
X75233042Y-37500956D01*
X75214534Y-37467759D01*
X75194454Y-37430545D01*
X75180194Y-37403503D01*
X75165236Y-37374674D01*
X75149580Y-37344060D01*
X75133225Y-37311660D01*
X75116172Y-37277473D01*
X75098420Y-37241501D01*
X75079970Y-37203743D01*
X75060822Y-37164198D01*
X75040976Y-37122868D01*
X75020431Y-37079751D01*
X74999187Y-37034849D01*
X74977245Y-36988160D01*
X74954605Y-36939685D01*
X74950209Y-36939685D01*
X74929692Y-37690000D01*
X73769783Y-37690000D01*
X73766872Y-37631104D01*
X73765363Y-37599936D01*
X73763818Y-37567622D01*
X73762238Y-37534162D01*
X73760621Y-37499556D01*
X73758969Y-37463803D01*
X73757281Y-37426904D01*
X73755557Y-37388859D01*
X73753798Y-37349667D01*
X73752002Y-37309329D01*
X73750171Y-37267845D01*
X73748304Y-37225214D01*
X73746402Y-37181437D01*
X73744463Y-37136514D01*
X73742489Y-37090444D01*
X73740479Y-37043228D01*
X73738433Y-36994866D01*
X73736352Y-36945358D01*
X73734234Y-36894703D01*
X73732081Y-36842902D01*
X73729892Y-36789954D01*
X73727668Y-36735860D01*
X73725407Y-36680620D01*
X73723111Y-36624234D01*
X73720779Y-36566701D01*
X73718799Y-36517634D01*
X74971458Y-36517634D01*
X75003147Y-36516919D01*
X75034192Y-36514774D01*
X75064593Y-36511200D01*
X75094350Y-36506196D01*
X75123463Y-36499763D01*
X75151932Y-36491900D01*
X75179758Y-36482607D01*
X75215856Y-36467992D01*
X75250809Y-36450836D01*
X75276273Y-36436301D01*
X75307962Y-36415616D01*
X75336534Y-36393127D01*
X75361989Y-36368836D01*
X75384328Y-36342741D01*
X75403549Y-36314843D01*
X75419653Y-36285141D01*
X75432640Y-36253637D01*
X75442511Y-36220329D01*
X75449264Y-36185218D01*
X75452901Y-36148304D01*
X75453593Y-36122693D01*
X75452144Y-36084712D01*
X75447797Y-36048805D01*
X75440552Y-36014971D01*
X75430409Y-35983211D01*
X75417368Y-35953525D01*
X75401429Y-35925913D01*
X75382592Y-35900374D01*
X75360857Y-35876909D01*
X75336224Y-35855517D01*
X75308693Y-35836199D01*
X75288729Y-35824473D01*
X75257348Y-35809314D01*
X75224020Y-35796446D01*
X75188746Y-35785867D01*
X75151526Y-35777578D01*
X75122334Y-35772864D01*
X75092046Y-35769438D01*
X75060664Y-35767300D01*
X75028187Y-35766450D01*
X74994615Y-35766888D01*
X74983182Y-35767320D01*
X74971458Y-36517634D01*
X73718799Y-36517634D01*
X73718411Y-36508022D01*
X73716008Y-36448196D01*
X73713568Y-36387225D01*
X73711093Y-36325107D01*
X73708582Y-36261842D01*
X73706036Y-36197431D01*
X73704799Y-36158686D01*
X73703471Y-36119021D01*
X73702052Y-36078435D01*
X73700540Y-36036930D01*
X73698937Y-35994504D01*
X73697243Y-35951157D01*
X73695457Y-35906891D01*
X73693579Y-35861704D01*
X73691610Y-35815598D01*
X73689549Y-35768571D01*
X73687397Y-35720623D01*
X73685153Y-35671756D01*
X73682817Y-35621968D01*
X73680390Y-35571261D01*
X73677872Y-35519633D01*
X73675261Y-35467084D01*
X73672559Y-35413616D01*
X73669766Y-35359227D01*
X73666881Y-35303918D01*
X73663904Y-35247689D01*
X73660836Y-35190540D01*
X73657676Y-35132471D01*
X73654424Y-35073481D01*
X73651081Y-35013571D01*
X73647646Y-34952741D01*
X73644120Y-34890991D01*
X73640502Y-34828320D01*
X73636793Y-34764730D01*
X73632992Y-34700219D01*
X73629099Y-34634788D01*
X73625115Y-34568436D01*
X73621039Y-34501165D01*
X73656388Y-34495395D01*
X73691542Y-34489808D01*
X73726501Y-34484404D01*
X73761265Y-34479183D01*
X73795835Y-34474146D01*
X73830210Y-34469291D01*
X73864391Y-34464620D01*
X73898377Y-34460132D01*
X73932168Y-34455827D01*
X73965765Y-34451706D01*
X73999167Y-34447767D01*
X74032375Y-34444012D01*
X74065388Y-34440440D01*
X74098206Y-34437051D01*
X74130829Y-34433845D01*
X74163258Y-34430823D01*
X74195493Y-34427984D01*
X74227532Y-34425327D01*
X74259377Y-34422855D01*
X74291028Y-34420565D01*
X74322484Y-34418458D01*
X74353745Y-34416535D01*
X74384811Y-34414795D01*
X74415683Y-34413237D01*
X74446361Y-34411864D01*
X74476843Y-34410673D01*
X74507131Y-34409665D01*
X74537225Y-34408841D01*
X74567123Y-34408200D01*
X74596828Y-34407742D01*
X74626337Y-34407467D01*
X74655652Y-34407376D01*
X74762311Y-34408612D01*
G37*
G36*
X78455582Y-35814214D02*
G01*
X78418637Y-35803224D01*
X78384004Y-35793698D01*
X78351684Y-35785638D01*
X78321676Y-35779043D01*
X78287419Y-35772861D01*
X78256775Y-35768968D01*
X78224773Y-35767320D01*
X78194941Y-35768983D01*
X78165897Y-35773974D01*
X78137640Y-35782293D01*
X78110169Y-35793938D01*
X78083486Y-35808911D01*
X78057590Y-35827212D01*
X78047452Y-35835464D01*
X78024784Y-35856930D01*
X78005137Y-35879931D01*
X77988514Y-35904466D01*
X77974912Y-35930535D01*
X77964334Y-35958138D01*
X77956777Y-35987276D01*
X77952243Y-36017947D01*
X77950732Y-36050153D01*
X77955061Y-36086825D01*
X77964759Y-36122809D01*
X77975668Y-36153674D01*
X77989694Y-36187862D01*
X78006837Y-36225372D01*
X78019998Y-36252226D01*
X78034544Y-36280556D01*
X78050475Y-36310363D01*
X78067791Y-36341647D01*
X78086493Y-36374408D01*
X78106580Y-36408646D01*
X78128053Y-36444361D01*
X78149525Y-36480631D01*
X78169612Y-36516535D01*
X78188314Y-36552072D01*
X78205630Y-36587243D01*
X78221561Y-36622048D01*
X78236107Y-36656486D01*
X78249268Y-36690558D01*
X78261043Y-36724263D01*
X78271433Y-36757602D01*
X78280437Y-36790575D01*
X78288056Y-36823182D01*
X78294290Y-36855422D01*
X78299139Y-36887295D01*
X78302602Y-36918803D01*
X78304680Y-36949944D01*
X78305373Y-36980718D01*
X78304351Y-37024731D01*
X78301286Y-37067741D01*
X78296177Y-37109750D01*
X78289024Y-37150757D01*
X78279828Y-37190762D01*
X78268588Y-37229766D01*
X78255304Y-37267768D01*
X78239977Y-37304767D01*
X78222606Y-37340766D01*
X78203192Y-37375762D01*
X78181733Y-37409757D01*
X78158232Y-37442749D01*
X78132686Y-37474740D01*
X78105098Y-37505730D01*
X78075465Y-37535717D01*
X78043789Y-37564703D01*
X78012101Y-37591233D01*
X77979503Y-37616051D01*
X77945995Y-37639158D01*
X77911577Y-37660553D01*
X77876249Y-37680236D01*
X77840010Y-37698208D01*
X77802861Y-37714469D01*
X77764802Y-37729017D01*
X77725833Y-37741854D01*
X77685954Y-37752980D01*
X77645164Y-37762394D01*
X77603465Y-37770096D01*
X77560855Y-37776087D01*
X77517335Y-37780366D01*
X77472904Y-37782933D01*
X77427564Y-37783789D01*
X77385944Y-37783606D01*
X77345716Y-37783056D01*
X77306879Y-37782140D01*
X77269432Y-37780858D01*
X77233377Y-37779209D01*
X77198712Y-37777194D01*
X77165439Y-37774813D01*
X77133557Y-37772065D01*
X77103065Y-37768951D01*
X77059937Y-37763593D01*
X77019938Y-37757411D01*
X76983069Y-37750404D01*
X76949330Y-37742573D01*
X76928576Y-37736894D01*
X76922190Y-37704705D01*
X76916127Y-37674806D01*
X76909218Y-37641221D01*
X76901461Y-37603949D01*
X76895088Y-37573576D01*
X76888238Y-37541129D01*
X76880911Y-37506608D01*
X76873108Y-37470014D01*
X76864829Y-37431346D01*
X76857158Y-37401591D01*
X76848800Y-37369477D01*
X76839755Y-37335004D01*
X76830024Y-37298173D01*
X76822274Y-37269002D01*
X76814139Y-37238504D01*
X76805616Y-37206680D01*
X76796708Y-37173529D01*
X76787413Y-37139051D01*
X76784228Y-37127264D01*
X76825380Y-37135645D01*
X76863930Y-37143201D01*
X76899878Y-37149933D01*
X76933224Y-37155840D01*
X76963969Y-37160924D01*
X77000914Y-37166419D01*
X77033234Y-37170449D01*
X77067130Y-37173426D01*
X77089043Y-37174159D01*
X77126221Y-37173223D01*
X77161000Y-37170415D01*
X77193380Y-37165735D01*
X77223362Y-37159183D01*
X77263837Y-37145846D01*
X77298916Y-37128297D01*
X77328598Y-37106536D01*
X77352883Y-37080564D01*
X77371771Y-37050380D01*
X77385263Y-37015984D01*
X77393358Y-36977376D01*
X77396057Y-36934556D01*
X77394968Y-36902311D01*
X77391703Y-36870697D01*
X77386261Y-36839715D01*
X77378643Y-36809363D01*
X77368848Y-36779642D01*
X77356876Y-36750553D01*
X77342727Y-36722094D01*
X77326402Y-36694267D01*
X77307900Y-36667071D01*
X77287221Y-36640506D01*
X77272226Y-36623147D01*
X77246949Y-36600332D01*
X77221679Y-36577500D01*
X77196414Y-36554651D01*
X77171155Y-36531785D01*
X77145901Y-36508901D01*
X77120654Y-36486001D01*
X77095412Y-36463083D01*
X77070176Y-36440148D01*
X77044945Y-36417196D01*
X77019720Y-36394226D01*
X76994501Y-36371240D01*
X76969288Y-36348236D01*
X76944081Y-36325215D01*
X76918879Y-36302177D01*
X76893683Y-36279122D01*
X76868492Y-36256050D01*
X76844419Y-36233663D01*
X76821111Y-36211016D01*
X76798567Y-36188108D01*
X76776787Y-36164940D01*
X76755771Y-36141511D01*
X76735519Y-36117822D01*
X76716032Y-36093872D01*
X76697308Y-36069662D01*
X76679349Y-36045191D01*
X76662155Y-36020460D01*
X76645724Y-35995469D01*
X76630058Y-35970217D01*
X76615156Y-35944705D01*
X76601018Y-35918932D01*
X76575034Y-35866605D01*
X76552108Y-35813236D01*
X76532238Y-35758825D01*
X76515426Y-35703372D01*
X76501670Y-35646878D01*
X76490971Y-35589341D01*
X76486768Y-35560182D01*
X76483329Y-35530763D01*
X76480654Y-35501083D01*
X76478744Y-35471143D01*
X76477597Y-35440942D01*
X76477215Y-35410481D01*
X76477577Y-35378758D01*
X76478663Y-35347521D01*
X76480474Y-35316768D01*
X76483008Y-35286501D01*
X76486267Y-35256719D01*
X76490250Y-35227422D01*
X76500388Y-35170283D01*
X76513422Y-35115086D01*
X76529353Y-35061828D01*
X76548181Y-35010511D01*
X76569905Y-34961135D01*
X76594526Y-34913700D01*
X76622044Y-34868205D01*
X76652457Y-34824650D01*
X76685768Y-34783036D01*
X76721975Y-34743363D01*
X76761079Y-34705630D01*
X76803079Y-34669838D01*
X76847976Y-34635987D01*
X76889292Y-34608304D01*
X76932274Y-34582406D01*
X76976922Y-34558295D01*
X77023235Y-34535969D01*
X77071215Y-34515430D01*
X77120860Y-34496677D01*
X77172171Y-34479710D01*
X77225148Y-34464528D01*
X77279790Y-34451133D01*
X77336099Y-34439524D01*
X77394073Y-34429701D01*
X77423685Y-34425459D01*
X77453713Y-34421664D01*
X77484158Y-34418315D01*
X77515019Y-34415413D01*
X77546297Y-34412957D01*
X77577991Y-34410948D01*
X77610101Y-34409385D01*
X77642628Y-34408269D01*
X77675572Y-34407599D01*
X77708932Y-34407376D01*
X77747412Y-34407728D01*
X77786464Y-34408784D01*
X77826088Y-34410544D01*
X77866285Y-34413008D01*
X77907055Y-34416177D01*
X77948397Y-34420050D01*
X77990311Y-34424626D01*
X78032798Y-34429907D01*
X78075857Y-34435892D01*
X78119489Y-34442581D01*
X78163693Y-34449974D01*
X78208469Y-34458071D01*
X78253819Y-34466873D01*
X78299740Y-34476378D01*
X78346234Y-34486588D01*
X78393300Y-34497501D01*
X78455582Y-35814214D01*
G37*
G36*
X80022167Y-34407782D02*
G01*
X80059113Y-34409001D01*
X80095623Y-34411034D01*
X80131699Y-34413879D01*
X80167339Y-34417537D01*
X80202544Y-34422007D01*
X80237315Y-34427291D01*
X80271650Y-34433387D01*
X80305550Y-34440297D01*
X80339015Y-34448019D01*
X80372045Y-34456554D01*
X80404640Y-34465902D01*
X80436800Y-34476063D01*
X80468525Y-34487037D01*
X80499815Y-34498824D01*
X80530669Y-34511423D01*
X80561089Y-34524835D01*
X80591074Y-34539061D01*
X80620623Y-34554099D01*
X80649738Y-34569950D01*
X80678417Y-34586614D01*
X80706662Y-34604090D01*
X80734471Y-34622380D01*
X80761845Y-34641482D01*
X80788785Y-34661398D01*
X80815289Y-34682126D01*
X80841358Y-34703667D01*
X80866992Y-34726021D01*
X80892191Y-34749188D01*
X80916955Y-34773167D01*
X80941284Y-34797960D01*
X80965177Y-34823565D01*
X80989926Y-34851590D01*
X81013890Y-34880252D01*
X81037067Y-34909550D01*
X81059459Y-34939485D01*
X81081065Y-34970057D01*
X81101886Y-35001266D01*
X81121921Y-35033112D01*
X81141170Y-35065595D01*
X81159633Y-35098714D01*
X81177311Y-35132471D01*
X81194203Y-35166864D01*
X81210309Y-35201894D01*
X81225630Y-35237561D01*
X81240165Y-35273864D01*
X81253915Y-35310805D01*
X81266878Y-35348382D01*
X81279056Y-35386596D01*
X81290449Y-35425448D01*
X81301055Y-35464935D01*
X81310876Y-35505060D01*
X81319912Y-35545822D01*
X81328161Y-35587220D01*
X81335625Y-35629256D01*
X81342304Y-35671928D01*
X81348196Y-35715237D01*
X81353303Y-35759183D01*
X81357624Y-35803765D01*
X81361160Y-35848985D01*
X81363910Y-35894841D01*
X81365874Y-35941334D01*
X81367053Y-35988464D01*
X81367445Y-36036231D01*
X81367079Y-36081259D01*
X81365980Y-36125850D01*
X81364148Y-36170005D01*
X81361584Y-36213723D01*
X81358286Y-36257005D01*
X81354256Y-36299850D01*
X81349494Y-36342259D01*
X81343998Y-36384231D01*
X81337770Y-36425767D01*
X81330809Y-36466867D01*
X81323115Y-36507529D01*
X81314689Y-36547756D01*
X81305530Y-36587546D01*
X81295638Y-36626899D01*
X81285013Y-36665816D01*
X81273656Y-36704296D01*
X81261566Y-36742340D01*
X81248743Y-36779948D01*
X81235188Y-36817119D01*
X81220900Y-36853853D01*
X81205879Y-36890151D01*
X81190125Y-36926013D01*
X81173639Y-36961438D01*
X81156420Y-36996426D01*
X81138468Y-37030978D01*
X81119783Y-37065094D01*
X81100366Y-37098773D01*
X81080216Y-37132015D01*
X81059333Y-37164821D01*
X81037718Y-37197191D01*
X81015369Y-37229124D01*
X80992288Y-37260621D01*
X80967481Y-37292808D01*
X80942242Y-37323973D01*
X80916573Y-37354116D01*
X80890473Y-37383238D01*
X80863943Y-37411338D01*
X80836981Y-37438416D01*
X80809589Y-37464472D01*
X80781766Y-37489507D01*
X80753513Y-37513519D01*
X80724828Y-37536510D01*
X80695713Y-37558479D01*
X80666167Y-37579426D01*
X80636190Y-37599352D01*
X80605783Y-37618255D01*
X80574944Y-37636137D01*
X80543675Y-37652997D01*
X80511976Y-37668835D01*
X80479845Y-37683651D01*
X80447284Y-37697446D01*
X80414292Y-37710218D01*
X80380869Y-37721969D01*
X80347015Y-37732698D01*
X80312731Y-37742405D01*
X80278015Y-37751091D01*
X80242870Y-37758754D01*
X80207293Y-37765396D01*
X80171285Y-37771016D01*
X80134847Y-37775614D01*
X80097978Y-37779191D01*
X80060678Y-37781745D01*
X80022948Y-37783278D01*
X79984787Y-37783789D01*
X79945455Y-37783274D01*
X79906597Y-37781731D01*
X79868210Y-37779158D01*
X79830295Y-37775557D01*
X79792853Y-37770927D01*
X79755883Y-37765267D01*
X79719386Y-37758579D01*
X79683360Y-37750862D01*
X79647807Y-37742116D01*
X79612727Y-37732340D01*
X79578118Y-37721536D01*
X79543982Y-37709703D01*
X79510318Y-37696841D01*
X79477126Y-37682950D01*
X79444407Y-37668030D01*
X79412159Y-37652081D01*
X79380384Y-37635103D01*
X79349082Y-37617096D01*
X79318251Y-37598060D01*
X79287893Y-37577995D01*
X79258007Y-37556901D01*
X79228594Y-37534778D01*
X79199652Y-37511627D01*
X79171183Y-37487446D01*
X79143186Y-37462236D01*
X79115662Y-37435997D01*
X79088610Y-37408730D01*
X79062030Y-37380433D01*
X79035922Y-37351108D01*
X79010286Y-37320753D01*
X78985123Y-37289369D01*
X78960432Y-37256957D01*
X78937712Y-37225686D01*
X78915713Y-37193971D01*
X78894435Y-37161812D01*
X78873879Y-37129210D01*
X78854043Y-37096165D01*
X78834929Y-37062675D01*
X78816537Y-37028742D01*
X78798866Y-36994365D01*
X78781915Y-36959545D01*
X78765687Y-36924281D01*
X78750179Y-36888573D01*
X78735393Y-36852422D01*
X78721328Y-36815827D01*
X78707984Y-36778789D01*
X78695362Y-36741306D01*
X78683461Y-36703381D01*
X78672281Y-36665011D01*
X78661822Y-36626198D01*
X78652085Y-36586941D01*
X78643069Y-36547241D01*
X78634774Y-36507097D01*
X78627201Y-36466509D01*
X78620349Y-36425477D01*
X78614367Y-36385010D01*
X79611828Y-36385010D01*
X79612697Y-36427604D01*
X79615305Y-36469657D01*
X79619652Y-36511170D01*
X79625738Y-36552141D01*
X79633563Y-36592571D01*
X79643126Y-36632460D01*
X79654428Y-36671809D01*
X79667469Y-36710616D01*
X79682249Y-36748883D01*
X79698768Y-36786608D01*
X79710746Y-36811458D01*
X79724868Y-36838343D01*
X79746803Y-36875418D01*
X79769639Y-36908590D01*
X79793377Y-36937860D01*
X79818016Y-36963227D01*
X79843558Y-36984692D01*
X79870000Y-37002254D01*
X79897344Y-37015913D01*
X79925590Y-37025669D01*
X79954738Y-37031523D01*
X79984787Y-37033475D01*
X80014140Y-37031485D01*
X80042850Y-37025515D01*
X80070915Y-37015565D01*
X80098337Y-37001635D01*
X80125114Y-36983726D01*
X80151248Y-36961836D01*
X80176737Y-36935967D01*
X80201583Y-36906117D01*
X80225784Y-36872288D01*
X80241561Y-36847524D01*
X80257051Y-36820991D01*
X80264689Y-36807062D01*
X80284593Y-36768334D01*
X80302539Y-36729361D01*
X80318527Y-36690143D01*
X80332558Y-36650681D01*
X80344631Y-36610974D01*
X80354746Y-36571023D01*
X80362903Y-36530827D01*
X80369103Y-36490385D01*
X80373345Y-36449700D01*
X80375629Y-36408769D01*
X80376064Y-36381346D01*
X80375685Y-36346454D01*
X80374550Y-36312670D01*
X80372657Y-36279994D01*
X80370007Y-36248425D01*
X80366600Y-36217964D01*
X80362437Y-36188610D01*
X80351838Y-36133226D01*
X80338211Y-36082273D01*
X80321556Y-36035750D01*
X80301872Y-35993659D01*
X80279160Y-35955997D01*
X80253420Y-35922767D01*
X80224652Y-35893967D01*
X80192856Y-35869598D01*
X80158031Y-35849660D01*
X80120178Y-35834153D01*
X80079297Y-35823076D01*
X80035388Y-35816430D01*
X79988450Y-35814214D01*
X79942844Y-35816444D01*
X79900179Y-35823133D01*
X79860458Y-35834281D01*
X79823678Y-35849889D01*
X79789841Y-35869956D01*
X79758946Y-35894483D01*
X79730994Y-35923468D01*
X79705983Y-35956913D01*
X79683916Y-35994818D01*
X79664790Y-36037181D01*
X79648607Y-36084005D01*
X79635367Y-36135287D01*
X79625068Y-36191029D01*
X79621023Y-36220572D01*
X79617713Y-36251230D01*
X79615138Y-36283003D01*
X79613299Y-36315890D01*
X79612196Y-36349893D01*
X79611828Y-36385010D01*
X78614367Y-36385010D01*
X78614218Y-36384002D01*
X78608808Y-36342084D01*
X78604120Y-36299722D01*
X78600153Y-36256916D01*
X78596907Y-36213666D01*
X78594383Y-36169973D01*
X78592580Y-36125836D01*
X78591498Y-36081255D01*
X78591137Y-36036231D01*
X78591530Y-35988197D01*
X78592708Y-35940813D01*
X78594673Y-35894081D01*
X78597422Y-35848000D01*
X78600958Y-35802570D01*
X78605279Y-35757791D01*
X78610386Y-35713664D01*
X78616279Y-35670187D01*
X78622957Y-35627362D01*
X78630421Y-35585188D01*
X78638671Y-35543665D01*
X78647706Y-35502793D01*
X78657527Y-35462573D01*
X78668134Y-35423003D01*
X78679526Y-35384085D01*
X78691704Y-35345818D01*
X78704668Y-35308202D01*
X78718417Y-35271237D01*
X78732952Y-35234923D01*
X78748273Y-35199261D01*
X78764379Y-35164249D01*
X78781271Y-35129889D01*
X78798949Y-35096180D01*
X78817413Y-35063122D01*
X78836662Y-35030715D01*
X78856697Y-34998959D01*
X78877517Y-34967855D01*
X78899123Y-34937402D01*
X78921515Y-34907600D01*
X78944693Y-34878449D01*
X78968656Y-34849949D01*
X78993405Y-34822100D01*
X79017309Y-34796585D01*
X79041671Y-34771879D01*
X79066488Y-34747984D01*
X79091762Y-34724899D01*
X79117493Y-34702624D01*
X79143680Y-34681159D01*
X79170324Y-34660503D01*
X79197424Y-34640658D01*
X79224981Y-34621623D01*
X79252994Y-34603398D01*
X79281464Y-34585983D01*
X79310390Y-34569377D01*
X79339773Y-34553582D01*
X79369612Y-34538597D01*
X79399908Y-34524422D01*
X79430661Y-34511057D01*
X79461870Y-34498502D01*
X79493535Y-34486756D01*
X79525657Y-34475821D01*
X79558236Y-34465696D01*
X79591271Y-34456381D01*
X79624762Y-34447876D01*
X79658710Y-34440181D01*
X79693115Y-34433296D01*
X79727976Y-34427221D01*
X79763294Y-34421956D01*
X79799068Y-34417501D01*
X79835299Y-34413856D01*
X79871986Y-34411021D01*
X79909130Y-34408996D01*
X79946730Y-34407781D01*
X79984787Y-34407376D01*
X80022167Y-34407782D01*
G37*
G36*
X84041172Y-34501165D02*
G01*
X84037508Y-34556094D01*
X84035608Y-34585394D01*
X84033661Y-34615917D01*
X84031669Y-34647664D01*
X84029631Y-34680635D01*
X84027548Y-34714829D01*
X84025418Y-34750247D01*
X84023243Y-34786888D01*
X84021022Y-34824753D01*
X84018755Y-34863842D01*
X84016442Y-34904154D01*
X84014084Y-34945690D01*
X84011680Y-34988449D01*
X84009229Y-35032432D01*
X84006734Y-35077639D01*
X84004192Y-35124069D01*
X84001605Y-35171723D01*
X83998971Y-35220601D01*
X83996292Y-35270702D01*
X83993567Y-35322026D01*
X83990797Y-35374574D01*
X83987980Y-35428346D01*
X83985118Y-35483342D01*
X83982210Y-35539561D01*
X83979256Y-35597003D01*
X83976257Y-35655670D01*
X83973211Y-35715559D01*
X83970120Y-35776673D01*
X83966983Y-35839010D01*
X83963800Y-35902570D01*
X83960572Y-35967355D01*
X83958658Y-36015665D01*
X83956765Y-36064427D01*
X83954892Y-36113639D01*
X83953038Y-36163302D01*
X83951205Y-36213416D01*
X83949392Y-36263981D01*
X83947599Y-36314996D01*
X83945826Y-36366463D01*
X83944072Y-36418380D01*
X83942339Y-36470748D01*
X83940626Y-36523567D01*
X83938933Y-36576836D01*
X83937260Y-36630556D01*
X83935607Y-36684727D01*
X83933975Y-36739349D01*
X83932362Y-36794422D01*
X83930769Y-36849946D01*
X83929196Y-36905920D01*
X83927643Y-36962345D01*
X83926111Y-37019221D01*
X83924598Y-37076548D01*
X83923105Y-37134325D01*
X83921633Y-37192553D01*
X83920180Y-37251232D01*
X83918748Y-37310362D01*
X83917335Y-37369943D01*
X83915943Y-37429975D01*
X83914570Y-37490457D01*
X83913218Y-37551390D01*
X83911885Y-37612774D01*
X83910573Y-37674609D01*
X83909281Y-37736894D01*
X83874470Y-37708578D01*
X83837450Y-37678585D01*
X83798221Y-37646914D01*
X83756782Y-37613567D01*
X83713133Y-37578542D01*
X83667274Y-37541839D01*
X83643516Y-37522859D01*
X83619206Y-37503460D01*
X83594343Y-37483641D01*
X83568928Y-37463403D01*
X83542961Y-37442746D01*
X83516441Y-37421669D01*
X83489369Y-37400173D01*
X83461744Y-37378258D01*
X83433567Y-37355923D01*
X83404837Y-37333169D01*
X83375555Y-37309996D01*
X83345721Y-37286403D01*
X83315334Y-37262392D01*
X83284395Y-37237960D01*
X83252903Y-37213110D01*
X83220859Y-37187840D01*
X83188263Y-37162151D01*
X83155114Y-37136042D01*
X83121413Y-37109515D01*
X83087159Y-37082568D01*
X83056382Y-37060279D01*
X83023767Y-37036646D01*
X82989314Y-37011667D01*
X82953024Y-36985344D01*
X82914897Y-36957675D01*
X82874931Y-36928660D01*
X82833129Y-36898301D01*
X82789488Y-36866596D01*
X82744011Y-36833546D01*
X82696695Y-36799150D01*
X82672348Y-36781448D01*
X82647542Y-36763410D01*
X82622277Y-36745035D01*
X82596552Y-36726324D01*
X82570367Y-36707277D01*
X82543724Y-36687893D01*
X82516621Y-36668173D01*
X82489058Y-36648117D01*
X82461036Y-36627724D01*
X82432555Y-36606995D01*
X82403614Y-36585930D01*
X82374214Y-36564528D01*
X82352965Y-37690000D01*
X81689846Y-37690000D01*
X81687573Y-37634415D01*
X81686313Y-37604433D01*
X81684969Y-37572992D01*
X81683542Y-37540091D01*
X81682032Y-37505730D01*
X81680439Y-37469909D01*
X81678763Y-37432629D01*
X81677005Y-37393888D01*
X81675163Y-37353689D01*
X81673238Y-37312029D01*
X81671230Y-37268910D01*
X81669139Y-37224330D01*
X81666965Y-37178292D01*
X81664709Y-37130793D01*
X81662369Y-37081835D01*
X81659946Y-37031417D01*
X81657440Y-36979539D01*
X81654851Y-36926202D01*
X81652179Y-36871404D01*
X81649424Y-36815147D01*
X81646586Y-36757431D01*
X81643665Y-36698254D01*
X81640662Y-36637618D01*
X81637575Y-36575522D01*
X81634405Y-36511967D01*
X81631152Y-36446951D01*
X81627816Y-36380476D01*
X81624397Y-36312541D01*
X81620895Y-36243147D01*
X81617310Y-36172293D01*
X81613642Y-36099979D01*
X81610389Y-36041098D01*
X81607134Y-35982794D01*
X81603875Y-35925064D01*
X81600613Y-35867910D01*
X81597349Y-35811331D01*
X81594082Y-35755327D01*
X81590812Y-35699899D01*
X81587539Y-35645046D01*
X81584263Y-35590768D01*
X81580984Y-35537066D01*
X81577703Y-35483938D01*
X81574418Y-35431387D01*
X81571131Y-35379410D01*
X81567841Y-35328009D01*
X81564548Y-35277183D01*
X81561252Y-35226933D01*
X81557953Y-35177257D01*
X81554652Y-35128157D01*
X81551347Y-35079633D01*
X81548040Y-35031683D01*
X81544730Y-34984309D01*
X81541417Y-34937510D01*
X81538101Y-34891287D01*
X81534782Y-34845639D01*
X81531461Y-34800566D01*
X81528136Y-34756069D01*
X81524809Y-34712146D01*
X81521479Y-34668799D01*
X81518146Y-34626028D01*
X81514810Y-34583832D01*
X81511471Y-34542211D01*
X81508129Y-34501165D01*
X82542742Y-34501165D01*
X83309176Y-35251479D01*
X83309145Y-35219671D01*
X83309050Y-35188728D01*
X83308893Y-35158649D01*
X83308538Y-35115151D01*
X83308043Y-35073598D01*
X83307405Y-35033989D01*
X83306626Y-34996326D01*
X83305705Y-34960608D01*
X83304642Y-34926834D01*
X83303438Y-34895006D01*
X83302092Y-34865122D01*
X83301116Y-34846280D01*
X83299284Y-34812517D01*
X83297086Y-34776075D01*
X83294521Y-34736955D01*
X83292358Y-34705856D01*
X83289988Y-34673250D01*
X83287412Y-34639138D01*
X83284630Y-34603518D01*
X83281641Y-34566391D01*
X83278447Y-34527758D01*
X83276203Y-34501165D01*
X84041172Y-34501165D01*
G37*
G36*
X85626064Y-34501165D02*
G01*
X85545464Y-36197431D01*
X85544036Y-36232074D01*
X85542593Y-36267490D01*
X85541134Y-36303681D01*
X85539659Y-36340646D01*
X85538168Y-36378385D01*
X85536662Y-36416898D01*
X85535140Y-36456186D01*
X85533603Y-36496247D01*
X85532049Y-36537083D01*
X85530480Y-36578694D01*
X85528895Y-36621078D01*
X85527294Y-36664237D01*
X85525678Y-36708170D01*
X85524046Y-36752877D01*
X85522398Y-36798358D01*
X85520734Y-36844614D01*
X85519055Y-36891644D01*
X85517359Y-36939448D01*
X85515649Y-36988026D01*
X85513922Y-37037379D01*
X85512180Y-37087506D01*
X85510421Y-37138407D01*
X85508648Y-37190082D01*
X85506858Y-37242531D01*
X85505053Y-37295755D01*
X85503231Y-37349753D01*
X85501395Y-37404525D01*
X85499542Y-37460072D01*
X85497674Y-37516392D01*
X85495790Y-37573487D01*
X85493890Y-37631356D01*
X85491974Y-37690000D01*
X84336461Y-37690000D01*
X84195778Y-34501165D01*
X85626064Y-34501165D01*
G37*
G36*
X87205838Y-34407782D02*
G01*
X87242783Y-34409001D01*
X87279294Y-34411034D01*
X87315369Y-34413879D01*
X87351010Y-34417537D01*
X87386215Y-34422007D01*
X87420985Y-34427291D01*
X87455321Y-34433387D01*
X87489221Y-34440297D01*
X87522686Y-34448019D01*
X87555716Y-34456554D01*
X87588311Y-34465902D01*
X87620471Y-34476063D01*
X87652196Y-34487037D01*
X87683485Y-34498824D01*
X87714340Y-34511423D01*
X87744760Y-34524835D01*
X87774744Y-34539061D01*
X87804294Y-34554099D01*
X87833408Y-34569950D01*
X87862088Y-34586614D01*
X87890332Y-34604090D01*
X87918142Y-34622380D01*
X87945516Y-34641482D01*
X87972455Y-34661398D01*
X87998959Y-34682126D01*
X88025028Y-34703667D01*
X88050662Y-34726021D01*
X88075861Y-34749188D01*
X88100625Y-34773167D01*
X88124954Y-34797960D01*
X88148848Y-34823565D01*
X88173597Y-34851457D01*
X88197560Y-34879994D01*
X88220738Y-34909177D01*
X88243130Y-34939005D01*
X88264736Y-34969478D01*
X88285556Y-35000597D01*
X88305591Y-35032361D01*
X88324840Y-35064771D01*
X88343304Y-35097826D01*
X88360982Y-35131526D01*
X88377874Y-35165872D01*
X88393980Y-35200863D01*
X88409301Y-35236500D01*
X88423836Y-35272782D01*
X88437585Y-35309710D01*
X88450549Y-35347283D01*
X88462727Y-35385502D01*
X88474119Y-35424366D01*
X88484726Y-35463875D01*
X88494547Y-35504030D01*
X88503582Y-35544830D01*
X88511832Y-35586276D01*
X88519296Y-35628367D01*
X88525974Y-35671103D01*
X88531867Y-35714485D01*
X88536974Y-35758513D01*
X88541295Y-35803186D01*
X88544831Y-35848504D01*
X88547580Y-35894468D01*
X88549545Y-35941077D01*
X88550723Y-35988331D01*
X88551116Y-36036231D01*
X88550935Y-36067690D01*
X88550392Y-36098960D01*
X88549487Y-36130040D01*
X88548219Y-36160932D01*
X88546590Y-36191635D01*
X88544599Y-36222150D01*
X88542245Y-36252475D01*
X88539530Y-36282611D01*
X88536452Y-36312559D01*
X88533012Y-36342317D01*
X88529211Y-36371887D01*
X88525047Y-36401267D01*
X88520521Y-36430459D01*
X88515633Y-36459462D01*
X88504771Y-36516901D01*
X88492461Y-36573585D01*
X88478702Y-36629512D01*
X88463495Y-36684684D01*
X88446840Y-36739101D01*
X88428736Y-36792762D01*
X88409184Y-36845667D01*
X88388184Y-36897817D01*
X88365736Y-36949211D01*
X88353218Y-36976251D01*
X88340394Y-37002783D01*
X88313826Y-37054323D01*
X88286034Y-37103831D01*
X88257017Y-37151307D01*
X88226775Y-37196750D01*
X88195308Y-37240161D01*
X88162615Y-37281541D01*
X88128698Y-37320887D01*
X88093556Y-37358202D01*
X88057188Y-37393485D01*
X88019596Y-37426735D01*
X87980778Y-37457954D01*
X87940736Y-37487140D01*
X87899468Y-37514293D01*
X87856976Y-37539415D01*
X87813258Y-37562505D01*
X87838575Y-37585385D01*
X87860992Y-37605311D01*
X87885332Y-37626681D01*
X87911596Y-37649493D01*
X87939783Y-37673747D01*
X87962185Y-37692885D01*
X87985670Y-37712834D01*
X88010236Y-37733594D01*
X88027215Y-37747885D01*
X88062399Y-37772054D01*
X88096784Y-37795103D01*
X88130371Y-37817031D01*
X88163159Y-37837839D01*
X88195149Y-37857526D01*
X88226340Y-37876093D01*
X88256732Y-37893538D01*
X88286326Y-37909864D01*
X88315122Y-37925069D01*
X88343118Y-37939153D01*
X88361339Y-37947920D01*
X88340708Y-37969066D01*
X88316918Y-37992571D01*
X88289967Y-38018434D01*
X88267680Y-38039379D01*
X88243616Y-38061650D01*
X88217775Y-38085249D01*
X88190156Y-38110174D01*
X88160759Y-38136425D01*
X88129585Y-38164003D01*
X88107815Y-38183126D01*
X88081517Y-38201547D01*
X88052815Y-38220541D01*
X88021708Y-38240107D01*
X87988197Y-38260245D01*
X87961486Y-38275725D01*
X87933423Y-38291527D01*
X87904007Y-38307650D01*
X87873239Y-38324096D01*
X87841119Y-38340864D01*
X87830111Y-38346524D01*
X87803091Y-38324248D01*
X87776985Y-38301934D01*
X87751794Y-38279581D01*
X87727518Y-38257189D01*
X87704156Y-38234758D01*
X87681708Y-38212289D01*
X87660175Y-38189781D01*
X87639556Y-38167235D01*
X87619852Y-38144650D01*
X87601062Y-38122026D01*
X87589043Y-38106922D01*
X87568721Y-38079799D01*
X87549519Y-38053384D01*
X87531438Y-38027678D01*
X87514477Y-38002680D01*
X87493606Y-37970451D01*
X87474726Y-37939482D01*
X87457839Y-37909772D01*
X87442944Y-37881322D01*
X87430041Y-37854131D01*
X87452161Y-37834461D01*
X87474692Y-37811294D01*
X87495987Y-37787541D01*
X87519572Y-37759745D01*
X87540088Y-37734598D01*
X87562070Y-37706863D01*
X87567794Y-37699525D01*
X87530288Y-37714584D01*
X87492781Y-37728161D01*
X87455275Y-37740258D01*
X87417768Y-37750873D01*
X87380262Y-37760007D01*
X87342755Y-37767660D01*
X87305249Y-37773832D01*
X87267742Y-37778522D01*
X87230235Y-37781732D01*
X87192729Y-37783460D01*
X87167725Y-37783789D01*
X87128438Y-37783272D01*
X87089620Y-37781722D01*
X87051272Y-37779139D01*
X87013394Y-37775523D01*
X86975984Y-37770873D01*
X86939045Y-37765190D01*
X86902574Y-37758474D01*
X86866573Y-37750724D01*
X86831042Y-37741942D01*
X86795979Y-37732126D01*
X86761387Y-37721276D01*
X86727263Y-37709394D01*
X86693609Y-37696478D01*
X86660425Y-37682529D01*
X86627709Y-37667547D01*
X86595464Y-37651531D01*
X86563687Y-37634482D01*
X86532380Y-37616400D01*
X86501543Y-37597285D01*
X86471174Y-37577136D01*
X86441276Y-37555955D01*
X86411846Y-37533739D01*
X86382886Y-37510491D01*
X86354396Y-37486209D01*
X86326375Y-37460894D01*
X86298823Y-37434546D01*
X86271741Y-37407165D01*
X86245128Y-37378750D01*
X86218984Y-37349302D01*
X86193310Y-37318821D01*
X86168105Y-37287306D01*
X86143370Y-37254759D01*
X86120695Y-37223490D01*
X86098739Y-37191781D01*
X86077504Y-37159634D01*
X86056988Y-37127046D01*
X86037192Y-37094020D01*
X86018116Y-37060554D01*
X85999760Y-37026649D01*
X85982124Y-36992305D01*
X85965208Y-36957521D01*
X85949011Y-36922297D01*
X85933534Y-36886635D01*
X85918777Y-36850533D01*
X85904740Y-36813992D01*
X85891423Y-36777011D01*
X85878826Y-36739591D01*
X85866948Y-36701732D01*
X85855791Y-36663433D01*
X85845353Y-36624695D01*
X85835635Y-36585518D01*
X85826637Y-36545901D01*
X85818358Y-36505845D01*
X85810800Y-36465350D01*
X85803961Y-36424415D01*
X85797843Y-36383041D01*
X85796756Y-36374623D01*
X86794783Y-36374623D01*
X86795498Y-36406992D01*
X86797104Y-36437228D01*
X86799357Y-36467121D01*
X86802256Y-36496671D01*
X86805802Y-36525877D01*
X86812335Y-36569042D01*
X86820322Y-36611435D01*
X86829766Y-36653054D01*
X86840664Y-36693901D01*
X86853018Y-36733975D01*
X86866828Y-36773276D01*
X86882093Y-36811804D01*
X86898813Y-36849560D01*
X86912661Y-36877509D01*
X86926909Y-36903656D01*
X86949032Y-36939494D01*
X86972057Y-36971276D01*
X86995984Y-36999000D01*
X87020812Y-37022667D01*
X87046542Y-37042277D01*
X87073174Y-37057829D01*
X87100707Y-37069325D01*
X87129142Y-37076763D01*
X87158478Y-37080144D01*
X87168457Y-37080369D01*
X87197811Y-37078302D01*
X87226520Y-37072100D01*
X87254586Y-37061764D01*
X87282007Y-37047294D01*
X87308785Y-37028688D01*
X87334918Y-37005949D01*
X87360408Y-36979075D01*
X87385253Y-36948066D01*
X87409455Y-36912923D01*
X87425231Y-36887197D01*
X87440722Y-36859634D01*
X87448360Y-36845163D01*
X87461846Y-36818362D01*
X87474463Y-36791445D01*
X87486210Y-36764415D01*
X87502198Y-36723654D01*
X87516229Y-36682635D01*
X87528301Y-36641359D01*
X87538417Y-36599825D01*
X87546574Y-36558034D01*
X87552773Y-36515985D01*
X87557015Y-36473679D01*
X87559299Y-36431115D01*
X87559734Y-36402595D01*
X87559364Y-36366396D01*
X87558255Y-36331346D01*
X87556405Y-36297445D01*
X87553815Y-36264694D01*
X87550486Y-36233091D01*
X87546416Y-36202638D01*
X87541607Y-36173334D01*
X87529769Y-36118173D01*
X87514971Y-36067609D01*
X87497214Y-36021642D01*
X87476497Y-35980271D01*
X87452821Y-35943497D01*
X87426185Y-35911320D01*
X87396590Y-35883740D01*
X87364035Y-35860756D01*
X87328521Y-35842369D01*
X87290047Y-35828579D01*
X87248613Y-35819386D01*
X87204220Y-35814789D01*
X87180914Y-35814214D01*
X87143497Y-35815760D01*
X87107910Y-35820397D01*
X87074151Y-35828125D01*
X87042222Y-35838944D01*
X87012121Y-35852854D01*
X86983850Y-35869856D01*
X86957407Y-35889949D01*
X86932793Y-35913133D01*
X86910009Y-35939408D01*
X86889053Y-35968774D01*
X86876099Y-35990069D01*
X86860200Y-36020005D01*
X86846028Y-36051833D01*
X86833582Y-36085555D01*
X86822861Y-36121170D01*
X86813867Y-36158679D01*
X86806598Y-36198081D01*
X86801055Y-36239377D01*
X86797239Y-36282565D01*
X86795653Y-36312410D01*
X86794834Y-36343096D01*
X86794783Y-36374623D01*
X85796756Y-36374623D01*
X85792444Y-36341227D01*
X85787765Y-36298974D01*
X85783806Y-36256282D01*
X85780566Y-36213151D01*
X85778047Y-36169580D01*
X85776247Y-36125570D01*
X85775168Y-36081120D01*
X85774808Y-36036231D01*
X85775200Y-35987973D01*
X85776379Y-35940375D01*
X85778343Y-35893439D01*
X85781093Y-35847164D01*
X85784629Y-35801551D01*
X85788950Y-35756598D01*
X85794057Y-35712306D01*
X85799949Y-35668676D01*
X85806628Y-35625707D01*
X85814092Y-35583399D01*
X85822341Y-35541752D01*
X85831377Y-35500767D01*
X85841198Y-35460443D01*
X85851804Y-35420779D01*
X85863197Y-35381777D01*
X85875375Y-35343436D01*
X85888338Y-35305757D01*
X85902088Y-35268738D01*
X85916623Y-35232381D01*
X85931944Y-35196685D01*
X85948050Y-35161650D01*
X85964942Y-35127276D01*
X85982620Y-35093563D01*
X86001083Y-35060512D01*
X86020332Y-35028121D01*
X86040367Y-34996392D01*
X86061188Y-34965324D01*
X86082794Y-34934917D01*
X86105186Y-34905172D01*
X86128363Y-34876087D01*
X86152327Y-34847664D01*
X86177076Y-34819902D01*
X86200847Y-34794522D01*
X86225084Y-34769947D01*
X86249785Y-34746179D01*
X86274952Y-34723216D01*
X86300584Y-34701059D01*
X86326681Y-34679707D01*
X86353243Y-34659162D01*
X86380270Y-34639422D01*
X86407763Y-34620487D01*
X86435720Y-34602359D01*
X86464143Y-34585036D01*
X86493030Y-34568519D01*
X86522383Y-34552807D01*
X86552201Y-34537901D01*
X86582484Y-34523801D01*
X86613232Y-34510507D01*
X86644445Y-34498019D01*
X86676124Y-34486336D01*
X86708267Y-34475459D01*
X86740876Y-34465387D01*
X86773950Y-34456121D01*
X86807488Y-34447661D01*
X86841492Y-34440007D01*
X86875961Y-34433159D01*
X86910895Y-34427116D01*
X86946295Y-34421879D01*
X86982159Y-34417447D01*
X87018488Y-34413821D01*
X87055283Y-34411001D01*
X87092543Y-34408987D01*
X87130267Y-34407778D01*
X87168457Y-34407376D01*
X87205838Y-34407782D01*
G37*
D14*
X52888720Y-155276028D02*
X52888720Y-153776028D01*
X52888720Y-153776028D02*
X53388720Y-154847457D01*
X53388720Y-154847457D02*
X53888720Y-153776028D01*
X53888720Y-153776028D02*
X53888720Y-155276028D01*
X54817292Y-155276028D02*
X54674435Y-155204600D01*
X54674435Y-155204600D02*
X54603006Y-155133171D01*
X54603006Y-155133171D02*
X54531578Y-154990314D01*
X54531578Y-154990314D02*
X54531578Y-154561742D01*
X54531578Y-154561742D02*
X54603006Y-154418885D01*
X54603006Y-154418885D02*
X54674435Y-154347457D01*
X54674435Y-154347457D02*
X54817292Y-154276028D01*
X54817292Y-154276028D02*
X55031578Y-154276028D01*
X55031578Y-154276028D02*
X55174435Y-154347457D01*
X55174435Y-154347457D02*
X55245864Y-154418885D01*
X55245864Y-154418885D02*
X55317292Y-154561742D01*
X55317292Y-154561742D02*
X55317292Y-154990314D01*
X55317292Y-154990314D02*
X55245864Y-155133171D01*
X55245864Y-155133171D02*
X55174435Y-155204600D01*
X55174435Y-155204600D02*
X55031578Y-155276028D01*
X55031578Y-155276028D02*
X54817292Y-155276028D01*
X56603007Y-154276028D02*
X56603007Y-155276028D01*
X55960149Y-154276028D02*
X55960149Y-155061742D01*
X55960149Y-155061742D02*
X56031578Y-155204600D01*
X56031578Y-155204600D02*
X56174435Y-155276028D01*
X56174435Y-155276028D02*
X56388721Y-155276028D01*
X56388721Y-155276028D02*
X56531578Y-155204600D01*
X56531578Y-155204600D02*
X56603007Y-155133171D01*
X57317292Y-154276028D02*
X57317292Y-155276028D01*
X57317292Y-154418885D02*
X57388721Y-154347457D01*
X57388721Y-154347457D02*
X57531578Y-154276028D01*
X57531578Y-154276028D02*
X57745864Y-154276028D01*
X57745864Y-154276028D02*
X57888721Y-154347457D01*
X57888721Y-154347457D02*
X57960150Y-154490314D01*
X57960150Y-154490314D02*
X57960150Y-155276028D01*
X58460150Y-154276028D02*
X59031578Y-154276028D01*
X58674435Y-153776028D02*
X58674435Y-155061742D01*
X58674435Y-155061742D02*
X58745864Y-155204600D01*
X58745864Y-155204600D02*
X58888721Y-155276028D01*
X58888721Y-155276028D02*
X59031578Y-155276028D01*
X59531578Y-154276028D02*
X59531578Y-155561742D01*
X59531578Y-155561742D02*
X59460150Y-155704600D01*
X59460150Y-155704600D02*
X59317293Y-155776028D01*
X59317293Y-155776028D02*
X59245864Y-155776028D01*
X59531578Y-153776028D02*
X59460150Y-153847457D01*
X59460150Y-153847457D02*
X59531578Y-153918885D01*
X59531578Y-153918885D02*
X59603007Y-153847457D01*
X59603007Y-153847457D02*
X59531578Y-153776028D01*
X59531578Y-153776028D02*
X59531578Y-153918885D01*
X60460150Y-155276028D02*
X60317293Y-155204600D01*
X60317293Y-155204600D02*
X60245864Y-155133171D01*
X60245864Y-155133171D02*
X60174436Y-154990314D01*
X60174436Y-154990314D02*
X60174436Y-154561742D01*
X60174436Y-154561742D02*
X60245864Y-154418885D01*
X60245864Y-154418885D02*
X60317293Y-154347457D01*
X60317293Y-154347457D02*
X60460150Y-154276028D01*
X60460150Y-154276028D02*
X60674436Y-154276028D01*
X60674436Y-154276028D02*
X60817293Y-154347457D01*
X60817293Y-154347457D02*
X60888722Y-154418885D01*
X60888722Y-154418885D02*
X60960150Y-154561742D01*
X60960150Y-154561742D02*
X60960150Y-154990314D01*
X60960150Y-154990314D02*
X60888722Y-155133171D01*
X60888722Y-155133171D02*
X60817293Y-155204600D01*
X60817293Y-155204600D02*
X60674436Y-155276028D01*
X60674436Y-155276028D02*
X60460150Y-155276028D01*
X61460150Y-154276028D02*
X61817293Y-155276028D01*
X62174436Y-154276028D02*
X61817293Y-155276028D01*
X61817293Y-155276028D02*
X61674436Y-155633171D01*
X61674436Y-155633171D02*
X61603007Y-155704600D01*
X61603007Y-155704600D02*
X61460150Y-155776028D01*
X52888720Y-157691028D02*
X52888720Y-156191028D01*
X52888720Y-156191028D02*
X53388720Y-157262457D01*
X53388720Y-157262457D02*
X53888720Y-156191028D01*
X53888720Y-156191028D02*
X53888720Y-157691028D01*
X54817292Y-157691028D02*
X54674435Y-157619600D01*
X54674435Y-157619600D02*
X54603006Y-157548171D01*
X54603006Y-157548171D02*
X54531578Y-157405314D01*
X54531578Y-157405314D02*
X54531578Y-156976742D01*
X54531578Y-156976742D02*
X54603006Y-156833885D01*
X54603006Y-156833885D02*
X54674435Y-156762457D01*
X54674435Y-156762457D02*
X54817292Y-156691028D01*
X54817292Y-156691028D02*
X55031578Y-156691028D01*
X55031578Y-156691028D02*
X55174435Y-156762457D01*
X55174435Y-156762457D02*
X55245864Y-156833885D01*
X55245864Y-156833885D02*
X55317292Y-156976742D01*
X55317292Y-156976742D02*
X55317292Y-157405314D01*
X55317292Y-157405314D02*
X55245864Y-157548171D01*
X55245864Y-157548171D02*
X55174435Y-157619600D01*
X55174435Y-157619600D02*
X55031578Y-157691028D01*
X55031578Y-157691028D02*
X54817292Y-157691028D01*
X56603007Y-157691028D02*
X56603007Y-156191028D01*
X56603007Y-157619600D02*
X56460149Y-157691028D01*
X56460149Y-157691028D02*
X56174435Y-157691028D01*
X56174435Y-157691028D02*
X56031578Y-157619600D01*
X56031578Y-157619600D02*
X55960149Y-157548171D01*
X55960149Y-157548171D02*
X55888721Y-157405314D01*
X55888721Y-157405314D02*
X55888721Y-156976742D01*
X55888721Y-156976742D02*
X55960149Y-156833885D01*
X55960149Y-156833885D02*
X56031578Y-156762457D01*
X56031578Y-156762457D02*
X56174435Y-156691028D01*
X56174435Y-156691028D02*
X56460149Y-156691028D01*
X56460149Y-156691028D02*
X56603007Y-156762457D01*
X57960150Y-156691028D02*
X57960150Y-157691028D01*
X57317292Y-156691028D02*
X57317292Y-157476742D01*
X57317292Y-157476742D02*
X57388721Y-157619600D01*
X57388721Y-157619600D02*
X57531578Y-157691028D01*
X57531578Y-157691028D02*
X57745864Y-157691028D01*
X57745864Y-157691028D02*
X57888721Y-157619600D01*
X57888721Y-157619600D02*
X57960150Y-157548171D01*
X58888721Y-157691028D02*
X58745864Y-157619600D01*
X58745864Y-157619600D02*
X58674435Y-157476742D01*
X58674435Y-157476742D02*
X58674435Y-156191028D01*
X60103007Y-157691028D02*
X60103007Y-156905314D01*
X60103007Y-156905314D02*
X60031578Y-156762457D01*
X60031578Y-156762457D02*
X59888721Y-156691028D01*
X59888721Y-156691028D02*
X59603007Y-156691028D01*
X59603007Y-156691028D02*
X59460149Y-156762457D01*
X60103007Y-157619600D02*
X59960149Y-157691028D01*
X59960149Y-157691028D02*
X59603007Y-157691028D01*
X59603007Y-157691028D02*
X59460149Y-157619600D01*
X59460149Y-157619600D02*
X59388721Y-157476742D01*
X59388721Y-157476742D02*
X59388721Y-157333885D01*
X59388721Y-157333885D02*
X59460149Y-157191028D01*
X59460149Y-157191028D02*
X59603007Y-157119600D01*
X59603007Y-157119600D02*
X59960149Y-157119600D01*
X59960149Y-157119600D02*
X60103007Y-157048171D01*
X60817292Y-157691028D02*
X60817292Y-156691028D01*
X60817292Y-156976742D02*
X60888721Y-156833885D01*
X60888721Y-156833885D02*
X60960150Y-156762457D01*
X60960150Y-156762457D02*
X61103007Y-156691028D01*
X61103007Y-156691028D02*
X61245864Y-156691028D01*
%TO.C,kibuzzard-64BD5372*%
G36*
X70861617Y-82866703D02*
G01*
X71040438Y-82981122D01*
X71155267Y-83161177D01*
X71166504Y-83368088D01*
X71116078Y-83518393D01*
X71018879Y-83675518D01*
X70874908Y-83839464D01*
X70797076Y-83917296D01*
X70633922Y-84059500D01*
X70477711Y-84155785D01*
X70328441Y-84206150D01*
X70123037Y-84195599D01*
X69944215Y-84081729D01*
X69828838Y-83898934D01*
X69820342Y-83688185D01*
X69872474Y-83536176D01*
X69968941Y-83379782D01*
X70109744Y-83219002D01*
X70187576Y-83141170D01*
X70350731Y-82999210D01*
X70506943Y-82903655D01*
X70656211Y-82854508D01*
X70861617Y-82866703D01*
G37*
G36*
X71100365Y-81561879D02*
G01*
X72459681Y-82921195D01*
X72927403Y-83388917D01*
X72454322Y-85754322D01*
X70088917Y-86227403D01*
X69621195Y-85759681D01*
X69404142Y-85542629D01*
X68261879Y-84400365D01*
X67594828Y-83733314D01*
X69392511Y-83733314D01*
X69415837Y-83901949D01*
X69471378Y-84063459D01*
X69557614Y-84213276D01*
X69674544Y-84351400D01*
X69804995Y-84462118D01*
X69871865Y-85074907D01*
X70266504Y-85099024D01*
X70209501Y-84625455D01*
X70439845Y-84623674D01*
X70674848Y-84561327D01*
X70831546Y-84485018D01*
X70985200Y-84379597D01*
X71135809Y-84245067D01*
X71207064Y-84173812D01*
X71347868Y-84014129D01*
X71457489Y-83847869D01*
X71535931Y-83675031D01*
X71581729Y-83500366D01*
X71593421Y-83328624D01*
X71571010Y-83159806D01*
X71515955Y-82998174D01*
X71429719Y-82847992D01*
X71312301Y-82709259D01*
X71173568Y-82591841D01*
X71023385Y-82505605D01*
X70861754Y-82450550D01*
X70692936Y-82428138D01*
X70521194Y-82439831D01*
X70346529Y-82485629D01*
X70173569Y-82564192D01*
X70006944Y-82674179D01*
X69846651Y-82815592D01*
X69767723Y-82894520D01*
X69630269Y-83052194D01*
X69523388Y-83216810D01*
X69447078Y-83388369D01*
X69402925Y-83562120D01*
X69392511Y-83733314D01*
X67594828Y-83733314D01*
X67326435Y-83464921D01*
X70164921Y-80626435D01*
X71100365Y-81561879D01*
G37*
%TO.C,kibuzzard-64BFB036*%
G36*
X69600001Y-154089733D02*
G01*
X69721903Y-154172635D01*
X69798787Y-154305902D01*
X69824416Y-154484632D01*
X69824416Y-154916078D01*
X69045316Y-154916078D01*
X69045316Y-154486414D01*
X69071613Y-154298548D01*
X69150503Y-154166395D01*
X69275302Y-154088173D01*
X69439323Y-154062099D01*
X69600001Y-154089733D01*
G37*
G36*
X70226049Y-149497244D02*
G01*
X70431373Y-149545975D01*
X70593710Y-149626401D01*
X70752159Y-149802010D01*
X70804976Y-150040019D01*
X70750154Y-150282485D01*
X70585687Y-150460769D01*
X70419685Y-150541987D01*
X70214065Y-150590718D01*
X69968825Y-150606961D01*
X69842244Y-150606961D01*
X69594133Y-150589727D01*
X69389403Y-150540402D01*
X69228057Y-150458986D01*
X69070944Y-150282039D01*
X69018573Y-150043585D01*
X69071613Y-149803793D01*
X69230731Y-149626401D01*
X69393960Y-149545183D01*
X69600769Y-149496452D01*
X69851158Y-149480208D01*
X69977740Y-149480208D01*
X70226049Y-149497244D01*
G37*
G36*
X72584247Y-151380713D02*
G01*
X72584247Y-154916078D01*
X72584247Y-156916421D01*
X72584247Y-157451272D01*
X72584247Y-159733303D01*
X67815753Y-159733303D01*
X67815753Y-157451272D01*
X68612087Y-157451272D01*
X71207897Y-157451272D01*
X71207897Y-156916421D01*
X70147109Y-156916421D01*
X70147109Y-155889507D01*
X69715663Y-155889507D01*
X69715663Y-156916421D01*
X69045316Y-156916421D01*
X69045316Y-155761143D01*
X68612087Y-155761143D01*
X68612087Y-157451272D01*
X67815753Y-157451272D01*
X67815753Y-155450929D01*
X68612087Y-155450929D01*
X71207897Y-155450929D01*
X71207897Y-154916078D01*
X70257645Y-154916078D01*
X70257645Y-154489980D01*
X71207897Y-154003266D01*
X71207897Y-153429192D01*
X71182937Y-153429192D01*
X70122149Y-153990786D01*
X69998911Y-153786874D01*
X69839570Y-153642241D01*
X69640115Y-153555996D01*
X69396535Y-153527248D01*
X69165756Y-153554981D01*
X68972616Y-153638180D01*
X68817113Y-153776845D01*
X68703209Y-153966618D01*
X68634867Y-154203141D01*
X68612087Y-154486414D01*
X68612087Y-155450929D01*
X67815753Y-155450929D01*
X67815753Y-153120761D01*
X68612087Y-153120761D01*
X71207897Y-153120761D01*
X71207897Y-151380713D01*
X70778233Y-151380713D01*
X70778233Y-152585910D01*
X70082927Y-152585910D01*
X70082927Y-151558996D01*
X69663960Y-151558996D01*
X69663960Y-152585910D01*
X69045316Y-152585910D01*
X69045316Y-151384278D01*
X68612087Y-151384278D01*
X68612087Y-153120761D01*
X67815753Y-153120761D01*
X67815753Y-150043585D01*
X68576430Y-150043585D01*
X68593763Y-150251880D01*
X68645762Y-150444129D01*
X68732428Y-150620333D01*
X68851482Y-150775836D01*
X69000646Y-150905983D01*
X69179920Y-151010774D01*
X69384451Y-151087535D01*
X69609386Y-151133592D01*
X69854724Y-151148944D01*
X69983088Y-151148944D01*
X70223078Y-151132502D01*
X70443852Y-151085554D01*
X70645412Y-151008100D01*
X70822606Y-150902714D01*
X70970285Y-150771973D01*
X71088447Y-150615875D01*
X71174618Y-150439375D01*
X71226320Y-150247423D01*
X71243554Y-150040019D01*
X71227508Y-149843907D01*
X71671435Y-149291228D01*
X71370135Y-148950706D01*
X71031396Y-149382152D01*
X70842638Y-149196292D01*
X70600841Y-149055893D01*
X70411365Y-148990522D01*
X70200693Y-148951300D01*
X69968825Y-148938226D01*
X69852941Y-148938226D01*
X69608593Y-148953578D01*
X69384253Y-148999635D01*
X69179920Y-149076396D01*
X69000646Y-149181187D01*
X68851482Y-149311334D01*
X68732428Y-149466837D01*
X68645762Y-149643041D01*
X68593763Y-149835290D01*
X68576430Y-150043585D01*
X67815753Y-150043585D01*
X67815753Y-148938226D01*
X67815753Y-146656195D01*
X70200000Y-145066697D01*
X72584247Y-146656195D01*
X72584247Y-148938226D01*
X72584247Y-149291228D01*
X72584247Y-151380713D01*
G37*
%TO.C,kibuzzard-64BD3725*%
G36*
X82172770Y-148679053D02*
G01*
X81673575Y-148679053D01*
X82143314Y-147933362D01*
X82172770Y-147882202D01*
X82172770Y-148679053D01*
G37*
G36*
X84209855Y-147676013D02*
G01*
X84326127Y-147753528D01*
X84399378Y-147871738D01*
X84423795Y-148021729D01*
X84399572Y-148164355D01*
X84326902Y-148269775D01*
X84208111Y-148334888D01*
X84045524Y-148356592D01*
X83630045Y-148356592D01*
X83630045Y-147648108D01*
X84056376Y-147648108D01*
X84209855Y-147676013D01*
G37*
G36*
X85554992Y-150190072D02*
G01*
X84893534Y-150190072D01*
X83630045Y-150190072D01*
X82620804Y-150190072D01*
X81227091Y-150190072D01*
X80645008Y-150190072D01*
X80645008Y-148758118D01*
X81227091Y-148758118D01*
X81247245Y-149040271D01*
X82172770Y-149040271D01*
X82172770Y-149528613D01*
X82620804Y-149528613D01*
X82620804Y-149040271D01*
X82876603Y-149040271D01*
X82876603Y-148679053D01*
X82620804Y-148679053D01*
X82620804Y-147271387D01*
X83164957Y-147271387D01*
X83164957Y-149528613D01*
X83630045Y-149528613D01*
X83630045Y-148733313D01*
X84037772Y-148733313D01*
X84286077Y-148712040D01*
X84495625Y-148648219D01*
X84666416Y-148541852D01*
X84792593Y-148398622D01*
X84868299Y-148224214D01*
X84893534Y-148018628D01*
X84867567Y-147811858D01*
X84789664Y-147628729D01*
X84663509Y-147476994D01*
X84492783Y-147364404D01*
X84284463Y-147294641D01*
X84045524Y-147271387D01*
X83164957Y-147271387D01*
X82620804Y-147271387D01*
X82168119Y-147271387D01*
X81227091Y-148758118D01*
X80645008Y-148758118D01*
X80645008Y-146609928D01*
X81227091Y-146609928D01*
X84893534Y-146609928D01*
X85554992Y-146609928D01*
X85554992Y-150190072D01*
G37*
%TO.C,kibuzzard-64BD36C9*%
G36*
X58895799Y-147777563D02*
G01*
X59012071Y-147855078D01*
X59085322Y-147973288D01*
X59109739Y-148123279D01*
X59085516Y-148265906D01*
X59012846Y-148371326D01*
X58894055Y-148436438D01*
X58731468Y-148458142D01*
X58315989Y-148458142D01*
X58315989Y-147749658D01*
X58742320Y-147749658D01*
X58895799Y-147777563D01*
G37*
G36*
X60240936Y-150291622D02*
G01*
X59579478Y-150291622D01*
X58315989Y-150291622D01*
X57069554Y-150291622D01*
X56086668Y-150291622D01*
X55359064Y-150291622D01*
X55359064Y-148069019D01*
X56086668Y-148069019D01*
X56621519Y-147903137D01*
X56621519Y-149630164D01*
X57069554Y-149630164D01*
X57069554Y-147372937D01*
X57850901Y-147372937D01*
X57850901Y-149630164D01*
X58315989Y-149630164D01*
X58315989Y-148834863D01*
X58723716Y-148834863D01*
X58972021Y-148813590D01*
X59181569Y-148749769D01*
X59352360Y-148643402D01*
X59478537Y-148500172D01*
X59554243Y-148325764D01*
X59579478Y-148120178D01*
X59553511Y-147913408D01*
X59475608Y-147730280D01*
X59349453Y-147578545D01*
X59178727Y-147465955D01*
X58970407Y-147396191D01*
X58731468Y-147372937D01*
X57850901Y-147372937D01*
X57069554Y-147372937D01*
X57069554Y-147369836D01*
X57021495Y-147369836D01*
X56086668Y-147704700D01*
X56086668Y-148069019D01*
X55359064Y-148069019D01*
X55359064Y-146708378D01*
X56086668Y-146708378D01*
X59579478Y-146708378D01*
X60240936Y-146708378D01*
X60240936Y-150291622D01*
G37*
%TO.C,kibuzzard-64BFAFE6*%
G36*
X80268193Y-79922510D02*
G01*
X80473516Y-79971241D01*
X80635853Y-80051667D01*
X80794303Y-80227276D01*
X80847120Y-80465285D01*
X80792297Y-80707751D01*
X80627831Y-80886034D01*
X80461829Y-80967253D01*
X80256208Y-81015983D01*
X80010969Y-81032227D01*
X79884388Y-81032227D01*
X79636276Y-81014993D01*
X79431547Y-80965668D01*
X79270200Y-80884252D01*
X79113088Y-80707305D01*
X79060717Y-80468851D01*
X79113756Y-80229059D01*
X79272875Y-80051667D01*
X79436103Y-79970449D01*
X79642912Y-79921718D01*
X79893302Y-79905474D01*
X80019883Y-79905474D01*
X80268193Y-79922510D01*
G37*
G36*
X82046375Y-78439982D02*
G01*
X82046375Y-80465285D01*
X82046375Y-83505022D01*
X82046375Y-86097267D01*
X82046375Y-88463091D01*
X82046375Y-89534576D01*
X82046375Y-95619993D01*
X77553625Y-95619993D01*
X77553625Y-89534576D01*
X77553625Y-88455960D01*
X78618573Y-88455960D01*
X78635510Y-88663462D01*
X78686321Y-88853335D01*
X78771006Y-89025576D01*
X78956644Y-89242414D01*
X79208692Y-89402646D01*
X79408766Y-89475941D01*
X79628650Y-89519917D01*
X79868342Y-89534576D01*
X80027015Y-89534576D01*
X80304636Y-89516692D01*
X80550946Y-89463040D01*
X80765945Y-89373620D01*
X80949633Y-89248431D01*
X81096661Y-89092043D01*
X81201681Y-88909023D01*
X81264693Y-88699373D01*
X81285697Y-88463091D01*
X81258955Y-88178531D01*
X81178727Y-87933391D01*
X81045014Y-87727671D01*
X80864750Y-87569296D01*
X80644867Y-87466188D01*
X80385365Y-87418349D01*
X80385365Y-87953200D01*
X80591505Y-87997102D01*
X80735692Y-88093153D01*
X80820600Y-88246699D01*
X80848902Y-88463091D01*
X80800320Y-88700877D01*
X80654573Y-88865121D01*
X80499863Y-88935939D01*
X80294836Y-88978430D01*
X80039494Y-88992594D01*
X79843382Y-88992594D01*
X79598242Y-88975855D01*
X79400050Y-88930393D01*
X79248806Y-88856207D01*
X79105065Y-88689734D01*
X79057151Y-88455960D01*
X79085454Y-88241351D01*
X79170361Y-88089587D01*
X79318114Y-87994428D01*
X79534952Y-87949634D01*
X79534952Y-87414783D01*
X79266536Y-87469061D01*
X79041304Y-87574842D01*
X78859256Y-87732128D01*
X78725544Y-87934579D01*
X78645316Y-88175856D01*
X78618573Y-88455960D01*
X77553625Y-88455960D01*
X77553625Y-87092090D01*
X78654230Y-87092090D01*
X80383582Y-87092090D01*
X80644074Y-87059404D01*
X80864552Y-86968480D01*
X81045014Y-86819316D01*
X81178727Y-86620232D01*
X81258955Y-86379549D01*
X81285697Y-86097267D01*
X81258163Y-85811121D01*
X81175558Y-85568358D01*
X81037883Y-85368978D01*
X80852864Y-85220903D01*
X80628227Y-85132059D01*
X80363971Y-85102444D01*
X78654230Y-85102444D01*
X78654230Y-85639078D01*
X80381799Y-85639078D01*
X80589277Y-85670389D01*
X80737475Y-85757191D01*
X80826394Y-85899483D01*
X80856034Y-86097267D01*
X80826840Y-86289590D01*
X80739258Y-86435114D01*
X80587940Y-86526708D01*
X80367536Y-86557239D01*
X78654230Y-86557239D01*
X78654230Y-87092090D01*
X77553625Y-87092090D01*
X77553625Y-84824321D01*
X78654230Y-84824321D01*
X79087460Y-84824321D01*
X79087460Y-84039873D01*
X81250041Y-84039873D01*
X81250041Y-83505022D01*
X79087460Y-83505022D01*
X79087460Y-82709877D01*
X78654230Y-82709877D01*
X78654230Y-84824321D01*
X77553625Y-84824321D01*
X77553625Y-80468851D01*
X78618573Y-80468851D01*
X78635907Y-80677145D01*
X78687906Y-80869395D01*
X78774572Y-81045598D01*
X78893626Y-81201101D01*
X79042790Y-81331248D01*
X79222064Y-81436040D01*
X79426595Y-81512801D01*
X79651529Y-81558857D01*
X79896867Y-81574209D01*
X80025232Y-81574209D01*
X80265221Y-81557768D01*
X80485996Y-81510820D01*
X80687556Y-81433365D01*
X80864750Y-81327980D01*
X81012428Y-81197239D01*
X81130591Y-81041141D01*
X81216761Y-80864640D01*
X81268463Y-80672688D01*
X81285697Y-80465285D01*
X81268265Y-80256000D01*
X81215969Y-80063156D01*
X81128808Y-79886754D01*
X81009556Y-79731548D01*
X80860986Y-79602293D01*
X80683099Y-79498987D01*
X80480053Y-79423712D01*
X80256010Y-79378547D01*
X80010969Y-79363492D01*
X79895085Y-79363492D01*
X79650737Y-79378844D01*
X79426397Y-79424901D01*
X79222064Y-79501662D01*
X79042790Y-79606453D01*
X78893626Y-79736600D01*
X78774572Y-79892103D01*
X78687906Y-80068307D01*
X78635907Y-80260556D01*
X78618573Y-80468851D01*
X77553625Y-80468851D01*
X77553625Y-78974833D01*
X78654230Y-78974833D01*
X81250041Y-78974833D01*
X81250041Y-78439982D01*
X80189253Y-78439982D01*
X80189253Y-77413068D01*
X79757806Y-77413068D01*
X79757806Y-78439982D01*
X79087460Y-78439982D01*
X79087460Y-77284704D01*
X78654230Y-77284704D01*
X78654230Y-78974833D01*
X77553625Y-78974833D01*
X77553625Y-76974490D01*
X78654230Y-76974490D01*
X81250041Y-76974490D01*
X81250041Y-76439639D01*
X80189253Y-76439639D01*
X80189253Y-75412725D01*
X79757806Y-75412725D01*
X79757806Y-76439639D01*
X79087460Y-76439639D01*
X79087460Y-75284361D01*
X78654230Y-75284361D01*
X78654230Y-76974490D01*
X77553625Y-76974490D01*
X77553625Y-75284361D01*
X77553625Y-67677590D01*
X79800000Y-66180007D01*
X82046375Y-67677590D01*
X82046375Y-75284361D01*
X82046375Y-76439639D01*
X82046375Y-78439982D01*
G37*
%TO.C,kibuzzard-63FBCCA9*%
G36*
X62228308Y-93090072D02*
G01*
X57994975Y-93090072D01*
X55728446Y-93090072D01*
X55263359Y-93090072D01*
X49971692Y-93090072D01*
X49971692Y-90171387D01*
X55263359Y-90171387D01*
X55263359Y-92428613D01*
X55728446Y-92428613D01*
X55728446Y-90171387D01*
X56159428Y-90171387D01*
X56159428Y-92428613D01*
X56624516Y-92428613D01*
X56624516Y-90943433D01*
X57529887Y-92428613D01*
X57994975Y-92428613D01*
X57994975Y-90171387D01*
X57531437Y-90171387D01*
X57531437Y-91659668D01*
X56624516Y-90171387D01*
X56159428Y-90171387D01*
X55728446Y-90171387D01*
X55263359Y-90171387D01*
X49971692Y-90171387D01*
X49971692Y-89509928D01*
X55263359Y-89509928D01*
X57994975Y-89509928D01*
X62228308Y-89509928D01*
X62228308Y-93090072D01*
G37*
%TD*%
D15*
%TO.C,Ref\u002A\u002A*%
X70200000Y-140000000D03*
%TD*%
D16*
%TO.C,Ref\u002A\u002A*%
X75600000Y-53300000D03*
%TD*%
%TO.C,Ref\u002A\u002A*%
X62900000Y-76100000D03*
%TD*%
D17*
%TO.C,Ref\u002A\u002A*%
X82900000Y-156700000D03*
%TD*%
D15*
%TO.C,Ref\u002A\u002A*%
X57800000Y-141500000D03*
%TD*%
%TO.C,Ref\u002A\u002A*%
X83100000Y-141500000D03*
%TD*%
D17*
%TO.C,Ref\u002A\u002A*%
X57500000Y-34200000D03*
%TD*%
M02*
