%TF.GenerationSoftware,KiCad,Pcbnew,7.0.6*%
%TF.CreationDate,2023-07-26T19:09:21+01:00*%
%TF.ProjectId,Hypersoniq_Panel,48797065-7273-46f6-9e69-715f50616e65,rev?*%
%TF.SameCoordinates,Original*%
%TF.FileFunction,Copper,L1,Top*%
%TF.FilePolarity,Positive*%
%FSLAX46Y46*%
G04 Gerber Fmt 4.6, Leading zero omitted, Abs format (unit mm)*
G04 Created by KiCad (PCBNEW 7.0.6) date 2023-07-26 19:09:21*
%MOMM*%
%LPD*%
G01*
G04 APERTURE LIST*
G04 APERTURE END LIST*
%TA.AperFunction,NonConductor*%
G36*
X88302244Y-31300161D02*
G01*
X88471292Y-31312251D01*
X88575648Y-31319714D01*
X88593435Y-31322272D01*
X88854657Y-31379098D01*
X88871896Y-31384158D01*
X89122392Y-31477589D01*
X89138738Y-31485054D01*
X89373374Y-31613175D01*
X89388498Y-31622895D01*
X89602509Y-31783102D01*
X89616095Y-31794875D01*
X89805124Y-31983904D01*
X89816897Y-31997490D01*
X89977104Y-32211501D01*
X89986824Y-32226625D01*
X90114945Y-32461261D01*
X90122413Y-32477613D01*
X90215838Y-32728095D01*
X90220902Y-32745345D01*
X90277726Y-33006560D01*
X90280285Y-33024354D01*
X90299839Y-33297755D01*
X90300000Y-33302251D01*
X90300000Y-157697748D01*
X90299839Y-157702244D01*
X90280285Y-157975645D01*
X90277726Y-157993439D01*
X90220902Y-158254654D01*
X90215838Y-158271904D01*
X90122413Y-158522386D01*
X90114945Y-158538738D01*
X89986824Y-158773374D01*
X89977104Y-158788498D01*
X89816897Y-159002509D01*
X89805124Y-159016095D01*
X89616095Y-159205124D01*
X89602509Y-159216897D01*
X89388498Y-159377104D01*
X89373374Y-159386824D01*
X89138738Y-159514945D01*
X89122386Y-159522413D01*
X88871904Y-159615838D01*
X88854654Y-159620902D01*
X88593439Y-159677726D01*
X88575645Y-159680285D01*
X88309235Y-159699339D01*
X88304739Y-159699500D01*
X52095261Y-159699500D01*
X52090765Y-159699339D01*
X51824354Y-159680285D01*
X51806560Y-159677726D01*
X51545345Y-159620902D01*
X51528095Y-159615838D01*
X51277613Y-159522413D01*
X51261261Y-159514945D01*
X51026625Y-159386824D01*
X51011501Y-159377104D01*
X50797490Y-159216897D01*
X50783904Y-159205124D01*
X50594875Y-159016095D01*
X50583102Y-159002509D01*
X50422895Y-158788498D01*
X50413175Y-158773374D01*
X50285054Y-158538738D01*
X50277589Y-158522392D01*
X50184158Y-158271896D01*
X50179097Y-158254654D01*
X50122273Y-157993439D01*
X50119714Y-157975644D01*
X50100161Y-157702244D01*
X50100000Y-157697748D01*
X50100000Y-131964386D01*
X52235907Y-131964386D01*
X52239500Y-132051348D01*
X52239500Y-132120411D01*
X52238086Y-132165948D01*
X52252443Y-132215460D01*
X52263701Y-132254281D01*
X52315224Y-132330457D01*
X52315225Y-132330458D01*
X52315226Y-132330459D01*
X52387674Y-132387114D01*
X52474029Y-132418756D01*
X52508812Y-132420074D01*
X52512175Y-132420500D01*
X52519901Y-132420500D01*
X52519981Y-132420500D01*
X52554051Y-132421797D01*
X52569377Y-132420500D01*
X52583241Y-132420500D01*
X52586927Y-132420608D01*
X52666699Y-132425282D01*
X52690350Y-132420500D01*
X68109652Y-132420500D01*
X68120468Y-132423675D01*
X68206306Y-132420500D01*
X68278315Y-132420500D01*
X68282023Y-132420609D01*
X68328908Y-132423372D01*
X68328908Y-132423371D01*
X68328910Y-132423372D01*
X68423350Y-132397019D01*
X68504085Y-132341385D01*
X68562338Y-132262518D01*
X68562339Y-132262512D01*
X68566108Y-132255106D01*
X68569302Y-132251719D01*
X68570580Y-132242343D01*
X68575240Y-132221527D01*
X68591775Y-132168996D01*
X68591776Y-132168994D01*
X68590500Y-132119987D01*
X68590500Y-132119985D01*
X68590500Y-132050170D01*
X68590564Y-132047326D01*
X68594243Y-131965907D01*
X68593929Y-131964383D01*
X71835907Y-131964383D01*
X71839500Y-132051348D01*
X71839500Y-132120411D01*
X71838086Y-132165948D01*
X71852443Y-132215460D01*
X71863701Y-132254281D01*
X71915224Y-132330457D01*
X71915225Y-132330458D01*
X71915226Y-132330459D01*
X71987674Y-132387114D01*
X72074029Y-132418756D01*
X72108812Y-132420074D01*
X72112175Y-132420500D01*
X72119901Y-132420500D01*
X72119981Y-132420500D01*
X72154051Y-132421797D01*
X72169377Y-132420500D01*
X72183241Y-132420500D01*
X72186927Y-132420608D01*
X72266699Y-132425282D01*
X72290350Y-132420500D01*
X87709652Y-132420500D01*
X87720468Y-132423675D01*
X87806306Y-132420500D01*
X87878315Y-132420500D01*
X87882023Y-132420609D01*
X87928908Y-132423372D01*
X87928908Y-132423371D01*
X87928910Y-132423372D01*
X88023350Y-132397019D01*
X88104085Y-132341385D01*
X88162338Y-132262518D01*
X88162339Y-132262512D01*
X88166108Y-132255106D01*
X88169302Y-132251719D01*
X88170580Y-132242343D01*
X88175240Y-132221527D01*
X88191775Y-132168996D01*
X88191776Y-132168994D01*
X88190500Y-132119987D01*
X88190500Y-132119985D01*
X88190500Y-132050170D01*
X88190564Y-132047326D01*
X88194243Y-131965907D01*
X88190500Y-131947712D01*
X88190500Y-116252815D01*
X88195281Y-116236532D01*
X88190593Y-116150323D01*
X88190500Y-116146901D01*
X88190500Y-116131880D01*
X88191561Y-116128265D01*
X88190500Y-116079988D01*
X88190500Y-116071174D01*
X88190197Y-116068412D01*
X88189427Y-116031686D01*
X88157753Y-115940399D01*
X88097363Y-115860261D01*
X88093737Y-115858388D01*
X88086388Y-115853933D01*
X88061317Y-115836291D01*
X88020583Y-115807626D01*
X88020577Y-115807623D01*
X87928305Y-115778940D01*
X87928304Y-115778940D01*
X87880080Y-115779500D01*
X87811214Y-115779500D01*
X87808306Y-115779433D01*
X87726925Y-115775672D01*
X87708300Y-115779500D01*
X72290353Y-115779500D01*
X72272651Y-115774302D01*
X72186793Y-115779390D01*
X72183066Y-115779500D01*
X72169413Y-115779500D01*
X72163215Y-115777680D01*
X72153751Y-115778078D01*
X72074072Y-115781334D01*
X72074063Y-115781336D01*
X71987860Y-115813137D01*
X71987856Y-115813140D01*
X71915518Y-115869798D01*
X71915513Y-115869802D01*
X71863980Y-115945884D01*
X71838203Y-116034086D01*
X71839500Y-116080011D01*
X71839500Y-116148414D01*
X71836027Y-116231144D01*
X71839500Y-116247946D01*
X71839499Y-131952152D01*
X71835907Y-131964383D01*
X68593929Y-131964383D01*
X68590500Y-131947712D01*
X68590500Y-116252815D01*
X68595281Y-116236532D01*
X68590593Y-116150323D01*
X68590500Y-116146901D01*
X68590500Y-116131880D01*
X68591561Y-116128265D01*
X68590500Y-116079988D01*
X68590500Y-116071174D01*
X68590197Y-116068412D01*
X68589427Y-116031686D01*
X68557753Y-115940399D01*
X68497363Y-115860261D01*
X68493737Y-115858388D01*
X68486388Y-115853933D01*
X68461317Y-115836291D01*
X68420583Y-115807626D01*
X68420577Y-115807623D01*
X68328305Y-115778940D01*
X68328304Y-115778940D01*
X68280080Y-115779500D01*
X68211214Y-115779500D01*
X68208306Y-115779433D01*
X68126925Y-115775672D01*
X68108300Y-115779500D01*
X52690353Y-115779500D01*
X52672651Y-115774302D01*
X52586793Y-115779390D01*
X52583066Y-115779500D01*
X52569413Y-115779500D01*
X52563215Y-115777680D01*
X52553751Y-115778078D01*
X52474072Y-115781334D01*
X52474063Y-115781336D01*
X52387860Y-115813137D01*
X52387856Y-115813140D01*
X52315518Y-115869798D01*
X52315513Y-115869802D01*
X52263980Y-115945884D01*
X52238203Y-116034086D01*
X52239500Y-116080011D01*
X52239500Y-116148414D01*
X52236027Y-116231144D01*
X52239500Y-116247946D01*
X52239500Y-131952152D01*
X52235907Y-131964386D01*
X50100000Y-131964386D01*
X50100000Y-111864386D01*
X52235907Y-111864386D01*
X52239500Y-111951348D01*
X52239500Y-112020411D01*
X52238086Y-112065948D01*
X52252443Y-112115460D01*
X52263701Y-112154281D01*
X52315224Y-112230457D01*
X52315225Y-112230458D01*
X52315226Y-112230459D01*
X52387674Y-112287114D01*
X52474029Y-112318756D01*
X52508812Y-112320074D01*
X52512175Y-112320500D01*
X52519901Y-112320500D01*
X52519981Y-112320500D01*
X52554051Y-112321797D01*
X52569377Y-112320500D01*
X52583241Y-112320500D01*
X52586927Y-112320608D01*
X52666699Y-112325282D01*
X52690350Y-112320500D01*
X68109652Y-112320500D01*
X68120468Y-112323675D01*
X68206306Y-112320500D01*
X68278315Y-112320500D01*
X68282023Y-112320609D01*
X68328908Y-112323372D01*
X68328908Y-112323371D01*
X68328910Y-112323372D01*
X68423350Y-112297019D01*
X68504085Y-112241385D01*
X68562338Y-112162518D01*
X68562339Y-112162512D01*
X68566108Y-112155106D01*
X68569302Y-112151719D01*
X68570580Y-112142343D01*
X68575240Y-112121527D01*
X68591775Y-112068996D01*
X68591776Y-112068994D01*
X68590500Y-112019987D01*
X68590500Y-112019985D01*
X68590500Y-111950170D01*
X68590564Y-111947326D01*
X68594243Y-111865907D01*
X68593929Y-111864383D01*
X71835907Y-111864383D01*
X71839500Y-111951348D01*
X71839500Y-112020411D01*
X71838086Y-112065948D01*
X71852443Y-112115460D01*
X71863701Y-112154281D01*
X71915224Y-112230457D01*
X71915225Y-112230458D01*
X71915226Y-112230459D01*
X71987674Y-112287114D01*
X72074029Y-112318756D01*
X72108812Y-112320074D01*
X72112175Y-112320500D01*
X72119901Y-112320500D01*
X72119981Y-112320500D01*
X72154051Y-112321797D01*
X72169377Y-112320500D01*
X72183241Y-112320500D01*
X72186927Y-112320608D01*
X72266699Y-112325282D01*
X72290350Y-112320500D01*
X87709652Y-112320500D01*
X87720468Y-112323675D01*
X87806306Y-112320500D01*
X87878315Y-112320500D01*
X87882023Y-112320609D01*
X87928908Y-112323372D01*
X87928908Y-112323371D01*
X87928910Y-112323372D01*
X88023350Y-112297019D01*
X88104085Y-112241385D01*
X88162338Y-112162518D01*
X88162339Y-112162512D01*
X88166108Y-112155106D01*
X88169302Y-112151719D01*
X88170580Y-112142343D01*
X88175240Y-112121527D01*
X88191775Y-112068996D01*
X88191776Y-112068994D01*
X88190500Y-112019987D01*
X88190500Y-112019985D01*
X88190500Y-111950170D01*
X88190564Y-111947326D01*
X88194243Y-111865907D01*
X88190500Y-111847712D01*
X88190500Y-96152815D01*
X88195281Y-96136532D01*
X88190593Y-96050323D01*
X88190500Y-96046901D01*
X88190500Y-96031880D01*
X88191561Y-96028265D01*
X88190500Y-95979988D01*
X88190500Y-95971174D01*
X88190197Y-95968412D01*
X88189427Y-95931686D01*
X88157753Y-95840399D01*
X88097363Y-95760261D01*
X88093737Y-95758388D01*
X88086388Y-95753933D01*
X88061317Y-95736291D01*
X88020583Y-95707626D01*
X88020577Y-95707623D01*
X87928305Y-95678940D01*
X87928304Y-95678940D01*
X87880080Y-95679500D01*
X87811214Y-95679500D01*
X87808306Y-95679433D01*
X87726925Y-95675672D01*
X87708300Y-95679500D01*
X72290353Y-95679500D01*
X72272651Y-95674302D01*
X72186793Y-95679390D01*
X72183066Y-95679500D01*
X72169413Y-95679500D01*
X72163215Y-95677680D01*
X72153751Y-95678078D01*
X72074072Y-95681334D01*
X72074063Y-95681336D01*
X71987860Y-95713137D01*
X71987856Y-95713140D01*
X71915518Y-95769798D01*
X71915513Y-95769802D01*
X71863980Y-95845884D01*
X71838203Y-95934086D01*
X71839500Y-95980011D01*
X71839500Y-96048414D01*
X71836027Y-96131144D01*
X71839500Y-96147946D01*
X71839499Y-111852152D01*
X71835907Y-111864383D01*
X68593929Y-111864383D01*
X68590500Y-111847712D01*
X68590500Y-96152815D01*
X68595281Y-96136532D01*
X68590593Y-96050323D01*
X68590500Y-96046901D01*
X68590500Y-96031880D01*
X68591561Y-96028265D01*
X68590500Y-95979988D01*
X68590500Y-95971174D01*
X68590197Y-95968412D01*
X68589427Y-95931686D01*
X68557753Y-95840399D01*
X68497363Y-95760261D01*
X68493737Y-95758388D01*
X68486388Y-95753933D01*
X68461317Y-95736291D01*
X68420583Y-95707626D01*
X68420577Y-95707623D01*
X68328305Y-95678940D01*
X68328304Y-95678940D01*
X68280080Y-95679500D01*
X68211214Y-95679500D01*
X68208306Y-95679433D01*
X68126925Y-95675672D01*
X68108300Y-95679500D01*
X52690353Y-95679500D01*
X52672651Y-95674302D01*
X52586793Y-95679390D01*
X52583066Y-95679500D01*
X52569413Y-95679500D01*
X52563215Y-95677680D01*
X52553751Y-95678078D01*
X52474072Y-95681334D01*
X52474063Y-95681336D01*
X52387860Y-95713137D01*
X52387856Y-95713140D01*
X52315518Y-95769798D01*
X52315513Y-95769802D01*
X52263980Y-95845884D01*
X52238203Y-95934086D01*
X52239500Y-95980011D01*
X52239500Y-96048414D01*
X52236027Y-96131144D01*
X52239500Y-96147946D01*
X52239500Y-111852152D01*
X52235907Y-111864386D01*
X50100000Y-111864386D01*
X50100000Y-33302251D01*
X50100161Y-33297755D01*
X50119714Y-33024355D01*
X50122272Y-33006566D01*
X50179098Y-32745338D01*
X50184157Y-32728107D01*
X50277591Y-32477601D01*
X50285050Y-32461268D01*
X50413178Y-32226620D01*
X50422891Y-32211506D01*
X50583108Y-31997482D01*
X50594868Y-31983911D01*
X50783911Y-31794868D01*
X50797482Y-31783108D01*
X51011506Y-31622891D01*
X51026620Y-31613178D01*
X51261268Y-31485050D01*
X51277601Y-31477591D01*
X51528107Y-31384157D01*
X51545338Y-31379098D01*
X51806566Y-31322272D01*
X51824349Y-31319714D01*
X51942267Y-31311281D01*
X52097756Y-31300161D01*
X52102252Y-31300000D01*
X88297748Y-31300000D01*
X88302244Y-31300161D01*
G37*
%TD.AperFunction*%
M02*
