M48
; DRILL file {KiCad 7.0.6} date Thu Jul 27 10:13:21 2023
; FORMAT={-:-/ absolute / inch / decimal}
; #@! TF.CreationDate,2023-07-27T10:13:21+01:00
; #@! TF.GenerationSoftware,Kicad,Pcbnew,7.0.6
; #@! TF.FileFunction,Plated,1,2,PTH
FMAT,2
INCH
; #@! TA.AperFunction,Plated,PTH,ViaDrill
T1C0.0157
; #@! TA.AperFunction,Plated,PTH,ViaDrill
T2C0.0197
; #@! TA.AperFunction,Plated,PTH,ComponentDrill
T3C0.0394
; #@! TA.AperFunction,Plated,PTH,ComponentDrill
T4C0.0512
%
G90
G05
T1
X2.0079Y-5.4331
X2.0551Y-4.7677
X2.0669Y-3.4803
X2.1181Y-2.0709
X2.122Y-2.2402
X2.122Y-4.3504
X2.1969Y-2.3465
X2.2441Y-4.3346
X2.2559Y-3.5472
X2.2598Y-3.3346
X2.2756Y-2.2402
X2.2756Y-4.7008
X2.3346Y-4.6024
X2.3425Y-3.0197
X2.3425Y-3.1732
X2.3622Y-3.5315
X2.3622Y-4.7244
X2.3701Y-4.0827
X2.4016Y-4.3307
X2.4055Y-5.5079
X2.4134Y-3.9213
X2.4213Y-5.0394
X2.4213Y-5.6969
X2.4291Y-3.1339
X2.4291Y-4.7874
X2.4291Y-5.4449
X2.4331Y-3.6693
X2.4409Y-2.8858
X2.4646Y-3.4724
X2.4685Y-4.6181
X2.5197Y-5.1496
X2.5945Y-2.5906
X2.6181Y-4.5354
X2.6496Y-3.3189
X2.6535Y-4.0945
X2.6811Y-5.6732
X2.685Y-5.2795
X2.7047Y-3.6693
X2.7047Y-4.7835
X2.7047Y-4.8819
X2.7283Y-3.0315
X2.7283Y-3.4724
X2.7323Y-3.4094
X2.7564Y-3.28
X2.7638Y-4.3307
X2.7835Y-2.7874
X2.7913Y-2.6339
X2.7992Y-3.9134
X2.7992Y-5.0354
X2.811Y-4.5354
X2.8228Y-5.5827
X2.8465Y-3.5669
X2.8622Y-4.0866
X2.8858Y-4.7323
X2.9488Y-2.878
X2.9488Y-4.3976
X2.9961Y-5.1811
X3.0394Y-3.4724
X3.0551Y-2.8898
X3.0591Y-4.0394
X3.0945Y-3.2677
X3.0984Y-4.6614
X3.0984Y-4.9134
X3.0984Y-5.3189
X3.0984Y-5.5669
X3.0984Y-5.685
X3.1046Y-2.6159
X3.1063Y-2.6969
X3.1142Y-4.3307
X3.1654Y-3.1417
X3.1654Y-5.063
X3.1801Y-3.7126
X3.1801Y-3.9166
X3.185Y-3.3465
X3.2008Y-2.9252
X3.2244Y-5.7402
X3.252Y-2.1142
X3.2598Y-4.6299
X3.2638Y-3.7441
X3.2638Y-3.9134
X3.3031Y-2.9528
X3.3701Y-3.311
X3.3976Y-2.1142
X3.4252Y-3.7992
X3.4488Y-3.5079
X3.4488Y-5.4173
X3.4646Y-4.8898
X3.4961Y-4.3583
X3.5236Y-2.3189
T2
X2.5945Y-4.3661
X2.6614Y-5.0748
X2.6772Y-2.8425
X2.7283Y-3.9016
X2.7287Y-3.6293
X2.7677Y-2.4449
X2.7936Y-4.7471
X2.7992Y-3.315
X2.7992Y-3.4724
X2.8031Y-4.6299
X2.8425Y-5.3071
X2.8543Y-5.6732
X2.8898Y-2.9843
X2.8937Y-2.4606
X2.9291Y-4.311
X2.9606Y-3.4724
X3.0984Y-3.7992
T3
X2.063Y-2.4724
X2.063Y-2.5724
X2.063Y-2.6724
X2.063Y-2.7724
X2.063Y-2.8724
X2.063Y-2.9724
X2.063Y-3.0724
X2.063Y-3.1724
X2.063Y-3.2724
X2.063Y-3.3724
X2.3146Y-5.8228
X2.4146Y-5.8228
X2.5146Y-5.8228
X2.563Y-2.1441
X2.563Y-2.2441
X2.6146Y-5.8228
X2.663Y-2.1441
X2.663Y-2.2441
X2.7146Y-5.8228
X2.763Y-2.1441
X2.763Y-2.2441
X2.8146Y-5.8228
X2.863Y-2.1441
X2.863Y-2.2441
X2.9146Y-5.8228
X2.963Y-2.1441
X2.963Y-2.2441
X3.0146Y-5.8228
X3.1146Y-5.8228
X3.2146Y-5.8228
X3.4606Y-2.4724
X3.4606Y-2.5724
X3.4606Y-2.6724
X3.4606Y-2.7724
X3.4606Y-2.8724
X3.4606Y-2.9724
X3.4606Y-3.0724
X3.4606Y-3.1724
X3.4606Y-3.2724
X3.4606Y-3.3724
T4
X2.0728Y-5.8287
X2.2205Y-2.4606
X3.311Y-2.4646
X3.4606Y-3.6811
T0
M30
