%TF.GenerationSoftware,KiCad,Pcbnew,7.0.6*%
%TF.CreationDate,2023-07-27T10:13:18+01:00*%
%TF.ProjectId,Hypersoniq_Components,48797065-7273-46f6-9e69-715f436f6d70,rev?*%
%TF.SameCoordinates,Original*%
%TF.FileFunction,Soldermask,Bot*%
%TF.FilePolarity,Negative*%
%FSLAX46Y46*%
G04 Gerber Fmt 4.6, Leading zero omitted, Abs format (unit mm)*
G04 Created by KiCad (PCBNEW 7.0.6) date 2023-07-27 10:13:18*
%MOMM*%
%LPD*%
G01*
G04 APERTURE LIST*
%ADD10R,1.700000X1.700000*%
%ADD11C,1.700000*%
%ADD12C,2.000000*%
%ADD13O,1.700000X1.700000*%
G04 APERTURE END LIST*
D10*
%TO.C,J4*%
X65100000Y-57000000D03*
D11*
X65100000Y-54460000D03*
X67640000Y-57000000D03*
X67640000Y-54460000D03*
X70180000Y-57000000D03*
X70180000Y-54460000D03*
X72720000Y-57000000D03*
X72720000Y-54460000D03*
X75260000Y-57000000D03*
X75260000Y-54460000D03*
%TD*%
D12*
%TO.C,TP2*%
X56400000Y-62500000D03*
%TD*%
%TO.C,TP4*%
X52650000Y-148050000D03*
%TD*%
%TO.C,TP1*%
X84100000Y-62600000D03*
%TD*%
%TO.C,TP3*%
X87900000Y-93500000D03*
%TD*%
D10*
%TO.C,J3*%
X81650000Y-147900000D03*
D13*
X79110000Y-147900000D03*
X76570000Y-147900000D03*
X74030000Y-147900000D03*
X71490000Y-147900000D03*
X68950000Y-147900000D03*
X66410000Y-147900000D03*
X63870000Y-147900000D03*
X61330000Y-147900000D03*
X58790000Y-147900000D03*
%TD*%
D10*
%TO.C,J1*%
X52400000Y-62800000D03*
D13*
X52400000Y-65340000D03*
X52400000Y-67880000D03*
X52400000Y-70420000D03*
X52400000Y-72960000D03*
X52400000Y-75500000D03*
X52400000Y-78040000D03*
X52400000Y-80580000D03*
X52400000Y-83120000D03*
X52400000Y-85660000D03*
%TD*%
D10*
%TO.C,J2*%
X87900000Y-62800000D03*
D13*
X87900000Y-65340000D03*
X87900000Y-67880000D03*
X87900000Y-70420000D03*
X87900000Y-72960000D03*
X87900000Y-75500000D03*
X87900000Y-78040000D03*
X87900000Y-80580000D03*
X87900000Y-83120000D03*
X87900000Y-85660000D03*
%TD*%
M02*
