%TF.GenerationSoftware,KiCad,Pcbnew,7.0.6*%
%TF.CreationDate,2023-07-24T12:21:57+01:00*%
%TF.ProjectId,Hypersoniq_Components,48797065-7273-46f6-9e69-715f436f6d70,rev?*%
%TF.SameCoordinates,Original*%
%TF.FileFunction,Paste,Top*%
%TF.FilePolarity,Positive*%
%FSLAX46Y46*%
G04 Gerber Fmt 4.6, Leading zero omitted, Abs format (unit mm)*
G04 Created by KiCad (PCBNEW 7.0.6) date 2023-07-24 12:21:57*
%MOMM*%
%LPD*%
G01*
G04 APERTURE LIST*
G04 Aperture macros list*
%AMRoundRect*
0 Rectangle with rounded corners*
0 $1 Rounding radius*
0 $2 $3 $4 $5 $6 $7 $8 $9 X,Y pos of 4 corners*
0 Add a 4 corners polygon primitive as box body*
4,1,4,$2,$3,$4,$5,$6,$7,$8,$9,$2,$3,0*
0 Add four circle primitives for the rounded corners*
1,1,$1+$1,$2,$3*
1,1,$1+$1,$4,$5*
1,1,$1+$1,$6,$7*
1,1,$1+$1,$8,$9*
0 Add four rect primitives between the rounded corners*
20,1,$1+$1,$2,$3,$4,$5,0*
20,1,$1+$1,$4,$5,$6,$7,0*
20,1,$1+$1,$6,$7,$8,$9,0*
20,1,$1+$1,$8,$9,$2,$3,0*%
G04 Aperture macros list end*
%ADD10RoundRect,0.250000X0.650000X-0.412500X0.650000X0.412500X-0.650000X0.412500X-0.650000X-0.412500X0*%
%ADD11RoundRect,0.237500X0.300000X0.237500X-0.300000X0.237500X-0.300000X-0.237500X0.300000X-0.237500X0*%
%ADD12RoundRect,0.237500X-0.250000X-0.237500X0.250000X-0.237500X0.250000X0.237500X-0.250000X0.237500X0*%
%ADD13RoundRect,0.237500X0.250000X0.237500X-0.250000X0.237500X-0.250000X-0.237500X0.250000X-0.237500X0*%
%ADD14R,1.000000X0.400000*%
%ADD15RoundRect,0.225000X0.375000X-0.225000X0.375000X0.225000X-0.375000X0.225000X-0.375000X-0.225000X0*%
%ADD16RoundRect,0.237500X-0.300000X-0.237500X0.300000X-0.237500X0.300000X0.237500X-0.300000X0.237500X0*%
%ADD17RoundRect,0.150000X-0.825000X-0.150000X0.825000X-0.150000X0.825000X0.150000X-0.825000X0.150000X0*%
%ADD18RoundRect,0.225000X-0.375000X0.225000X-0.375000X-0.225000X0.375000X-0.225000X0.375000X0.225000X0*%
%ADD19RoundRect,0.150000X0.725000X0.150000X-0.725000X0.150000X-0.725000X-0.150000X0.725000X-0.150000X0*%
G04 APERTURE END LIST*
D10*
%TO.C,C2*%
X55900000Y-56962500D03*
X55900000Y-53837500D03*
%TD*%
%TO.C,C1*%
X84400000Y-56962500D03*
X84400000Y-53837500D03*
%TD*%
D11*
%TO.C,C11*%
X71062500Y-85600000D03*
X69337500Y-85600000D03*
%TD*%
D12*
%TO.C,R1*%
X56287500Y-80600000D03*
X58112500Y-80600000D03*
%TD*%
D13*
%TO.C,R51*%
X64812500Y-136700000D03*
X62987500Y-136700000D03*
%TD*%
D14*
%TO.C,U2*%
X67300000Y-77675000D03*
X67300000Y-78325000D03*
X67300000Y-78975000D03*
X67300000Y-79625000D03*
X67300000Y-80275000D03*
X67300000Y-80925000D03*
X67300000Y-81575000D03*
X67300000Y-82225000D03*
X67300000Y-82875000D03*
X67300000Y-83525000D03*
X73100000Y-83525000D03*
X73100000Y-82875000D03*
X73100000Y-82225000D03*
X73100000Y-81575000D03*
X73100000Y-80925000D03*
X73100000Y-80275000D03*
X73100000Y-79625000D03*
X73100000Y-78975000D03*
X73100000Y-78325000D03*
X73100000Y-77675000D03*
%TD*%
D15*
%TO.C,D1*%
X88400000Y-57050000D03*
X88400000Y-53750000D03*
%TD*%
D14*
%TO.C,U3*%
X73000000Y-98525000D03*
X73000000Y-97875000D03*
X73000000Y-97225000D03*
X73000000Y-96575000D03*
X73000000Y-95925000D03*
X73000000Y-95275000D03*
X73000000Y-94625000D03*
X73000000Y-93975000D03*
X73000000Y-93325000D03*
X73000000Y-92675000D03*
X67200000Y-92675000D03*
X67200000Y-93325000D03*
X67200000Y-93975000D03*
X67200000Y-94625000D03*
X67200000Y-95275000D03*
X67200000Y-95925000D03*
X67200000Y-96575000D03*
X67200000Y-97225000D03*
X67200000Y-97875000D03*
X67200000Y-98525000D03*
%TD*%
D13*
%TO.C,R38*%
X64912500Y-126400000D03*
X63087500Y-126400000D03*
%TD*%
%TO.C,R67*%
X64512500Y-65300000D03*
X62687500Y-65300000D03*
%TD*%
D16*
%TO.C,C7*%
X63137500Y-81400000D03*
X64862500Y-81400000D03*
%TD*%
D13*
%TO.C,R64*%
X77712500Y-70100000D03*
X75887500Y-70100000D03*
%TD*%
%TO.C,R60*%
X77712500Y-66900000D03*
X75887500Y-66900000D03*
%TD*%
D11*
%TO.C,C6*%
X77262500Y-84600000D03*
X75537500Y-84600000D03*
%TD*%
D16*
%TO.C,C4*%
X76237500Y-110000000D03*
X77962500Y-110000000D03*
%TD*%
D11*
%TO.C,C25*%
X77262500Y-123200000D03*
X75537500Y-123200000D03*
%TD*%
D16*
%TO.C,C34*%
X63037500Y-139900000D03*
X64762500Y-139900000D03*
%TD*%
D13*
%TO.C,R35*%
X64912500Y-121600000D03*
X63087500Y-121600000D03*
%TD*%
D12*
%TO.C,R12*%
X75487500Y-86200000D03*
X77312500Y-86200000D03*
%TD*%
D13*
%TO.C,R57*%
X57712500Y-113300000D03*
X55887500Y-113300000D03*
%TD*%
D12*
%TO.C,R6*%
X75487500Y-76600000D03*
X77312500Y-76600000D03*
%TD*%
D11*
%TO.C,C17*%
X77162500Y-99600000D03*
X75437500Y-99600000D03*
%TD*%
%TO.C,C19*%
X64762500Y-96400000D03*
X63037500Y-96400000D03*
%TD*%
D16*
%TO.C,C8*%
X63137500Y-76600000D03*
X64862500Y-76600000D03*
%TD*%
D12*
%TO.C,R2*%
X75887500Y-62100000D03*
X77712500Y-62100000D03*
%TD*%
%TO.C,R31*%
X76187500Y-105200000D03*
X78012500Y-105200000D03*
%TD*%
%TO.C,R61*%
X75887500Y-63700000D03*
X77712500Y-63700000D03*
%TD*%
D13*
%TO.C,R5*%
X64912500Y-79800000D03*
X63087500Y-79800000D03*
%TD*%
%TO.C,R40*%
X64912500Y-118400000D03*
X63087500Y-118400000D03*
%TD*%
D11*
%TO.C,C39*%
X71062500Y-134100000D03*
X69337500Y-134100000D03*
%TD*%
D16*
%TO.C,C29*%
X69337500Y-119000000D03*
X71062500Y-119000000D03*
%TD*%
D13*
%TO.C,R47*%
X64812500Y-138300000D03*
X62987500Y-138300000D03*
%TD*%
D12*
%TO.C,R42*%
X82687500Y-114800000D03*
X84512500Y-114800000D03*
%TD*%
D16*
%TO.C,C24*%
X63137500Y-120000000D03*
X64862500Y-120000000D03*
%TD*%
%TO.C,C37*%
X75437500Y-138300000D03*
X77162500Y-138300000D03*
%TD*%
D11*
%TO.C,C27*%
X64862500Y-129600000D03*
X63137500Y-129600000D03*
%TD*%
D12*
%TO.C,R28*%
X82687500Y-105200000D03*
X84512500Y-105200000D03*
%TD*%
D16*
%TO.C,C15*%
X63037500Y-91600000D03*
X64762500Y-91600000D03*
%TD*%
D12*
%TO.C,R44*%
X76187500Y-111600000D03*
X78012500Y-111600000D03*
%TD*%
D13*
%TO.C,R20*%
X64812500Y-99600000D03*
X62987500Y-99600000D03*
%TD*%
D12*
%TO.C,R25*%
X62987500Y-94800000D03*
X64812500Y-94800000D03*
%TD*%
D11*
%TO.C,C31*%
X77962500Y-113200000D03*
X76237500Y-113200000D03*
%TD*%
D13*
%TO.C,R9*%
X64912500Y-78200000D03*
X63087500Y-78200000D03*
%TD*%
D11*
%TO.C,C16*%
X77162500Y-94800000D03*
X75437500Y-94800000D03*
%TD*%
D13*
%TO.C,R13*%
X64912500Y-84600000D03*
X63087500Y-84600000D03*
%TD*%
D12*
%TO.C,R48*%
X75387500Y-135100000D03*
X77212500Y-135100000D03*
%TD*%
D13*
%TO.C,R16*%
X64012500Y-108400000D03*
X62187500Y-108400000D03*
%TD*%
D12*
%TO.C,R52*%
X75387500Y-136700000D03*
X77212500Y-136700000D03*
%TD*%
D13*
%TO.C,R21*%
X64812500Y-93200000D03*
X62987500Y-93200000D03*
%TD*%
D17*
%TO.C,U1*%
X67725000Y-106190000D03*
X67725000Y-107460000D03*
X67725000Y-108730000D03*
X67725000Y-110000000D03*
X67725000Y-111270000D03*
X67725000Y-112540000D03*
X67725000Y-113810000D03*
X72675000Y-113810000D03*
X72675000Y-112540000D03*
X72675000Y-111270000D03*
X72675000Y-110000000D03*
X72675000Y-108730000D03*
X72675000Y-107460000D03*
X72675000Y-106190000D03*
%TD*%
D13*
%TO.C,R34*%
X64912500Y-128000000D03*
X63087500Y-128000000D03*
%TD*%
D18*
%TO.C,D2*%
X52000000Y-53750000D03*
X52000000Y-57050000D03*
%TD*%
D13*
%TO.C,R11*%
X77312500Y-81400000D03*
X75487500Y-81400000D03*
%TD*%
%TO.C,R15*%
X57712500Y-106800000D03*
X55887500Y-106800000D03*
%TD*%
%TO.C,R24*%
X64812500Y-98000000D03*
X62987500Y-98000000D03*
%TD*%
%TO.C,R53*%
X77212500Y-139900000D03*
X75387500Y-139900000D03*
%TD*%
D16*
%TO.C,C14*%
X75437500Y-101200000D03*
X77162500Y-101200000D03*
%TD*%
%TO.C,C20*%
X69337500Y-90600000D03*
X71062500Y-90600000D03*
%TD*%
%TO.C,C42*%
X69337500Y-72000000D03*
X71062500Y-72000000D03*
%TD*%
D13*
%TO.C,R59*%
X64012500Y-114900000D03*
X62187500Y-114900000D03*
%TD*%
%TO.C,R36*%
X77312500Y-121600000D03*
X75487500Y-121600000D03*
%TD*%
D11*
%TO.C,C32*%
X64762500Y-133500000D03*
X63037500Y-133500000D03*
%TD*%
D13*
%TO.C,R46*%
X64812500Y-144700000D03*
X62987500Y-144700000D03*
%TD*%
D16*
%TO.C,C30*%
X69337500Y-129000000D03*
X71062500Y-129000000D03*
%TD*%
D12*
%TO.C,R50*%
X62987500Y-141500000D03*
X64812500Y-141500000D03*
%TD*%
D11*
%TO.C,C38*%
X71062500Y-144100000D03*
X69337500Y-144100000D03*
%TD*%
D16*
%TO.C,C36*%
X75437500Y-133500000D03*
X77162500Y-133500000D03*
%TD*%
D13*
%TO.C,R68*%
X64512500Y-66900000D03*
X62687500Y-66900000D03*
%TD*%
D12*
%TO.C,R10*%
X75487500Y-78200000D03*
X77312500Y-78200000D03*
%TD*%
D13*
%TO.C,R66*%
X64512500Y-63700000D03*
X62687500Y-63700000D03*
%TD*%
D12*
%TO.C,R54*%
X75387500Y-144700000D03*
X77212500Y-144700000D03*
%TD*%
D11*
%TO.C,C3*%
X63962500Y-110000000D03*
X62237500Y-110000000D03*
%TD*%
D12*
%TO.C,R32*%
X75487500Y-118400000D03*
X77312500Y-118400000D03*
%TD*%
D16*
%TO.C,C23*%
X75537500Y-129600000D03*
X77262500Y-129600000D03*
%TD*%
D13*
%TO.C,R22*%
X77212500Y-93200000D03*
X75387500Y-93200000D03*
%TD*%
D12*
%TO.C,R23*%
X75387500Y-98000000D03*
X77212500Y-98000000D03*
%TD*%
%TO.C,R41*%
X75487500Y-120000000D03*
X77312500Y-120000000D03*
%TD*%
D13*
%TO.C,R58*%
X64012500Y-111600000D03*
X62187500Y-111600000D03*
%TD*%
D12*
%TO.C,R3*%
X62687500Y-62100000D03*
X64512500Y-62100000D03*
%TD*%
%TO.C,R37*%
X75487500Y-126400000D03*
X77312500Y-126400000D03*
%TD*%
D11*
%TO.C,C28*%
X64862500Y-124800000D03*
X63137500Y-124800000D03*
%TD*%
D13*
%TO.C,R17*%
X64012500Y-105200000D03*
X62187500Y-105200000D03*
%TD*%
D12*
%TO.C,R27*%
X75387500Y-91600000D03*
X77212500Y-91600000D03*
%TD*%
D11*
%TO.C,C18*%
X64762500Y-101200000D03*
X63037500Y-101200000D03*
%TD*%
D12*
%TO.C,R39*%
X63087500Y-123200000D03*
X64912500Y-123200000D03*
%TD*%
D16*
%TO.C,C21*%
X69337500Y-100600000D03*
X71062500Y-100600000D03*
%TD*%
D12*
%TO.C,R29*%
X82687500Y-106800000D03*
X84512500Y-106800000D03*
%TD*%
D16*
%TO.C,C9*%
X75537500Y-75000000D03*
X77262500Y-75000000D03*
%TD*%
D13*
%TO.C,R4*%
X64912500Y-86200000D03*
X63087500Y-86200000D03*
%TD*%
%TO.C,R55*%
X64812500Y-143100000D03*
X62987500Y-143100000D03*
%TD*%
D11*
%TO.C,C12*%
X71062500Y-75600000D03*
X69337500Y-75600000D03*
%TD*%
D13*
%TO.C,R56*%
X57712500Y-114900000D03*
X55887500Y-114900000D03*
%TD*%
%TO.C,R71*%
X64512500Y-71700000D03*
X62687500Y-71700000D03*
%TD*%
D11*
%TO.C,C5*%
X64862500Y-75000000D03*
X63137500Y-75000000D03*
%TD*%
D13*
%TO.C,R69*%
X64512500Y-68500000D03*
X62687500Y-68500000D03*
%TD*%
%TO.C,R14*%
X57712500Y-105200000D03*
X55887500Y-105200000D03*
%TD*%
D12*
%TO.C,R19*%
X75387500Y-96400000D03*
X77212500Y-96400000D03*
%TD*%
D11*
%TO.C,C41*%
X71062500Y-63300000D03*
X69337500Y-63300000D03*
%TD*%
D13*
%TO.C,R26*%
X64812500Y-90000000D03*
X62987500Y-90000000D03*
%TD*%
D12*
%TO.C,R33*%
X75487500Y-124800000D03*
X77312500Y-124800000D03*
%TD*%
%TO.C,R30*%
X76187500Y-108400000D03*
X78012500Y-108400000D03*
%TD*%
%TO.C,R70*%
X62687500Y-70100000D03*
X64512500Y-70100000D03*
%TD*%
D16*
%TO.C,C40*%
X62237500Y-113300000D03*
X63962500Y-113300000D03*
%TD*%
D12*
%TO.C,R7*%
X75487500Y-83000000D03*
X77312500Y-83000000D03*
%TD*%
D19*
%TO.C,U6*%
X72775000Y-69605000D03*
X72775000Y-68335000D03*
X72775000Y-67065000D03*
X72775000Y-65795000D03*
X67625000Y-65795000D03*
X67625000Y-67065000D03*
X67625000Y-68335000D03*
X67625000Y-69605000D03*
%TD*%
D12*
%TO.C,R45*%
X76187500Y-114800000D03*
X78012500Y-114800000D03*
%TD*%
D11*
%TO.C,C22*%
X77962500Y-106800000D03*
X76237500Y-106800000D03*
%TD*%
D12*
%TO.C,R62*%
X75887500Y-68500000D03*
X77712500Y-68500000D03*
%TD*%
D16*
%TO.C,C35*%
X63037500Y-135100000D03*
X64762500Y-135100000D03*
%TD*%
D11*
%TO.C,C26*%
X77262500Y-128000000D03*
X75537500Y-128000000D03*
%TD*%
D12*
%TO.C,R63*%
X75887500Y-65300000D03*
X77712500Y-65300000D03*
%TD*%
%TO.C,R49*%
X75387500Y-141500000D03*
X77212500Y-141500000D03*
%TD*%
%TO.C,R8*%
X63087500Y-83000000D03*
X64912500Y-83000000D03*
%TD*%
D16*
%TO.C,C10*%
X75537500Y-79800000D03*
X77262500Y-79800000D03*
%TD*%
D14*
%TO.C,U4*%
X73100000Y-126925000D03*
X73100000Y-126275000D03*
X73100000Y-125625000D03*
X73100000Y-124975000D03*
X73100000Y-124325000D03*
X73100000Y-123675000D03*
X73100000Y-123025000D03*
X73100000Y-122375000D03*
X73100000Y-121725000D03*
X73100000Y-121075000D03*
X67300000Y-121075000D03*
X67300000Y-121725000D03*
X67300000Y-122375000D03*
X67300000Y-123025000D03*
X67300000Y-123675000D03*
X67300000Y-124325000D03*
X67300000Y-124975000D03*
X67300000Y-125625000D03*
X67300000Y-126275000D03*
X67300000Y-126925000D03*
%TD*%
D11*
%TO.C,C33*%
X77162500Y-143100000D03*
X75437500Y-143100000D03*
%TD*%
D16*
%TO.C,C13*%
X62237500Y-106800000D03*
X63962500Y-106800000D03*
%TD*%
D12*
%TO.C,R65*%
X75887500Y-71700000D03*
X77712500Y-71700000D03*
%TD*%
%TO.C,R43*%
X82687500Y-113200000D03*
X84512500Y-113200000D03*
%TD*%
%TO.C,R18*%
X75387500Y-90000000D03*
X77212500Y-90000000D03*
%TD*%
D14*
%TO.C,U5*%
X67300000Y-136175000D03*
X67300000Y-136825000D03*
X67300000Y-137475000D03*
X67300000Y-138125000D03*
X67300000Y-138775000D03*
X67300000Y-139425000D03*
X67300000Y-140075000D03*
X67300000Y-140725000D03*
X67300000Y-141375000D03*
X67300000Y-142025000D03*
X73100000Y-142025000D03*
X73100000Y-141375000D03*
X73100000Y-140725000D03*
X73100000Y-140075000D03*
X73100000Y-139425000D03*
X73100000Y-138775000D03*
X73100000Y-138125000D03*
X73100000Y-137475000D03*
X73100000Y-136825000D03*
X73100000Y-136175000D03*
%TD*%
M02*
